<svg xmlns="http://www.w3.org/2000/svg" width="166.98" height="300"><defs><radialGradient id="b" cx="0" cy="0" r="1" gradientTransform="matrix(23.83 0 0 -23.838 104.8 804.84)" gradientUnits="userSpaceOnUse"><stop offset="0" stop-color="#fff200"/><stop offset=".281" stop-color="#fab10b"/><stop offset=".62" stop-color="#f68712"/><stop offset=".827" stop-color="#f15029"/><stop offset="1" stop-color="#f1471d"/></radialGradient><radialGradient id="c" cx="0" cy="0" r="1" gradientTransform="matrix(23.83 0 0 -23.837 104.8 804.84)" gradientUnits="userSpaceOnUse"><stop offset="0" stop-color="#c6bc00"/><stop offset=".281" stop-color="#c28908"/><stop offset=".62" stop-color="#c0680e"/><stop offset=".827" stop-color="#bd3e1f"/><stop offset="1" stop-color="#bc3616"/></radialGradient><linearGradient id="a" x2="1" gradientTransform="matrix(0 -9.0063 -9.0063 0 110.74 737.19)" gradientUnits="userSpaceOnUse"><stop offset="0" stop-color="#f38130"/><stop offset=".193" stop-color="#f38130"/><stop offset=".888" stop-color="#ee5332"/><stop offset="1" stop-color="#eb2c35"/></linearGradient></defs><g style="fill:#336195"><path d="M7.767 0c-.495-2.81-1.33-7.677-1.33-7.677L4.23-9.999s.674 5.223 1.046 8c.164 1.224-.004 1.59-.198 1.823-.136.164-.336.251-.578.264L3.472.143c.135.081 1.197.728 1.456.867 0 0 2.194 1.312 2.346 1.398.186.105.85.216.85-.412a1.799 1.799 0 0 0-.059-.488 65.734 65.734 0 0 1-.149-.661L7.767 0" style="fill:#336195" transform="matrix(2.05995 0 0 -2.05995 139.07 279.162)"/><path d="M0 0c-.728 3.431 1.923 3.824 1.923 3.824 2.391.225 2.391-1.012 2.443-3.43C4.418-2.025.727-3.43 0 0Zm2.126 5.922a.911.911 0 0 1-.341-.236L-.886 2.725a.972.972 0 0 1-.203-.36c-.287-.918-1.243-4.588 1.125-6.551 2.605-2.159 4.193 1.398 4.321 1.701l.022.045 1.762 3.597.085.257c.18.969 1.008 6.506-4.1 4.508" style="fill:#336195" transform="matrix(2.05995 0 0 -2.05995 114.948 288.782)"/><path d="m0 0-2.165-3.324-7.695-.585s4.253 3.786 5.53 6.924c1.277 3.138-1.444 3.938-3.442 1.538l1.103 2.501-.003-.001.087.192c.281.326 1.667.776 1.667.776s3.032 1.018 3.387-1.604c0 0 .321-2.002-.649-3.766-.392-.896-1.03-1.895-2.035-2.977a6.689 6.689 0 0 0-1.24-1.288c1.366-.043 3.031.47 3.537.638 0 0 1.044.387 1.918.976m17.476 0-2.165-3.324-7.695-.585s4.253 3.786 5.53 6.924c1.277 3.138-1.444 3.938-3.442 1.538l1.103 2.501-.003-.001.087.192c.281.326 1.667.776 1.667.776s3.032 1.018 3.387-1.604c0 0 .321-2.002-.649-3.766-.392-.896-1.03-1.895-2.035-2.977a6.689 6.689 0 0 0-1.24-1.288c1.366-.043 3.031.47 3.537.638 0 0 1.044.387 1.918.976" style="fill:#336195" transform="matrix(2.05995 0 0 -2.05995 109.86 292.016)"/><path d="M0 0c.414.417.951 1.317 1.008 2.055.012.153.016.728.016.869 0 1.236-.098 2.95-.298 4.631-.107.89-.253 1.562-.286 1.7-.071.303-.272.708-.272.708s-.189-.038-.313-.072c-.061-.016-.704-.303-1.36-.595l-1.581-.702s.099-.195.218-.482c.155-.373 1.045-3.237 1.045-5.997 0-1.26-.254-1.92-.324-2.075-.082-.178-.254-.27-.345-.314-.25-.12-1-.317-2.092-.317-.219 0-.422.007-.62.012-.386.009-.941.015-1.382.083-.629.097-.938.377-1.085.597-.061.135-.126.319-.22.778-.168.814-.314 2.016-.417 3.051a61.07 61.07 0 0 0-.169 2.071l.025.204a.878.878 0 0 0 .211.376c.192.209.403.442.676.753l-.411-.101c-.359-.087-.873-.211-1.205-.305-.518-.146-.861-.328-1.155-.824a1.768 1.768 0 0 1-.129-.289c-.077-.268-.096-.891-.096-1.386 0-2.338.179-4.716.988-5.535.169-.171.347-.32.613-.475.613-.356 1.56-.689 3.014-.689 1.054 0 2.009.231 2.998.581.734.26 1.391.543 1.843.83C-.67-.583-.282-.285 0 0" style="fill:#336195" transform="matrix(2.05995 0 0 -2.05995 30.655 294.24)"/><path d="m0 0-.065-.015v-.001h-.001l-.14.02C-1.524.25-2.231.787-2.611 1.216l-.099.107c-.258.263-.33.456-.348.57l.033.114c.496.578 1.271.427 2.083.331l.21-.436.258-.482c.156-.285.3-.575.441-.868C.036.406.207.105 0 0Zm-2.649 6.499c.293-.692 1.002-2.289 1.283-2.986-.535-.067-1.113-.262-1.583-.468-.147-.064-1.004-.619-1.004-1.326 0-.23.082-.388.131-.478.258-.54 1.059-1.677 3.41-2.536.282-.109.45-.15.45-.15.282-.067.567-.111.856-.132.274-.019.556-.029.826.035.229.055.448.173.609.347.168.18.243.417.272.657.122 1.036-.35 1.997-.757 2.907-.058.129-.115.258-.17.388.788.196 1.472.433 2.209.777.989.462 1.392.838 1.438.864.555-.229 1.486-.4 1.95-.456-.618-.205-1.222-.477-1.753-.856-.522-.372-.974-.861-1.199-1.469-.264-.715-.225-1.592.274-2.198.517-.627 1.358-.906 2.131-1.055a11.41 11.41 0 0 1 2.159-.197c2.932 0 5.013.55 6.034.937.774.294 1.521.698 2.125 1.271.292.276.566.595.736.962.08.174.152.372.119.566-.039.228-.22.389-.39.526-.064.05-.259.204-.454.346-.21.154-.42.296-.442.313-.16.129-.169.136-.332-.023-.097-.095-1.193-.989-1.368-1.132.276-.233.562-.453.829-.695.152-.137.398-.338.392-.566-.007-.276-.291-.384-.52-.475a16.55 16.55 0 0 0-.926-.344c-1.371-.459-2.83-.701-4.276-.597a8.429 8.429 0 0 0-2.109.418 7.229 7.229 0 0 0-.986.417c-.292.151-.594.312-.829.547a1.279 1.279 0 0 0-.353.821c-.021.315.095.619.296.859.382.461.96.699 1.502.918.622.251 1.252.483 1.893.681.397.121.785.272 1.114.529.274.215.82.738 1.154 1.106a36.009 36.009 0 0 0-1.611-.046c-2.069 0-2.685.395-2.992.554-.356.185-.738.412-.924.784-.21.423.018.865.325 1.169.356.353.816.588 1.287.746.418.14 1.123.223 1.564.204.42-.018.845-.076 1.237-.23.218-.086.417-.215.6-.36.097-.076.146-.002.233.053.802.508 1.864 1.169 2.015 1.257-.141.183-.311.37-.473.484-.188.133-.4.228-.618.299-.474.155-.977.192-1.473.201-1.018.018-2.042-.036-3.04-.25-.909-.195-1.801-.523-2.569-1.056-.681-.473-1.295-1.109-1.571-1.907-.274-.794-.232-1.736.232-2.452.062-.095.132-.185.208-.268-.612-.243-1.261-.366-1.909-.469a20.117 20.117 0 0 0-1.243-.146l-.156.004-.108.279c-.269.676-1.419 3.609-2.189 5.544l-.157.42c.001.404.295 1.003.555 1.819-.502-.405-1.213-1.011-1.837-1.515-.594-.479-1.112-.863-1.223-.962-.215-.191-.41-.404-.491-.685-.082-.286-.024-.56.081-.831.055-.146.121-.288.134-.445a1.249 1.249 0 0 0-.07-.461c-.083-.285-1.264-3.072-2.052-4.508-.16-.29-.773-1.483-.931-1.662-.153-.172-.37-.273-.588-.345a3.705 3.705 0 0 0-1.04-.15c-.538.012-.639.092-.742.094l-.099-.084c-.638-.554-1.367-.995-2.123-1.526.39-.143.936-.376 1.348-.449a3.135 3.135 0 0 1 1.217.014c.391.087.766.241 1.111.441 3.511 2.038 5.341 7.388 5.341 7.388" style="fill:#336195" transform="matrix(2.05995 0 0 -2.05995 51.74 296.033)"/><path d="M0 0h.427c.146 0 .28.014.407.041a.763.763 0 0 1 .327.147.666.666 0 0 1 .22.266c.053.113.08.247.08.407 0 .167-.027.3-.08.407a.698.698 0 0 1-.22.26.864.864 0 0 1-.327.141c-.127.026-.261.04-.407.04H0Zm-1.675 2.89H.32c.964 0 1.671-.161 2.128-.494.454-.334.685-.854.685-1.561 0-.635-.221-1.128-.658-1.488-.433-.354-1.047-.534-1.829-.534H0v-2.189h-1.675V2.89" style="fill:#336195" transform="matrix(2.05995 0 0 -2.05995 160.514 259.88)"/><path d="M0 0c0-.434-.07-.807-.204-1.121a1.99 1.99 0 0 0-.557-.767 2.27 2.27 0 0 0-.874-.454 3.935 3.935 0 0 0-1.118-.146c-.403 0-.777.046-1.121.146-.33.093-.623.247-.867.454-.241.207-.427.46-.561.767-.133.314-.197.687-.197 1.121v3.884h1.669V.274c0-.207.019-.407.053-.588.03-.18.087-.347.167-.486.08-.14.19-.247.327-.327.14-.08.316-.127.53-.127.217 0 .396.047.534.127.137.08.243.187.327.327.08.139.137.306.17.486.033.181.047.381.047.588v3.61H0V0" style="fill:#336195" transform="matrix(2.05995 0 0 -2.05995 154.664 261.92)"/><path d="M0 0c-.244-.06-.5-.114-.788-.167a6.123 6.123 0 0 0-1.071-.079c-.42 0-.848.053-1.278.166-.427.113-.811.3-1.154.548a2.955 2.955 0 0 0-.844.994c-.217.413-.33.914-.33 1.508 0 .54.09 1.014.266 1.434.184.407.434.747.751 1.021.321.267.704.474 1.148.607.437.133.914.2 1.431.2.321 0 .634-.027.941-.093.304-.06.614-.134.917-.227l-.136-1.355a3.693 3.693 0 0 1-.802.334 3.39 3.39 0 0 1-.83.107c-.301 0-.57-.053-.81-.153a1.787 1.787 0 0 1-1.008-1.068 2.18 2.18 0 0 1-.137-.807c0-.308.047-.581.151-.828.109-.247.25-.454.433-.627.184-.167.407-.3.657-.394.26-.086.544-.133.848-.133.273 0 .547.033.813.1.275.06.524.14.751.227L0 0" style="fill:#336195" transform="matrix(2.05995 0 0 -2.05995 141.398 266.534)"/><path d="M0 0h.648c.628 0 1.111.154 1.448.474.33.313.501.787.501 1.421 0 .627-.171 1.101-.511 1.421-.34.314-.821.474-1.438.474H0Zm-1.67 5.025H.615c.544 0 1.045-.047 1.498-.14a3.043 3.043 0 0 0 1.171-.501c.327-.234.581-.554.767-.954.177-.401.274-.908.274-1.508 0-.587-.097-1.081-.285-1.482-.182-.4-.44-.727-.766-.98a3.158 3.158 0 0 0-1.178-.534 6.13 6.13 0 0 0-1.481-.167H-1.67v6.266" style="fill:#336195" transform="matrix(2.05995 0 0 -2.05995 115.484 264.268)"/><path d="M0 0h1.675v-5.025h2.583v-1.241H0V0" style="fill:#336195" transform="matrix(2.05995 0 0 -2.05995 101.373 253.907)"/><path d="M0 0h.446C.58 0 .717.007.863.014c.148.013.28.039.394.086.12.047.217.12.294.214.08.1.116.234.116.414 0 .146-.036.26-.103.353a.603.603 0 0 1-.266.214 1.62 1.62 0 0 1-.391.1c-.147.013-.301.027-.461.027H0Zm-1.662 2.603h2.975c.278 0 .538-.027.788-.094.244-.06.46-.16.644-.287.184-.133.334-.3.437-.5.104-.194.157-.427.157-.694 0-.421-.101-.768-.293-1.035-.204-.273-.504-.453-.911-.546v-.021a.674.674 0 0 0 .32-.173c.08-.074.15-.173.21-.287.061-.12.113-.253.167-.407.053-.154.113-.327.19-.514l.614-1.708H1.894l-.363 1.128a8.906 8.906 0 0 1-.233.667c-.081.173-.16.314-.244.414a.736.736 0 0 1-.3.213 1.17 1.17 0 0 1-.401.053H0v-2.475h-1.662v6.266" style="fill:#336195" transform="matrix(2.05995 0 0 -2.05995 92 259.283)"/><path d="M0 0c0-.26.027-.507.081-.754.053-.24.133-.453.246-.641.113-.186.261-.333.441-.446.18-.107.393-.167.654-.167.247 0 .46.06.64.167.18.113.327.26.44.446.114.188.194.401.248.641.06.247.087.494.087.754 0 .267-.027.52-.087.767a2.1 2.1 0 0 1-.248.641c-.113.18-.26.327-.44.434-.18.107-.393.16-.64.16-.261 0-.474-.053-.654-.16a1.307 1.307 0 0 1-.441-.434A2.097 2.097 0 0 1 .081.767 3.563 3.563 0 0 1 0 0Zm-1.728 0c0 .501.067.954.201 1.355.14.4.333.74.6 1.021.26.28.587.493.981.64.394.147.847.22 1.368.22a3.86 3.86 0 0 0 1.354-.22 2.51 2.51 0 0 0 .981-.64c.266-.281.467-.621.6-1.021.134-.401.201-.854.201-1.355 0-.5-.067-.947-.201-1.347a2.717 2.717 0 0 0-.6-1.028 2.754 2.754 0 0 0-.987-.648 3.854 3.854 0 0 0-1.348-.219c-.521 0-.974.073-1.361.219a2.75 2.75 0 0 0-.988.648c-.267.28-.46.627-.6 1.028-.134.4-.201.847-.201 1.347" style="fill:#336195" transform="matrix(2.05995 0 0 -2.05995 76.983 260.375)"/><path d="M0 0h1.708l.808-4.811h.012L3.376 0h2.122l.881-4.811h.013L7.213 0h1.628L7.439-6.266H5.284l-.881 4.811h-.019l-.827-4.811H1.395L0 0" style="fill:#336195" transform="matrix(2.05995 0 0 -2.05995 53.972 253.907)"/><path d="M0 0h.495c.152 0 .3.013.453.027.147.013.28.047.401.1.12.047.219.12.293.213.066.1.107.227.107.387a.729.729 0 0 1-.113.408.761.761 0 0 1-.287.227 1.53 1.53 0 0 1-.401.093 4.97 4.97 0 0 1-.434.02H0Zm0 2.609h.468c.14 0 .273.007.407.034.126.019.247.053.353.099.1.047.187.114.253.201.068.087.108.2.108.333a.533.533 0 0 1-.348.528c-.099.04-.22.066-.353.079a3.64 3.64 0 0 1-.401.021H0Zm-1.667 2.476h2.882c.294 0 .567-.027.814-.094s.46-.167.647-.293a1.38 1.38 0 0 0 .427-.494c.1-.2.147-.434.147-.708 0-.393-.094-.707-.287-.934-.187-.233-.46-.406-.814-.527v-.02c.84-.173 1.261-.634 1.261-1.381 0-.38-.073-.687-.213-.914a1.653 1.653 0 0 0-.581-.554 2.288 2.288 0 0 0-.787-.273 4.666 4.666 0 0 0-.854-.074h-2.642v6.266" style="fill:#336195" transform="matrix(2.05995 0 0 -2.05995 41.105 264.392)"/><path d="M0 0c0-.434-.066-.807-.2-1.121a1.96 1.96 0 0 0-.561-.767 2.175 2.175 0 0 0-.874-.454 3.887 3.887 0 0 0-1.114-.146c-.407 0-.78.046-1.121.146a2.234 2.234 0 0 0-.867.454c-.241.207-.427.46-.568.767-.127.314-.186.687-.186 1.121v3.884h1.661V.274c0-.207.02-.407.054-.588.033-.18.087-.347.167-.486a.872.872 0 0 1 .333-.327c.14-.08.307-.127.527-.127.221 0 .394.047.527.127.14.08.253.187.334.327.079.139.133.306.173.486.027.181.04.381.04.588v3.61H0V0" style="fill:#336195" transform="matrix(2.05995 0 0 -2.05995 35.168 261.92)"/><path d="M0 0h1.667v-5.025h2.597v-1.241H0V0" style="fill:#336195" transform="matrix(2.05995 0 0 -2.05995 13.37 253.907)"/><path d="M0 0c-.233-.06-.5-.114-.787-.167a5.996 5.996 0 0 0-1.067-.079c-.42 0-.841.053-1.268.166-.434.113-.82.3-1.161.548a2.932 2.932 0 0 0-.848.994c-.22.413-.327.914-.327 1.508 0 .54.094 1.014.274 1.434.173.407.427.747.748 1.021.32.267.7.474 1.14.607.44.133.914.2 1.428.2.327 0 .641-.027.948-.093.307-.06.607-.134.914-.227L-.14 4.557c-.266.147-.54.261-.8.334a3.428 3.428 0 0 1-.834.107c-.3 0-.568-.053-.808-.153a1.825 1.825 0 0 1-1.014-1.068 2.264 2.264 0 0 1-.133-.807c0-.308.053-.581.16-.828a1.72 1.72 0 0 1 .426-.627c.181-.167.401-.3.662-.394.254-.086.534-.133.84-.133.274 0 .547.033.821.1.266.06.513.14.741.227L0 0" style="fill:#336195" transform="matrix(2.05995 0 0 -2.05995 11.238 266.534)"/></g><path d="M0 0c2.781-1.243 7.803-2.388 16.862-2.389h.016C25.937-2.388 30.958-1.243 33.74 0c2.266 1.012 3.282 3.455 2.315 5.584 0 0-1.085 2.086-2.438 4.657-.447.849-.924 1.751-1.399 2.649-1.831 3.453-3.66 6.836-3.803 6.856-4.943.687-15.765-7.309-25.912-5.061-.046.01-2.344-4.264-3.785-7.055-.56-1.084-.991-1.944-1.11-2.243l-.065-.191C-3.145 3.166-2.129.951 0 0" style="fill:#fcd006" transform="matrix(2.05995 0 0 -2.05995 49.44 232.318)"/><path d="M0 0c-.446.849-.923 1.751-1.398 2.649-5.816-3.157-15.715-10.265-27.533-6.89a238.232 238.232 0 0 1-5.968 1.63c-.56-1.084-.991-1.944-1.111-2.243l-.064-.191c1.514-.262 4.411-.992 9.902-2.728C-14.165-11.569-4.436-1.574 0 0" style="fill:#f9a70d" transform="matrix(2.05995 0 0 -2.05995 118.677 211.225)"/><path d="M0 0c2.781-1.243 7.803-2.388 16.861-2.389h.016C25.936-2.388 30.958-1.243 33.739 0c2.266 1.012 3.283 3.455 2.316 5.584 0 0-1.085 2.086-2.439 4.657C29.18 8.667 19.451-1.328 7.444 2.468 1.953 4.204-.944 4.934-2.458 5.196-3.145 3.166-2.13.951 0 0" style="fill:#e98319" transform="matrix(2.05995 0 0 -2.05995 49.44 232.318)"/><path d="m0 0-1.505 2.173C-6.894 3.57-14.651-1.634-23.311-2.493l-1.204-2.65C-14.303-5.856-5.834 1.189 0 0" style="fill:#33bdf2" transform="matrix(2.05995 0 0 -2.05995 106.173 188.771)"/><path d="M0 0v-7.864h2.448v2.841H4.21l.626 1.717H2.448v1.593h2.967L6.039 0H0" style="fill:#fff;fill-rule:evenodd" transform="matrix(2.05995 0 0 -2.05995 61.503 209.268)"/><path d="M104.19 704.08h2.449v7.864h-2.449z" style="fill:#fff" transform="matrix(2.05995 0 0 -2.05995 -139.146 1675.848)"/><path d="M0 0v-7.864h2.447v2.841H4.21l.626 1.717H2.447v1.593h2.967L6.038 0H0" style="fill:#fff;fill-rule:evenodd" transform="matrix(2.05995 0 0 -2.05995 83.987 209.268)"/><path d="m0 0-.98 3.276L-1.925 0Zm3.196-2.568H.723L.404-1.512h-2.766l-.305-1.056h-2.41l2.864 7.864H.332l2.864-7.864" style="fill:#fff;fill-rule:evenodd" transform="matrix(2.05995 0 0 -2.05995 104.298 220.185)"/><path d="M116.85 725.66c-1.413 1.873-2.951 4.293-2.951 10.239l-9.257-12.344c9.061 3.357 12.208 2.105 12.208 2.105" style="fill:url(#a)" transform="matrix(2.05995 0 0 -2.05995 -139.146 1675.848)"/><path d="M0 0c.065-.225.174-.616.319-1.16a191.957 191.957 0 0 0 3.125-13.168c5.45-27.342 2.074-44.143.076-50.77 4.221.849 6.92 2.041 6.92 2.041l.242 5.23c.463 6.125 1.47 11.883 2.205 15.522C8.274-13.743-.061.243-.061.243L0 0" style="fill:#75b82c" transform="matrix(2.05995 0 0 -2.05995 51.424 56.708)"/><path d="m0 0 .061-.243.041-.145c.979-3.384 8.332-29.616 10.643-57.666.464 6.119 1.47 11.871 2.204 15.506C8.336-13.986 0 0 0 0" style="fill:#5b8b2e" transform="matrix(2.05995 0 0 -2.05995 51.296 56.213)"/><path d="M0 0a93.145 93.145 0 0 1-1.07-11.458l.227.408C.866-7.989 3.57-3.724 6.416-.192l1.631 2.026c.487 6.907 1.689 15.737 4.327 26.154 1.638 6.466 3.828 13.54 6.743 21.142C19.117 49.13 4.233 27.34 0 0" style="fill:#52a637" transform="matrix(2.05995 0 0 -2.05995 78.137 158.593)"/><path d="M0 0c1.354 14.118 7.367 28.231 13.217 39.038v-.001.001c1.638 6.466 3.828 13.54 6.743 21.142 0 0-14.884-21.79-19.117-49.13A93.145 93.145 0 0 1-.227-.408L0 0l.001.001L0 0" style="fill:#126232" transform="matrix(2.05995 0 0 -2.05995 76.407 181.355)"/><path d="M0 0c2.053-5.867 6.748-21.52 8.777-32.042-.513 11.676 2.015 28.661 2.001 28.66C5.991-3.547 1.962-1.457 0 0" style="fill:#52a637" transform="matrix(2.05995 0 0 -2.05995 61.86 66.699)"/><path d="M0 0c-2.956.649-5.348 1.981-6.723 3.002C-4.67-2.864.025-18.518 2.054-29.039.137-18.871-.046-5.048 0 0" style="fill:#126232" transform="matrix(2.05995 0 0 -2.05995 75.706 72.878)"/><path d="M0 0c-.493-3.576-2.001-13.317-2.129-22.307C2.051-9.655 10.87 4.468 12.158 7.599A17.234 17.234 0 0 0 0 0" style="fill:#2a9533" transform="matrix(2.05995 0 0 -2.05995 87.613 73.373)"/><path d="M124.54 796.7c0-9.273-7.518-16.792-16.792-16.792-9.273 0-16.791 7.519-16.791 16.792 0 9.273 7.518 16.791 16.791 16.791 9.274 0 16.792-7.518 16.792-16.791" style="fill:url(#b)" transform="matrix(2.05995 0 0 -2.05995 -139.146 1675.848)"/><path d="M120.46 806.38c1.487-4.538 1.041-9.48-1.736-13.831-4.9-7.673-15.046-9.869-22.663-4.905a16.411 16.411 0 0 0-2.834 2.349c2.527-5.507 8.086-9.333 14.543-9.333 8.835 0 15.996 7.159 15.996 15.991 0 3.661-1.235 7.034-3.306 9.729" style="fill:url(#c)" transform="matrix(2.05995 0 0 -2.05995 -139.146 1675.848)"/><path d="M0 0c.201.129.475.115.827-.039.351-.154.638-.395.858-.717L1.504-.84.383-1.05c-.078 0-.437.056-1.076.163l-.018.003c.089.342.325.637.711.884Zm16.198 2.874c-.058 3.582-.847 6.225-3.215 9.461-.964 1.319-2.167 2.356-3.311 3.145a26.96 26.96 0 0 1-3.059 1.615s-.799.453-1.041 0c-.278-.519-.74-1.138-1.186-1.794-1.009-1.47-2.014-2.678-3.015-3.623C-.135 10.27-1.723 9.355-3.396 8.94a5.64 5.64 0 0 0-3.389.201c-1.242.464-1.999 1.241-2.269 2.334-.351 1.41.27 2.3 1.306 3.116 1.493 1.173 4.24 2.344 4.727 2.504.383.126 1.533 1.308-2.029 0-1.276-.469-3.153-1.573-4.694-2.938a15.237 15.237 0 0 1-1.612-1.757 16.458 16.458 0 0 1-2.779-5.685s-1.018-3.756 0-7.57c.174-.653.274-.982.453-1.484 2.724-7.595 8.419-6.833 9.044-6.677.627.157 3.076.574 3.49 3.626.043.321.058 1.098.011 2.333l.032-.01c.673-.24 1.527-.308 2.565-.199.912.108 1.542.274 1.889.498.311.199.441.599.391 1.201A3.501 3.501 0 0 1 3.2-.034c-.587.913-1.217 1.588-1.883 2.025-.784.515-1.472.577-2.067.202-1.028-.649-1.167-3.668-1.279-4.679-.418-3.87-3.443-3.995-3.443-3.995-7.399-.414-7.616 9.125-7.616 9.125.1 2.716.665 4.928 1.391 6.703 1.711-3.618 3.64-7.93 4.301-9.426.148-.329.166-.417.325-.463.17-.047.201.12.312.4.159.423.217.944-.029 1.746-.283.915-2.231 5.233-4.151 9.354.324.605.659 1.144.986 1.616-.097-.658-.052-1.381.137-2.148.341-1.367 1.504-2.907 2.904-3.501.903-.388 1.854-.61 2.832-.585-.418-.494-1.079-1.334-.962-1.581.17-.359 1.348-1.457 1.333-2.952l-.012-.208c-.094-.848-.611-1.77-1.608-2.756-.997-.985-1.711-1.302-2.711-1.595a4.627 4.627 0 0 0-1.329-.193c-.349 0-.642.037-.902.057-.315.025-.665.027-.684-.222-.013-.147.913-1.212 2.571-1.43.219-.028.432-.036.637-.036h.008c1.471 0 2.688.621 3.616 1.793.896 1.145 1.383 2.866 1.591 4.714.046.409.067.796.067 1.163 0 1.387-.329 2.484-.997 3.296.205.029.41.066.618.116 3.535.881 6.097 4.282 8.331 8.838 0 0 .285.534.51 1.044a77.177 77.177 0 0 1 2.692-6.505c1.4-3 3.019-6.633 3.574-7.889.124-.276.145-.353.233-.354.093.003.082.171.097.472.02.451-.028.969-.27 1.669-.402 1.164-4.502 10.157-4.561 10.32-.06.158-.146.346-.023.352.116.005.236-.093.367-.176.131-.082.797-.61 1.729-1.432.922-.825 3.53-4.105 4.094-8.367.263-2.018.696-4.889-2.001-9.09a19.653 19.653 0 0 0-2.712-3.32c.159.288.224.574.224.743-.001.283-.228.26-.436.212-.156-.038-.507-.227-.688-.271-.348-.087-.666.044-.623.265.039.22.719.573.912.749.159.146-.328.266-.923-.129-.449-.3-.603-1.038-.321-1.301.285-.258.596-.031.881-.064.278-.032.402-.256-.78-.888-.569-.305.366-.299.98-.047-1.482-1.34-2.896-2.285-3.773-2.873-.58-.391-.613-.444-.604-.511.024-.122.146-.107.803.074.444.123 1.223.325 2.045.708 3.311 1.546 5.294 3.528 6.65 5.56 1.426 2.141 2.686 5.294 2.635 8.579zM4.004 1.838C4.613 1.398 5.465.632 5.993-.37c.635-1.2.804-2.371.506-3.508l-.023-.087c-.47.55-1.623 3.512-2.472 5.803zM5.478-9.669c.96 1.192 1.167 2.914 1.538 4.003.686-.255 1.494-.212 2.039-.046.508.154.744.317 1.03.525 2.025 1.476 2.748 7.566-1.276 12.081-1.695 1.901-5.026 2.914-5.166 2.949-.119.029-.209.067-.258-.026-.05-.096.061-.337.126-.501.06-.165.844-2.024 1.18-2.814a3.01 3.01 0 0 1 .398-.7c.127-.152.139-.15.158-.133.015.023-.012.143-.061.288-.059.184-.121.363-.233.711-.126.382-.296.882-.301.934.127-.041.294-.076.538-.132.336-.183 3.311-.616 4.931-6.132.984-3.348-2.32-5.617-2.764-5.408.173 2.06-.2 3.957-1.12 5.697-.777 1.476-1.802 2.515-3.073 3.124-.17.08-.445-.062-.409-.183.1-3.023 2.843-8.112 3.462-9.17C5.665-6.244 3.906-8.22 2.732-8.95 1.56-9.681.364-10.199-1.813-10.295c-2.862-.126-4.521.671-5.625.992-.607.177-.556-.225-.556-.242-.001-.137.274-.426.78-.771a15.509 15.509 0 0 1 7.453-2.233c2.82.088 4.819 2.361 5.239 2.88zM-5.367 14.665c-.298-.168-1.012-3.029-.804-3.343.204-.313 2.964-1.055 3.339-.803.378.25.657 2.726.657 2.726s2.391-1.032 2.886-.696c.491.337.969 3.074.803 3.342-.166.268-3.029.974-3.341.805-.313-.169-.658-2.727-.658-2.727s-2.586.863-2.882.696" style="fill:#fff" transform="matrix(2.05995 0 0 -2.05995 80.856 39.796)"/><path d="M0 0c-.048 2.972-.6 5.299-2.139 7.854.567-2.426.588-4.934.005-7.38.184-1.924.093-4.488-2.136-7.96a19.653 19.653 0 0 0-2.712-3.32c.159.288.224.574.224.743-.001.283-.228.26-.436.212-.156-.038-.507-.227-.688-.271-.348-.087-.666.044-.623.265.039.22.719.573.912.749.159.146-.328.266-.923-.129-.449-.3-.603-1.038-.321-1.301.285-.258.596-.031.881-.064.278-.032.402-.256-.78-.888-.569-.305.366-.299.98-.047-1.482-1.34-2.896-2.285-3.773-2.873-.58-.391-.613-.444-.604-.511.024-.122.146-.107.803.074.444.123 1.223.325 2.045.708 3.311 1.546 5.294 3.528 6.65 5.56C-1.209-6.438.051-3.285 0 0Zm-10.72-12.543c.664.825.968 1.904 1.216 2.852a16.303 16.303 0 0 0-3.12-1.487 6.306 6.306 0 0 0-.842-.646c-1.172-.731-2.368-1.249-4.545-1.345-2.862-.126-4.521.671-5.625.992-.607.177-.556-.225-.556-.242-.001-.137.274-.426.78-.771a15.509 15.509 0 0 1 7.453-2.233c2.82.088 4.819 2.361 5.239 2.88zm-10.116.653.07.017a16.305 16.305 0 0 0-7.389 3.302c2.896-3.98 6.807-3.447 7.319-3.319zm14.723 3.829c.716.522 1.27 1.623 1.508 3.027a16.327 16.327 0 0 0-3.492-3.687c.352.001.685.053.954.135.508.154.744.317 1.03.525" style="fill:#c8c7c7" transform="matrix(2.05995 0 0 -2.05995 114.227 33.884)"/><path d="M133.096 225.5v3.656h-1.483v-8.985h1.483v3.642h10.27v1.687h-10.27m-1.483-7.045v-2.781l9.768-3.683-9.768-3.617v-2.794h11.752v1.687h-10.174v.027l10.174 3.902v1.644l-10.174 3.887v.04h10.174v1.688h-11.752"/></svg>