<svg xmlns="http://www.w3.org/2000/svg" width="28.75411mm" height="65.587486mm" viewBox="0 0 101.88464 232.3966"><path d="M0 0c4.41-11.722 7.41-24.102 8.73-36.097.49-4.469.73-9.39.73-15.046 0-14.605-2.57-29.928-7.45-44.471 1.49.158 3.1.287 4.81.389 2.08 16.06 3.2 37.297 3.25 61.54 0 .177-.1 6.594-.22 10.713 0 0-.34 12.116-.34 18.397v1.048c-.36.058-.71.12-1.04.182-2.91.492-3.29.684-3.52.799-.34.17-.66.433-.94.764A25.054 25.054 0 0 0 0 0Zm15.67-133.091c-10.83 0-36.02.844-36.02 8.673 0 .534.12 1.081.35 1.577 9.86 23.001 9.86 23.018 9.87 23.034.48 1.068 1.46 1.71 2.33 2.12C-1.91-82.035.94-66.805.94-51.143c0 26.01-7.32 50.878-21.19 71.95l-.44.153-.76.765-.57 1.412v.29c0 .936.47 1.789 1.3 2.339l3.94 2.377 1.56.07c1.14 0 2.1-.59 2.58-1.54l.05-.107.07-.226c2.03 11.81 12.23 20.817 24.48 20.817 9.43 0 18.1-5.486 22.27-14.03l2.52-1.041.23-.189.97 1.305 2.18-1.814c.27-.169 2.33-1.337 2.33-1.337l.52-.323.18-.26a96.37 96.37 0 0 0 1.48-2.199l.98-.449.36-1.091c.1-.278.14-.565.14-.853 0-.196 0-.523-.55-2.044l-.35-.932-1.03-.052-.36-.636c-2.04-3.596-5.46-9.587-10.16-22.296-5.13-13.869-7.17-30.826-7.35-41.134.32-28.461 10.7-50.56 13.32-55.701.93-.518 1.55-1.147 1.89-1.913 1.62-3.796 9.7-22.653 9.9-23.229.28-.79.27-1.316.23-1.564.02-7.622-25.17-8.466-35.99-8.466" style="fill:#fff;fill-opacity:1;fill-rule:nonzero;stroke:none" transform="matrix(1.25 0 0 -1.25 28.942 62.49)"/><path d="M0 0c-3.08-.158-5.92-.407-8.34-.737 5.32 15.023 8.15 30.961 8.15 46.25 0 5.593-.23 10.461-.72 14.882-1.5 13.661-5.12 27.459-10.48 40.376a23.142 23.142 0 0 1 8.19-4.624c.18-.317.44-.575.68-.695.44-.224 3.02-.646 3.13-.667.68-.133 1.48-.255 2.26-.356 0-.783-.01-1.565-.01-2.348 0-6.435.18-12.726.34-18.355.12-4.169.22-10.687.22-10.76C3.37 38.019 2.19 16.29 0 0Zm41.87-26.909c-.2.558-9.86 23.12-9.86 23.12-.25.563-.79 1.014-1.63 1.412C27.77 2.628 17 25.062 16.67 54.465c.18 10.399 2.24 27.569 7.44 41.628 4.74 12.797 8.19 18.876 10.26 22.504 0 0 .44.795.76 1.366l.88.042s.46 1.27.46 1.527c0 .129-.02.257-.06.381l-.16.47s-.65.298-.81.373l-1.67 2.519-.21.128s-2.4 1.365-2.53 1.484l-.97.799-.99-1.337c-.5.474-1.25 1.091-1.25 1.091l-2.85 1.176c-3.82 8.345-12.03 13.696-21.16 13.696-12.88 0-23.35-10.606-23.35-23.638 0-.485.03-.957.06-1.437-.82 1.443-1.67 2.869-2.54 4.274.04.131.08.269.08.418 0 .104-.2.73-.2.73-.22.438-.66.712-1.16.712l-1.18-.057-3.56-2.147c-.53-.347-.63-.782-.63-1.084l.34-.851.3-.304c.02-.008.39-.136.61-.217C-13.22 97.31-5.7 72.013-5.7 45.513c0-16.047-2.97-31.649-9.07-47.671-1.16-.455-1.85-.961-2.14-1.61l-9.88-23.042a2.392 2.392 0 0 1-.21-.952c0-7.092 33.11-7.17 34.52-7.17 1.41 0 34.51.078 34.51 7.17 0 0 .04.29-.16.853" style="fill:#58595b;fill-opacity:1;fill-rule:nonzero;stroke:none" transform="matrix(1.25 0 0 -1.25 39.13 183.31)"/><path d="M0 0h.01l-.03.053-.01.029-9.82 23.047h-.01c-.07.157-.23.314-.44.462a.754.754 0 0 0 .01-.698c-.1-.178-.28-.265-.5-.307-.02-.302-.19-.576-.49-.748-.24-.137-1.22-.555-2.92-1.255l-.07-.021c-.28-.108-.71-.079-1.94.058l-.59.053-.1-.198c-.22-.34-.59-.368-.71-.377l-2.21-.236c-3.89-.422-5.9-.555-6.12-.555 0 0-.17.009-.33.088-.27.074-.55.201-.79.285-.34.117-.8.344-.97.385-.32.078-.77.377-.84.919-.01.074-.23 2.145-.57 5.365l-.45.012c.32-3.924.55-6.425.55-6.433a.749.749 0 0 0-.21-.533c-.3-.307-.76-.278-.91-.269-.64.041-9.08.148-9.91.148-.17-.008-.58-.008-.77.244-.2.248-.18.589-.18.589.34 1.979.64 4.036.93 6.127-3.77-.183-7.12-.502-9.8-.92-.14-.396-.28-.795-.43-1.192 2.11-.22 5.72-.757 5.72-1.532 0-.425-4.68-.667-6.56-.728h-.02l-.01-.017-3.68-.07c-.49 0-.78.352-.8.691l.04.265c.17.431.33.86.49 1.291-.64-.285-1.07-.583-1.21-.893h-.01L-66.53.103a1.26 1.26 0 0 1-.11-.497c0-3.324 14.93-6.019 33.36-6.019C-14.86-6.413.08-3.718.08-.394.08-.261.05-.129 0 0" style="fill:#ce8a14;fill-opacity:1;fill-rule:nonzero;stroke:none" transform="matrix(1.25 0 0 -1.25 90.13 217.432)"/><path d="M0 0c-1.15 10.499-3.5 20.699-6.72 30.283a148.458 148.458 0 0 1-5.13 13.146 23.48 23.48 0 0 0-4.77 9.737c-1.52 2.821-3.09 5.549-4.74 8.151l-.04-.002c.13.12.29.256.32.269l.04.118-.07.18-.13.07-.83-.039s-3.18-1.911-3.27-1.969c-.09-.057-.12-.099-.12-.128l.15-.21.04-.034.11-.046.48-.001v-.002c13.86-20.712 22.19-46.39 22.19-74.277 0-18.125-3.82-34.792-10.03-50.369 0 0 .02-.134.21-.134l.13.005c.62.008 3.13.058 3.13.058C-3.19-50.332.72-32.879.72-14.754c0 4.131-.13 8.25-.48 12.321C.17-1.619.09-.808 0 0" style="fill:#808285;fill-opacity:1;fill-rule:nonzero;stroke:none" transform="matrix(1.25 0 0 -1.25 36.555 107.976)"/><path d="M0 0c.3-1.706 1.24-12.904 1.07-17.612.59-1.449.25-3.192-.26-4.161 0-1.532-.55-5.692-.76-8.872.59-.041.63-.636.38-2.972-.46-4.226-2.16-8.615-3.35-9.89-.6-4.115-2.8-10.399-3.4-12.138-.59-1.739-2.08-6.876-2.33-7.554-.21-.564-.54-1.276-.89-1.69.62.008 3.13.058 3.13.058 5.86 14.862 9.77 32.315 9.77 50.44 0 4.131-.13 8.25-.48 12.321C1.53 1.156.27.905 0 0" style="fill:#a7a9ac;fill-opacity:1;fill-rule:nonzero;stroke:none" transform="matrix(1.25 0 0 -1.25 33.255 108.43)"/><path d="M0 0a188.3 188.3 0 0 1-6.07 10.72L-8.4 9.225c.75-1.49 2.14-3.531 4.1-6.358C-2.15-.232 3.1-10.42 6.82-21.778c1.38-2.746 1.99-1.407 2.24.695-1.66 5.345-3.99 10.79-6.34 15.674A23.385 23.385 0 0 0 0 0" style="fill:#fff;fill-opacity:1;fill-rule:nonzero;stroke:none" transform="matrix(1.25 0 0 -1.25 16.73 44.768)"/><path d="M0 0s-3.18-1.911-3.27-1.969c-.09-.057-.12-.099-.12-.128l.15-.21.04-.034C-2.39-1.855.01-.436.1-.403.06-.263.06-.107 0 0" style="fill:#ffeba8;fill-opacity:1;fill-rule:nonzero;stroke:none" transform="matrix(1.25 0 0 -1.25 8.967 30.585)"/><path d="M0 0c.39-6.691.54-10.549.5-16.365-.11-12.339.56-24.847.54-31.749-.05-24.329-1.17-50.668-4.51-70.328-.02-.165.28-.128.39-.128.73 0 9.24-.107 9.91-.149.3-.02.5.038.49.224-1.59 18.364-3.62 46.552-2.6 70.381C5.73-24.289 6.51-13.277 9.95 4.073 5.97 4.073 2.52 1.959 0 0" style="fill:#a7a9ac;fill-opacity:1;fill-rule:nonzero;stroke:none" transform="matrix(1.25 0 0 -1.25 43.542 44.46)"/><path d="M0 0c.4 3.812-.07 32.998-.79 32.998-.4 0-.69-.724-.97-2.015-.6-16.489-1.84-32.585-4.07-45.705-.02-.165.28-.128.39-.128.73 0 9.24-.107 9.91-.149.14-.008.26 0 .34.03l.15.194C4.01-4.785-.41-3.817 0 0" style="fill:#fff;fill-opacity:1;fill-rule:nonzero;stroke:none" transform="matrix(1.25 0 0 -1.25 46.492 174.11)"/><path d="M0 0c-3.52 0-5.72-1.312-7.23-2.123-1.44-.766-2.37-1.219-3.48-2.304 0-.159-.18-1.397-.16-2.577 0 0 .27-.315.36-.36.06-.029.16-.067.26-.083v.067C-7.73-5.421-4.28-3.307-.3-3.307l-.01-.021c.31.202.37.542.37.542L0 0" style="fill:#ffcf00;fill-opacity:1;fill-rule:nonzero;stroke:none" transform="matrix(1.25 0 0 -1.25 56.355 35.235)"/><path d="M0 0c0-.159-.18-1.397-.16-2.577A9.762 9.762 0 0 0 1.5 1.199C1 .875.51.503 0 0" style="fill:#808285;fill-opacity:1;fill-rule:nonzero;stroke:none" transform="matrix(1.25 0 0 -1.25 42.967 40.768)"/><path d="M0 0c-.17-.498-1.11-.7-1.63-.914-.16.066-.27.533-.31.716-.13-.025-.25-.05-.37-.075-.3-.124-.67-.29-.76-.377-.17-.14.12-1.206.12-1.45 0-.247.14-.882-.68-1.183-2.96-1.093-4.95-2.185-6.84-3.63v-.083l.15-.166C-5.94-3.863-2.23-2.997.46-2.778L.4.008C.26.008.13.004 0 0" style="fill:#ffeba8;fill-opacity:1;fill-rule:nonzero;stroke:none" transform="matrix(1.25 0 0 -1.25 55.855 35.245)"/><path d="M0 0c-3.3 21.593-3.97 45.241-4.01 57.581-.04 10.279 1.07 32.142 3.75 45.728.66 3.349 1.66 8.408 4.88 20.211l-.89.667v-.003c-.71-1.898-2.07-6.274-3.37-10.728-2.93-10.569-3.35-17.186-4.13-24.168-.32-2.432-.46-6.823-.12-13.373-.26-.204-.97-.938-1.58-1.893-.06-1.257-.11-2.54-.17-3.875-.07-1.848-.13-3.757-.18-5.707l-.03-1.325c-.04-2.165-.06-4.383-.06-6.672 0-5.9.29-15.239.73-24.687.28-3.385.61-6.983.94-10.494l-.01.037.01-.116.01-.078c.23-2.252 2.45-19.138 2.57-20 .1-.649.21-.72 1.06-1.121l-.01-.013c.4-.144.77-.278.85-.262C.08-.245.02-.145 0 0" style="fill:#808285;fill-opacity:1;fill-rule:nonzero;stroke:none" transform="matrix(1.25 0 0 -1.25 57.255 192.32)"/><path d="M0 0c-.12.092-.27.194-.43.277-.41.219-1.7 1.139-2.05 1.329-.41.009-.81-.016-1.22-.061-2.6-.291-5.5-1.595-8.56-3.325.14-.162 3.02-2.31 3.02-2.31C-6.29-2.434-2.36-1.051-.53-.919c.34.033.48.116.64.116.14.274.22.543.22.543S.2-.141 0 0" style="fill:#fff;fill-opacity:1;fill-rule:nonzero;stroke:none" transform="matrix(1.25 0 0 -1.25 74.58 32.807)"/><path d="M0 0c-.41.219-1.7 1.139-2.05 1.329-.41.009-.81-.016-1.22-.061C-1.98.88-.22-.174.43-.277.31-.185.16-.083 0 0" style="fill:#ffcf00;fill-opacity:1;fill-rule:nonzero;stroke:none" transform="matrix(1.25 0 0 -1.25 74.042 32.46)"/><path d="M0 0c2.95 1.656 6.88 3.039 8.71 3.171.34.033.48.116.64.116.14.274.22.543.22.543C6.94 3.419 1.37 1.501 0 0" style="fill:#ce8a14;fill-opacity:1;fill-rule:nonzero;stroke:none" transform="matrix(1.25 0 0 -1.25 63.03 37.92)"/><path d="M0 0c.03-.195.12-.319.47-.319S8.42.53 8.64.542c.27.021.36.104.22.489C6.47 8.404 2.83 21.353.54 35.234c-.99 5.945-1.79 17.081-1.71 22.119.25 17.234 1.12 33.106 5.26 45.601 4.14 12.487 5.34 15.945 9.24 23.737-1.83-.132-5.76-1.515-8.71-3.171C1.4 111.717.4 106.658-.26 103.309-2.94 89.723-4.05 67.86-4.01 57.581-3.97 45.241-3.3 21.593 0 0" style="fill:#a7a9ac;fill-opacity:1;fill-rule:nonzero;stroke:none" transform="matrix(1.25 0 0 -1.25 57.255 192.32)"/><path d="M0 0c-.99 5.945-1.79 17.081-1.71 22.119.15 9.983.51 19.505 1.58 28.182v-.01c-.55.873-1.21.898-1.73-.05.23 8.423 4.99 28.886 7.04 37.754.08.357.13.667.15.945-.43-.213-.85-.431-1.25-.654C.86 76.483-.14 71.424-.8 68.075c-2.68-13.586-3.79-35.449-3.75-45.728.04-12.34.71-35.988 4.01-57.581.03-.195.12-.319.47-.319s7.95.849 8.17.861c.27.021.36.104.22.489C5.93-26.83 2.29-13.881 0 0" style="fill:#fff;fill-opacity:1;fill-rule:nonzero;stroke:none" transform="matrix(1.25 0 0 -1.25 57.93 148.277)"/><path d="M0 0c-.35-.392-1.2-2.726-2.17-5.307-.19-.989-.39-2.024-.6-3.13-1.28-6.901-2.37-15.214-3.01-28.835.44 3.44 1.24 9.957 1.65 13.104C-3.35-17.186-2.93-10.569 0 0" style="fill:#a7a9ac;fill-opacity:1;fill-rule:nonzero;stroke:none" transform="matrix(1.25 0 0 -1.25 57.705 50.5)"/><path d="M0 0c-.76.376-3.09 1.379-3.44 1.539-1.05.269-2.98-.463-3.9-.811C-7.47.703-7.66.57-7.66.57l.02-.409.72-.358c.61-.205 2.1-.952 2.68-1.231.01-.009.17.111.4.198.6.228 1.78.615 2.96.758.5.01.74.037.74.037L0 0" style="fill:#ffeba8;fill-opacity:1;fill-rule:nonzero;stroke:none" transform="matrix(1.25 0 0 -1.25 83.28 31.373)"/><path d="M0 0c.61-.205 2.1-.952 2.68-1.231.01-.009.17.111.4.198.6.228 1.78.615 2.96.758.5.01.74.037.74.037l.14.435C5.43.445 3.07-.7 2.94-.815c-.14-.116-.25-.135-.33-.021C2.53-.72-.05.495-.74.767l.02-.409L0 0" style="fill:#ce8a14;fill-opacity:1;fill-rule:nonzero;stroke:none" transform="matrix(1.25 0 0 -1.25 74.63 31.62)"/><path d="M0 0c-8.46 21.37-11.3 41.705-11.51 57.727C-11.92 90.109 4.98 126.093 5 126.1c-.3.145-.84.414-1.38.667.35-.373.82-.907.82-.907s-.46-.994-.69-1.46c-.23-.453-11.4-22.711-14.52-41.81-.88-7.861-1.24-16.636-1.38-26.475 0-.206-.01-.429-.01-.662 0-5.129.75-15.544 1.71-21.352C-7.88 18.56-3.79 5.059-2.16.017l.03-.112C-1.18-.189.09-.372.26-.265.14-.252.03-.119 0 0" style="fill:#a7a9ac;fill-opacity:1;fill-rule:nonzero;stroke:none" transform="matrix(1.25 0 0 -1.25 71.73 190.783)"/><path d="m0 0 .11.064c-.76.431-2.47 1.262-3.45 1.683l-.02-.007c-.13-.025-.32-.158-.32-.158C-2.99 1.31-.41.095-.33-.021-.25-.135-.14-.116 0 0" style="fill:#fff;fill-opacity:1;fill-rule:nonzero;stroke:none" transform="matrix(1.25 0 0 -1.25 78.305 32.638)"/><path d="M0 0c-4.01 10.66-7.71 24.524-7.97 42.443-.15 10.46 1.81 29.319 7.52 44.767 5.72 15.449 9.62 21.229 11.41 24.582-1.18-.143-2.36-.53-2.96-.758-.23-.087-.39-.207-.4-.198-.02-.009-16.92-35.992-16.51-68.373.05-3.764.25-7.775.63-11.973v.004c-.31 1.135-.55 1.73-.64 1.367-.17-.618-.03-2.907.15-5.481.26-2.8.58-5.465.92-7.543.87-5.267 1.92-10.285 2.98-14.834-.15 1.901-.48 5.337-.71 8.16v.016c1.8-8.759 4.44-18 8.18-27.443.03-.115.13-.244.25-.261l.05.013c.45.186 2.52 1.039 2.84 1.218.2.12.25.277.18.43C4.17-9.931 2.03-5.407 0 0" style="fill:#808285;fill-opacity:1;fill-rule:nonzero;stroke:none" transform="matrix(1.25 0 0 -1.25 68.48 171.703)"/><path d="M0 0a83.64 83.64 0 0 1-.01-2.727C.25-20.646 3.95-34.51 7.96-45.17c1.98-5.257 4.05-9.679 5.77-13.529.22.004.49.029.57.029.1 0 .25 0 .13.195C14.32-58.297.38-33.691 0 0" style="fill:#a7a9ac;fill-opacity:1;fill-rule:nonzero;stroke:none" transform="matrix(1.25 0 0 -1.25 58.53 115.24)"/><path d="m0 0 .06-.017.78-.34c.4-.175.89-.393 1.36-.6l-.02.017C1.84-.729.96-.112-.12.426c-.36.226-1.46 1.116-1.55 1.219-.09.105-.19.472-.1.726 0 0-.12-.148-.17-.239C-1.88 1.438-1.28.769-.6.07-.39.066-.18.047 0 0" style="fill:#ffcf00;fill-opacity:1;fill-rule:nonzero;stroke:none" transform="matrix(1.25 0 0 -1.25 79.155 28.718)"/><path d="M0 0c-.53.543-1.01 1.068-1.22 1.598l-.04-.049c-.13-.183-.62-1.061-1.13-2.002C-1.53-.172-.7.016 0 0" style="fill:#a7a9ac;fill-opacity:1;fill-rule:nonzero;stroke:none" transform="matrix(1.25 0 0 -1.25 78.405 28.63)"/><path d="m0 0 .06-.017.76-.335C.36-.054-.07.206-.19.273A1.174 1.174 0 0 1-.37.059C-.24.047-.11.031 0 0" style="fill:#ce8a14;fill-opacity:1;fill-rule:evenodd;stroke:none" transform="matrix(1.25 0 0 -1.25 79.155 28.718)"/><path d="M0 0c.52.126 1.01.196 1.45.184C.92.727.44 1.252.23 1.782l-.04-.049c-.1-.125-.35-.577-.66-1.147.22-.137.45-.315.52-.383L0 0" style="fill:#808285;fill-opacity:1;fill-rule:nonzero;stroke:none" transform="matrix(1.25 0 0 -1.25 76.592 28.86)"/><path d="m0 0 .23-.135.06-.033C.46.13.61.375.7.538c0 0-.16.066-.33.143C.2.367.07.126 0 0" style="fill:#a7a9ac;fill-opacity:1;fill-rule:nonzero;stroke:none" transform="matrix(1.25 0 0 -1.25 73.755 32.292)"/><path d="M0 0c.09-.103 1.19-.993 1.55-1.219 1.08-.538 1.96-1.155 2.3-1.366l.11-.096c-.62.77-1.34 1.779-1.34 1.779C1.19-.043.29.36-.1.726-.19.472-.09.105 0 0" style="fill:#a7a9ac;fill-opacity:1;fill-rule:nonzero;stroke:none" transform="matrix(1.25 0 0 -1.25 77.067 26.662)"/><path d="M0 0c.29.625.57 1.196.84 1.652l-.15.116c-.05.045-.71.293-1.36.538C-.41 1.553-.19.787 0 0" style="fill:#fff;fill-opacity:1;fill-rule:nonzero;stroke:none" transform="matrix(1.25 0 0 -1.25 71.93 28.176)"/><path d="M0 0c.09 0 .15.043.19.106C.24.18.21.325.08.4a1.87 1.87 0 0 1-.27.113C-.13.341-.06.176 0 0" style="fill:#808285;fill-opacity:1;fill-rule:nonzero;stroke:none" transform="matrix(1.25 0 0 -1.25 71.455 26.3)"/><path d="M0 0c.56 1.254 1.17 2.765 1.21 2.936l-.07.09c-.14.122-.36.315-.67.563-.26-.456-.55-1.027-.84-1.652C-.22 1.3-.1.656 0 0" style="fill:#a7a9ac;fill-opacity:1;fill-rule:nonzero;stroke:none" transform="matrix(1.25 0 0 -1.25 72.392 30.597)"/><path d="M0 0c.06-.04.31-.058.41-.021.09.037.17.194.17.274C.08.759-.71 1.399-.71 1.399l-.04.021c-.2-.144-.44-.365-.39-.514l.14-.07C-.35.327 0 0 0 0" style="fill:#ce8a14;fill-opacity:1;fill-rule:nonzero;stroke:none" transform="matrix(1.25 0 0 -1.25 74.042 27.01)"/><path d="M0 0c.11-.278.21-.559.31-.845.48-.182.98-.367 1.22-.468-.05.149.19.37.39.514C1.15-.502.49-.211 0 0" style="fill:#ffeba8;fill-opacity:1;fill-rule:nonzero;stroke:none" transform="matrix(1.25 0 0 -1.25 70.705 24.237)"/><path d="M0 0c-.81 1.314-2.11 3.035-2.61 3.188-.44.134-1.09.07-1.6-.021-.05.182-.13.356-.22.517.79.17 2 .261 2.32-.474.24-.068.8-.753 1.35-1.579a22.622 22.622 0 0 1-4.16 5.651c-.19.149-.36.257-.43.291-.09.048-.19-.013-.27-.1l-.01.156c-.01.113.06.162.16.177-3.93 3.645-9.15 5.876-14.9 5.876-12.26 0-22.19-10.064-22.19-22.485 0-1.429.14-2.82.39-4.171.23-.284.59-.439 1.45-.308 0 2.647.22 4.604.5 5.562a.988.988 0 0 1 .47-.245c-.52-1.149-.75-2.744-.75-5.212.19-.305.39-.768.59-1.379.25-.757 2.54-5.055 3.92-6.118.26-.356.74-.037 1.07-.427-.26.015-.59.032-.71.032-.2 0-.4-.255-.35-.508.05-.254.4-1.809.6-2.678.12-.468.32-1.021.58-1.594 2.45-2.12 5.34-3.726 8.54-4.616.53.058 1.64.029 2.58.009 2.72.467 2 .852 1.89 1.069-.67 1.253-.9 3.157-.94 3.654-.04.495-.14.547-.31.635-2.72 1.344-5.5 3.555-5.84 3.836-.34.284-.74.69-1.03.815-.15 0-.37-.25-.46-.5l-.08-.134c-.09-.618-.46-1.737-2.21-1.638.26.02.56.089.91.226 1.17.448 1.14 1.79 1.1 2.005-.04.219-.22.728 0 .946.22.222.29.843-.04 1.749-.13.369-.07.729.29 1.021.37.294 1.21.837 1.17 1.494-.04.656-.22 2.039-.51 2.587-.29.545-.59.909-.29 1.273.29.365.87.948.87 1.607 0 .182.08.467.29.577.22.11 2.15 1.752 2.66 3.573.15.526.31.673.27.772.04-.096.09-.248-.05-.52-.14-.275-.1-.618-.3-.94-.21-.32-.26-1.427-2.47-3.086-.1-.079-.15-.249-.18-.405.33-.72 1.02-1.437 1.26-1.764.34-.459.46-.36.72-.36.24 0 5.37-.101 6.6-.085.65.466 1.31.834 2.11 1.26l.2.104c.77 1.302 1.82 3.3 2.48 4.597-.52.528-.82 1.633-.87 1.853-.08.35-.32.94-.57 1.236-.24.296-.51 1.127-.56 1.241-.06.106-.49.106-.7.264-.21.163-.21.484-.35.859-.13.374-.86.829-1.31.886-.46.054-1.11-.296-1.59-.268-.48.025-1.1.832-1.32.887-.21.053-1.13-.245-1.29-.245-.16 0-1.1 1.13-1.31 1.292-.2.147-.26-.218-.25-.484-.08.105-.15.185-.19.211-.13.066-.34.629.01.815.34.186.41-.066.57-.341.16-.278.44-.4.61-.53.17-.13.28-.528.58-.54.3-.011.5.223.95.223.82 0 1.16-.933 1.66-.933.52 0 .49.244 1.2.244.7 0 1.48-.33 1.81-.785.31-.447.18-.766.54-.934.35-.163.56-.185.68-.535.12-.36.15-.687.31-.92.15-.233.51-.575.67-.96.21-.521.08-.768.36-1.192.32-.518.65-1.308.89-1.308.26 0 .66.494.88.638.1-.187.13-.384.12-.676-.01-.294-.11-.966.11-1.008.12-.023.37-.08.59.015-.28-.534-.7-.389-.93 0-.15.269-.16.683-.11.998-.28-.253-.54-.31-.77-.253a68.884 68.884 0 0 0-2.16-3.95c1.5.804 3.69 1.876 6.92 1.876h.59l.07-3.432-.01-.054a1.562 1.562 0 0 0-.4-.745c-.52-2.658-.98-5.169-1.39-7.605.17.017.32.041.39.095.25.182 1.17 4.231 1.47 4.641l.02.02c.62 2.385 1.17 4.2 1.68 5.78-.45.248-.66.368-.7.424l-.33.603.58.326c-.28.779-.34 1.665-.35 1.872-.01.336-.19.687-.26.968-.07.282.16.423.29.487-.15-.064.09-.455.1-.627.02-.17.19-.373.19-.75 0-.695.12-1.291.3-1.8.34.19.67.368 1 .542l-.08.253c-.27 1.166.07 1.542.32 1.676l-.14-.174c-.19-.186-.02-1.314.01-1.532l.03-.149c.62.329 1.2.605 1.77.874-.55 1.101-1.2 1.987-1.85 2.12-.79.165-1.46-.141-1.66.372-1.16.063-4.38.124-5.38-.066 0 .149-.01.292-.01.431 1.57.05 5.36.031 5.59.031.04.312-.17 1.024-.34 1.322.08.15.14.324.23.338.19.035.37-.627.37-.921-.02-.293.15-1.056.5-1.067.34-.01.46.335.7.335.37 0 1.23-1.489 1.47-1.605.07-.035.15.01.26.122.2-.415.4-.833.57-1.201 1.98.888 3.69 1.404 5.2 1.573.37.042.71.05 1.04.05A21.777 21.777 0 0 1 0 0" style="fill:#ffcf00;fill-opacity:1;fill-rule:nonzero;stroke:none" transform="matrix(1.25 0 0 -1.25 69.355 23.963)"/><path d="M0 0a1.272 1.272 0 0 0-.37-.565c-.37-.318-.59-.594-.46-.961.14-.365 1.03-2.373.78-3.427-.25-1.052-1.48-1.6-1.48-1.944 0-.343.36-1.117.31-1.481-.04-.37-.38-.851-.36-1.054.01-.094.06-.213.1-.342.27.068.34-.041.54-.021 0 .191.66 2.781 1.06 4.058.4 1.283 1.16 3.274 1.22 3.465.06.186.16.372.03.558C1.27-1.564.48-.588 0 0" style="fill:#ce8a14;fill-opacity:1;fill-rule:nonzero;stroke:none" transform="matrix(1.25 0 0 -1.25 33.067 37.05)"/><path d="M0 0c-.28.033-.69-.054-.99-.067.01-.134.01-.263.01-.392.19.277.79-.099 1.02-.794C.42-.629.67-.079 0 0" style="fill:#ce8a14;fill-opacity:1;fill-rule:nonzero;stroke:none" transform="matrix(1.25 0 0 -1.25 52.942 29.687)"/><path d="M0 0c-.84-.94-2.1-2.935-2.45-3.277-.45-.455-1 1.354-1.4 1.354-.4 0-1.26-1.809-2.22-2.366-.74-.428-3.47-.033-4.85.426-.33-.378-.78-.802-1.41-1.279-.1-.079-.15-.249-.18-.405.33-.72 1.02-1.437 1.26-1.764.34-.459.46-.36.72-.36.24 0 5.37-.101 6.6-.085.65.466 1.31.834 2.11 1.26l.2.104C-.85-5.09.2-3.092.86-1.795.37-1.3.08-.304 0 0" style="fill:#ce8a14;fill-opacity:1;fill-rule:nonzero;stroke:none" transform="matrix(1.25 0 0 -1.25 48.817 29.33)"/><path d="M0 0c.06-.209.38-1.865.52-2.465.13-.6.6-1.712.79-1.877.04-.04.23-.042.44-.023a183.77 183.77 0 0 1-.1 5.336C1.2.756.18.173 0 0" style="fill:#ce8a14;fill-opacity:1;fill-rule:nonzero;stroke:none" transform="matrix(1.25 0 0 -1.25 41.23 55.496)"/><path d="m0 0 .02.266.16.153c.2.194.39.352.58.515-1.54.186-5.51.172-5.9.157-.49-.018-.53-.224-.57-.354-.03-.131-.95-3.107-1.18-3.763-.23-.659-.94-3.481-.99-3.651-.06-.17-.06-.319.11-.356.09-.021 1.56-1.28 3.12-2.351 1.51-1.035 3.09-1.893 3.27-1.994.36-.207.45-.095.54-.036.1.055 1.39.713 1.67.924C.75-8.35.64-6.121.49-3.46c-.09.049-.22.153-.51.484l-.14.163v.437c0 .845.08 1.664.13 2.122L0 0" style="fill:#ce8a14;fill-opacity:1;fill-rule:nonzero;stroke:none" transform="matrix(1.25 0 0 -1.25 42.23 40.756)"/><path d="M0 0c-.67 1.253-.9 3.157-.94 3.654-.04.495-.14.547-.31.635-2.72 1.344-5.5 3.555-5.84 3.836-.34.284-.74.69-1.03.815-.15 0-.37-.25-.46-.5l-.08-.134c-.09-.618-.46-1.737-2.21-1.638.26.02.56.089.91.226 1.17.448 1.14 1.79 1.1 2.005-.04.219-.22.728 0 .946.22.222.29.843-.04 1.749-.13.369-.07.729.29 1.021.37.294 1.21.837 1.17 1.494-.04.656-.22 2.039-.51 2.587-.29.545-.59.909-.29 1.273.29.365.87.948.87 1.607 0 .182.08.467.29.577.11.056.67.507 1.25 1.175-.25.098-.43.197-.51.288l-13.15 6.517a22.703 22.703 0 0 1-1.28-7.549c0-1.429.14-2.821.39-4.174.23-.281.59-.436 1.45-.305 0 2.647.22 4.604.5 5.562a.988.988 0 0 1 .47-.245c-.52-1.149-.75-2.744-.75-5.212.19-.305.39-.768.59-1.379.25-.757 2.54-5.055 3.92-6.118.26-.356.74-.037 1.07-.427-.26.015-.59.032-.71.032-.2 0-.4-.255-.35-.508.05-.254.4-1.809.6-2.678.11-.459.31-1.006.57-1.571a22.1 22.1 0 0 1 8.59-4.632c.56.046 1.63.022 2.54.002C.83-.602.11-.217 0 0" style="fill:#ce8a14;fill-opacity:1;fill-rule:nonzero;stroke:none" transform="matrix(1.25 0 0 -1.25 42.117 60.697)"/><path d="M0 0c-1.7 1.84-3.99 5.481-4.1 7.063l-.07.066-.06-.004C-4.57 7.1-5.32 7.1-5.46 7.1c-.07 0-.1-.391-.02-1.035A22.488 22.488 0 0 1 .86-4.517C.24-2.834-.24-.89-.17-.629-.1-.35.2-.207 0 0" style="fill:#ce8a14;fill-opacity:1;fill-rule:nonzero;stroke:none" transform="matrix(1.25 0 0 -1.25 23.967 49.9)"/><path d="M0 0c-.15.269-.16.683-.11.998A1.02 1.02 0 0 0-.5.762c.05-.427-.84-2.085-1.69-3.536.61.296 1.3.596 2.11.847.13.596.3 1.19.44 1.616A.65.65 0 0 0 0 0" style="fill:#ce8a14;fill-opacity:1;fill-rule:nonzero;stroke:none" transform="matrix(1.25 0 0 -1.25 51.517 32.817)"/><path d="M0 0c.25-.07.86-.821 1.43-1.703a22.298 22.298 0 0 1-2.77 4.185c.02-.092.03-.18.06-.231-.08-.142-.11-.228-.06-.396.06-.167.03-.539-.14-.65-.17-.115-.51.422-.62.677-.02-.168-.14-.257-.18-.331-.05-.074-.45.42-.85.844-.38.414-.79.583-.86.414-.05-.162.43-.492.42-.702-.02-.211.26-.693.64-1.041.26-.131.45-.347.6-.597l.01.005C-1.53.644-.32.735 0 0" style="fill:#ce8a14;fill-opacity:1;fill-rule:nonzero;stroke:none" transform="matrix(1.25 0 0 -1.25 66.717 19.95)"/><path d="M0 0c-.81 1.327-2.16 3.121-2.67 3.279-.44.134-1.09.07-1.6-.021.03-.132.06-.269.07-.401.17-.283.25-.634.29-.957.99-1.356 1.48-4.901 1.65-7.319.94.29 1.8.484 2.61.575.38.042.73.05 1.07.052C1.13-3.119.63-1.521 0 0" style="fill:#ce8a14;fill-opacity:1;fill-rule:nonzero;stroke:none" transform="matrix(1.25 0 0 -1.25 69.43 24.077)"/><path d="M0 0c-.5-3.043-.94-5.982-1.3-8.908l.21.003C-.46-5.552.1-2.757.63-.383.62-.118.35-.033 0 0" style="fill:#ce8a14;fill-opacity:1;fill-rule:nonzero;stroke:none" transform="matrix(1.25 0 0 -1.25 54.88 49.687)"/><path d="M0 0c.16.015.31.044.38.093.25.182 1.17 4.231 1.47 4.641l.02.02c.18.7.36 1.343.53 1.953-.49-.364-.97-.752-1.4-1.096C.63 3.674.3 1.824 0 0" style="fill:#ce8a14;fill-opacity:1;fill-rule:nonzero;stroke:none" transform="matrix(1.25 0 0 -1.25 54.955 49.27)"/><path d="M0 0a.868.868 0 0 0-.07.287c-.41.486-.84.946-1.29 1.396V1.68c-.28.257-.51.387-.6.432-.09.048-.19-.013-.27-.1l-.01.156c-.01.116.07.169.17.179-3.36 3.096-7.63 5.182-12.39 5.729-.53-.124-.98-.261-1.09-.355-.83.036-2.44.226-2.82-.377-1.09-.112-3.32-.941-3.43-.828-.1.103.43.811.35 1.241-9.67-2.003-17.05-10.374-17.67-20.608.25-.353.42-.728.74-.691.32.037.76.414 1.1.996.29-.58.62-.909 1.17-.909-.08-.658-.05-1.959.07-2.368.22-.729 1.06-1.784 1.24-2.517.18-.724 0-2.401.14-3.022.15-.615 1.61-3.163 2.05-3.821.43-.657 1.31-1.639 1.82-2.227.51-.58 1.02-1.087 2.43-.544 1.17.448 1.14 1.79 1.1 2.005-.04.219-.22.728 0 .946.22.222.29.843-.04 1.749-.13.369-.07.729.29 1.021.37.294 1.21.837 1.17 1.494-.04.656-.22 2.039-.51 2.587-.29.545-.59.909-.29 1.273.29.365.87.948.87 1.607 0 .182.08.467.29.577.22.11 2.15 1.752 2.66 3.573.15.526.31.673.27.772-.03.099-.22.422-.97.422s-1.35-.662-1.73-.662c-.15 0-.3.24-.33.405-.04.166-.31 1.215-1.18 1.779-.21.859-.73 2.665-.87 3.02-.14.354-.18.823-.03 1.183.15.386.32.667.56-.055.15-.466.45-1.406.73-1.613.06-.605.18-1.088.64-1.339.03-.565.2-.886.53-1.066.01-.406.15-1.167.42-1.399.28-.232 2.34.141 3.73 1.399.34.058.52.089 1.1.596.59.514 1.33 1.116 1.47 1.238.14.12.22.625-.08.658-.29.033-.86-.033-1.01.441-.1.296-.15.598-.45.608-.4.015-.6-.622-1.26-.542-.27.031-.41.509-.61.706-.2.199-.47.687-.6.754-.13.066-.34.629.01.815.34.186.41-.066.57-.341.16-.278.44-.4.61-.53.17-.13.28-.528.58-.54.3-.011.5.223.95.223.82 0 1.16-.933 1.66-.933.52 0 .49.244 1.2.244.7 0 1.48-.33 1.81-.785.31-.447.18-.766.54-.934.35-.163.56-.185.68-.535.12-.36.15-.687.31-.92.15-.233.51-.575.67-.96.21-.521.08-.768.36-1.192.32-.518.65-1.308.89-1.308.26 0 .66.494.88.638.1-.187.13-.384.12-.676-.01-.294-.11-.966.11-1.008.22-.041.95-.217.93.777-.02.993-.88 1.622-1.11 1.283a60.95 60.95 0 0 1-.06 1.978c.58.638 1.21 1.243 1.64 1.729.43.483.96 1.074 1.3 1.252.38-.062 1.65-1.097 1.68-1.554.03-.466.16-.984.26-1.05.37-.244.44.481.63.512.19.035.37-.627.37-.921-.02-.293.15-1.056.5-1.067.34-.01.46.335.7.335.37 0 1.23-1.489 1.47-1.605.23-.119.6.569 1.09 1.711.23.53-.06 1.025-.23 1.193-.17.166-1.42 1.081-1.39 1.444.03.367.32.715.62.715s.77.006.88.085c.25.178.1.672.31.79.2.108.37.245.46.452.09.211.1 1.187-.26 1.805-.04.588-.36 1.225-.9 1.51-.38.348-.66.83-.64 1.041.01.21-.47.54-.42.702.07.169.48 0 .86-.414.4-.424.8-.918.85-.844.04.074.16.163.18.331.11-.255.45-.792.62-.677.17.111.2.483.14.65-.05.168-.02.254.06.396" style="fill:#a7a9ac;fill-opacity:1;fill-rule:nonzero;stroke:none" transform="matrix(1.25 0 0 -1.25 65.117 17.137)"/><path d="M0 0c-4.22 4.095-9.4 4.603-13.34 4.566-3.95-.039-6.25-2.266-6.56-2.617-.31-.349-.74-1.17-1.24-2.338-.15-.34.03-.195-.32-.783-.35-.587-.9-.819-1.34-.984-.32-.121-.57-.655-.88-1.085-.31-.431-.94-.855-.94-.855s-2.22 1.595-3.24-.506c-3.08-3.437-4.29-7.689-4.29-8.819 0-1.133.63-1.834 1.05-2.418-.08-.658-.05-1.959.07-2.368.15-.497.58-1.145.9-1.741v.002c-.2 1.064-.47 2.621-.29 3.134.22.681.59.137.81-.457.23-.586 3.64-2.774 5.19-2.23 1.55.549 3.69 3.049 2.67 8.709-.21.859-.73 2.665-.87 3.02-.14.354-.18.823-.03 1.183.15.386.32.667.56-.055.15-.466.45-1.406.73-1.613.06-.605.18-1.088.64-1.339l.02-.123c.71.872 1.55 1.955 2.11 2.094.18.045.49-.363.41-.773-.09-.405-.23-.952-.05-.952s1.46.364 1.96.228c.43-.116 1.28-.493 2.4-.042.19.158.35.288.4.336l.1.203c-.43-.17-.78-.271-1.08-.271-.37 0-1.91.409-2.05.589-.13.182-.14.775-.41 1.003-.26.214-1.17 1.461-.72 1.738l.01-.002.15.18c.34.186.41-.066.57-.341.16-.278.44-.4.61-.53.17-.13.28-.528.58-.54.3-.011.5.223.95.223.82 0 1.16-.933 1.66-.933.52 0 .49.244 1.2.244.7 0 1.48-.33 1.81-.785.09-.133.14-.248.18-.357v.001c.54-.464 1.29-.985 1.56-1.06.32-.091.81-.286 1.59-.297.57-.011 1.52-.124 3.33 1.339.22.223.43.411.6.498 1.12-.244 1.93.273 2.25.273.32 0 .7-.736.91-.91.22-.178 1.31-.071 1.77.244-.02-.234.06-.368.17-.457l.01-.011c.09.307.33.574.59.574.3 0 .77.006.88.085.25.178.1.672.31.79.19.101.34.234.44.427C4.07-5.4 2.96-2.886 0 0" style="fill:#fff;fill-opacity:1;fill-rule:nonzero;stroke:none" transform="matrix(1.25 0 0 -1.25 58.855 14.157)"/><path d="M0 0c-.25.068-.91 1.35-.23 1.685.09.269-.12 1.428.12 1.503.24.071.69.525.81.697.13.172.63.315 1.03.195.27.408.58.603.8.287.21-.31-.13-.873-.19-1.108-.1-.363-.68-1.28-.82-1.67C1.38 1.209 1.04.22.92.123.66 0 .27-.072 0 0" style="fill:#a7a9ac;fill-opacity:1;fill-rule:nonzero;stroke:none" transform="matrix(1.25 0 0 -1.25 35.105 48.492)"/><path d="M0 0c-.08.244-.55.401-.77.277-.22-.124-.4-.523-.65-.645-.25-.124-.46-.222-.43-.468.03-.244.65-.712.68-1.08.03-.371-.5-.527-.44-.709.07-.19.9-.465 1.18-.31.28.151.24 1.269.28 1.418.09.374-.65.59-.68.836-.03.25.86.586.83.681" style="fill:#ffcf00;fill-opacity:1;fill-rule:nonzero;stroke:none" transform="matrix(1.25 0 0 -1.25 39.767 14.416)"/><path d="M0 0c.35.115.81.178.9-.009C.99-.195.34-1.176.47-1.333c.12-.154.43-.215.55-.28.12-.062.34-.249.53-.249.18 0 .83.622 1.29.591.47-.031.72-.342.99-.373.28-.031 1.8-.079 2.14-.358.19.205.93.925 1.07 1.078.14.152.22.555.05.524-.17-.035-.43-.372-.63-.134-.21.236-.57.513-.75.497-.19-.016-.53.033-.55.186-.02.153.32.873.41 1.048-.38.033-.74.049-.79-.139-.05-.189-.56-1.182-.74-1.199-.16-.016-.22.464-.14.708.08.242-.02.627-.02.787 0 .161.06.645.12.827.06.182-.16.063-.26.081-.1.021-.28-.221-.28-.343 0-.123-.1-.524 0-.545.1-.02.12-.364.04-.443-.08-.083-.18-.59-.41-.751-.22-.159-.78-.321-.92-.18-.15.14-.23.24-.19.362.04.125.61.465.71.569.1.1.06.542-.02.663-.08.12-.08.83-.08.952C1.78 2.202.36 1.372-.3.323-.44.102-.29-.096 0 0" style="fill:#ffcf00;fill-opacity:1;fill-rule:nonzero;stroke:none" transform="matrix(1.25 0 0 -1.25 23.392 18.348)"/><path d="M0 0c.16.115.45.416.56.564.11.151.59 1.041.76 1.056.22.017.45-.339.75-.339s.91.687 1.1.662c.34-.036-.39-.551-.24-.927.14-.344.68-.489.64-.793C3.55.02 2.51.101 1.69.074 1.2.056.81-.106.67-.202.36-.415-.26-.189 0 0" style="fill:#ffcf00;fill-opacity:1;fill-rule:nonzero;stroke:none" transform="matrix(1.25 0 0 -1.25 30.917 16.513)"/><path d="M0 0v.055l.16.153c.2.194.39.352.58.515C-.8.909-4.77.895-5.16.88c-.49-.018-.53-.224-.57-.354l-.01-.058c.14-.136.44-.227.72-.278.35-.066 2.15-.158 2.94-.192C-1.65-.018-.78-.008 0 0" style="fill:#ffcf00;fill-opacity:1;fill-rule:nonzero;stroke:none" transform="matrix(1.25 0 0 -1.25 42.255 40.492)"/><path d="M0 0a1.478 1.478 0 0 0-.2-.368c.49-.75 1.29-1.726 1.57-1.681l.05.029c.02.103.02.207-.05.306C1.27-1.564.48-.588 0 0" style="fill:#ffcf00;fill-opacity:1;fill-rule:nonzero;stroke:none" transform="matrix(1.25 0 0 -1.25 33.067 37.05)"/><path d="M0 0c-.96.052-3.32.099-4.67.008l.05-.136c.07-.083 1.68-.278 2.27-.278.59 0 2.02-.128 2.3 0 .09.046.17.131.19.219L0 0" style="fill:#ffeba8;fill-opacity:1;fill-rule:nonzero;stroke:none" transform="matrix(1.25 0 0 -1.25 58.417 29.247)"/><path d="M0 0c-.44 0-.82-.227-1.15-.416.26-.475.53-1.379.47-1.927-.09-.832-.7-1.729-1.09-2.291.54.435 2.04 1.869 2.47 3.44.15.526.31.673.27.772C.94-.323.75 0 0 0" style="fill:#fff;fill-opacity:1;fill-rule:nonzero;stroke:none" transform="matrix(1.25 0 0 -1.25 35.717 29.547)"/><path d="M0 0c-.02.231-.05.533-.09.854C-.67.701-1.37.241-1.73-.165c-.5-.567-2.39-2.664-2.26-2.86.14-.195 1.63 1.296 1.8 1.465.16.166.99 1.027 1.32.994.15-.013.54.256.87.566" style="fill:#fff;fill-opacity:1;fill-rule:nonzero;stroke:none" transform="matrix(1.25 0 0 -1.25 32.817 42.992)"/><path d="M0 0c-.1.066-.23.584-.26 1.05-.03.457-1.3 1.492-1.68 1.554-.34-.178-.87-.769-1.3-1.252C-3.67.866-4.3.261-4.88-.377c0-.053.01-.21.02-.425.72.744 2.41 2.665 2.57 2.827.18.172.33.273.58.07.25-.199 1.05-.973 1.08-1.279.02-.3.12-.925.32-1.027.18-.086.63.042.87.679C.42.309.32-.213 0 0" style="fill:#58595b;fill-opacity:1;fill-rule:nonzero;stroke:none" transform="matrix(1.25 0 0 -1.25 57.742 27.317)"/><path d="M0 0c-.3 0-.59-.348-.62-.715-.02-.153.19-.396.46-.641-.09.408-.07.849.17.96.05.025.85.28.97.601l-.1-.12C.77.006.3 0 0 0" style="fill:#58595b;fill-opacity:1;fill-rule:nonzero;stroke:none" transform="matrix(1.25 0 0 -1.25 62.442 24.42)"/><path d="M0 0c-.09.101-.2.192-.3.292-.27.252-.5.382-.59.427-.09.046-.19-.011-.26-.099.04-.333.18-.879.4-1.162.25-.326.76-1.009.89-.972C.25-1.48.18-.623 0 0" style="fill:#ce8a14;fill-opacity:1;fill-rule:nonzero;stroke:none" transform="matrix(1.25 0 0 -1.25 63.78 15.396)"/><path d="M0 0c-.22-.124-.4-.523-.65-.645-.25-.124-.46-.222-.43-.468l.06-.141c.27.07.53.288.75.544.29.244.46.458.88.3.1.059.17.106.16.133C.69-.033.22.124 0 0" style="fill:#58595b;fill-opacity:1;fill-rule:nonzero;stroke:none" transform="matrix(1.25 0 0 -1.25 38.805 14.07)"/><path d="M0 0c-.19.025-.8-.662-1.1-.662-.3 0-.53.356-.75.339-.17-.015-.65-.905-.76-1.056-.11-.148-.4-.449-.56-.564l-.06-.114c.21-.035.48.314.67.343.26.037.46.247.55.594.08.349.39.524.59.379.19-.137.42-.389 1.2.099.12.311.48.617.22.642" style="fill:#58595b;fill-opacity:1;fill-rule:nonzero;stroke:none" transform="matrix(1.25 0 0 -1.25 34.88 14.085)"/><path d="m0 0-.15.135C.01-.184-.3-.71-.36-.935c-.1-.363-.68-1.28-.82-1.67-.14-.38-.48-1.369-.6-1.466-.26-.123-.65-.195-.92-.123l-.02.012c.08-.101.15-.169.2-.185.27-.071.65 0 .91.119.12.096.46 1.09.6 1.47.15.39.73 1.304.82 1.671C-.12-.874.22-.314 0 0" style="fill:#58595b;fill-opacity:1;fill-rule:nonzero;stroke:none" transform="matrix(1.25 0 0 -1.25 38.48 43.25)"/><path d="M0 0c-.12-.287-.12-.641-.04-.956.15.607.36.903.54 1.048C.29.621.14.355 0 0" style="fill:#58595b;fill-opacity:1;fill-rule:nonzero;stroke:none" transform="matrix(1.25 0 0 -1.25 30.542 22.39)"/><path d="m0 0-.21.041c.2-.19.59-.243.9.02.2.163.44.403.64.556-.08.112-.16.238-.23.379C.76.414.32.037 0 0" style="fill:#58595b;fill-opacity:1;fill-rule:nonzero;stroke:none" transform="matrix(1.25 0 0 -1.25 17.142 34.065)"/><path d="M0 0c-.01-.401.18-.538.54-.783l.12-.145.02.092C.77-.462.03-.246 0 0" style="fill:#58595b;fill-opacity:1;fill-rule:nonzero;stroke:none" transform="matrix(1.25 0 0 -1.25 38.73 15.267)"/><path d="m0 0 .02-.093c.03-.371-.5-.527-.44-.709.02-.046.08-.097.17-.147l.08.143C.15-.501.06-.168 0 0" style="fill:#58595b;fill-opacity:1;fill-rule:nonzero;stroke:none" transform="matrix(1.25 0 0 -1.25 38.28 16.695)"/><path d="M0 0c.12.178.4.843.5.986.05.091.29.12.51.145l.08.162c-.38.033-.74.049-.79-.139C.25.965-.26-.028-.44-.045l-.04.01v-.006C-.45-.074-.13-.175 0 0" style="fill:#58595b;fill-opacity:1;fill-rule:nonzero;stroke:none" transform="matrix(1.25 0 0 -1.25 28.992 18.468)"/><path d="M0 0c-.17-.035-.43-.372-.63-.134-.21.236-.57.513-.75.497-.19-.016-.53.033-.55.186-.01-.439.41-.501.66-.501.25 0 .58-.126.65-.203.09-.098.3-.418.66-.211C.11-.192.13.023 0 0" style="fill:#58595b;fill-opacity:1;fill-rule:nonzero;stroke:none" transform="matrix(1.25 0 0 -1.25 32.255 18.848)"/><path d="M0 0c.29.138.68.902.68 1.105 0 .147-.06.352-.17.497-.06.252.01.453.05.528.06.105.13.074.32.077l.02.061c.06.182-.16.063-.26.081-.1.021-.28-.221-.28-.343 0-.123-.1-.524 0-.545.1-.02.12-.364.04-.443C.32.935.22.428-.01.267-.23.108-.79-.054-.93.087-.76-.064-.22-.108 0 0" style="fill:#58595b;fill-opacity:1;fill-rule:nonzero;stroke:none" transform="matrix(1.25 0 0 -1.25 27.267 18.457)"/><path d="M0 0c.12.036.23.114.32.209C.29.466.29.894.29.988-.52.644-1.94-.186-2.6-1.235c-.14-.221.01-.419.3-.323.13.046.28.078.42.097C-1.25-.815-.35-.11 0 0" style="fill:#58595b;fill-opacity:1;fill-rule:nonzero;stroke:none" transform="matrix(1.25 0 0 -1.25 26.267 16.4)"/><path d="M0 0c.16.386.05.666-.08.77C.01.584-.64-.397-.51-.554c.05-.075.15-.124.25-.166-.01.228.16.453.26.72" style="fill:#58595b;fill-opacity:1;fill-rule:nonzero;stroke:none" transform="matrix(1.25 0 0 -1.25 24.617 19.322)"/><path d="M0 0c-.38.414-.79.583-.86.414.23-.041.31-.211.44-.368C0-.347.42-.79.51-.902c.12-.137.34.068.34.058C.8-.918.4-.424 0 0" style="fill:#58595b;fill-opacity:1;fill-rule:nonzero;stroke:none" transform="matrix(1.25 0 0 -1.25 62.805 16.957)"/><path d="M0 0c.17-.129.1-.514-.03-.617-.14-.122-.88-.724-1.47-1.238-.58-.507-.76-.538-1.1-.596-1.22-1.103-2.97-1.528-3.55-1.457.1-.071.33-.199.56-.178.5.043 1.41.368 1.8.547.48.213 1.21.781 1.43.847l.31.088c.27.176.62.517.85.69.2.154.89.69 1.23.96.19.151.23.287.22.462C.24-.348.07-.041 0 0" style="fill:#58595b;fill-opacity:1;fill-rule:nonzero;stroke:none" transform="matrix(1.25 0 0 -1.25 42.055 24.418)"/><path d="M0 0c-.03.306-.75 1.167-1.01 1.279-.16.252-.32.823-.39 1.263-.06.432-.35 1.45-.49 1.747-.14.296-.19.72-.1 1.039l-.07.244-.07-.158c-.15-.36-.11-.829.03-1.183.14-.355.66-2.161.87-3.02C-.36.647-.09-.402-.05-.568c.03-.165.18-.405.33-.405.1 0 .23.053.37.126C.1-.72.03-.261 0 0" style="fill:#58595b;fill-opacity:1;fill-rule:nonzero;stroke:none" transform="matrix(1.25 0 0 -1.25 33.205 29.158)"/><path d="M0 0c-.17-.115-.51.422-.62.677L-.68.522c.19-.399.46-.726.58-.673.15.066.18.166.21.265v.019L0 0" style="fill:#58595b;fill-opacity:1;fill-rule:nonzero;stroke:none" transform="matrix(1.25 0 0 -1.25 64.867 18.445)"/><path d="M0 0c-.06 1.432-.39 1.349-.51 1.349s-.12-.136-.3-.323C-1 .84-.83-.288-.8-.506l.03-.144c.27.142.52.269.78.4L0 0" style="fill:#a7a9ac;fill-opacity:1;fill-rule:nonzero;stroke:none" transform="matrix(1.25 0 0 -1.25 61.555 32.636)"/><path d="M0 0c-.22.54-.7.505-.85.437-.15-.064.09-.455.1-.627.02-.17.19-.373.19-.75 0-.695.12-1.291.3-1.8.34.19.67.372 1 .546-.16.513-.4.84-.57 1.068C.17-.989.22-.547 0 0" style="fill:#a7a9ac;fill-opacity:1;fill-rule:nonzero;stroke:none" transform="matrix(1.25 0 0 -1.25 59.492 30.8)"/><path d="M0 0c-1.23-.356-2.77-.687-4.59-.973l6.86-24.536c2.35.39 4.4.837 6.06 1.329v.004C8.35-24.084.18-.496 0 0" style="fill:#ffcf00;fill-opacity:1;fill-rule:nonzero;stroke:none" transform="matrix(1.25 0 0 -1.25 73.78 191.6)"/><path d="M0 0c-.48-.237-1.12-.464-1.9-.676-.42-.174-.89-.373-1.48-.616l-.07-.022c-.23-.087-.58-.082-1.43.005-.42-.07-.85-.141-1.31-.208a.907.907 0 0 0-.6-.256L-9-2.009c-3.89-.422-5.9-.559-6.12-.559 0 0-.17.009-.33.087-.12.033-.23.079-.35.124-.95-.041-1.92-.078-2.92-.103l-.01-.016c-.3-.307-.76-.282-.91-.269-.64.041-9.08.148-9.91.148-.17-.008-.58-.008-.77.244l-.03.059C-37.3-1.921-42.72-1.069-44.87 0c-.59.305-.96.624-1.02.943-.01-.037-.04-.36.09-.558.29-.44 1.07-.875 2.24-1.289a1.417 1.417 0 0 1-.21-.331c-.13-.318-8.28-23.03-8.4-23.274-.06-.128-.09-.298-.06-.476 2.73-.977 6.88-1.796 11.96-2.372l4.47 24.719s5.26-.426 7.27-.451c1.92-.091 3.95-.145 6.1-.145C-9.48-3.234-.27-1.408.93.385c.13.198.1.521.09.558C.96.624.59.305 0 0" style="fill:#ffeba8;fill-opacity:1;fill-rule:nonzero;stroke:none" transform="matrix(1.25 0 0 -1.25 76.605 190.093)"/><path d="m0 0 1.01 9.384 2.35.431.48-.517-.41-9.853-2.95.037L0 0" style="fill:#58595b;fill-opacity:1;fill-rule:nonzero;stroke:none" transform="matrix(1.25 0 0 -1.25 42.28 213.055)"/><path d="m0 0 .31 9.211 6.56.645.13-.641-.64-1.892H3.12V5.12l2.5.646.28-.646-.69-1.916H3.12L3.1-.58H.29L0 0" style="fill:#58595b;fill-opacity:1;fill-rule:nonzero;stroke:none" transform="matrix(1.25 0 0 -1.25 48.792 213.023)"/><path d="m0 0 1.59 9.223 6.03.216.51-.568-.86-1.941-3.21.174-.24-2.186 2.14.423.51-.568-.87-1.917-2 .108-.42-3.676L.5-.568 0 0" style="fill:#58595b;fill-opacity:1;fill-rule:nonzero;stroke:none" transform="matrix(1.25 0 0 -1.25 31.792 212.382)"/><path d="m0 0 .97 4.161L2.45.223 0 0Zm6.58-2.078L1.97 6.491l-2.24.525-.73-.682-2.2-9.597 3.08.174.25.535-.44.679 3.41.182.51-1.081 2.56.174.41.522" style="fill:#58595b;fill-opacity:1;fill-rule:nonzero;stroke:none" transform="matrix(1.25 0 0 -1.25 59.955 209.422)"/><path d="m0 0 2.84-.088-.42-9.852-2.94.037L0 0" style="fill:#fff;fill-opacity:1;fill-rule:nonzero;stroke:none" transform="matrix(1.25 0 0 -1.25 42.93 200.676)"/><path d="M0 0h6.85l-.67-1.942H2.81V-4.09H5.6l-.69-1.916h-2.1l-.02-3.85H-.02L0 0" style="fill:#fff;fill-opacity:1;fill-rule:nonzero;stroke:none" transform="matrix(1.25 0 0 -1.25 48.817 200.703)"/><path d="m0 0 6.53-.356-.85-1.942-3.22.174-.24-2.186 2.65-.144L4-6.368l-2 .104-.41-3.676-2.68.145L0 0" style="fill:#fff;fill-opacity:1;fill-rule:nonzero;stroke:none" transform="matrix(1.25 0 0 -1.25 33.155 200.138)"/><path d="m0 0 .75 4.06L2.23.128 0 0Zm1.97 6.491-2.96-.154L-3.24-3.4l2.65.167.29 1.267 3.16.203.5-1.156 2.5.162-3.89 9.248" style="fill:#fff;fill-opacity:1;fill-rule:nonzero;stroke:none" transform="matrix(1.25 0 0 -1.25 60.855 208.573)"/><path d="M0 0c.62.075 1.18-.369 1.26-.985a1.128 1.128 0 1 0-2.24-.277C-1.06-.642-.62-.079 0 0" style="fill:#58595b;fill-opacity:1;fill-rule:nonzero;stroke:none" transform="matrix(1.25 0 0 -1.25 66.592 200.278)"/><path d="M0 0c.12.017.2.05.19.187C.17.311.03.311-.07.299L-.25.278l.03-.302L0 0Zm-.54.447.46.054C.23.538.42.473.45.195.48-.024.36-.128.17-.17l.39-.484L.29-.69l-.35.484-.13-.021.06-.509-.26-.033L-.54.447zM.08-.968c.44.053.74.443.68.952C.69.485.31.791-.13.737-.57.684-.86.294-.8-.211c.06-.505.44-.811.88-.757zM-.16.982C.45 1.056 1 .621 1.07.022c.08-.605-.36-1.16-.96-1.231-.6-.074-1.16.357-1.23.961A1.11 1.11 0 0 0-.16.982" style="fill:#fff;fill-opacity:1;fill-rule:nonzero;stroke:none" transform="matrix(1.25 0 0 -1.25 67.067 201.366)"/><path d="M0 0a2.365 2.365 0 0 0-.57-.013c-.78.091-1.28.56-1.18 1.396.1.843.66 1.258 1.48 1.163.15-.021.36-.079.53-.169l-.08-.414c-.17.128-.34.172-.51.194-.5.058-.85-.294-.91-.804-.06-.501.2-.914.72-.976.19-.025.42-.008.54.041L0 0" style="fill:#58595b;fill-opacity:1;fill-rule:nonzero;stroke:none" transform="matrix(1.25 0 0 -1.25 33.917 218.007)"/><path d="m0 0 .48-.05-.19-2.087.94-.091-.04-.393-1.42.141L0 0" style="fill:#58595b;fill-opacity:1;fill-rule:nonzero;stroke:none" transform="matrix(1.25 0 0 -1.25 34.667 214.953)"/><path d="m0 0 .49-.042-.11-1.431c-.04-.426.07-.712.45-.742.37-.033.52.237.56.659L1.5-.124l.49-.041-.13-1.586c-.05-.662-.44-.906-1.06-.86-.63.053-.97.359-.92 1.025L0 0" style="fill:#58595b;fill-opacity:1;fill-rule:nonzero;stroke:none" transform="matrix(1.25 0 0 -1.25 36.742 215.172)"/><path d="m0 0 .2-.008c.2-.013.46.019.47.277C.69.554.44.592.22.604L.03.616 0 0Zm-.06-1.088.23-.014c.23-.012.51.033.52.32.02.327-.24.389-.48.401l-.23.013-.04-.72zm-.37 2.123L.41.986c.32-.017.79-.134.76-.68C1.15.009.94-.187.65-.223v-.009c.33-.046.55-.29.53-.592-.03-.629-.59-.696-.89-.674l-.86.045.14 2.488" style="fill:#58595b;fill-opacity:1;fill-rule:nonzero;stroke:none" transform="matrix(1.25 0 0 -1.25 40.342 216.708)"/><path d="m0 0 .51-.008.42-2h.01L1.38-.02l.67-.013.4-1.995.49 1.982.47-.007-.67-2.481-.63.013L1.7-.526l-.46-1.982-.63.007L0 0" style="fill:#58595b;fill-opacity:1;fill-rule:nonzero;stroke:none" transform="matrix(1.25 0 0 -1.25 43.255 215.59)"/><path d="M0 0c.5.005.68.46.68.912-.01.442-.21.885-.7.881C-.5 1.789-.7 1.338-.7.904-.69.453-.5-.003 0 0Zm-.02 2.19c.76.005 1.2-.521 1.21-1.27C1.19.166.77-.38 0-.388-.78-.396-1.19.129-1.2.89c-.01.767.4 1.288 1.18 1.3" style="fill:#58595b;fill-opacity:1;fill-rule:nonzero;stroke:none" transform="matrix(1.25 0 0 -1.25 49.23 218.308)"/><path d="m0 0 .16.005C.4.009.68.05.67.36.67.662.39.679.15.676L-.01.671 0 0Zm-.5 1.056.52.008c.52.008 1.15.041 1.16-.65C1.18.116 1-.129.69-.174v-.008C.82-.19.9-.327.95-.435l.41-.964-.54-.013-.31.774c-.08.183-.14.253-.34.249L.01-.393l.02-1.031-.49-.013-.04 2.493" style="fill:#58595b;fill-opacity:1;fill-rule:nonzero;stroke:none" transform="matrix(1.25 0 0 -1.25 51.792 216.92)"/><path d="m0 0 .49.016.06-2.098.94.029.01-.394-1.43-.041L0 0" style="fill:#58595b;fill-opacity:1;fill-rule:nonzero;stroke:none" transform="matrix(1.25 0 0 -1.25 53.842 215.55)"/><path d="m0 0 .27.017c.41.011.79.339.77.882-.02.542-.43.835-.84.819l-.27-.013L0 0Zm-.57 2.078.67.03c.74.028 1.41-.2 1.44-1.189C1.59-.066.94-.351.19-.385L-.47-.41l-.1 2.488" style="fill:#58595b;fill-opacity:1;fill-rule:nonzero;stroke:none" transform="matrix(1.25 0 0 -1.25 56.692 218.08)"/><path d="M0 0a2.238 2.238 0 0 0-.55-.111c-.78-.059-1.36.302-1.41 1.142-.06.853.41 1.367 1.24 1.424.16.008.37-.005.55-.062v-.422c-.19.091-.36.103-.54.095-.5-.038-.79-.452-.75-.965.03-.5.36-.861.88-.827.2.016.42.074.53.144L0 0" style="fill:#58595b;fill-opacity:1;fill-rule:nonzero;stroke:none" transform="matrix(1.25 0 0 -1.25 62.68 218.183)"/><path d="m0 0 .48.048.14-1.427c.04-.423.2-.693.57-.655.37.041.48.331.44.753L1.49.152l.49.046.15-1.582c.06-.666-.28-.977-.9-1.034-.62-.067-1.02.169-1.08.836L0 0" style="fill:#58595b;fill-opacity:1;fill-rule:nonzero;stroke:none" transform="matrix(1.25 0 0 -1.25 62.917 215.087)"/><path d="m0 0 .17.029c.25.029.45.145.41.43C.55.746.32.811.07.778L-.09.753 0 0Zm-.63 1.076.61.088c.52.074 1.03-.017 1.11-.609C1.16-.016.78-.286.26-.36l-.2-.029.12-.936-.48-.066-.33 2.467" style="fill:#58595b;fill-opacity:1;fill-rule:nonzero;stroke:none" transform="matrix(1.25 0 0 -1.25 66.692 216.118)"/><path d="M0 0a2.417 2.417 0 0 0-.57-.013c-.8.091-1.31.559-1.22 1.395.11.845.68 1.259 1.52 1.163.16-.02.37-.078.54-.169l-.08-.414c-.18.129-.34.174-.52.194-.51.059-.87-.293-.93-.803-.06-.5.21-.914.73-.977.2-.024.43-.008.56.038L0 0" style="fill:#fff;fill-opacity:1;fill-rule:nonzero;stroke:none" transform="matrix(1.25 0 0 -1.25 33.567 217.567)"/><path d="m0 0 .5-.05-.2-2.087.96-.091-.04-.393-1.46.14L0 0" style="fill:#fff;fill-opacity:1;fill-rule:nonzero;stroke:none" transform="matrix(1.25 0 0 -1.25 34.342 214.513)"/><path d="m0 0 .5-.041-.11-1.433c-.04-.422.07-.712.45-.741.38-.033.54.232.58.659l.11 1.432.5-.041-.13-1.586c-.05-.666-.45-.906-1.09-.861-.63.053-.99.361-.93 1.027L0 0" style="fill:#fff;fill-opacity:1;fill-rule:nonzero;stroke:none" transform="matrix(1.25 0 0 -1.25 36.467 214.732)"/><path d="m0 0 .21-.007C.42-.019.68.014.7.27.71.559.46.592.23.605L.04.618 0 0Zm-.05-1.088L.18-1.1c.23-.013.52.029.53.318.02.327-.24.39-.49.401l-.23.013-.04-.72zm-.39 2.124L.43.987c.32-.017.8-.134.77-.679C1.18.009.97-.185.67-.222v-.009c.34-.046.56-.29.54-.596-.03-.626-.6-.687-.92-.671l-.86.045.13 2.489" style="fill:#fff;fill-opacity:1;fill-rule:nonzero;stroke:none" transform="matrix(1.25 0 0 -1.25 40.142 216.27)"/><path d="m0 0 .53-.009.43-1.999h.01l.45 1.987.68-.007.41-2h.01l.49 1.983.49-.009-.69-2.48-.64.013-.42 1.995h-.01l-.47-1.983-.64.008L0 0" style="fill:#fff;fill-opacity:1;fill-rule:nonzero;stroke:none" transform="matrix(1.25 0 0 -1.25 43.117 215.15)"/><path d="M0 0c.52.009.7.46.7.911-.01.444-.22.886-.71.882-.5-.004-.7-.455-.69-.895C-.7.452-.51-.004 0 0Zm-.02 2.187c.78.007 1.23-.518 1.24-1.267C1.22.166.8-.38.01-.389c-.8-.007-1.23.518-1.23 1.28-.01.765.41 1.287 1.2 1.296" style="fill:#fff;fill-opacity:1;fill-rule:nonzero;stroke:none" transform="matrix(1.25 0 0 -1.25 49.23 217.868)"/><path d="m0 0 .17.005C.41.009.7.047.69.361.69.663.41.68.16.676L-.01.671 0 0Zm-.51 1.053.53.012c.54.008 1.18.037 1.19-.65a.573.573 0 0 0-.5-.587v-.009c.13-.008.21-.145.27-.252l.42-.965-.56-.009-.31.771c-.08.182-.15.252-.36.249L.01-.392l.02-1.031-.5-.013-.04 2.489" style="fill:#fff;fill-opacity:1;fill-rule:nonzero;stroke:none" transform="matrix(1.25 0 0 -1.25 51.855 216.482)"/><path d="m0 0 .5.014.06-2.1.97.028.01-.392-1.47-.042L0 0" style="fill:#fff;fill-opacity:1;fill-rule:nonzero;stroke:none" transform="matrix(1.25 0 0 -1.25 53.955 215.105)"/><path d="m0 0 .28.016c.41.012.8.339.78.882-.02.542-.44.836-.85.819l-.28-.012L0 0Zm-.59 2.078.69.029c.76.028 1.44-.199 1.48-1.184C1.63-.066.96-.352.2-.385l-.68-.029-.11 2.492" style="fill:#fff;fill-opacity:1;fill-rule:nonzero;stroke:none" transform="matrix(1.25 0 0 -1.25 56.867 217.64)"/><path d="M0 0a2.273 2.273 0 0 0-.56-.113c-.8-.057-1.39.302-1.45 1.143-.06.852.43 1.361 1.27 1.424.17.012.39-.008.57-.063v-.422c-.2.092-.37.104-.55.095-.51-.036-.81-.451-.77-.964.03-.501.37-.861.9-.828.2.017.43.074.54.141L0 0" style="fill:#fff;fill-opacity:1;fill-rule:nonzero;stroke:none" transform="matrix(1.25 0 0 -1.25 62.992 217.742)"/><path d="m0 0 .5.05.14-1.429c.04-.426.21-.691.58-.654.38.041.49.331.45.753L1.53.149l.5.049.15-1.582c.07-.666-.29-.976-.92-1.039-.63-.061-1.04.175-1.1.841L0 0" style="fill:#fff;fill-opacity:1;fill-rule:nonzero;stroke:none" transform="matrix(1.25 0 0 -1.25 63.23 214.648)"/><path d="m0 0 .17.028c.25.03.46.146.42.431C.56.74.33.815.07.778L-.1.753 0 0Zm-.65 1.076.62.087c.54.074 1.05-.017 1.14-.608C1.19-.017.79-.286.26-.36L.05-.39l.13-.934-.49-.067-.34 2.467" style="fill:#fff;fill-opacity:1;fill-rule:nonzero;stroke:none" transform="matrix(1.25 0 0 -1.25 67.105 215.678)"/><path d="M0 0v-1.142h-.46v2.807H0V.522h3.21V0H0" style="fill:#231f20;fill-opacity:1;fill-rule:nonzero;stroke:none" transform="matrix(1.25 0 0 -1.25 96.067 222.127)"/><path d="M0 0v.869l3.05 1.152L0 3.147v.869h3.67V3.49H.49v-.005l3.18-1.216v-.518L.49.538V.525h3.18V0H0" style="fill:#231f20;fill-opacity:1;fill-rule:nonzero;stroke:none" transform="matrix(1.25 0 0 -1.25 95.492 219.378)"/><path d="M0 0c.59-.092.93-.522.93-1.026 0-.742-.56-1.222-1.3-1.222-.75 0-1.3.447-1.3 1.205 0 .521.31.968.89 1.043v-.431a.596.596 0 0 1-.48-.608c0-.497.38-.754.87-.754.52 0 .91.281.91.767 0 .318-.19.554-.52.595V0Zm1.35-1.081C1.35-.183.63.542-.37.542c-1.01 0-1.73-.725-1.73-1.623s.72-1.627 1.73-1.627c1 0 1.72.729 1.72 1.627zm-3.87 0c0 1.185.96 2.149 2.15 2.149 1.18 0 2.14-.964 2.14-2.149 0-1.184-.96-2.148-2.14-2.148-1.19 0-2.15.964-2.15 2.148" style="fill:#231f20;fill-opacity:1;fill-rule:nonzero;stroke:none" transform="matrix(1.25 0 0 -1.25 98.255 209.013)"/></svg>