<svg xmlns="http://www.w3.org/2000/svg" xmlns:xlink="http://www.w3.org/1999/xlink" width="113px" height="154px" viewBox="0 0 113 154"><defs><path id="a" d="M.88.447h37.406v79.112H.88z"/></defs><g fill="none" fill-rule="evenodd"><path fill="#FFF" d="M69.641 66.26c8.322-15.453 12.96-32.355 3.855-43.977.441 2.921.525 5.422.525 5.422 10.777 15.898-9.814 46.045-9.814 46.045a116.31 116.31 0 0 0 5.434-7.49"/><path fill="#FFF" d="M76.32 54.253c10.508-23.84-1.794-35.42-3.789-37.086.218.965.387 1.898.546 2.778.111.514.214 1.03.301 1.543 9.672 11.613 4.976 28.235-1.366 41.03.312-.52.76-1.222.76-1.222 19.903-31.31-1.113-47.467-1.113-47.467.248.627.473 1.73.676 2.45 2.193 2.097 15.46 14.576 3.985 37.974M33.814 22.283c-9.105 11.622-4.468 28.524 3.854 43.976a116.835 116.835 0 0 0 5.435 7.491S22.51 43.603 33.289 27.705c0 0 .085-2.5.525-5.422"/><path fill="#FFF" d="M35.297 62.519C28.957 49.723 24.26 33.1 33.932 21.488c.087-.512.19-1.03.301-1.543.16-.88.328-1.813.546-2.778-1.995 1.666-14.296 13.247-3.79 37.086-11.473-23.4 1.792-35.878 3.986-37.973.204-.721.428-1.824.676-2.451 0 0-21.017 16.157-1.113 47.467 0 0 .447.702.76 1.223"/><g transform="translate(34 -.447)"><mask id="b" fill="#fff"><use xlink:href="#a"/></mask><path fill="#FFF" d="M11.98 75.736C3.679 66.092 3.153 41.9 3.153 41.9 5.53 76.559 17.313 79.559 19.58 79.559h.003c2.269 0 14.053-3 16.43-37.658 0 0-.526 24.19-8.827 33.835C33.7 68.779 38.286 53.15 38.286 34.985c0-13.858-2.652-26.358-6.808-34.538l-4.072.019c3.844 6.949 6.418 18.596 6.418 31.594 0 10.718-1.53 20.41-4.107 27.378l.778-1.197c-2.405 8.755-6.785 13.658-10.911 13.69-4.127-.032-8.507-4.935-10.912-13.69l.778 1.197C6.872 52.47 5.342 42.778 5.342 32.06c0-12.998 2.575-24.645 6.419-31.594L7.689.446C3.533 8.627.88 21.127.88 34.986c0 18.165 4.584 33.794 11.099 40.75" mask="url(#b)"/></g><path fill="#FFF" d="M53.556 71.092v.001h.055c4.053-.063 8.236-5.659 9.919-11.577-2.403 6.252-5.889 10.136-9.947 10.14-4.057-.004-7.544-3.888-9.945-10.14 1.683 5.918 5.864 11.514 9.918 11.576M7.615 144.024s-2.629-1.195-3.783-2.021c-.427-.259-.7-.61-.604-.911.162-.502.852-.647 2.827-.647.552 0 5.064.308 5.064.308v-2.651s-3.66-.392-5.064-.392c-4.13 0-6.055 1.168-6.055 3.681 0 1.958 1.47 2.712 3.507 3.758l2.234 1.144c2.073 1.074 2.471 1.624 2.537 2.268.056.543-.242 1.869-1.855 2.15-1.358.236-6.259-.203-6.259-.203v2.651s3.718.394 5.057.394c6.45 0 6.34-4.293 6.34-5.067 0-1.815-1.069-3.025-3.946-4.462M22.036 140.152v6.564c0 1.184-.106 2.053-.312 2.585a2.154 2.154 0 0 1-.98 1.117c-.131.074-.777.409-1.98.409-1.203 0-1.849-.335-1.979-.409a2.15 2.15 0 0 1-.98-1.117c-.206-.532-.312-1.401-.312-2.585v-6.564c0-1.205-1.07-2.203-2.384-2.225h-.501v8.8c0 1.583.197 2.861.586 3.795.407.981 1.098 1.741 2.053 2.259.721.391 1.622.633 2.677.716.257.024.823.037.832.037h.016c.009 0 .576-.013.832-.037 1.056-.083 1.957-.325 2.677-.716.955-.518 1.646-1.278 2.053-2.259.39-.934.587-2.212.587-3.795v-8.8h-.502c-1.313.022-2.383 1.02-2.383 2.225M36.611 138.825c-.536-.371-1.198-.624-1.967-.754-.529-.096-1.295-.143-2.274-.143h-3.196v.002l-.639-.002c-2.13 0-2.126 1.72-2.126 2.61v12.764h2.885l.004-12.694H32.526c1.02 0 1.458.062 1.645.11.382.106.696.328.931.662.245.343.364.756.364 1.258 0 .687-.198 1.199-.609 1.563-.422.373-1.432.562-2.817.562-1.266 0-2.049 1.064-2.168 2.116l-.063.548 2.727.016c2.17 0 3.71-.478 4.58-1.427.86-.936 1.295-2.093 1.295-3.437 0-.788-.163-1.522-.484-2.18-.327-.666-.769-1.196-1.316-1.574M42.399 140.609h7.572v-2.682H42.11v.003l-.474-.003c-2.131 0-2.127 1.722-2.127 2.611v10.154c0 .888-.004 2.609 2.127 2.609l.763-.003v.003l7.579-.01v-2.681h-7.58v-4.028h7.58v-2.67h-7.58v-3.303ZM62.995 150.61c-1.107-.155-3.957-.832-4.911-3.181 1.908-.069 3.286-.539 4.088-1.413.86-.936 1.297-2.093 1.297-3.437 0-.788-.163-1.522-.485-2.179-.326-.667-.77-1.197-1.316-1.575-.535-.371-1.197-.624-1.967-.754-.528-.096-1.295-.144-2.274-.144h-3.195v.003l-.64-.003c-2.13 0-2.125 1.722-2.125 2.611v12.763h2.884l.004-12.693.136.001h3.092c1.02 0 1.458.061 1.644.109.383.106.698.328.933.662.244.343.364.755.364 1.257 0 .688-.206 1.192-.61 1.564-.87.799-5.03.647-5.03.647-.398 3.098 1.887 8.453 9.162 8.453h1.596l.104-.329s-1.61-.578-2.751-2.362M69.292 140.19c-1.348 1.525-2.032 3.417-2.032 5.623 0 1.287.256 2.48.757 3.551.5 1.061 1.17 1.9 1.993 2.49.826.597 1.867 1.007 3.092 1.221.883.167 2.188.226 3.878.226h3.034v-2.677H76.7c-1.581 0-2.638-.08-3.23-.242-.936-.269-1.698-.83-2.267-1.667-.577-.844-.857-1.83-.857-3.01 0-1.629.478-2.862 1.462-3.77.923-.85 2.46-1.113 4.544-1.147h.014v.001h1.424c1.204 0 2.202-1.072 2.223-2.385v-.493h-3.647c-3.414 0-5.775.807-7.075 2.278M90.93 140.152v6.564c0 1.184-.106 2.053-.313 2.585a2.154 2.154 0 0 1-.98 1.117c-.13.074-.775.409-1.978.409-1.205 0-1.85-.335-1.98-.409a2.144 2.144 0 0 1-.98-1.117c-.206-.532-.314-1.401-.314-2.585v-6.564c0-1.205-1.069-2.203-2.383-2.225h-.501v8.8c0 1.583.197 2.861.587 3.795.407.981 1.098 1.741 2.053 2.259.72.391 1.621.633 2.677.716.257.024.823.037.832.037h.015c.01 0 .576-.013.832-.037 1.056-.083 1.957-.325 2.677-.716.955-.518 1.647-1.278 2.054-2.259.39-.934.587-2.212.587-3.795v-8.8h-.501c-1.314.022-2.384 1.02-2.384 2.225M106.821 140.4c-.327-.667-.77-1.197-1.316-1.575-.536-.371-1.198-.624-1.967-.754-.53-.096-1.295-.144-2.275-.144h-3.195v.003l-.639-.003c-2.13 0-2.127 1.722-2.127 2.611v12.763h2.886l.003-12.693.136.001h3.093c1.02 0 1.458.061 1.644.109.383.106.696.328.933.661.244.344.363.756.363 1.258 0 .688-.198 1.2-.609 1.564-.422.373-1.432.562-2.817.562-1.267 0-2.05 1.064-2.169 2.116l-.062.547 2.727.017c2.168 0 3.708-.479 4.58-1.427.86-.936 1.295-2.094 1.295-3.437 0-.788-.163-1.522-.484-2.179M107.387 138.261v-.326h2.318v.326h-.965v2.574h-.387v-2.574zM110.56 137.935l.914 2.438.918-2.438h.527v2.9h-.365v-2.413h-.008l-.905 2.413h-.33l-.904-2.413h-.01v2.413h-.364v-2.9zM29.321 120.921l-.979-.957c6.397-6.553 15.325-10.617 25.202-10.617 9.88 0 18.805 4.064 25.2 10.618l-.977.956c-6.149-6.294-14.73-10.205-24.223-10.205-9.494 0-18.077 3.912-24.223 10.206Zm9.63 10.877-1.029-.906c3.808-4.343 9.394-7.084 15.622-7.084 6.227 0 11.813 2.741 15.62 7.084l-1.03.906c-3.558-4.055-8.774-6.618-14.59-6.618-5.818 0-11.036 2.563-14.594 6.618Zm33.986-12.466c.405.312.375.627.277.944L70.67 129.1l-1.44-1.325.492-1.697-1.696-1.306 1.467-.95.715.553.88-3.025-5.544 3.597-1.625-.91 7.687-4.998c.28-.177.578-.288.986.027l.345.265Zm-35.542 6.33c-.627-.075-1.018-.336-1.616-1.072l-3.06-3.763-1.355 1.103 3.343 4.114c.7.86 1.493 1.318 2.426 1.41 1.05.093 1.987-.222 2.913-.971.923-.755 1.421-1.603 1.54-2.654.108-.928-.18-1.797-.876-2.665l-3.345-4.109-1.357 1.098 3.056 3.763c.602.739.778 1.175.716 1.806-.044.515-.359 1.032-.83 1.416-.47.382-1.04.581-1.555.524Zm13.182-11.143-.327-1.619-5.406 1.1c-.374.078-.594.37-.514.778l1.132 5.557c.383 1.897 1.76 2.329 3.285 2.015l3.285-.664-.327-1.619-3.19.647c-.825.17-1.19.01-1.377-.91l-.17-.832 3.966-.81-.323-1.592-3.967.81-.403-1.98 4.336-.88Zm8.37 4.174 3.92 1.032.411-1.572-3.918-1.032.216-.819c.236-.909.612-1.046 1.427-.835l3.148.83.418-1.596-3.246-.85c-1.504-.395-2.898-.04-3.39 1.823l-1.436 5.49c-.109.404.098.707.466.805l1.061.276.923-3.552ZM77.725 105.118c-5.576-3.016-9.254-3.815-13.604-4.111 5.748 1.268 15.143 4.337 19.477 11.302-1.919-3.643-3.187-5.212-5.873-7.191M45.212 97.82c-7.487 1.942-15.22 4.57-23.715 18.993 0 0 2.149-2.815 6.346-5.965 5.559-8.177 13.128-11.646 17.369-13.027M55.19 94.35c2.768-.584 8.416-2.758-.606-10.22 2.422 2.445 3.523 4.66 3.266 6.615-.24 1.834-1.604 2.98-2.66 3.605"/><path fill="#FFF" d="m84.016 113.225-.25-.503c-4.319-6.939-14.39-10.292-19.718-11.469l-2.293-.585c-.25-.048 3.627.173 3.377.125-4.148-.793-9.776-1.808-13.234-3.893-1.503-.904-2.34-2.176-2.495-3.778a5.842 5.842 0 0 1-.023-.547c0-2.17 1.286-4.984 3.905-7.883.039.055.076.111.114.167-3.172 3.797-5.627 9.097-1.3 11.705 7.029 4.234 16.154 2.893 24.953 7.87-9.298-7.228-21.7-6.072-24.384-11.262-1.544-2.992-.672-5.83.86-8.12.044.065.13.2.157.242 1.639 2.623 2.457 5.827.305 8.99.054.051.113.101.17.152 1.477-.646 6.557-3.482.239-9.94l-.248-.25a.51.51 0 0 0-.024-.024 17.923 17.923 0 0 1 1.55-1.74 22.817 22.817 0 0 0-1.645 1.647c-.037-.038-.076-.075-.115-.113C55.291 82.6 56.986 81.173 59 79.8c-2.08 1.404-3.85 2.726-5.343 3.971-1.404-1.316-3.264-2.772-5.697-4.38 0 0 2.901 1.995 5.056 4.926-14.146 12.268-.518 16.876 11.164 19.247 13.874 2.817 21.24 12.994 21.24 12.994-.53-1.548-.73-2.049-1.406-3.333"/><path fill="#FFF" d="M48.142 97.258c-.044-.052-.09-.103-.132-.154-.357.092-.714.186-1.072.277-5.02 1.564-12.933 5.868-18.09 12.738a43.228 43.228 0 0 1 6.305-3.696c6.324-7.188 11.592-8.837 12.989-9.165"/><path fill="#FFF" d="M36.04 106.023a41.76 41.76 0 0 1 7.204-2.494c3.545-.87 7.056-1.484 10.113-2.836-2.01-.86-3.726-1.879-4.908-3.099-.807.162-6.018 1.443-12.41 8.43M58.764 96.734c1.482-1.726 2.014-3.769 1.097-6.168.008.096.023.193.023.287 0 2.853-3.627 3.741-5.21 3.993 1.063.769 2.462 1.357 4.09 1.888"/></g></svg>