<svg xmlns="http://www.w3.org/2000/svg" xml:space="preserve" x="0px" y="0px" version="1.0" viewBox="0 0 409.4 510.2"><g fill-rule="evenodd" clip-rule="evenodd"><path fill="#FFF" d="M235.8 420.1c-9.9 7.5-20.3 14.3-31.1 20.3-10.8-5.9-21.2-12.7-31.1-20.3V200.4h62.3zm-35.9-200.4c1.8 2 4 3 6.8 2.7 1.7-4.4 3.1-9.6 6.8-12.4 3.5-2.7 8.2-3.7 12.4-2.4 2.6.8 4.6 5.7 2 9.1-4.1 5.3-9.6 8.4-16.4 8.6-2.7 9.6-4.8 16.5-8.9 21.8 6.5 3.1 9.8 3.8 13.8 3.8 3.7 0 8.7-2.3 13.8-6.5-3.7 10.1-10.9 13.2-17.7 12.1-4.3-.6-7.7-3.2-12.2-5.8-2.6 3-7.4 6.4-11.9 6.9-2.8.3-7.3-1.9-7.4-4.7-.2-3.3 2.3-5.7 5.4-7.1 3.2-1.4 7.9-1.7 11.4-.5 2.9-5.6 5.7-11.9 7.9-20.2-3.1-.6-5.1-1.4-5.8-5.4m.9 203.2c4.7 0 10.1-3.9 14.1-10.6.3-.6.3-1.7-.3-1.9-.8-.3-1.7.4-2.2 1.1-3.5 4.3-6.9 7.1-9.9 7.1-6.9 0-8.9-9.7-5.2-21.4 3.7-11.6 12.5-21.6 21.1-21.3 3.5.2 4.1 2.8 3.9 6.3 0 .5-.4 1.6.2 1.6.7 0 1.3-.8 1.4-1.5 1.1-5.4-.4-8.5-6.8-8.7-11.4-.4-23.6 11.1-28.4 24.6-4.9 13.4 3 24.7 12.1 24.7m11.8-91.3c-.7 4.8-1.4 10-2.4 15 1.4.1 2.8.3 4.1.3 3.6.1 4.7-1.6 5.5-5.1 1 3.8.4 8.3-4.1 8.8-1.7.2-4 .1-6.4 0-1 3.9-2.2 7.7-3.9 10.9-1.6 2.9-3.5 5.4-6 7.2-8.8 6.5-15.4 1.8-14.7-5.3.8 3.7 3 6.2 6.1 5.8 4.2-.6 7.9-6.3 8.8-9.6l2.6-9.3c-1.3 0-2.5.1-3.7.3-3.1.5-5.2 1.8-5.4 4.8-1.8-2.7.8-7.2 3.6-8.3 2.1-.8 4.3-1.1 6.7-1l4.1-14.7c-2.3-.2-4.6-.4-6.7-.6-1.4-.1-4.9.3-5.2 2.6s2.1 4.1 5.1 4.3c-4.1.5-10.1.5-10.1-5.2 0-4 5.7-5.8 9-6.2 8.1-1 16.3 1.4 24.4.6 2.7-.3 5.3-1.6 7.1-3.9-.9 5.5-2.8 6.6-6.1 7.4-4 1.1-8.2 1.3-12.4 1.2m-10.3-64c-3.8-1-10.2 1.9-12 6.7 2.7-3.1 6.6-5.5 9.6-4.2 2.1.9 1 4.9.2 6.4L186 301.2c-2 3.6-2.1 8.5.5 11 3.3 3.2 11.2 1.6 14.1-.2 3-1.9 5.1-4.9 6.8-8.1-.6 2.2-.9 4.3-.3 6.3.9 2.9 4.6 5 7.5 4.8 6.7-.5 9.6-5.9 5.2-12 1 3.4-1.1 6.8-3.6 7.1-2.6.4-7.1-2.8-5.1-7.1l16.2-34.3h-5.5L206 302.3c-2.1 4.4-7.2 8.1-12 7.8-4.4-.2-3.7-7.3-2.2-9.8l13-22.8c2.9-4.8 1.2-9-2.5-9.9m20.5-56.6c2.5 1.7 1.3 5.1-1.4 7.6s-6.9 4-9.2 4.2c.3-1.5 1.2-5.1 2.4-7.4 2.1-3.9 5.2-6.4 8.2-4.4m-27.5 36.9c-2.1 3.6-4.3 5-6.4 5.3-2 .3-5.2-.4-5.1-3 .1-1.7 2-3.4 6.3-3.6 2.3-.1 4.1.8 5.2 1.3m6.3-118.5-4.5 6.3-6.3-2.1c-1.6-2.5-2.6-5.4-2.8-8.5l3.9-5.4 7.3 2.4zm11-22.2c2.8 1.1 5.3 2.9 7.2 5.2v6.6l-7.3 2.4-6.2-4.5v-7.7zm11.3 17.9c-.2 3.1-1.2 6-2.8 8.5l-6.3 2.1-4.5-6.3 2.4-7.3 7.3-2.4zm-13.5 16.3c-1.4.4-2.9.6-4.4.6s-3-.2-4.4-.6l-3.9-5.4 4.6-6.2h7.6l4.6 6.2zm-18.3-28.9c1.9-2.3 4.4-4.1 7.2-5.2l6.3 2v7.7l-6.2 4.5-7.3-2.4zm-19.9-16.3c2-3 4.6-5.8 7.7-8 3.1-2.3 6.6-3.9 10-4.9-2.4 2.9-4 6.5-7.1 8.8s-7.1 2.7-10.6 4.1m33.8 8.7c10.5 0 19.1 8.6 19.1 19.1s-8.6 19.1-19.1 19.1-19.1-8.6-19.1-19.1c0-10.6 8.6-19.1 19.1-19.1m-36.9 42.6c-2.2-2.8-4.1-6.1-5.3-9.8s-1.7-7.4-1.5-11c2 3.2 5 5.8 6.2 9.5 1.3 3.7.4 7.5.6 11.3m47.9 18.8c-3.4 1.3-7.1 2-11 2s-7.6-.7-11-2c3.6-1 7-3 11-3 3.9 0 7.3 2 11 3m32.6-39.7c.2 3.6-.3 7.3-1.5 11s-3 7-5.3 9.8c.2-3.8-.6-7.6.6-11.4 1.2-3.6 4.2-6.2 6.2-9.4m-2.1-19.8c-.2-8.4-4.6-17.1-12.5-22.9-7.9-5.7-17.5-7.2-25.6-4.8-.6-4-1.8-7.6-3.4-10.5-1.6 2.8-2.8 6.4-3.4 10.5-8.1-2.4-17.7-.9-25.6 4.8s-12.3 14.4-12.5 22.9c-4-.7-7.8-.6-11 0 2.2 2.4 5.2 4.7 8.9 6.5-4.8 6.9-6.3 16.5-3.3 25.8s9.9 16.2 17.9 19c-1.9 3.6-3 7.2-3.4 10.5 3-1.3 6.1-3.5 8.9-6.4 5.1 6.7 13.8 11.1 23.5 11.1 9.8 0 18.4-4.4 23.5-11.1 2.9 2.9 6 5.1 8.9 6.4-.4-3.2-1.5-6.9-3.4-10.5 8-2.8 14.9-9.7 17.9-19s1.5-18.9-3.3-25.8c3.6-1.8 6.7-4.1 8.9-6.5-3.2-.6-6.9-.6-11 0m-26 37.5c2.2 1.7 3.7 4.2 5.4 6.3.8 1 1.7 1.5 2.7 2.5 2.4 1 6.6-3.2 7.3-5 1.5-4.3-.3-9.2 1.2-13.7 1.5-4.6 5.8-7.4 7.1-11.8.5-1.8-.4-7.6-2.9-8.3-1.4.1-2.4.1-3.6.4-2.6.7-5.3 1.9-8.1 2 .2 1.4-.7 2.7-2 3.1-1.5.5-3.2-.3-3.7-1.9-.5-1.5.3-3.2 1.9-3.7 1.3-.4 2.8.2 3.5 1.3 2.3-1.5 5.2-2.2 7.7-3.1 1.2-.4 2-1.1 3.2-1.8 1.7-2-1-7.3-2.5-8.4-3.6-2.8-8.8-2.5-12.7-5.3s-5.2-7.8-9-10.4c-1.5-1.1-7.4-2-8.8.2-.3 1.4-.7 2.3-.8 3.6-.1 2.7.1 5.7-.6 8.3 1.3.3 2.3 1.5 2.3 2.9 0 1.6-1.3 2.9-2.9 2.9s-2.9-1.3-2.9-2.9c0-1.4 1-2.6 2.3-2.9-.8-2.6-.5-5.6-.6-8.3-.1-1.2-.5-2.2-.8-3.6-1.4-2.2-7.3-1.3-8.8-.2-3.8 2.6-5.1 7.6-9 10.4s-9 2.6-12.7 5.3c-1.5 1.1-4.2 6.4-2.5 8.4 1.2.7 2 1.4 3.2 1.8 2.5 1 5.4 1.6 7.7 3.1.7-1.2 2.1-1.8 3.5-1.3 1.5.5 2.4 2.2 1.9 3.7s-2.2 2.4-3.7 1.9c-1.3-.4-2.2-1.8-2-3.1-2.7-.1-5.5-1.3-8.1-2-1.2-.3-2.3-.2-3.6-.4-2.5.7-3.5 6.5-2.9 8.3 1.3 4.4 5.6 7.2 7.1 11.8s-.4 9.4 1.2 13.7c.6 1.8 4.8 5.9 7.3 5 1-.9 1.9-1.5 2.7-2.5 1.7-2.1 3.2-4.7 5.4-6.3-.9-1-1-2.6-.2-3.7.9-1.3 2.8-1.6 4.1-.6 1.3.9 1.6 2.8.6 4.1-.8 1.1-2.3 1.5-3.6.9-.9 2.6-2.9 4.8-4.4 7.1-.7 1-.9 2.1-1.5 3.3-.2 2.6 5.1 5.3 7 5.4 4.6.1 8.6-3.1 13.4-3.1s8.8 3.2 13.4 3.1c1.9 0 7.1-2.7 7-5.4-.6-1.3-.8-2.3-1.5-3.3-1.5-2.3-3.4-4.5-4.4-7.1-1.2.6-2.8.2-3.6-.9-.9-1.3-.7-3.1.6-4.1 1.3-.9 3.1-.7 4.1.6.6 1.1.5 2.7-.4 3.7m9.9 10.8c1.8 2.5 3.6 6.4 3.9 9.2-2.6-1.2-5.8-4.1-7.6-6.6-1.7 2.8-5.9 5-8.4 5.1-4.7.1-8.6-3.1-13.4-3.1s-8.7 3.2-13.4 3.1c-2.5-.1-6.7-2.3-8.4-5.1-1.8 2.5-5 5.4-7.6 6.6.3-2.8 2.1-6.8 3.9-9.2-3.2-.7-6.6-4-7.4-6.4-1.6-4.5.3-9.2-1.2-13.7s-5.8-7.2-7.1-11.8c-.7-2.4.1-7.1 2.2-9.5-2.9-.9-6.7-3.1-8.6-5.1 2.8-.5 7.1 0 10 .9-.3-3.3 1.8-7.5 3.8-9 3.8-2.9 8.8-2.5 12.7-5.3s5.1-7.7 9-10.4c2.1-1.4 6.8-2.1 9.8-.8 0-3.1.9-7.3 2.2-9.8 1.4 2.5 2.2 6.7 2.2 9.8 3-1.3 7.7-.6 9.8.8 3.9 2.7 5.1 7.6 9 10.4s8.9 2.5 12.7 5.3c2 1.5 4.1 5.8 3.8 9 2.9-.9 7.2-1.4 10-.9-1.9 2.1-5.7 4.2-8.6 5.1 2.2 2.5 3 7.1 2.2 9.5-1.4 4.5-5.6 7.2-7.1 11.8-1.5 4.5.4 9.2-1.2 13.7-.6 2.4-4 5.7-7.2 6.4M206 99.9c.8 0 1.4.6 1.4 1.4s-.6 1.4-1.4 1.4-1.4-.6-1.4-1.4.6-1.4 1.4-1.4m22.8 16.6c.2.7-.2 1.5-.9 1.7s-1.5-.2-1.7-.9.2-1.5.9-1.7 1.5.2 1.7.9m-45.7 0c.2-.7 1-1.1 1.7-.9s1.1 1 .9 1.7-1 1.1-1.7.9-1.1-1-.9-1.7m8.8 26.9c-.6-.4-.7-1.3-.3-1.9s1.3-.7 1.9-.3.7 1.3.3 1.9c-.5.6-1.3.7-1.9.3m28.2 0c-.6.4-1.5.3-1.9-.3s-.3-1.5.3-1.9 1.5-.3 1.9.3c.5.6.3 1.5-.3 1.9m1.9-60.1c3.5 1 6.9 2.6 10 4.9s5.7 5 7.7 8c-3.5-1.4-7.4-1.7-10.6-4.1-3.2-2.3-4.7-5.9-7.1-8.8"/><path fill="#FFE003" d="M204.7 495.3c-100.5-59.5-189-163.2-189-333.3 0-25.8 2.2-51 6.4-75.3C65.1 43 131 14.9 204.7 14.9S344.3 43 387.3 86.7c4.2 24.3 6.4 49.5 6.4 75.3 0 170.1-88.6 273.8-189 333.3m15.8-376.1v-5.9c2.2 3 3.5 6.6 3.5 10.6v.1zM206 106c2 0 3.8.3 5.6.9l-5.6 1.8-5.6-1.8c1.8-.6 3.6-.9 5.6-.9m14.5 28.5c-2.2 3.1-5.4 5.4-9 6.6l3.5-4.7zm-20 6.6c-3.7-1.2-6.8-3.5-9-6.6l5.6 1.8zM188 124c0-4 1.3-7.7 3.5-10.6v5.9zm18-6.7 3.1 2.3 3.1 2.3-1.2 3.7-1.2 3.7h-7.7l-1.2-3.7-1.2-3.7 3.1-2.3zm29.8 302.8c-9.9 7.5-20.3 14.3-31.1 20.3-10.8-5.9-21.2-12.7-31.1-20.3V200.4h62.3zM59.1 179.6h291.2c.3-14 .5-27.1-.7-39.2-1.9-19-7.3-26.2-16.1-32.9-35.1-26.9-79.7-42.3-128.7-42.3s-93.6 15.5-128.7 42.3c-8.8 6.7-14.2 13.9-16.1 32.9-1.4 12.1-1.2 25.2-.9 39.2M349.4 220 332 200.4h18v4.7c-.1 5-.3 9.9-.6 14.9M155 404.8c-5.5-5-10.9-10.2-16-15.6l16-18zm-30.9-32.4q-8.85-10.8-16.8-22.5l47.6-53.5v41.3zm-29-42.2c-4.9-8.6-9.4-17.4-13.3-26.3l73.2-82.3v41.3zm-22.5-49.6c-3.6-10.5-6.5-21-8.6-31.6l43.2-48.6h36.7zM60 220c-.4-5-.5-9.9-.5-14.9v-4.7h18zm276.7 60.6-71.3-80.2h36.7l43.2 48.6c-2.1 10.6-5 21.2-8.6 31.6m-22.5 49.6-59.9-67.3v-41.3l73.2 82.3c-3.9 8.9-8.4 17.7-13.3 26.3m-29 42.2-30.8-34.7v-41.3l47.6 53.5q-7.95 11.55-16.8 22.5m-30.8 32.4v-33.6l16 18c-5.2 5.4-10.5 10.6-16 15.6"/><path fill="#0060A9" d="M204.7 510.2c-84.4-46-159.6-127.1-187.2-224.5-19.5-68.8-24-141-6.7-209.4C56.4 29.8 126.4 0 204.7 0s148.2 29.8 193.9 76.3c17.3 68.5 12.8 140.6-6.7 209.4-27.6 97.4-102.9 178.5-187.2 224.5m-4.8-290.5c1.8 2 4 3 6.8 2.7 1.7-4.4 3.1-9.6 6.8-12.4 3.5-2.7 8.2-3.7 12.4-2.4 2.6.8 4.6 5.7 2 9.1-4.1 5.3-9.6 8.4-16.4 8.6-2.7 9.6-4.8 16.5-8.9 21.8 6.5 3.1 9.8 3.8 13.8 3.8 3.7 0 8.7-2.3 13.8-6.5-3.7 10.1-10.9 13.2-17.7 12.1-4.3-.6-7.7-3.2-12.2-5.8-2.6 3-7.4 6.4-11.9 6.9-2.8.3-7.3-1.9-7.4-4.7-.2-3.3 2.3-5.7 5.4-7.1 3.2-1.4 7.9-1.7 11.4-.5 2.9-5.6 5.7-11.9 7.9-20.2-3.1-.6-5.1-1.4-5.8-5.4m.9 203.2c4.7 0 10.1-3.9 14.1-10.6.3-.6.3-1.7-.3-1.9-.8-.3-1.7.4-2.2 1.1-3.5 4.3-6.9 7.1-9.9 7.1-6.9 0-8.9-9.7-5.2-21.4 3.7-11.6 12.5-21.6 21.1-21.3 3.5.2 4.1 2.8 3.9 6.3 0 .5-.4 1.6.2 1.6.7 0 1.3-.8 1.4-1.5 1.1-5.4-.4-8.5-6.8-8.7-11.4-.4-23.6 11.1-28.4 24.6-4.9 13.4 3 24.7 12.1 24.7m11.8-91.3c-.7 4.8-1.4 10-2.4 15 1.4.1 2.8.3 4.1.3 3.6.1 4.7-1.6 5.5-5.1 1 3.8.4 8.3-4.1 8.8-1.7.2-4 .1-6.4 0-1 3.9-2.2 7.7-3.9 10.9-1.6 2.9-3.5 5.4-6 7.2-8.8 6.5-15.4 1.8-14.7-5.3.8 3.7 3 6.2 6.1 5.8 4.2-.6 7.9-6.3 8.8-9.6l2.6-9.3c-1.3 0-2.5.1-3.7.3-3.1.5-5.2 1.8-5.4 4.8-1.8-2.7.8-7.2 3.6-8.3 2.1-.8 4.3-1.1 6.7-1l4.1-14.7c-2.3-.2-4.6-.4-6.7-.6-1.4-.1-4.9.3-5.2 2.6s2.1 4.1 5.1 4.3c-4.1.5-10.1.5-10.1-5.2 0-4 5.7-5.8 9-6.2 8.1-1 16.3 1.4 24.4.6 2.7-.3 5.3-1.6 7.1-3.9-.9 5.5-2.8 6.6-6.1 7.4-4 1.1-8.2 1.3-12.4 1.2m-10.3-64c-3.8-1-10.2 1.9-12 6.7 2.7-3.1 6.6-5.5 9.6-4.2 2.1.9 1 4.9.2 6.4L186 301.2c-2 3.6-2.1 8.5.5 11 3.3 3.2 11.2 1.6 14.1-.2 3-1.9 5.1-4.9 6.8-8.1-.6 2.2-.9 4.3-.3 6.3.9 2.9 4.6 5 7.5 4.8 6.7-.5 9.6-5.9 5.2-12 1 3.4-1.1 6.8-3.6 7.1-2.6.4-7.1-2.8-5.1-7.1l16.2-34.3h-5.5L206 302.3c-2.1 4.4-7.2 8.1-12 7.8-4.4-.2-3.7-7.3-2.2-9.8l13-22.8c2.9-4.8 1.2-9-2.5-9.9m20.5-56.6c2.5 1.7 1.3 5.1-1.4 7.6s-6.9 4-9.2 4.2c.3-1.5 1.2-5.1 2.4-7.4 2.1-3.9 5.2-6.4 8.2-4.4m-27.5 36.9c-2.1 3.6-4.3 5-6.4 5.3-2 .3-5.2-.4-5.1-3 .1-1.7 2-3.4 6.3-3.6 2.3-.1 4.1.8 5.2 1.3m25.2-128.7v-5.9c2.2 3 3.5 6.6 3.5 10.6v.1zM206 106c2 0 3.8.3 5.6.9l-5.6 1.8-5.6-1.8c1.8-.6 3.6-.9 5.6-.9m14.5 28.5c-2.2 3.1-5.4 5.4-9 6.6l3.5-4.7zm-20 6.6c-3.7-1.2-6.8-3.5-9-6.6l5.6 1.8zM188 124c0-4 1.3-7.7 3.5-10.6v5.9zm18-6.7 3.1 2.3 3.1 2.3-1.2 3.7-1.2 3.7h-7.7l-1.2-3.7-1.2-3.7 3.1-2.3zm-4.4 12.1-4.5 6.3-6.3-2.1c-1.6-2.5-2.6-5.4-2.8-8.5l3.9-5.4 7.3 2.4zm11-22.2c2.8 1.1 5.3 2.9 7.2 5.2v6.6l-7.3 2.4-6.2-4.5v-7.7zm11.3 17.9c-.2 3.1-1.2 6-2.8 8.5l-6.3 2.1-4.5-6.3 2.4-7.3 7.3-2.4zm-13.5 16.3c-1.4.4-2.9.6-4.4.6s-3-.2-4.4-.6l-3.9-5.4 4.6-6.2h7.6l4.6 6.2zm-18.3-28.9c1.9-2.3 4.4-4.1 7.2-5.2l6.3 2v7.7l-6.2 4.5-7.3-2.4zm-19.9-16.3c2-3 4.6-5.8 7.7-8 3.1-2.3 6.6-3.9 10-4.9-2.4 2.9-4 6.5-7.1 8.8s-7.1 2.7-10.6 4.1m33.8 8.7c10.5 0 19.1 8.6 19.1 19.1s-8.6 19.1-19.1 19.1-19.1-8.6-19.1-19.1c0-10.6 8.6-19.1 19.1-19.1m-36.9 42.6c-2.2-2.8-4.1-6.1-5.3-9.8s-1.7-7.4-1.5-11c2 3.2 5 5.8 6.2 9.5 1.3 3.7.4 7.5.6 11.3m47.9 18.8c-3.4 1.3-7.1 2-11 2s-7.6-.7-11-2c3.6-1 7-3 11-3 3.9 0 7.3 2 11 3m32.6-39.7c.2 3.6-.3 7.3-1.5 11s-3 7-5.3 9.8c.2-3.8-.6-7.6.6-11.4 1.2-3.6 4.2-6.2 6.2-9.4m-2.1-19.8c-.2-8.4-4.6-17.1-12.5-22.9-7.9-5.7-17.5-7.2-25.6-4.8-.6-4-1.8-7.6-3.4-10.5-1.6 2.8-2.8 6.4-3.4 10.5-8.1-2.4-17.7-.9-25.6 4.8s-12.3 14.4-12.5 22.9c-4-.7-7.8-.6-11 0 2.2 2.4 5.2 4.7 8.9 6.5-4.8 6.9-6.3 16.5-3.3 25.8s9.9 16.2 17.9 19c-1.9 3.6-3 7.2-3.4 10.5 3-1.3 6.1-3.5 8.9-6.4 5.1 6.7 13.8 11.1 23.5 11.1 9.8 0 18.4-4.4 23.5-11.1 2.9 2.9 6 5.1 8.9 6.4-.4-3.2-1.5-6.9-3.4-10.5 8-2.8 14.9-9.7 17.9-19s1.5-18.9-3.3-25.8c3.6-1.8 6.7-4.1 8.9-6.5-3.2-.6-6.9-.6-11 0m-26 37.5c2.2 1.7 3.7 4.2 5.4 6.3.8 1 1.7 1.5 2.7 2.5 2.4 1 6.6-3.2 7.3-5 1.5-4.3-.3-9.2 1.2-13.7 1.5-4.6 5.8-7.4 7.1-11.8.5-1.8-.4-7.6-2.9-8.3-1.4.1-2.4.1-3.6.4-2.6.7-5.3 1.9-8.1 2 .2 1.4-.7 2.7-2 3.1-1.5.5-3.2-.3-3.7-1.9-.5-1.5.3-3.2 1.9-3.7 1.3-.4 2.8.2 3.5 1.3 2.3-1.5 5.2-2.2 7.7-3.1 1.2-.4 2-1.1 3.2-1.8 1.7-2-1-7.3-2.5-8.4-3.6-2.8-8.8-2.5-12.7-5.3s-5.2-7.8-9-10.4c-1.5-1.1-7.4-2-8.8.2-.3 1.4-.7 2.3-.8 3.6-.1 2.7.1 5.7-.6 8.3 1.3.3 2.3 1.5 2.3 2.9 0 1.6-1.3 2.9-2.9 2.9s-2.9-1.3-2.9-2.9c0-1.4 1-2.6 2.3-2.9-.8-2.6-.5-5.6-.6-8.3-.1-1.2-.5-2.2-.8-3.6-1.4-2.2-7.3-1.3-8.8-.2-3.8 2.6-5.1 7.6-9 10.4s-9 2.6-12.7 5.3c-1.5 1.1-4.2 6.4-2.5 8.4 1.2.7 2 1.4 3.2 1.8 2.5 1 5.4 1.6 7.7 3.1.7-1.2 2.1-1.8 3.5-1.3 1.5.5 2.4 2.2 1.9 3.7s-2.2 2.4-3.7 1.9c-1.3-.4-2.2-1.8-2-3.1-2.7-.1-5.5-1.3-8.1-2-1.2-.3-2.3-.2-3.6-.4-2.5.7-3.5 6.5-2.9 8.3 1.3 4.4 5.6 7.2 7.1 11.8s-.4 9.4 1.2 13.7c.6 1.8 4.8 5.9 7.3 5 1-.9 1.9-1.5 2.7-2.5 1.7-2.1 3.2-4.7 5.4-6.3-.9-1-1-2.6-.2-3.7.9-1.3 2.8-1.6 4.1-.6 1.3.9 1.6 2.8.6 4.1-.8 1.1-2.3 1.5-3.6.9-.9 2.6-2.9 4.8-4.4 7.1-.7 1-.9 2.1-1.5 3.3-.2 2.6 5.1 5.3 7 5.4 4.6.1 8.6-3.1 13.4-3.1s8.8 3.2 13.4 3.1c1.9 0 7.1-2.7 7-5.4-.6-1.3-.8-2.3-1.5-3.3-1.5-2.3-3.4-4.5-4.4-7.1-1.2.6-2.8.2-3.6-.9-.9-1.3-.7-3.1.6-4.1 1.3-.9 3.1-.7 4.1.6.6 1.1.5 2.7-.4 3.7m9.9 10.8c1.8 2.5 3.6 6.4 3.9 9.2-2.6-1.2-5.8-4.1-7.6-6.6-1.7 2.8-5.9 5-8.4 5.1-4.7.1-8.6-3.1-13.4-3.1s-8.7 3.2-13.4 3.1c-2.5-.1-6.7-2.3-8.4-5.1-1.8 2.5-5 5.4-7.6 6.6.3-2.8 2.1-6.8 3.9-9.2-3.2-.7-6.6-4-7.4-6.4-1.6-4.5.3-9.2-1.2-13.7s-5.8-7.2-7.1-11.8c-.7-2.4.1-7.1 2.2-9.5-2.9-.9-6.7-3.1-8.6-5.1 2.8-.5 7.1 0 10 .9-.3-3.3 1.8-7.5 3.8-9 3.8-2.9 8.8-2.5 12.7-5.3s5.1-7.7 9-10.4c2.1-1.4 6.8-2.1 9.8-.8 0-3.1.9-7.3 2.2-9.8 1.4 2.5 2.2 6.7 2.2 9.8 3-1.3 7.7-.6 9.8.8 3.9 2.7 5.1 7.6 9 10.4s8.9 2.5 12.7 5.3c2 1.5 4.1 5.8 3.8 9 2.9-.9 7.2-1.4 10-.9-1.9 2.1-5.7 4.2-8.6 5.1 2.2 2.5 3 7.1 2.2 9.5-1.4 4.5-5.6 7.2-7.1 11.8-1.5 4.5.4 9.2-1.2 13.7-.6 2.4-4 5.7-7.2 6.4M206 99.9c.8 0 1.4.6 1.4 1.4s-.6 1.4-1.4 1.4-1.4-.6-1.4-1.4.6-1.4 1.4-1.4m22.8 16.6c.2.7-.2 1.5-.9 1.7s-1.5-.2-1.7-.9.2-1.5.9-1.7 1.5.2 1.7.9m-45.7 0c.2-.7 1-1.1 1.7-.9s1.1 1 .9 1.7-1 1.1-1.7.9-1.1-1-.9-1.7m8.8 26.9c-.6-.4-.7-1.3-.3-1.9s1.3-.7 1.9-.3.7 1.3.3 1.9c-.5.6-1.3.7-1.9.3m28.2 0c-.6.4-1.5.3-1.9-.3s-.3-1.5.3-1.9 1.5-.3 1.9.3c.5.6.3 1.5-.3 1.9m1.9-60.1c3.5 1 6.9 2.6 10 4.9s5.7 5 7.7 8c-3.5-1.4-7.4-1.7-10.6-4.1-3.2-2.3-4.7-5.9-7.1-8.8m-17.3 412c-100.5-59.5-189-163.2-189-333.3 0-25.8 2.2-51 6.4-75.3C65.1 43 131 14.9 204.7 14.9S344.3 43 387.3 86.7c4.2 24.3 6.4 49.5 6.4 75.3 0 170.1-88.6 273.8-189 333.3M59.1 179.6h291.2c.3-14 .5-27.1-.7-39.2-1.9-19-7.3-26.2-16.1-32.9-35.1-26.9-79.7-42.3-128.7-42.3s-93.6 15.5-128.7 42.3c-8.8 6.7-14.2 13.9-16.1 32.9-1.4 12.1-1.2 25.2-.9 39.2M349.4 220 332 200.4h18v4.7c-.1 5-.3 9.9-.6 14.9M155 404.8c-5.5-5-10.9-10.2-16-15.6l16-18zm-30.9-32.4q-8.85-10.8-16.8-22.5l47.6-53.5v41.3zm-29-42.2c-4.9-8.6-9.4-17.4-13.3-26.3l73.2-82.3v41.3zm-22.5-49.6c-3.6-10.5-6.5-21-8.6-31.6l43.2-48.6h36.7zM60 220c-.4-5-.5-9.9-.5-14.9v-4.7h18zm276.7 60.6-71.3-80.2h36.7l43.2 48.6c-2.1 10.6-5 21.2-8.6 31.6m-22.5 49.6-59.9-67.3v-41.3l73.2 82.3c-3.9 8.9-8.4 17.7-13.3 26.3m-29 42.2-30.8-34.7v-41.3l47.6 53.5q-7.95 11.55-16.8 22.5m-30.8 32.4v-33.6l16 18c-5.2 5.4-10.5 10.6-16 15.6"/></g><path fill="none" d="M-93-42.5h595.3v595.3H-93z"/></svg>