<svg xmlns="http://www.w3.org/2000/svg" width="699.89441" height="700.00012" viewBox="0 0 699.89441 700.00012"><g transform="translate(-.002)"><ellipse cx="349.371" cy="350.12997" rx="341.41031" ry="343.20337" style="fill:#fff;fill-opacity:1;stroke-width:1"/><path d="M697.935 309.735c-7.771-67.527-35.006-131.098-78.729-183.607-41.692-50.13-96.582-87.69-158.228-108.344-29.51-9.907-59.44-15.613-91.54-17.504-5.287-.315-31.646-.385-37.107-.105-62.662 3.151-122.802 22.93-175.381 57.69-20.129 13.303-36.792 26.955-54.435 44.634-9.312 9.311-14.353 14.772-21.704 23.629C37.053 178.672 9.749 242.418 2.048 309.91.578 322.898.228 328.989.053 345.267c-.245 20.408.35 31.82 2.555 49.183 6.266 49.884 23.594 98.333 50.584 141.39 19.079 30.42 44.213 59.266 72.008 82.615 33.466 28.075 72.358 49.849 113.84 63.746 26.99 9.067 53.35 14.423 83.665 17.013 8.681.735 36.266 1.05 45.858.525 49.079-2.765 93.992-14.597 137.224-36.161 20.409-10.152 36.232-19.954 54.785-33.886 24.4-18.308 47.153-40.712 65.917-64.867 24.469-31.47 43.162-66.336 55.73-103.863 7.7-22.93 12.952-46.628 15.717-70.713 1.75-15.052 1.96-19.498 1.96-40.257s-.21-25.204-1.96-40.257m-13.792 70.888c-5.846 63.116-29.265 122.872-68.052 173.456-15.193 19.813-34.796 39.977-54.785 56.29-47.678 38.961-106.874 64.48-167.89 72.357-24.679 3.15-49.848 3.641-74.388 1.366-61.296-5.636-120.211-28.32-169.57-65.357C78.186 565.28 31.172 486.727 18.15 399.351c-2.87-19.323-3.956-37.806-3.43-58.915 1.89-78.239 31.925-153.747 84.82-213.433 6.02-6.791 21.458-22.159 28.18-28.075 33.08-29.125 69.697-50.724 110.794-65.392 21.389-7.631 45.158-13.302 68.087-16.277 21.039-2.696 41.377-3.431 62.486-2.24 65.427 3.64 128.578 26.674 181.297 66.09 71.238 53.28 118.531 132.254 131.484 219.525 2.555 17.363 3.5 30.49 3.5 49.253 0 12.568-.315 20.724-1.225 30.736zm-46.839-190.084c-25.73-46.243-62.625-85.94-106.978-115.17-57.41-37.842-124.588-56.43-193.795-53.7-60.35 2.38-118.776 21.459-169.29 55.31a330.5 330.5 0 0 0-90.246 90.246C32.818 233.142 14.125 311.94 23.961 390.95c11.692 94.061 63.991 178.776 143.315 232.056 65.742 44.142 144.436 62.8 223.69 53.034 86.115-10.607 165.16-55.765 218.859-125.007 53.314-68.822 77.013-155.323 66.231-241.998-5.145-41.552-18.308-81.81-38.751-118.496m23.875 197.085c-11.202 91.086-60.946 171.985-137.154 222.955-44.458 29.79-93.922 47.013-148.637 51.879-8.576.735-33.256 1.05-42.357.525-43.513-2.556-83.35-12.987-121.297-31.75-50.619-24.995-92.731-62.207-123.782-109.36-30.28-46.033-47.503-98.158-50.899-154.028-.455-7.456-.455-28.25 0-35.706 3.361-55.73 20.549-107.784 50.654-153.677 53.42-81.354 141.005-133.374 237.272-140.9 10.467-.805 10.012-.805 27.655-.7 11.622.07 18.309.28 22.754.665 27.375 2.45 51.25 7.456 75.789 15.788 64.866 22.124 121.121 65.392 159.418 122.662 27.445 40.992 44.528 86.99 50.584 136.384 1.645 13.407 1.96 19.148 1.96 37.632s-.315 24.224-1.96 37.631M320.674 114.226c-.21-.175-1.506-53.805-1.33-54.295.14-.385 1.33-.49 6.09-.49h5.917l.21 4.796c.14 2.625.245 7.07.245 9.871 0 2.8.105 5.461.21 5.916l.21.77 9.871-.174c5.391-.14 10.222-.28 10.677-.386l.84-.175-.245-10.641-.21-10.642 3.746-.14c2.1-.035 4.83-.14 6.091-.175l2.345-.07.21 6.02c.49 13.303 1.296 48.344 1.086 48.52-.105.104-2.87.28-6.126.35l-5.952.174-.035-1.19c-.105-6.756-.595-20.338-.735-20.443-.105-.105-4.97-.07-10.817.07l-10.641.28.105 4.9c.035 2.696.175 7.597.28 10.887l.245 5.987-6.091.175c-3.361.105-6.127.14-6.197.105m118.18 12.252c-1.68-2.346-3.43-5.461-3.43-6.021 0-.315 10.082-5.181 10.257-4.971.07.07.7 1.155 1.4 2.415 3.745 6.756 9.802 11.307 15.017 11.377 2.136 0 2.416-.105 3.431-1.05 1.26-1.19 1.75-2.73 1.365-4.13-.455-1.61-2.52-3.851-6.896-7.562-5.286-4.41-8.751-8.156-10.011-10.747-1.47-2.94-1.68-6.861-.56-10.327 1.855-5.776 5.916-9.696 11.376-11.027 7.352-1.785 16.523 1.506 23.455 8.437 1.89 1.925 3.745 4.2 4.655 5.74.84 1.401 1.47 2.591 1.4 2.661-.07.035-2.275 1.366-4.9 2.906l-4.796 2.835-1.645-2.45c-3.536-5.32-8.402-8.997-12.323-9.312-2.975-.21-4.76 1.086-5.18 3.746-.28 1.785 1.33 3.99 5.6 7.561 7.772 6.581 10.923 10.292 12.183 14.213.875 2.835.805 5.076-.245 8.226-1.506 4.446-4.446 8.157-7.842 9.907-9.416 4.796-24.12-.84-32.31-12.427zm-181.892-16.103c-3.115-5.356-4.69-12.672-3.99-18.518 1.575-12.603 10.151-21.494 23.524-24.365 5.706-1.225 11.587-.805 16.768 1.26 3.85 1.506 3.78.98.98 7.072-1.89 4.13-2.59 5.32-3.01 5.18-.316-.07-1.61-.56-2.906-1.05-5.11-1.925-9.487-1.89-13.827.14-5.531 2.556-8.857 7.947-8.857 14.283.035 10.747 9.032 19.323 18.483 17.608 4.971-.91 9.137-3.746 12.252-8.366 1.4-1.996 1.576-2.136 2.276-1.786 1.225.665 8.821 4.936 8.961 5.076.07.07-.525 1.19-1.295 2.52-4.095 6.862-9.206 10.748-17.398 13.233-2.73.84-3.78.945-8.051.98-5.741.035-8.612-.63-13.268-3.045-3.57-1.82-8.506-6.582-10.641-10.222zm126.058 4.936c-.14-.14 10.851-51.67 11.272-53 .07-.21.21-.42.245-.42.735.07 39.907 8.717 40.047 8.857.105.105-.315 2.555-.946 5.46-.91 4.377-1.225 5.287-1.68 5.147-.315-.105-6.476-1.436-13.687-3.01a1413 1413 0 0 1-13.653-2.976c-.42-.14-.77.84-1.645 5.006-.595 2.835-1.05 5.18-1.015 5.215.07.105 22.509 5.006 22.789 5.006.455 0-.07 1.12-2.486 5.356-1.47 2.556-2.695 4.656-2.73 4.726-.07.035-4.48-.875-9.802-2.03-5.32-1.155-9.837-2.1-9.977-2.1-.28 0-2.66 10.466-2.415 10.641.035.07 6.476 1.47 14.282 3.15 7.772 1.681 14.213 3.081 14.248 3.151.14.14-2.065 10.152-2.31 10.432-.21.245-40.223-8.261-40.538-8.611zm118.355 25.414 13.128-17.223-6.476-4.9c-3.536-2.696-6.441-5.042-6.441-5.147 0-.14 1.47-2.17 3.255-4.55 1.75-2.346 3.396-4.271 3.64-4.201.49.07 35.602 26.815 35.742 27.2.21.525-6.616 9.136-7.036 8.856-.245-.14-3.08-2.275-6.301-4.725-3.22-2.486-6.056-4.586-6.301-4.656s-5.601 6.721-11.972 15.087c-6.337 8.367-12.218 16.068-13.058 17.118l-1.47 1.926-3.78-2.87a3965 3965 0 0 0-4.902-3.816l-1.155-.876zm23 79.955-3.921-5.251-1.4-7.457c-.735-4.13-1.96-10.151-2.66-13.372l-1.261-5.881-6.511-1.12c-3.57-.595-9.067-1.47-12.182-1.96-3.151-.456-5.882-.946-6.127-1.086-.245-.175-2.38-1.82-4.76-3.71-31.33-24.995-70.538-41.063-110.34-45.263-11.482-1.19-25.904-1.54-36.931-.84-28.39 1.785-55.555 9.031-81.215 21.668-15.157 7.457-28.355 15.893-40.852 26.045l-3.045 2.485-8.507 1.33c-4.69.736-9.837 1.61-11.447 1.926l-2.975.595-1.12 5.076c-.63 2.8-1.716 8.226-2.451 12.077l-1.295 7.001-3.29 4.2c-39.383 50.48-54.26 114.576-41.168 177.482 6.861 33.046 22.194 65.112 43.828 91.541 29.615 36.197 70.432 62.101 115.205 73.128 3.186.77 8.156 1.89 11.027 2.45 3.956.806 6.266 1.471 9.347 2.801 8.016 3.396 27.025 10.117 31.33 11.027.84.21 2.31-.105 5.776-1.19 6.931-2.205 16.348-5.636 24.435-8.961 5.776-2.346 8.05-3.116 11.727-3.816 56.29-11.237 104.983-43.653 137.189-91.261 20.339-30.07 32.346-63.782 35.986-101.098.63-6.371.63-32.101 0-38.507-3.955-40.817-18.308-78.099-42.392-110.06zm-272.978-47.19c2.696-1.575 8.227-4.446 12.288-6.406 32.765-15.963 68.682-22.614 105.228-19.569 32.836 2.73 63.781 13.233 92.171 31.19 2.276 1.471 4.061 2.696 3.991 2.766s-2.24-.105-4.83-.385c-16.909-1.855-38.753-3.465-64.902-4.76-11.692-.596-61.751-.806-75.719-.35-26.57.91-49.358 2.415-73.688 4.97-3.85.385-7.036.63-7.106.56-.245-.21 6.826-4.726 12.567-8.016m-.49 352.758c-9.486-5.426-20.303-13.023-29.545-20.69-5.671-4.69-19.498-18.447-24.4-24.293-24.784-29.44-40.747-64.622-46.102-101.693-1.61-11.167-1.926-15.613-1.926-29.23-.035-13.303.14-16.279 1.54-27.2 2.976-22.684 10.152-45.544 20.864-66.197 3.08-5.986 9.557-17.013 9.837-16.768.07.105-.245 3.606-.735 7.806-4.2 36.547-5.146 76.034-2.66 111.285 1.015 14.038 3.115 32.87 4.76 42.533 3.22 18.833 10.852 40.642 20.689 58.985 15.333 28.635 35.776 52.51 62.591 72.918 1.505 1.155-9.417-4.306-14.912-7.456zm108.274 29.195c-3.36 1.19-6.3 2.135-6.58 2.135-.736 0-12.813-4.306-19.394-6.896-29.72-11.727-54.12-26.15-76.174-44.948-5.39-4.586-17.153-16.418-21.774-21.949-19.428-23.07-32.135-48.098-38.051-74.808-2.31-10.362-4.586-31.61-5.846-54.085-.56-10.117-.56-43.547 0-54.084 1.54-28.776 4.13-52.825 8.506-78.24 2.24-13.127 3.78-19.428 4.831-19.743.315-.105 3.326-.665 6.686-1.225 32.836-5.67 72.778-9.347 115.17-10.642 8.682-.28 46.384-.175 55.486.105 40.187 1.365 80.759 5.251 111.25 10.677 3.815.665 7.106 1.225 7.28 1.225 1.996 0 7.702 33.466 10.642 62.311 4.691 46.208 4.236 93.362-1.26 132.674-2.45 17.538-7.631 33.5-16.383 50.584-9.031 17.573-19.813 32.24-34.691 47.083-25.66 25.66-58.39 45.263-99.698 59.826m195.16-186.898c-2.52 24.154-7.842 44.177-17.468 65.461-16.663 36.862-45.473 69.137-80.69 90.246-6.406 3.85-15.542 8.612-13.757 7.176.665-.525 3.15-2.52 5.496-4.41 13.617-10.887 27.025-24.68 37.527-38.647 20.443-27.2 33.71-58.775 38.331-91.296 5.111-35.777 6.477-77.89 3.886-118.496-.7-10.887-2.275-27.725-3.185-34.481l-.175-1.4 1.12 1.75c.63.945 2.205 3.64 3.535 5.95 13.793 24.085 22.404 51.67 25.38 81.04.84 8.472.84 28.845 0 37.107M209.248 159.279c-.595-.63-27.97-46.068-27.97-46.419 0-.42 8.751-5.81 9.486-5.81.35 0 31.681 12.217 37.352 14.562l1.155.49-.665-1.155c-6.756-10.992-16.173-26.71-16.173-26.99.035-.21 2.276-1.75 5.006-3.395 3.676-2.24 5.076-2.941 5.356-2.626.77.735 28.145 46.173 27.97 46.418-.21.35-8.436 5.251-8.821 5.251-.14 0-9.102-3.465-19.849-7.701-10.782-4.236-19.603-7.667-19.673-7.632-.035.07 3.85 6.546 8.646 14.458 4.936 8.086 8.577 14.458 8.402 14.633-.77.77-10.047 6.126-10.222 5.916m294.927 202.686c.105-.91.28-3.816.42-6.477l.21-4.795h-72.497l-1.015-1.506c-1.085-1.54-2.17-4.34-2.17-5.53 0-2.381.84-3.921 3.85-7.142 4.656-4.936 7.492-9.662 8.192-13.582.28-1.54.525-1.506-4.34-.596-4.622.876-18.904 2.94-25.38 3.676-2.696.28-5.426.595-6.021.665l-1.156.175v-4.095l1.506-.56c2.065-.77 40.222-13.863 40.362-13.863.385 0-.035-.91-1.61-3.64-3.571-6.022-6.196-13.338-7.212-19.99-.77-4.865-.49-17.747.525-24.293.386-2.556.806-4.971.91-5.321.14-.42.036-.666-.244-.666-.245 0-8.052 2.626-17.363 5.811-9.277 3.221-16.978 5.776-17.048 5.671-.105-.07-.28-7.911-.386-17.363-.175-11.902-.385-17.223-.63-17.223-.21 0-2.52.735-5.11 1.61-3.571 1.226-4.936 1.89-5.637 2.661-.7.77-2.135 1.435-5.776 2.696-3.045 1.085-4.865 1.89-4.865 2.17 0 .56.945.56 7.666.14 4.096-.245 4.13-.245 4.726-1.26.63-1.156.91-1.26 4.376-1.68l2.415-.28-.245 23.489c-.525 54.924-.595 59.265-1.225 58.355-4.411-6.336-9.417-15.858-11.202-21.284-1.856-5.636-2.24-8.611-2.03-15.508.104-3.36.42-7.14.7-8.366l.49-2.275-2.136-3.151c-2.94-4.41-4.55-7.526-5.986-11.832-1.4-4.166-1.855-8.892-1.295-13.057.315-2.31.28-2.52-.455-3.326-1.505-1.645-3.396-5.006-4.376-7.666-1.995-5.461-2.135-9.312-.525-14.843.49-1.715.63-2.696.385-2.696-.21 0-3.92 1.226-8.261 2.766l-7.877 2.73-.105-7.456c-.07-5.67-.175-7.491-.525-7.456-.21 0-2.625.77-5.32 1.715s-4.937 1.75-5.007 1.75c-.035 0-.21.35-.385.77-.21.666-1.26 1.156-5.32 2.556-3.677 1.295-5.077 1.925-5.147 2.38-.105.596.14.63 3.5.385q8.402-.56 9.033-1.715c.595-1.085 1.855-1.47 5.005-1.54l1.296-.035-.035 4.27c0 2.38-.14 4.586-.28 4.971-.175.49-2.59 1.47-9.347 3.781-8.437 2.87-9.137 3.186-10.327 4.48-1.715 1.856-3.746 6.162-4.41 9.208-.91 4.41-.176 10.011 1.75 13.232 1.225 2.03 3.395 3.64 3.675 2.73.105-.245 1.12-1.47 2.31-2.695 3.781-3.92 9.802-6.126 22.615-8.262 5.916-.98 15.367-2.1 15.613-1.855.07.07-9.312 3.43-20.864 7.421-22.964 7.947-22.72 7.842-24.575 11.272-3.675 6.721-2.1 18.203 3.571 25.94l1.085 1.54 2.206-2.275c6.51-6.687 14.947-9.767 33.64-12.288 4.901-.665 14.563-1.68 14.703-1.54.07.07-11.552 4.13-25.834 9.067l-25.94 8.961-1.33 1.89c-1.82 2.591-3.396 6.827-3.816 10.222-.315 2.31-.28 3.501.175 6.021.28 1.716.49 3.186.42 3.221-.21.245-2.625-5.04-3.676-8.016-.56-1.646-1.295-4.201-1.575-5.671-.7-3.22-.7-10.537-.07-14.178l.455-2.625-1.925-2.45c-5.391-7.002-7.737-15.263-6.196-22.055.315-1.505.525-2.8.42-2.87-.07-.07-3.08.875-6.686 2.135s-6.687 2.276-6.827 2.276c-.175 0-.385-4.061-.525-8.997-.14-4.97-.315-9.067-.35-9.137-.07-.035-2.38.7-5.146 1.68-3.745 1.331-5.25 2.031-5.916 2.766-.665.735-2.1 1.4-5.67 2.66-3.326 1.156-4.832 1.821-4.832 2.171 0 .455.63.49 4.656.28 6.546-.35 7.316-.525 7.877-1.68.49-1.015.84-1.155 4.2-1.47l2.17-.21v13.232l-8.47 2.87c-9.628 3.256-9.733 3.326-11.973 7.912-1.89 3.815-2.45 6.371-2.45 11.377-.035 5.006.49 7.281 2.31 9.977 1.785 2.625 1.96 2.625 4.236.42 3.71-3.64 10.957-6.441 21.774-8.402 5.67-1.05 14.352-2.1 15.892-1.925.736.07-5.426 2.31-19.953 7.281-23.524 8.052-21.354 6.966-23.07 11.412-1.084 2.836-1.364 8.752-.56 12.217.77 3.291 2.976 7.597 5.287 10.432 2.38 2.906 3.185 3.396 3.885 2.38 1.12-1.575 6.196-3.605 10.922-4.41l1.47-.245v4.76c0 4.307-.07 4.762-.595 4.762-2.975-.035-17.118-2.1-27.76-4.061-16.242-3.01-26.534-5.531-33.43-8.157-1.54-.595-2.906-1.085-3.01-1.085-.21 0-.771 1.506-.806 2.206-.035.14 2.45 1.295 5.461 2.52 7.841 3.15 13.477 5.566 18.308 7.876 4.516 2.1 4.901 2.45 8.997 7.877 1.96 2.625 9.031 12.987 9.031 13.267 0 .105-16.908.21-37.596.21h-37.632l.175 2.346c.07 1.33.245 4.235.35 6.476l.21 4.13h303.714zm-147.166-41.693 1.155-.175a75 75 0 0 1 1.996-.315c2.31-.385 14.702-.175 18.973.28 6.336.665 15.368 2.205 19.638 3.36 1.26.35 1.296.386 1.296 2.031v1.68l-2.346.245c-1.33.105-4.9.385-7.981.595-5.216.35-5.986.49-10.852 2.066l-5.251 1.68-8.296.245-8.332.21zm-53.14-.49c3.046-.385 17.469-.21 22.545.28 3.045.28 5.88.595 6.266.665.385.105 1.365 1.085 2.17 2.206s2.345 2.905 3.43 3.955l1.926 1.89.595-.84c1.05-1.575 3.046-3.185 5.181-4.27 1.995-1.015 5.531-2.38 6.196-2.38.14 0 .28 2.45.28 5.46v5.496l-13.37-.244c-16.628-.315-34.867-1.12-35.567-1.575-.175-.105-.42-2.52-.525-5.356l-.245-5.146zm40.118 30.876c-36.757 0-66.792-.036-66.792-.14 0-.526 1.085-2.206 1.995-3.046 1.26-1.225 3.08-1.96 5.426-2.24 1.89-.21 2.206-.14 13.758 2.38 4.375.945 5.53 1.05 10.676 1.05 8.752 0 14.213-1.295 16.138-3.885.42-.596.98-1.086 1.156-1.086.21 0 2.485.245 5.075.56 2.59.28 8.262 1.226 12.603 2.066 10.466 2.03 14.317 2.415 21.213 2.135 6.337-.245 10.782-1.015 15.228-2.625 2.94-1.085 3.01-1.12 6.301-.7 1.82.21 7.667 1.47 12.953 2.765 5.286 1.33 9.941 2.485 10.326 2.555.385.105-29.335.175-66.056.21m12.987 45.437.875 1.19-1.365 1.086c-1.54 1.295-3.886 4.726-4.2 6.231-.14.595-.35 1.05-.456 1.05-.14 0-.735-1.085-1.365-2.38-1.085-2.31-2.276-3.816-4.13-5.251-1.086-.875-1.226-.56 2.414-5.251 1.506-1.96 2.871-3.57 2.976-3.57.175.034 2.31 2.8 5.25 6.896zm-122.136-81.737c0-.945 4.936-10.012 7.807-14.282 5.286-7.947 11.202-14.843 18.343-21.32 4.34-3.99 10.082-8.4 13.442-10.431 1.226-.7 2.276-1.225 2.346-1.155.07.105-.49 1.225-1.26 2.555-3.361 5.776-6.336 13.863-8.192 22.44-.91 4.305-1.26 15.297-.63 21.283.21 2.205.35 4.096.28 4.166s-1.61-.175-3.43-.525c-8.962-1.75-13.338-2.206-21.074-2.24-5.916-.036-7.632-.14-7.632-.491m114.68 233.316c-.244.245-10.186-3.29-17.958-6.406-24.154-9.697-45.858-22.089-63.64-36.336-35.532-28.425-58.496-66.162-64.237-105.369-1.12-7.806-3.15-27.445-3.15-30.77 0-.525.104-.945.28-.91.14 0 24.258 29.02 53.629 64.516l53.384 64.516.175 5.916c.175 5.356.245 6.022.98 7.177 1.47 2.415 3.816 2.905 7.772 1.715 1.26-.385 2.38-.7 2.52-.7.385 0 30.456 36.441 30.246 36.651m128.929-179.827h25.239v1.47c0 3.5-1.68 20.548-2.835 28.985-.77 5.67-2.696 14.948-3.921 18.868l-.77 2.59-21.144-25.519c-11.657-14.037-21.319-25.73-21.494-25.974-.28-.316 4.761-.42 24.925-.42M462.694 479.69c-4.411 5.111-10.467 11.447-10.817 11.307-.28-.105-37.807-45.263-38.297-46.068-.14-.245.84-1.89 2.45-4.13 2.276-3.116 2.731-3.956 2.871-5.356.175-1.96-.49-3.501-1.925-4.516-1.19-.805-11.167-4.271-12.252-4.271-.456 0-.806-.175-.806-.385 0-.98-2.065-4.376-3.57-5.881-1.996-1.996-4.621-3.43-8.647-4.76-1.61-.526-3.36-1.366-3.92-1.891-1.26-1.155-37.772-45.263-37.772-45.648 0-.14 12.182-.245 27.095-.245h27.13l36.826 44.353c20.234 24.434 37.036 44.667 37.317 44.983.455.525.245 1.015-2.206 4.69-3.64 5.531-9.066 12.708-13.477 17.819zm-112.79-65.811c.175 3.5.14 4.025-.385 4.235-.35.14-.91-.14-1.576-.875-2.345-2.485-5.95-3.15-9.031-1.61-1.366.7-2.31 1.575-3.991 3.78-2.87 3.781-5.11 6.092-6.616 6.897-.665.35-3.01 1.225-5.181 1.925-4.34 1.4-5.916 2.486-7.106 4.76-.91 1.856-.876 4.727.105 6.792.42.84.63 1.68.49 1.82s-1.296 0-2.556-.35c-6.196-1.61-9.731-5.006-10.152-9.696-.28-2.8.596-5.426 2.38-7.492 1.681-1.89 2.976-2.625 6.617-3.71 7.141-2.1 11.447-5.181 16.278-11.552 3.535-4.656 5.216-5.951 8.751-6.617 3.151-.63 7.282.666 9.137 2.871 1.925 2.275 2.626 4.48 2.836 8.822m-32.836-29.93c7.351 8.856 13.337 16.242 13.337 16.382 0 .175-.42.665-.91 1.155-.525.456-2.1 2.38-3.5 4.236-4.236 5.566-7.982 8.297-13.968 10.152-4.62 1.4-6.546 2.415-8.857 4.586-2.1 1.995-2.73 3.01-3.535 5.776l-.56 1.855-22.58-27.235a12953 12953 0 0 1-24.959-30.105l-2.38-2.905h54.575zm81.634 42.497a10.046 10.046 0 0 1-4.095 12.672c-1.716 1.015-6.231 2.59-7.387 2.59-1.015 0-1.015-.35-.035-2.205 1.68-3.22.56-7.526-2.45-9.521-.7-.456-3.186-1.506-5.496-2.276-2.31-.805-4.69-1.75-5.286-2.135-1.365-.84-3.466-3.116-5.006-5.391-2.38-3.536-4.34-5.076-7.036-5.566-1.786-.315-4.481.595-6.196 2.065-.805.665-1.646 1.225-1.856 1.225-.315 0-.385-1.085-.28-4.13.105-3.326.28-4.446.91-5.846 1.366-2.94 3.431-4.761 6.407-5.601 3.045-.84 6.791-.07 9.276 1.89.49.385 2.03 2.24 3.431 4.13 4.236 5.777 8.472 8.892 14.913 10.993 6.3 2.065 8.716 3.78 10.186 7.106m-109.534 8.436c.105-.105 2.205-.875 4.69-1.75l4.552-1.54c.035-.035.525.98 1.155 2.205.735 1.47 1.82 2.906 3.185 4.2 1.156 1.051 2.1 1.996 2.1 2.101 0 .14-.84.21-1.854.21-2.1 0-5.321.98-6.862 2.1-.56.386-1.155.7-1.33.7-.42 0-5.881-7.98-5.636-8.226m118.986 8.122c-3.22-1.75-5.25-2.45-7.421-2.626-1.33-.07-2.416-.21-2.416-.245 0-.07.98-1.12 2.206-2.345 1.435-1.435 2.485-2.906 3.045-4.2.49-1.121.98-2.031 1.12-2.031.105 0 2.276.735 4.831 1.61 3.116 1.12 4.551 1.785 4.411 2.066-.315.84-5.566 7.91-5.776 7.77zm-58.495 2.555-1.82.84c-1.016.456-2.486 1.47-3.256 2.276-.735.77-1.575 1.435-1.82 1.435s-4.691-1.365-9.837-3.01c-9.767-3.151-10.677-3.571-11.867-5.916-.315-.56-.56-1.82-.56-2.8 0-3.432 1.715-5.287 6.196-6.827 4.726-1.575 7.631-3.78 10.677-8.051.595-.876 1.68-1.926 2.415-2.346.91-.56 1.855-.805 3.116-.805 3.115 0 4.9 1.085 6.09 3.676.596 1.26.666 2.415.666 11.482zm-26.15 44.878c-4.2 4.06-10.747 3.816-14.633-.49-2.135-2.38-2.625-4.2-2.625-9.732 0-7.28-1.295-11.132-6.056-18.133-3.676-5.39-4.376-7.981-3.186-11.937.665-2.31 2.836-4.76 5.216-5.846 2.52-1.19 6.021-1.12 9.977.14 3.255 1.085 3.99 1.89 2.205 2.555-1.33.49-3.15 2.31-4.025 3.956-.56 1.085-.666 1.855-.56 3.57.14 2.346.315 2.696 4.2 8.297 2.52 3.641 3.08 5.601 3.08 11.272 0 4.936.49 6.336 2.766 8.297 1.75 1.505 3.99 2.135 6.371 1.82 1.26-.175 1.716-.105 1.716.21 0 .63-2.836 4.48-4.446 6.021m70.328.315c-2.066 1.786-4.411 2.556-7.387 2.346-2.765-.21-4.76-1.155-6.861-3.22-1.61-1.611-4.026-5.042-4.026-5.672 0-.28.876-.385 2.73-.35 2.486.035 2.906-.07 4.447-1.015 1.05-.665 2.135-1.716 2.765-2.73.98-1.611 1.05-1.856 1.26-7.352.28-6.581.595-7.666 3.956-12.147 2.696-3.606 3.22-4.726 3.22-7.001-.034-3.046-2.03-5.917-4.9-7.002-.49-.175-.875-.56-.875-.805 0-.455 2.94-1.575 6.126-2.345 3.22-.77 7.561.315 9.731 2.38.56.525 1.436 1.716 1.926 2.696.805 1.505.945 2.17.945 4.726 0 3.43-.175 3.85-3.396 8.156-3.955 5.32-5.88 10.677-5.88 16.488-.036 7.106-1.016 10.397-3.782 12.847zm-37.877-44.423-1.926-.945v-21.039l.946-1.435c.525-.805 1.54-1.715 2.45-2.17a6.65 6.65 0 0 1 8.192 1.89c3.15 4.06 4.165 5.146 6.09 6.406 1.156.77 3.571 1.89 5.392 2.52 3.745 1.226 5.146 2.416 5.81 4.937.77 2.835-.594 6.02-3.08 7.281-.7.35-5.39 1.925-10.362 3.536l-9.066 2.87-1.26-1.435c-.7-.805-2.136-1.89-3.186-2.416m-1.05 4.446c2.94 2.136 2.905 6.966-.105 8.787-1.366.84-4.061.91-5.496.175-3.956-2.066-3.396-8.262.91-9.627 1.365-.42 3.64-.105 4.69.665m4.445 11.342c-.21-.35.035-.98.63-1.925.49-.77 1.086-2.275 1.296-3.36.21-1.12.42-2.171.49-2.416s4.166-1.75 9.136-3.396c10.292-3.395 11.798-3.605 14.353-2.135 1.89 1.12 2.905 3.01 2.905 5.426 0 2.03-.315 2.695-2.8 6.301-2.275 3.326-3.15 6.126-3.15 10.117 0 1.645-.176 3.606-.35 4.306-.42 1.435-1.751 3.22-2.941 3.85-2.03 1.086-5.356.91-7.212-.42-.735-.525-11.027-14.142-12.357-16.348M331.7 478.885c-1.61 1.155-4.901 1.295-6.792.315-1.435-.735-2.625-2.065-3.01-3.36-.105-.385-.315-2.346-.42-4.376-.315-5.531-1.085-7.596-4.516-12.427-1.155-1.61-1.4-2.31-1.54-3.956-.175-2.59.91-4.796 2.94-5.916 2.45-1.4 4.06-1.155 14.318 2.17l9.171 2.976.21 1.82c.14 1.015.63 2.626 1.12 3.536.49.945.876 1.995.876 2.345 0 .875-11.027 15.928-12.358 16.873zm3.92 1.89c.315-.735 2.556-3.885 10.642-14.842 1.33-1.855 1.4-1.89 2.626-1.61 1.61.35 3.675.35 5.53 0l1.436-.28 5.81 7.841c3.221 4.34 5.987 8.297 6.197 8.822 1.015 2.695-.07 6.23-2.38 7.806-1.96 1.295-3.746 1.365-7.282.245-4.34-1.4-8.821-1.4-13.057 0-3.396 1.12-5.006 1.05-7.106-.315-2.276-1.505-3.396-5.041-2.416-7.666m39.487 23.175c-3.115 3.255-7.351 3.885-13.022 1.925-6.931-2.415-11.657-2.45-19.779-.07-4.375 1.26-5.356 1.435-7.246 1.26-5.496-.525-9.172-4.446-9.207-9.872 0-2.87.84-4.97 3.396-8.436 2.03-2.766 2.73-2.87 3.046-.525.455 3.465 4.06 6.686 7.526 6.686.49 0 3.115-.63 5.776-1.4 6.196-1.786 7.351-1.786 13.057.035 3.57 1.12 4.796 1.365 6.021 1.225 3.396-.455 6.336-3.36 6.861-6.686.105-.91.42-1.576.666-1.576.595 0 3.5 4.026 4.585 6.337 1.68 3.675.98 8.296-1.68 11.097m48.834 9.031.665.84-5.006 3.256c-8.961 5.846-15.998 9.872-26.08 14.913-3.15 1.54-5.775 2.835-5.845 2.835-.105 0-4.446-5.146-9.697-11.482l-9.487-11.447 1.715-.245c1.96-.28 4.586-1.33 6.127-2.415l1.015-.735 1.645.7c.91.385 3.746 1.33 6.336 2.135 4.166 1.295 4.83 1.4 6.091 1.05 1.82-.49 3.22-1.925 3.746-3.78.245-.946.35-3.676.28-7.212l-.105-5.706 1.155-.805c.63-.42 1.61-1.365 2.17-2.065 1.19-1.506 2.801-4.761 2.801-5.706 0-.315.14-.595.315-.595.21 0 18.693 22.053 22.159 26.464m-101.028-17.993c-.84 2.766-.98 5.39-.455 7.456.28 1.156.42 2.206.315 2.31-.28.28-9.207 2.836-9.347 2.696-.07-.07-.245-2.345-.385-5.11l-.245-4.972h1.575c1.89 0 5.321-1.12 6.967-2.275 1.505-1.05 1.855-1.085 1.575-.105m216.653-329.653c11.377-9.522 20.829-17.293 21.004-17.293.455 0 26.255 30.91 26.255 31.435 0 .385-7.737 7.036-8.157 7.001-.14 0-4.166-4.726-8.997-10.502-4.795-5.776-8.996-10.711-9.276-10.992-.49-.42-1.015-.105-4.27 2.626-2.066 1.715-3.817 3.256-3.922 3.43-.07.14 3.396 4.481 7.702 9.662 4.34 5.146 7.841 9.417 7.771 9.487-.385.385-10.327 3.676-10.817 3.606-.315-.07-3.185-3.256-6.44-7.107-3.221-3.85-6.127-7.316-6.477-7.666-.63-.665-.735-.595-4.726 2.766-2.24 1.855-4.025 3.535-3.955 3.675s4.235 5.216 9.311 11.237c5.041 6.021 9.172 11.062 9.172 11.167 0 .315-8.016 7.001-8.332 6.966-.385 0-26.5-31.365-26.5-31.82 0-.21 9.312-8.157 20.654-17.678m-377.857 41.202c.28.525 1.016-.105 4.516-3.816 2.31-2.45 4.2-4.62 4.2-4.866 0-.21-1.154-2.975-2.59-6.126l-2.625-5.706 4.62-4.9c2.556-2.696 6.057-6.407 7.807-8.227l3.186-3.326 6.09 2.346 6.092 2.38 4.27-4.48c2.346-2.486 4.272-4.656 4.272-4.831 0-.245-45.333-17.189-55.485-20.724-.21-.07-2.136 1.68-4.271 3.92l-3.85 4.096 1.155 2.66c2.59 6.057 22.333 51.04 22.614 51.6zm-8.401-47.608c.28.104 4.06 1.575 8.436 3.255l7.947 3.046-4.621 4.865c-2.52 2.696-4.69 4.866-4.796 4.866-.14 0-6.756-14.317-7.316-15.857-.07-.175.105-.28.35-.175M76.189 334.976l2.87-.035v33.256h-7.7v-12.778c0-7.036-.036-12.777-.07-12.777-.07 0-1.296.315-2.731.7-1.435.35-2.626.63-2.66.595-.28-.28-1.54-5.986-1.366-6.16.14-.106 2.136-.771 4.48-1.506 3.327-.98 4.902-1.26 7.177-1.295m526.739.525c-2.276-.805-7.527-1.05-9.662-.455-2.276.665-4.621 2.1-6.056 3.78-3.29 3.886-3.326 10.712-.035 14.598 2.73 3.255 9.627 4.48 14.072 2.52l1.576-.7-.245.98c-.42 1.68-1.716 3.711-2.94 4.516-1.926 1.296-4.937 1.12-7.912-.42-1.296-.665-2.486-1.155-2.626-1.05-.665.42-3.57 5.076-3.395 5.496.315.805 3.85 2.696 6.196 3.29 3.36.84 7.596.56 10.397-.7 2.52-1.155 4.83-3.43 6.196-6.126 2.555-4.97 2.905-13.687.84-19.218-.98-2.626-3.956-5.636-6.406-6.511m-3.151 14.667c-2.346.91-4.516.49-6.196-1.225-1.12-1.12-1.33-1.54-1.33-2.835 0-1.96.56-3.046 2.065-4.061 1.645-1.12 4.726-1.12 6.371 0 3.466 2.31 2.976 6.651-.91 8.121M451.072 583.59c-.105.28-4.901 7.911-10.712 16.978l-10.537 16.488v21.738h-12.252v-21.528l-10.677-16.803c-5.881-9.242-10.677-16.908-10.677-17.083 0-.14 3.256-.245 7.281-.245l7.247.035 6.44 10.816c3.501 5.987 6.512 10.852 6.652 10.852.105-.035 3.115-4.9 6.686-10.852l6.476-10.816 7.141-.035c5.776 0 7.072.105 6.932.455m-69.873-81.46c.42-2.24.245-4.235-.595-7.141-.245-.875.245-1.05.875-.28.806.945 4.691 2.415 6.967 2.59l2.24.175-.14 4.831c-.07 2.66-.245 4.936-.385 5.076-.245.245-8.577-2.17-9.102-2.625-.14-.175-.105-1.33.14-2.626m219.384-301.613c-.245.035-11.167 5.46-24.26 12.077-13.092 6.651-23.943 12.112-24.118 12.182-.21.07 4.655 10.432 5.215 11.027.07.07 3.571-1.645 7.842-3.746l7.736-3.885 1.926 3.85c1.05 2.1 1.925 3.991 1.925 4.201s-2.275 4.411-5.076 9.312l-5.04 8.961 3.115 6.266c1.75 3.431 3.255 6.267 3.43 6.267.14 0 2.766-4.551 5.846-10.117l5.566-10.117 1.54 1.19c3.431 2.626 7.667 3.886 11.692 3.5 6.512-.594 12.883-4.795 15.578-10.256 1.12-2.275 1.296-2.94 1.436-5.986.28-5.671-.316-7.351-7.632-22.054-3.465-6.966-6.476-12.672-6.721-12.672m1.295 35.391c-2.065 2.94-6.16 4.2-9.066 2.766-2.38-1.12-3.781-3.046-7.072-9.522l-2.94-5.881 6.546-3.29c3.64-1.821 6.686-3.326 6.861-3.326.14-.035 1.716 2.905 3.5 6.476 3.116 6.3 3.221 6.616 3.221 8.891 0 2.1-.14 2.59-1.05 3.886m38.332 99.033h-6.231l-8.506 9.906c-4.691 5.426-8.717 10.117-8.962 10.397-.315.42-.28 1.12.14 3.08l.56 2.521h15.998v7.352h7.001v-7.352h4.55v-5.95h-4.55zm-7.001 19.953h-8.052l3.886-4.55c2.135-2.521 3.956-4.551 4.026-4.551s.14 2.03.14 4.55zM136.821 252.78c0 .77-5.356 10.432-5.741 10.327-.245-.07-11.167-5.776-24.294-12.672l-23.874-12.568 2.87-5.46c1.54-3.011 3.01-5.637 3.22-5.847.246-.28 5.251-.77 13.513-1.365 7.211-.49 13.162-.945 13.197-.98s-2.94-5.18-6.58-11.412c-3.677-6.231-6.617-11.622-6.547-11.937s1.365-2.976 2.905-5.881c1.54-2.94 2.94-5.321 3.151-5.321.42 0 47.363 24.644 47.854 25.134.28.28-4.411 9.802-5.251 10.642-.21.21-8.192-3.85-26.605-13.617-3.676-1.926-4.27-2.136-3.886-1.47.245.455 3.15 5.775 6.511 11.832 3.326 6.056 6.057 11.132 6.057 11.307 0 .14-.28.28-.596.315-.35 0-6.44.595-13.547 1.295l-12.882 1.295 15.262 8.017c8.402 4.41 15.263 8.156 15.263 8.366m169.43 372.886 3.99 4.026-1.365 1.435c-3.57 3.71-8.086 6.406-13.022 7.736-4.13 1.12-12.497 1.12-16.383 0-10.922-3.15-18.378-11.342-20.303-22.299-2.766-15.857 6.616-30.315 21.703-33.535 3.186-.7 10.572-.736 13.898-.105 5.286 1.05 9.767 3.22 13.232 6.44l1.82 1.646-3.885 4.446c-2.17 2.485-4.06 4.48-4.236 4.48-.175 0-.875-.49-1.54-1.05-1.926-1.715-5.111-3.465-7.667-4.27-1.89-.56-3.045-.7-5.636-.56-2.94.104-3.57.28-5.916 1.435-10.117 5.005-12.322 19.848-4.165 28.145 6.056 6.126 15.367 6.126 23.069-.07l2.38-1.926zm38.857-42.532h46.208v11.552h-16.803v44.107h-12.602v-44.107h-16.803zM108.851 351.953l-1.4-.98 1.05-.876c1.68-1.435 2.555-3.43 2.555-6.056 0-4.026-2.065-6.896-6.056-8.436-2.03-.735-6.196-1.085-8.541-.665-2.31.42-4.656 1.61-6.231 3.185-3.186 3.186-3.01 9.137.315 11.937l1.05.875-1.61 1.19c-2.276 1.716-3.046 3.361-3.046 6.617.035 3.08.77 4.83 2.836 6.616 3.15 2.8 8.926 3.886 14.072 2.66 2.626-.63 3.816-1.225 5.496-2.695 1.996-1.75 2.766-3.536 2.766-6.581.035-2.24-.105-2.87-.91-4.236-.526-.875-1.576-2.03-2.346-2.555m-7.246-10.572c3.605 1.505 2.73 6.546-1.19 6.861-2.17.175-2.906-.035-4.061-1.19-3.256-3.256.77-7.562 5.25-5.671m2.205 19.288c-2.1 2.1-6.44 2.1-8.541 0-1.856-1.855-1.4-4.2 1.085-5.426 1.68-.805 4.27-.91 5.951-.21 2.73 1.156 3.43 3.711 1.505 5.636m217.844 222.465h12.252v55.66h-12.252z" style="fill:#dc6829;fill-opacity:1"/></g></svg>