<svg xmlns="http://www.w3.org/2000/svg" width="672.7926025390625px" height="787.4570922851562px" x="0px" y="0px" style="enable-background:new 0 0 336 235.2" viewBox="0 0 672.7926025390625 787.4570922851562"><defs><radialGradient id="K" cx="0" cy="0" r="1" fx="0" fy="0" gradientTransform="matrix(42.96702 0 0 -42.96702 294.995 404.502)" gradientUnits="userSpaceOnUse" spreadMethod="pad"><stop offset="0" style="stop-opacity:1;stop-color:#fff"/><stop offset="0.00558472" style="stop-opacity:1;stop-color:#fff"/><stop offset="0.860336" style="stop-opacity:1;stop-color:#797a7d"/><stop offset="1" style="stop-opacity:1;stop-color:#797a7d"/></radialGradient><radialGradient id="I" cx="0" cy="0" r="1" fx="0" fy="0" gradientTransform="matrix(29.37608 0 0 -29.37608 283.36 393.63)" gradientUnits="userSpaceOnUse" spreadMethod="pad"><stop offset="0" style="stop-opacity:1;stop-color:#fff"/><stop offset="0.00558472" style="stop-opacity:1;stop-color:#fff"/><stop offset="0.860336" style="stop-opacity:1;stop-color:#797a7d"/><stop offset="1" style="stop-opacity:1;stop-color:#797a7d"/></radialGradient><radialGradient id="H" cx="0" cy="0" r="1" fx="0" fy="0" gradientTransform="matrix(12.77897 0 0 -12.77897 292.325 361.014)" gradientUnits="userSpaceOnUse" spreadMethod="pad"><stop offset="0" style="stop-opacity:1;stop-color:#fff"/><stop offset="0.00558472" style="stop-opacity:1;stop-color:#fff"/><stop offset="0.860336" style="stop-opacity:1;stop-color:#797a7d"/><stop offset="1" style="stop-opacity:1;stop-color:#797a7d"/></radialGradient><radialGradient id="F" cx="0" cy="0" r="1" fx="0" fy="0" gradientTransform="matrix(12.7791 0 0 -12.7791 292.324 361.014)" gradientUnits="userSpaceOnUse" spreadMethod="pad"><stop offset="0" style="stop-opacity:1;stop-color:#fff"/><stop offset="0.00558472" style="stop-opacity:1;stop-color:#fff"/><stop offset="0.860336" style="stop-opacity:1;stop-color:#797a7d"/><stop offset="1" style="stop-opacity:1;stop-color:#797a7d"/></radialGradient><radialGradient id="D" cx="0" cy="0" r="1" fx="0" fy="0" gradientTransform="matrix(12.77982 0 0 -12.77982 292.324 361.014)" gradientUnits="userSpaceOnUse" spreadMethod="pad"><stop offset="0" style="stop-opacity:1;stop-color:#fff"/><stop offset="0.00558472" style="stop-opacity:1;stop-color:#fff"/><stop offset="0.860336" style="stop-opacity:1;stop-color:#797a7d"/><stop offset="1" style="stop-opacity:1;stop-color:#797a7d"/></radialGradient><radialGradient id="C" cx="0" cy="0" r="1" fx="0" fy="0" gradientTransform="matrix(12.77935 0 0 -12.77935 292.324 361.014)" gradientUnits="userSpaceOnUse" spreadMethod="pad"><stop offset="0" style="stop-opacity:1;stop-color:#fff"/><stop offset="0.00558472" style="stop-opacity:1;stop-color:#fff"/><stop offset="0.860336" style="stop-opacity:1;stop-color:#797a7d"/><stop offset="1" style="stop-opacity:1;stop-color:#797a7d"/></radialGradient><radialGradient id="A" cx="0" cy="0" r="1" fx="0" fy="0" gradientTransform="matrix(48.74098 0 0 -48.74098 289.274 431.206)" gradientUnits="userSpaceOnUse" spreadMethod="pad"><stop offset="0" style="stop-opacity:1;stop-color:#fff"/><stop offset="0.00558472" style="stop-opacity:1;stop-color:#fff"/><stop offset="0.860336" style="stop-opacity:1;stop-color:#797a7d"/><stop offset="1" style="stop-opacity:1;stop-color:#797a7d"/></radialGradient><radialGradient id="y" cx="0" cy="0" r="1" fx="0" fy="0" gradientTransform="matrix(48.74307 0 0 -48.74307 289.273 431.206)" gradientUnits="userSpaceOnUse" spreadMethod="pad"><stop offset="0" style="stop-opacity:1;stop-color:#fff"/><stop offset="0.00558472" style="stop-opacity:1;stop-color:#fff"/><stop offset="0.860336" style="stop-opacity:1;stop-color:#797a7d"/><stop offset="1" style="stop-opacity:1;stop-color:#797a7d"/></radialGradient><radialGradient id="x" cx="0" cy="0" r="1" fx="0" fy="0" gradientTransform="matrix(48.74463 0 0 -48.74463 289.272 431.206)" gradientUnits="userSpaceOnUse" spreadMethod="pad"><stop offset="0" style="stop-opacity:1;stop-color:#fff"/><stop offset="0.00558472" style="stop-opacity:1;stop-color:#fff"/><stop offset="0.860336" style="stop-opacity:1;stop-color:#797a7d"/><stop offset="1" style="stop-opacity:1;stop-color:#797a7d"/></radialGradient><radialGradient id="v" cx="0" cy="0" r="1" fx="0" fy="0" gradientTransform="matrix(48.7437 0 0 -48.7437 289.273 431.206)" gradientUnits="userSpaceOnUse" spreadMethod="pad"><stop offset="0" style="stop-opacity:1;stop-color:#fff"/><stop offset="0.00558472" style="stop-opacity:1;stop-color:#fff"/><stop offset="0.860336" style="stop-opacity:1;stop-color:#797a7d"/><stop offset="1" style="stop-opacity:1;stop-color:#797a7d"/></radialGradient><radialGradient id="u" cx="0" cy="0" r="1" fx="0" fy="0" gradientTransform="matrix(48.74534 0 0 -48.74534 289.272 431.206)" gradientUnits="userSpaceOnUse" spreadMethod="pad"><stop offset="0" style="stop-opacity:1;stop-color:#fff"/><stop offset="0.00558472" style="stop-opacity:1;stop-color:#fff"/><stop offset="0.860336" style="stop-opacity:1;stop-color:#797a7d"/><stop offset="1" style="stop-opacity:1;stop-color:#797a7d"/></radialGradient><radialGradient id="t" cx="0" cy="0" r="1" fx="0" fy="0" gradientTransform="matrix(48.74414 0 0 -48.74414 289.273 431.205)" gradientUnits="userSpaceOnUse" spreadMethod="pad"><stop offset="0" style="stop-opacity:1;stop-color:#fff"/><stop offset="0.00558472" style="stop-opacity:1;stop-color:#fff"/><stop offset="0.860336" style="stop-opacity:1;stop-color:#797a7d"/><stop offset="1" style="stop-opacity:1;stop-color:#797a7d"/></radialGradient><radialGradient id="s" cx="0" cy="0" r="1" fx="0" fy="0" gradientTransform="matrix(48.74632 0 0 -48.74632 289.273 431.205)" gradientUnits="userSpaceOnUse" spreadMethod="pad"><stop offset="0" style="stop-opacity:1;stop-color:#fff"/><stop offset="0.00558472" style="stop-opacity:1;stop-color:#fff"/><stop offset="0.860336" style="stop-opacity:1;stop-color:#797a7d"/><stop offset="1" style="stop-opacity:1;stop-color:#797a7d"/></radialGradient><radialGradient id="r" cx="0" cy="0" r="1" fx="0" fy="0" gradientTransform="matrix(48.74256 0 0 -48.74256 289.272 431.206)" gradientUnits="userSpaceOnUse" spreadMethod="pad"><stop offset="0" style="stop-opacity:1;stop-color:#fff"/><stop offset="0.00558472" style="stop-opacity:1;stop-color:#fff"/><stop offset="0.860336" style="stop-opacity:1;stop-color:#797a7d"/><stop offset="1" style="stop-opacity:1;stop-color:#797a7d"/></radialGradient><radialGradient id="q" cx="0" cy="0" r="1" fx="0" fy="0" gradientTransform="matrix(48.74367 0 0 -48.74367 289.272 431.206)" gradientUnits="userSpaceOnUse" spreadMethod="pad"><stop offset="0" style="stop-opacity:1;stop-color:#fff"/><stop offset="0.00558472" style="stop-opacity:1;stop-color:#fff"/><stop offset="0.860336" style="stop-opacity:1;stop-color:#797a7d"/><stop offset="1" style="stop-opacity:1;stop-color:#797a7d"/></radialGradient><radialGradient id="o" cx="0" cy="0" r="1" fx="0" fy="0" gradientTransform="matrix(48.74383 0 0 -48.74383 289.273 431.205)" gradientUnits="userSpaceOnUse" spreadMethod="pad"><stop offset="0" style="stop-opacity:1;stop-color:#fff"/><stop offset="0.00558472" style="stop-opacity:1;stop-color:#fff"/><stop offset="0.860336" style="stop-opacity:1;stop-color:#797a7d"/><stop offset="1" style="stop-opacity:1;stop-color:#797a7d"/></radialGradient><radialGradient id="m" cx="0" cy="0" r="1" fx="0" fy="0" gradientTransform="matrix(48.74413 0 0 -48.74413 289.273 431.206)" gradientUnits="userSpaceOnUse" spreadMethod="pad"><stop offset="0" style="stop-opacity:1;stop-color:#fff"/><stop offset="0.00558472" style="stop-opacity:1;stop-color:#fff"/><stop offset="0.860336" style="stop-opacity:1;stop-color:#797a7d"/><stop offset="1" style="stop-opacity:1;stop-color:#797a7d"/></radialGradient><radialGradient id="b" cx="0" cy="0" r="1" fx="0" fy="0" gradientTransform="matrix(46.1903 0 0 -46.1903 292.294 398.556)" gradientUnits="userSpaceOnUse" spreadMethod="pad"><stop offset="0" style="stop-opacity:0;stop-color:#fff"/><stop offset="0.00558472" style="stop-opacity:0;stop-color:#fff"/><stop offset="0.513962" style="stop-opacity:1;stop-color:#fff"/><stop offset="0.69828626" style="stop-opacity:.25000381;stop-color:#fff"/><stop offset="0.87709" style="stop-opacity:.25000381;stop-color:#fff"/><stop offset="1" style="stop-opacity:1;stop-color:#fff"/></radialGradient><radialGradient id="l" cx="0" cy="0" r="1" fx="0" fy="0" gradientTransform="matrix(46.1903 0 0 -46.1903 292.294 398.556)" gradientUnits="userSpaceOnUse" spreadMethod="pad"><stop offset="0" style="stop-opacity:1;stop-color:#fff"/><stop offset="0.00558472" style="stop-opacity:1;stop-color:#fff"/><stop offset="0.513962" style="stop-opacity:1;stop-color:#fff"/><stop offset="0.87709" style="stop-opacity:1;stop-color:#fff"/><stop offset="1" style="stop-opacity:1;stop-color:#fff"/></radialGradient><radialGradient id="c" cx="0" cy="0" r="1" fx="0" fy="0" gradientTransform="matrix(51.17526 0 0 -51.17526 301.13 408.65)" gradientUnits="userSpaceOnUse" spreadMethod="pad"><stop offset="0" style="stop-opacity:1;stop-color:#0885bf"/><stop offset="0.340775" style="stop-opacity:1;stop-color:#0885bf"/><stop offset="1" style="stop-opacity:1;stop-color:#221d52"/></radialGradient><clipPath id="L" clipPathUnits="userSpaceOnUse"><path d="M237.472 343.275h105.397v113.501H237.472Z"/></clipPath><clipPath id="M" clipPathUnits="userSpaceOnUse"><path d="M301.098 418.045h31.281v-56.459h-31.281z"/></clipPath><clipPath id="N" clipPathUnits="userSpaceOnUse"><path d="M301.098 361.586h31.281v56.458h-31.281z"/></clipPath><clipPath id="O" clipPathUnits="userSpaceOnUse"><path d="M298.167 428.359h12.932v-13.14h-12.932z"/></clipPath><clipPath id="P" clipPathUnits="userSpaceOnUse"><path d="M298.167 415.219h12.931v13.14h-12.931z"/></clipPath><clipPath id="J" clipPathUnits="userSpaceOnUse"><path d="M237.472 343.275h105.397v113.501H237.472Z"/></clipPath><clipPath id="G" clipPathUnits="userSpaceOnUse"><path d="M237.472 343.275h105.397v113.501H237.472Z"/></clipPath><clipPath id="E" clipPathUnits="userSpaceOnUse"><path d="M237.472 343.275h105.397v113.501H237.472Z"/></clipPath><clipPath id="B" clipPathUnits="userSpaceOnUse"><path d="M237.472 343.275h105.397v113.501H237.472Z"/></clipPath><clipPath id="z" clipPathUnits="userSpaceOnUse"><path d="M237.472 343.275h105.397v113.501H237.472Z"/></clipPath><clipPath id="w" clipPathUnits="userSpaceOnUse"><path d="M237.472 343.275h105.397v113.501H237.472Z"/></clipPath><clipPath id="p" clipPathUnits="userSpaceOnUse"><path d="M237.472 343.275h105.397v113.501H237.472Z"/></clipPath><clipPath id="n" clipPathUnits="userSpaceOnUse"><path d="M237.472 343.275h105.397v113.501H237.472Z"/></clipPath><clipPath id="h" clipPathUnits="userSpaceOnUse"><path d="M237.472 343.275h105.397v113.501H237.472Z"/></clipPath><clipPath id="i" clipPathUnits="userSpaceOnUse"><path d="M250.263 448.561h84.061v-100.01h-84.061z"/></clipPath><clipPath id="j" clipPathUnits="userSpaceOnUse"><path d="M292.37 448.561c-24.742-.058-42.107-13.427-42.107-13.427 1.018-69.613 41.92-86.583 41.92-86.583 44.975 25.974 42.104 86.423 42.104 86.423-14.864 10.15-29.147 13.556-41.586 13.587zm-41.139-14.271s38.482 29.619 82.088-.155c0 0 2.805-59.056-41.133-84.432 0 0-39.959 16.579-40.955 84.587"/></clipPath><clipPath id="a" clipPathUnits="userSpaceOnUse"><path d="M-9523.03 10079.6H9978.05V-9421.44H-9523.03Z"/></clipPath><clipPath id="d" clipPathUnits="userSpaceOnUse"><path d="M237.472 343.275h105.397v113.501H237.472Z"/></clipPath><clipPath id="e" clipPathUnits="userSpaceOnUse"><path d="M286.53 423.492h23.999v-24.386H286.53Z"/></clipPath><clipPath id="f" clipPathUnits="userSpaceOnUse"><path d="M286.53 399.106h23.999v24.386H286.53Z"/></clipPath><linearGradient id="g" x1="0" x2="1" y1="0" y2="0" gradientTransform="scale(97.87686 -97.87686) rotate(-35.362 -4.838 -6.146)" gradientUnits="userSpaceOnUse" spreadMethod="pad"><stop offset="0" style="stop-opacity:1;stop-color:#9fa1a3"/><stop offset="0.00558472" style="stop-opacity:1;stop-color:#9fa1a3"/><stop offset="0.268158" style="stop-opacity:1;stop-color:#fff"/><stop offset="0.508377" style="stop-opacity:1;stop-color:#616264"/><stop offset="0.759781" style="stop-opacity:1;stop-color:#ebebec"/><stop offset="0.960892" style="stop-opacity:1;stop-color:#696a6d"/><stop offset="1" style="stop-opacity:1;stop-color:#696a6d"/></linearGradient><mask id="k" width="1" height="1" x="0" y="0" maskUnits="userSpaceOnUse"><g clip-path="url(#a)"><path d="M250.263 465.451h86.895V348.55h-86.895z" style="fill:url(#b);stroke:none"/></g></mask></defs><path fill="none" d="M0 0h672.793v787.457H0z" style="fill:#2d279c;fill-opacity:0;pointer-events:none"/><path d="M245.212 438.644c1.145-76.676 47.112-95.369 47.112-95.369 50.545 28.611 46.73 95.178 46.73 95.178-16.784 11.233-32.843 14.97-46.783 14.97-27.721 0-47.059-14.779-47.059-14.779" style="fill:url(#c);stroke:none" transform="matrix(6.99076 0 0 -6.99076 -1708.451 3176.103)"/><g clip-path="url(#d)" transform="matrix(6.99076 0 0 -6.99076 -1708.451 3176.103)"><g clip-path="url(#e)" style="opacity:.25"><g clip-path="url(#f)"><path d="M0 0c0-6.734-5.373-12.193-12-12.193S-23.999-6.734-23.999 0-18.627 12.193-12 12.193C-5.373 12.193 0 6.734 0 0" style="fill:#fff;fill-opacity:1;fill-rule:nonzero;stroke:none" transform="translate(310.529 411.299)"/></g></g></g><path d="M245.212 438.644c1.145-76.676 47.112-95.369 47.112-95.369 50.545 28.611 46.73 95.178 46.73 95.178-16.784 11.233-32.843 14.97-46.783 14.97-27.721 0-47.059-14.779-47.059-14.779m4.003-2.889s40.327 30.913 86.025-.162c0 0 2.94-61.636-43.106-88.121 0 0-41.876 17.303-42.919 88.283" style="fill:url(#g);stroke:none" transform="matrix(6.99076 0 0 -6.99076 -1708.451 3176.103)"/><g clip-path="url(#h)" transform="matrix(6.99076 0 0 -6.99076 -1708.451 3176.103)"><g clip-path="url(#i)" style="opacity:.72000098"><g clip-path="url(#j)"><g mask="url(#k)"><path d="M292.37 448.561c-24.742-.058-42.107-13.427-42.107-13.427 1.018-69.613 41.92-86.583 41.92-86.583 44.975 25.974 42.104 86.423 42.104 86.423-14.864 10.15-29.147 13.556-41.586 13.587zm-41.139-14.271s38.482 29.619 82.088-.155c0 0 2.805-59.056-41.133-84.432 0 0-39.959 16.579-40.955 84.587" style="fill:url(#l);stroke:none"/></g></g></g><path d="M0 0s-42.88 17.719-43.948 90.401c0 0 41.294 31.655 88.089-.166C44.141 90.235 47.15 27.12 0 0m44.665 90.687c-47.351 32.2-89.137.168-89.137.168C-43.392 17.308-.001-.621-.001-.621 47.71 26.822 44.665 90.687 44.665 90.687" style="fill:#efeff0;fill-opacity:1;fill-rule:nonzero;stroke:none" transform="translate(292.135 346.186)"/><path d="M0 0s-27.275-6.866-19.455-36.431c8.773-24.986 44.632-20.79 51.499 2.098 0 0-6.676-11.635-21.172-11.635S-13.924-33.76-12.97-20.409C-12.017-7.057-2.48-2.098 0 0" style="fill:#000;fill-opacity:1;fill-rule:nonzero;stroke:none" transform="translate(286.03 425.293)"/><path d="M0 0c-.509 0-4.069 4.451-4.323 4.832-.255.381-1.908 6.358-1.908 7.375 0 1.017 2.543 4.069 2.543 4.069 4.832-.508 6.104-14.242 5.977-14.75C2.162 1.017.509 0 0 0m-14.877 15.005s-4.451 5.086-6.358 6.103l-.127 3.052s10.808.509 17.674-7.248c0 0-3.687-1.908-4.45-2.543 0 0-4.705.636-6.739.636m-2.162-26.831c-1.018-1.271-8.647-3.433-9.41-3.433-.763 0-6.866 5.086-8.265 10.3 0 0 2.67 5.086 3.052 6.358 0 0 8.392 3.687 10.553 3.56 0 0 4.96-5.595 6.104-5.976 0 0-1.017-9.537-2.034-10.809M-37.003 8.265s2.416 8.266 5.722 10.555c0 0 8.138 1.652 9.791 1.652 1.781-1.017 3.942-5.849 3.688-6.612-.255-.763-2.162-5.467-3.433-6.485-1.272-1.017-8.52-3.687-11.063-4.069 0 0-3.815 3.56-4.705 4.959m33.951 9.919C-20.6 32.68-34.333 20.345-34.333 20.345l.763-1.017c-1.017-1.78-4.196-11.19-4.196-11.19l-5.214-3.052C-43.615 0-41.327-5.849-41.327-5.849l5.341-.763c2.925-6.231 9.156-9.283 9.156-9.283l.762-3.687c11.953-2.416 16.913 2.162 16.913 2.162l-7.248 5.086 4.45 10.045c2.416 1.145 6.994 4.323 6.994 4.323 1.526 0 4.577-2.67 4.577-2.67l.128-8.392C5.722-.382 3.306 12.08-3.052 18.184" style="fill:#000;fill-opacity:1;fill-rule:nonzero;stroke:none" transform="translate(317.502 401.196)"/></g><path d="M257.996 433.625c-1.346-.403-2.513-1.345-2.513-1.345s-.986-.718-.638-2.325l2.671-6.033 1.164.559-1.034 2.371 3.535 1.749 1.301-2.422 1.211.717-2.781 5.788c-.458.719-1.083 1.104-1.908 1.104-.308 0-.644-.053-1.008-.163m-1.359-4.705-.378.754s-.377.839.714 1.385l1.425.755s.965.461 1.468-.169l.629-.921s.251-.421-.252-.63c-.503-.21-2.81-1.426-2.81-1.426s-.166-.095-.354-.095c-.165 0-.345.073-.442.347" style="fill:url(#m);stroke:none" transform="matrix(6.99076 0 0 -6.99076 -1708.451 3176.103)"/><g clip-path="url(#n)" transform="matrix(6.99076 0 0 -6.99076 -1708.451 3176.103)"><path d="M0 0c-.503-.21-2.81-1.426-2.81-1.426s-.587-.335-.797.252l-.377.755s-.378.838.713 1.384l1.426.754s.964.462 1.467-.167l.63-.923S.503.21 0 0Zm-2.248 3.532C-3.593 3.128-4.76 2.186-4.76 2.186s-.987-.718-.639-2.325l2.672-6.034 1.164.56-1.035 2.371L.938-1.493l1.301-2.423 1.211.718L.668 2.589c-.628.988-1.57 1.346-2.916.943Z" style="fill:none;stroke:#e4e5e6;stroke-width:.29800001;stroke-linecap:butt;stroke-linejoin:miter;stroke-miterlimit:4;stroke-dasharray:none;stroke-opacity:1" transform="translate(260.243 430.094)"/></g><path d="M285.362 441.706s-1.182-.306-1.447-1.928l.21-6.967 1.418.094-.093 2.584 3.802.331.321-2.731 1.524.242-.537 6.76c-.223 1.148-.967 1.828-2.367 1.946-.163.014-.326.02-.488.02-1.226 0-2.343-.351-2.343-.351m-.103-3.77-.072.821s-.042.897 1.142 1.001l1.564.175s1.04.073 1.272-.678l.241-1.062s.078-.471-.454-.481c-.532-.01-3.06-.289-3.06-.289s-.037-.005-.093-.005c-.179 0-.555.055-.54.518" style="fill:url(#o);stroke:none" transform="matrix(6.99076 0 0 -6.99076 -1708.451 3176.103)"/><g clip-path="url(#p)" transform="matrix(6.99076 0 0 -6.99076 -1708.451 3176.103)"><path d="M0 0c-.532-.01-3.06-.289-3.06-.289s-.653-.094-.633.514l-.073.82s-.042.896 1.142 1.001l1.564.175s1.041.073 1.273-.678L.453.481S.531.01 0 0Zm-.76 4.325c-1.4.118-2.831-.33-2.831-.33s-1.181-.306-1.447-1.929l.211-6.967 1.417.094-.093 2.585 3.802.33.321-2.731 1.524.242-.537 6.76C1.385 3.527.64 4.207-.76 4.325Z" style="fill:none;stroke:#e4e5e6;stroke-width:.29800001;stroke-linecap:butt;stroke-linejoin:miter;stroke-miterlimit:4;stroke-dasharray:none;stroke-opacity:1" transform="translate(288.953 437.712)"/></g><path d="m261.091 435.375 3.096-8.21 4.71 1.885-.718 1.794-3.365-1.166-2.332 6.28z" style="fill:url(#q);stroke:none" transform="matrix(6.99076 0 0 -6.99076 -1708.451 3176.103)"/><path d="m0 0-2.333 6.281-1.391-.584 3.096-8.209L4.083-.628l-.718 1.794Z" style="fill:none;stroke:#e4e5e6;stroke-width:.29800001;stroke-linecap:butt;stroke-linejoin:miter;stroke-miterlimit:4;stroke-dasharray:none;stroke-opacity:1" transform="matrix(6.99076 0 0 -6.99076 142.804 172.327)"/><path d="m272.262 439.323.763-2.557-3.814-1.301-.897 2.692-1.346-.538 2.378-8.389 1.525.493-1.121 3.858 3.768 1.167 1.15-3.904 1.384.327-2.355 8.645z" style="fill:url(#r);stroke:none" transform="matrix(6.99076 0 0 -6.99076 -1708.451 3176.103)"/><path d="m0 0 .763-2.557-3.814-1.301-.897 2.692-1.346-.539 2.378-8.389 1.525.493-1.121 3.858 3.768 1.167 1.151-3.903 1.384.327L1.435.493z" style="fill:none;stroke:#e4e5e6;stroke-width:.29800001;stroke-linecap:butt;stroke-linejoin:miter;stroke-miterlimit:4;stroke-dasharray:none;stroke-opacity:1" transform="matrix(6.99076 0 0 -6.99076 194.865 104.898)"/><path d="m274.778 440.095 1.882-8.802 1.699.425-2.185 8.68z" style="fill:url(#s);stroke:none" transform="matrix(6.99076 0 0 -6.99076 -1708.451 3176.103)"/><path d="m0 0 1.882-8.802 1.699.426L1.396.304z" style="fill:none;stroke:#e4e5e6;stroke-width:.29800001;stroke-linecap:butt;stroke-linejoin:miter;stroke-miterlimit:4;stroke-dasharray:none;stroke-opacity:1" transform="matrix(6.99076 0 0 -6.99076 212.456 99.51)"/><path d="m277.267 440.58 1.457-8.741 5.098.911-.303 2.063-3.521-.485-1.214 6.616z" style="fill:url(#t);stroke:none" transform="matrix(6.99076 0 0 -6.99076 -1708.451 3176.103)"/><path d="m0 0-1.214 6.616-1.518-.364 1.457-8.741 5.099.911L3.521.486Z" style="fill:none;stroke:#e4e5e6;stroke-width:.29800001;stroke-linecap:butt;stroke-linejoin:miter;stroke-miterlimit:4;stroke-dasharray:none;stroke-opacity:1" transform="matrix(6.99076 0 0 -6.99076 248.95 139.82)"/><path d="m291.713 442.219-.06-8.923 5.173.164-.074 2.021-3.46-.12v6.858z" style="fill:url(#u);stroke:none" transform="matrix(6.99076 0 0 -6.99076 -1708.451 3176.103)"/><path d="M0 0v6.859h-1.578l-.061-8.923 5.174.164L3.46.121Z" style="fill:none;stroke:#e4e5e6;stroke-width:.29800001;stroke-linecap:butt;stroke-linejoin:miter;stroke-miterlimit:4;stroke-dasharray:none;stroke-opacity:1" transform="matrix(6.99076 0 0 -6.99076 341.878 132.605)"/><path d="M302.396 440.519s-.546-.971-.728-2.306c-.182-1.336.971-1.396.971-1.396s1.872-.48 3.092-.828c1.083-.31.876-1.006.876-1.006s-.144-.413-.387-1.019c-.243-.607-1.032-.304-1.032-.304l-4.249 1.215-.486-1.761s2.733-.911 4.432-1.335c1.699-.425 2.124.546 2.124.546s.729 1.639.972 3.217-1.141 1.841-1.141 1.841l-3.473 1.073c-.734.424-.14.991.607.729.542-.134 4.067-1.214 4.067-1.214l.546 1.759s-3.096.851-4.43 1.214a2.48 2.48 0 0 1-.659.096c-.821 0-1.102-.521-1.102-.521" style="fill:url(#v);stroke:none" transform="matrix(6.99076 0 0 -6.99076 -1708.451 3176.103)"/><g clip-path="url(#w)" transform="matrix(6.99076 0 0 -6.99076 -1708.451 3176.103)"><path d="m0 0-3.473 1.073c-.733.424-.14.992.607.728.541-.133 4.067-1.214 4.067-1.214l.547 1.761s-3.096.85-4.432 1.214c-1.335.364-1.76-.425-1.76-.425S-4.99 2.166-5.172.83c-.182-1.335.971-1.396.971-1.396s1.873-.48 3.091-.828C-.026-1.703-.232-2.4-.232-2.4s-.145-.412-.388-1.019c-.242-.607-1.032-.303-1.032-.303l-4.249 1.214-.485-1.761s2.732-.91 4.431-1.335c1.7-.425 2.124.546 2.124.546s.729 1.639.972 3.217C1.383-.262 0 0 0 0Z" style="fill:none;stroke:#e4e5e6;stroke-width:.29800001;stroke-linecap:butt;stroke-linejoin:miter;stroke-miterlimit:4;stroke-dasharray:none;stroke-opacity:1" transform="translate(306.84 437.383)"/></g><path d="m312.655 429.957 1.032-.667 1.759 4.006 3.678-1.565.694 1.565-3.764 1.579.425.97 4.916-1.921.668 1.557-6.191 2.246z" style="fill:url(#x);stroke:none" transform="matrix(6.99076 0 0 -6.99076 -1708.451 3176.103)"/><path d="m0 0 4.916-1.921.669 1.557-6.192 2.246-3.217-7.77 1.032-.668 1.76 4.007 3.677-1.566.694 1.566L-.425-.971z" style="fill:none;stroke:#e4e5e6;stroke-width:.29800001;stroke-linecap:butt;stroke-linejoin:miter;stroke-miterlimit:4;stroke-dasharray:none;stroke-opacity:1" transform="matrix(6.99076 0 0 -6.99076 503.976 129.213)"/><path d="M322.943 433.228s-1.78-3.743-2.116-4.413c-.294-.588-.646-1.59.69-2.439 1.335-.85 4.249-2.427 4.249-2.427l.945 1.407-3.919 2.234s-1.062.527-.486 1.639l1.36 2.631s.453.525 1.553-.021c1.208-.599 3.479-1.838 3.479-1.838l.832 1.535-4.068 2.124s-.52.324-1.147.324c-.454 0-.964-.17-1.372-.756" style="fill:url(#y);stroke:none" transform="matrix(6.99076 0 0 -6.99076 -1708.451 3176.103)"/><g clip-path="url(#z)" transform="matrix(6.99076 0 0 -6.99076 -1708.451 3176.103)"><path d="M0 0s.452.526 1.554-.021c1.207-.598 3.478-1.837 3.478-1.837l.831 1.534L1.796 1.8s-1.548.964-2.519-.432c0 0-1.78-3.742-2.116-4.413-.294-.587-.646-1.589.69-2.439C-.814-6.333 2.1-7.912 2.1-7.912l.945 1.409L-.874-4.27s-1.062.528-.486 1.639C-.623-1.208 0 0 0 0Z" style="fill:none;stroke:#e4e5e6;stroke-width:.29800001;stroke-linecap:butt;stroke-linejoin:miter;stroke-miterlimit:4;stroke-dasharray:none;stroke-opacity:1" transform="translate(323.666 431.86)"/></g><path d="M307.67 432.203c-.189-.569-.038-1.132.335-1.255.374-.124.831.237 1.019.806.19.57.04 1.133-.335 1.257a.493.493 0 0 1-.152.024c-.337 0-.703-.337-.867-.832" style="fill:url(#A);stroke:none" transform="matrix(6.99076 0 0 -6.99076 -1708.451 3176.103)"/><g clip-path="url(#B)" transform="matrix(6.99076 0 0 -6.99076 -1708.451 3176.103)"><path d="M0 0c-.373.124-.83-.237-1.019-.807-.189-.57-.039-1.132.335-1.256.374-.124.83.237 1.019.807C.524-.686.374-.124 0 0Z" style="fill:none;stroke:#e4e5e6;stroke-width:.29800001;stroke-linecap:butt;stroke-linejoin:miter;stroke-miterlimit:4;stroke-dasharray:none;stroke-opacity:1" transform="translate(308.69 433.01)"/></g><path d="m281.734 366.807-1.065-.889-.177-1.893.946.947-.828-4.439 1.42-.119 1.243 6.393z" style="fill:url(#C);stroke:none" transform="matrix(6.99076 0 0 -6.99076 -1708.451 3176.103)"/><path d="m0 0-1.066-.887-.177-1.895.947.947-.829-4.439 1.421-.118L1.539 0Z" style="fill:none;stroke:#e4e5e6;stroke-width:.29800001;stroke-linecap:butt;stroke-linejoin:miter;stroke-miterlimit:4;stroke-dasharray:none;stroke-opacity:1" transform="matrix(6.99076 0 0 -6.99076 261.087 611.847)"/><path d="M285.7 366.984s-2.071-.414-2.249-1.894c-.178-1.479.474-2.131 1.953-2.189 1.48-.06 3.256-.119 3.256-.119s-.178-.829-.947-.829h-2.664s-.473 0-.473.592h-1.539s.118-2.072 1.48-2.072h3.433s1.657.119 2.249 1.953c.591 1.836.533 3.315.533 3.315s-.237 1.243-1.599 1.243zm-.752-2.148c0 .303.11.661.771.661h2.895s.497-.11.497-.441c0-.33-.084-.689-.608-.689h-3.115s-.44.165-.44.469" style="fill:url(#D);stroke:none" transform="matrix(6.99076 0 0 -6.99076 -1708.451 3176.103)"/><g clip-path="url(#E)" transform="matrix(6.99076 0 0 -6.99076 -1708.451 3176.103)"><path d="M0 0h-3.115s-.441.165-.441.468c0 .304.11.662.772.662H.11s.496-.11.496-.441S.524 0 0 0Zm.629 2.617h-3.432S-4.875 2.203-5.052.723c-.178-1.48.473-2.131 1.953-2.19 1.48-.059 3.255-.118 3.255-.118s-.177-.829-.947-.829h-2.663s-.474 0-.474.592h-1.539s.119-2.072 1.48-2.072h3.433s1.657.118 2.249 1.954c.592 1.835.533 3.314.533 3.314S1.991 2.617.629 2.617z" style="fill:none;stroke:#e4e5e6;stroke-width:.29800001;stroke-linecap:butt;stroke-linejoin:miter;stroke-miterlimit:4;stroke-dasharray:none;stroke-opacity:1" transform="translate(288.504 364.367)"/></g><path d="m291.915 366.866-.829-3.67h1.362s0 .415.592.415h2.9s.474 0 .474-.71-.474-.889-.888-.889h-2.545s-.77 0-.77.592h-1.421s.059-2.131 1.421-2.131h3.433s2.19.356 2.19 1.953c0 1.599-.001 2.368-1.184 2.368-1.184 0-3.669.059-3.669.059s-.06.592.177.592 4.913.059 4.913.059l.237 1.422z" style="fill:url(#F);stroke:none" transform="matrix(6.99076 0 0 -6.99076 -1708.451 3176.103)"/><g clip-path="url(#G)" transform="matrix(6.99076 0 0 -6.99076 -1708.451 3176.103)"><path d="M0 0c-1.184 0-3.669.059-3.669.059s-.059.592.178.592c.236 0 4.912.059 4.912.059l.237 1.42-6.393-.059-.828-3.67h1.361s0 .415.592.415h2.9s.474 0 .474-.71c0-.711-.474-.889-.888-.889h-2.545s-.77 0-.77.593h-1.42s.059-2.131 1.42-2.131h3.433s2.19.355 2.19 1.953S1.184 0 0 0Z" style="fill:none;stroke:#e4e5e6;stroke-width:.29800001;stroke-linecap:butt;stroke-linejoin:miter;stroke-miterlimit:4;stroke-dasharray:none;stroke-opacity:1" transform="translate(296.65 364.795)"/></g><path d="m299.315 366.807-.238-1.303 4.854-.118-5.919-4.616h2.308l6.156 4.853v1.243z" style="fill:url(#H);stroke:none" transform="matrix(6.99076 0 0 -6.99076 -1708.451 3176.103)"/><path d="m0 0-.237-1.302 4.854-.118-5.919-4.617h2.308l6.156 4.853V.059z" style="fill:none;stroke:#e4e5e6;stroke-width:.29800001;stroke-linecap:butt;stroke-linejoin:miter;stroke-miterlimit:4;stroke-dasharray:none;stroke-opacity:1" transform="matrix(6.99076 0 0 -6.99076 383.982 611.847)"/><path d="M265.811 389.815c8.774-24.987 44.633-20.79 51.5 2.099 0 0-6.676-11.635-21.172-11.635s-24.796 12.207-23.842 25.559c.954 13.351 10.491 18.31 12.97 20.408 0 0-27.276-6.867-19.456-36.431" style="fill:url(#I);stroke:none" transform="matrix(6.99076 0 0 -6.99076 -1708.451 3176.103)"/><g clip-path="url(#J)" transform="matrix(6.99076 0 0 -6.99076 -1708.451 3176.103)"><path d="M0 0s-27.275-6.866-19.455-36.431c8.774-24.986 44.632-20.79 51.499 2.098 0 0-6.676-11.635-21.172-11.635S-13.924-33.76-12.97-20.409C-12.016-7.057-2.479-2.098 0 0Z" style="fill:none;stroke:#e4e5e6;stroke-width:.29800001;stroke-linecap:butt;stroke-linejoin:miter;stroke-miterlimit:4;stroke-dasharray:none;stroke-opacity:1" transform="translate(285.267 426.246)"/></g><path d="m282.406 422.495.763-1.017c-1.017-1.78-4.196-11.19-4.196-11.19l-5.214-3.052c-.636-5.086 1.654-10.935 1.654-10.935l5.34-.764c2.924-6.23 9.155-9.281 9.155-9.281l.763-3.688c11.953-2.416 16.912 2.161 16.912 2.161l-7.248 5.086 4.451 10.046c2.416 1.145 6.994 4.324 6.994 4.324 1.525 0 4.577-2.671 4.577-2.671l.127-8.392c5.977 8.646 3.56 21.107-2.797 27.211-6.494 5.365-12.468 7.055-17.414 7.055-8.419 0-13.867-4.893-13.867-4.893m19.455-5.341s-4.451 5.087-6.358 6.104l-.127 3.052s10.808.509 17.675-7.248c0 0-3.688-1.908-4.45-2.543 0 0-4.705.635-6.74.635m-22.126-6.739s2.417 8.266 5.722 10.555c0 0 8.139 1.653 9.792 1.653 1.78-1.018 3.942-5.85 3.688-6.612-.255-.764-2.162-5.469-3.434-6.486-1.271-1.017-8.519-3.687-11.063-4.069 0 0-3.814 3.561-4.705 4.959m32.68-3.433c-.254.381-1.907 6.357-1.907 7.375 0 1.017 2.543 4.069 2.543 4.069 4.832-.508 6.103-14.241 5.976-14.75-.126-.509-1.78-1.526-2.288-1.526-.509 0-4.069 4.45-4.324 4.832m-30.39-9.791s2.67 5.086 3.052 6.358c0 0 8.391 3.687 10.553 3.56 0 0 4.96-5.595 6.104-5.976 0 0-1.017-9.537-2.035-10.808-1.017-1.272-8.646-3.434-9.409-3.434-.764 0-6.867 5.086-8.265 10.3" style="fill:url(#K);stroke:none" transform="matrix(6.99076 0 0 -6.99076 -1708.451 3176.103)"/><g clip-path="url(#L)" transform="matrix(6.99076 0 0 -6.99076 -1708.451 3176.103)"><path d="M0 0c-.509 0-4.069 4.451-4.323 4.832-.255.381-1.908 6.358-1.908 7.375 0 1.017 2.543 4.069 2.543 4.069 4.832-.508 6.104-14.241 5.977-14.75C2.162 1.017.508 0 0 0Zm-14.878 15.005s-4.45 5.086-6.358 6.103l-.127 3.052s10.808.509 17.675-7.248c0 0-3.687-1.908-4.45-2.543 0 0-4.705.636-6.74.636zm-2.162-26.831c-1.017-1.271-8.646-3.433-9.409-3.433-.763 0-6.866 5.086-8.265 10.3 0 0 2.67 5.086 3.052 6.358 0 0 8.392 3.687 10.553 3.56 0 0 4.959-5.595 6.104-5.976 0 0-1.017-9.537-2.035-10.809zM-37.003 8.265s2.416 8.266 5.722 10.554c0 0 8.138 1.653 9.791 1.653 1.78-1.017 3.942-5.849 3.688-6.612-.255-.763-2.162-5.468-3.434-6.485-1.271-1.017-8.519-3.687-11.062-4.069 0 0-3.815 3.56-4.705 4.959zm33.951 9.918C-20.6 32.68-34.333 20.345-34.333 20.345l.763-1.017c-1.017-1.78-4.196-11.19-4.196-11.19l-5.214-3.052C-43.615 0-41.327-5.849-41.327-5.849l5.341-.763c2.925-6.231 9.155-9.283 9.155-9.283l.763-3.687c11.953-2.416 16.912 2.162 16.912 2.162l-7.248 5.086 4.451 10.045c2.416 1.145 6.994 4.324 6.994 4.324 1.526 0 4.577-2.671 4.577-2.671l.128-8.392C5.722-.381 3.306 12.08-3.052 18.183z" style="fill:none;stroke:#e4e5e6;stroke-width:.29800001;stroke-linecap:butt;stroke-linejoin:miter;stroke-miterlimit:4;stroke-dasharray:none;stroke-opacity:1" transform="translate(316.739 402.15)"/><g clip-path="url(#M)" style="opacity:.52000397"><g clip-path="url(#N)"><path d="M0 0s-3.624-45.014-31.281-56.458c0 0 10.491 16.975 7.63 26.894-2.862 9.918-8.011 14.114-2.862 21.553C-21.363-.572-.954 0 0 0" style="fill:#fff;fill-opacity:1;fill-rule:nonzero;stroke:none" transform="translate(332.38 418.045)"/></g></g><g clip-path="url(#O)" style="opacity:.52000397"><g clip-path="url(#P)"><path d="M0 0c0-3.628-2.895-6.57-6.466-6.57S-12.931-3.628-12.931 0c0 3.629 2.894 6.57 6.465 6.57C-2.895 6.57 0 3.629 0 0" style="fill:#fff;fill-opacity:1;fill-rule:nonzero;stroke:none" transform="translate(311.099 421.79)"/></g></g></g></svg>