<svg xmlns="http://www.w3.org/2000/svg" id="Layer_2" viewBox="0 0 500 116.33"><defs><clipPath id="clippath"><path d="M0 0h500v116.33H0z" style="fill:none"/></clipPath><style>.cls-4{fill:#f0e523}.cls-5{fill:#fff}.cls-6{fill:#e2251e}</style></defs><g id="Layer_1-2"><g style="clip-path:url(#clippath);fill:none"><path d="M441.91 113.69H58.22c-30.64 0-55.49-24.84-55.49-55.49S27.58 2.72 58.22 2.72h383.69c30.64 0 55.49 24.84 55.49 55.49s-24.84 55.49-55.49 55.49" style="fill:#00945e"/><path d="M441.84 113.65H58.15c-30.64 0-55.49-24.84-55.49-55.49S27.51 2.68 58.15 2.68h383.69c30.65 0 55.49 24.84 55.49 55.49s-24.84 55.49-55.49 55.49m41.13-96.61C471.98 6.05 457.37 0 441.84 0H58.15C42.62 0 28.01 6.05 17.02 17.03 6.04 28.02-.01 42.63-.01 58.16S6.04 88.3 17.03 99.29c10.99 10.98 25.59 17.04 41.13 17.04h383.69c15.54 0 30.14-6.05 41.13-17.04 10.98-10.99 17.04-25.59 17.04-41.13s-6.05-30.14-17.04-41.13" class="cls-5"/></g><path d="M380.74 14.72c-.55-.15-1.13.18-1.28.73l-23.07 84.87c-.15.55.18 1.13.73 1.28.55.15 1.13-.18 1.28-.73L381.47 16c.15-.55-.18-1.13-.73-1.28M423.1 98.5c-1.75 0-3.17-1.42-3.17-3.17V77.94h12.47v4.77h-7.35v3.07h6.67v4.79h-6.67v7.94h-1.94Zm-19.05-3.17c0 1.75 1.42 3.17 3.17 3.17h9.2v-4.74h-7.26v-3.19h6.67v-4.79h-6.67v-3.07h7.29v-4.77h-12.4v17.39Zm42.99 3.17v-4.74h-6.36V77.94h-5.11v17.39c0 1.75 1.42 3.17 3.17 3.17h8.3ZM426.34 54.05c0 2.14-1.74 3.88-3.88 3.88s-3.88-1.74-3.88-3.88 1.73-3.88 3.88-3.88 3.88 1.74 3.88 3.88m4.53-3.75a3.461 3.461 0 0 0 0 6.92 3.461 3.461 0 0 0 0-6.92m-.3 7.85c-1.87 0-3.38 1.51-3.38 3.38s1.51 3.38 3.38 3.38 3.38-1.51 3.38-3.38-1.51-3.38-3.38-3.38m7.31-8.59c-1.58 0-2.87 1.28-2.87 2.87s1.28 2.87 2.87 2.87 2.87-1.29 2.87-2.87-1.29-2.87-2.87-2.87m5.09-2.56c-1.31 0-2.37 1.06-2.37 2.37s1.06 2.37 2.37 2.37 2.37-1.06 2.37-2.37-1.06-2.37-2.37-2.37m3.36-3.14c-1.03 0-1.87.84-1.87 1.87s.84 1.87 1.87 1.87 1.87-.84 1.87-1.87-.84-1.87-1.87-1.87m.02 6.95c-.99 0-1.79.8-1.79 1.79s.8 1.79 1.79 1.79 1.8-.8 1.8-1.79-.8-1.79-1.8-1.79m.72 5.64c-.97 0-1.76.79-1.76 1.77s.79 1.77 1.76 1.77 1.76-.79 1.76-1.77-.79-1.77-1.76-1.77m2.09-2.98c-.77 0-1.39.62-1.39 1.39s.62 1.39 1.39 1.39 1.39-.62 1.39-1.39-.62-1.39-1.39-1.39m1.18-3.12c-.7 0-1.26.56-1.26 1.26s.56 1.26 1.26 1.26 1.27-.57 1.27-1.26-.57-1.26-1.27-1.26m-1.67-2.89c-.75 0-1.36.61-1.36 1.36s.61 1.36 1.36 1.36 1.36-.61 1.36-1.36-.61-1.36-1.36-1.36m1.97-3.8c-.69 0-1.24.56-1.24 1.25s.56 1.25 1.24 1.25 1.25-.56 1.25-1.25-.56-1.25-1.25-1.25m.77 3.12c-.51 0-.93.42-.93.93s.42.93.93.93.93-.42.93-.93-.42-.93-.93-.93m-.06-5.8c-.48 0-.86.39-.86.86s.39.86.86.86a.86.86 0 1 0 0-1.72m-2.81-.36c-.83 0-1.5.67-1.5 1.5s.67 1.5 1.5 1.5 1.5-.67 1.5-1.5-.67-1.5-1.5-1.5m1.73-2.91c-.65 0-1.17.52-1.17 1.17s.52 1.17 1.17 1.17 1.17-.52 1.17-1.17-.52-1.17-1.17-1.17m-.27-2.55a.781.781 0 0 0 0 1.56.781.781 0 0 0 0-1.56m-12.58 21.18c-1.56 0-2.82 1.26-2.82 2.82s1.26 2.82 2.82 2.82 2.82-1.26 2.82-2.82-1.26-2.82-2.82-2.82m-14.88 2.72c-1.96 0-3.56 1.59-3.56 3.56s1.59 3.56 3.56 3.56 3.56-1.59 3.56-3.56-1.6-3.56-3.56-3.56m3.88 7.19c-1.7 0-3.09 1.38-3.09 3.09s1.38 3.09 3.09 3.09 3.09-1.38 3.09-3.09-1.38-3.09-3.09-3.09m6.87-.93c-1.59 0-2.87 1.28-2.87 2.87s1.29 2.87 2.87 2.87 2.87-1.29 2.87-2.87-1.28-2.87-2.87-2.87m5.91-2.62a2.67 2.67 0 1 0-.001 5.339 2.67 2.67 0 0 0 .001-5.339m4.63-3.1c-1.23 0-2.23 1-2.23 2.23s1 2.23 2.23 2.23 2.23-1 2.23-2.23-1-2.23-2.23-2.23m-1.15-5.94c-1.29 0-2.34 1.05-2.34 2.34s1.05 2.34 2.34 2.34 2.34-1.05 2.34-2.34-1.05-2.34-2.34-2.34M434.17 39.14c-2.14 0-3.87 1.74-3.87 3.88s1.73 3.87 3.87 3.87 3.88-1.74 3.88-3.87-1.74-3.88-3.88-3.88m-4.46-6.72a3.461 3.461 0 0 0 0 6.92 3.461 3.461 0 0 0 0-6.92m6.88-3.54c-1.87 0-3.38 1.51-3.38 3.38s1.51 3.38 3.38 3.38 3.38-1.51 3.38-3.38-1.52-3.38-3.38-3.38m-11.54-1.27a2.87 2.87 0 1 0 2.87 2.87c0-1.59-1.28-2.87-2.87-2.87m-5.19-2.38c-1.31 0-2.37 1.06-2.37 2.37s1.06 2.37 2.37 2.37 2.37-1.06 2.37-2.37-1.06-2.37-2.37-2.37m-4.83-.6c-1.04 0-1.87.84-1.87 1.87s.84 1.87 1.87 1.87 1.87-.84 1.87-1.87-.84-1.87-1.87-1.87m5.93-3.38c-.99 0-1.79.8-1.79 1.79s.8 1.79 1.79 1.79 1.79-.8 1.79-1.79-.8-1.79-1.79-1.79m4.5-3.42c-.97 0-1.77.79-1.77 1.77s.79 1.76 1.77 1.76 1.76-.79 1.76-1.76-.79-1.77-1.76-1.77m-3.95.26c-.77 0-1.39.62-1.39 1.39s.62 1.39 1.39 1.39 1.39-.62 1.39-1.39c0-.77-.62-1.39-1.39-1.39m-3.41.73c-.7 0-1.27.57-1.27 1.26s.57 1.26 1.27 1.26 1.26-.57 1.26-1.26-.57-1.26-1.26-1.26m-1.59 2.75c-.75 0-1.36.61-1.36 1.36s.61 1.36 1.36 1.36 1.36-.61 1.36-1.36-.61-1.36-1.36-1.36m-4.37.36c-.69 0-1.25.56-1.25 1.24s.56 1.25 1.25 1.25 1.24-.56 1.24-1.25-.56-1.25-1.24-1.25m2.06-1.72c-.51 0-.93.42-.93.93s.42.93.93.93.93-.42.93-.93-.42-.93-.93-.93m-5.07 3.03c-.47 0-.86.38-.86.86s.38.86.86.86.86-.39.86-.86-.39-.86-.86-.86m1.64 1.65c-.83 0-1.5.67-1.5 1.5s.67 1.5 1.5 1.5 1.5-.67 1.5-1.5-.67-1.5-1.5-1.5m-3.68.46c-.65 0-1.17.52-1.17 1.17s.52 1.17 1.17 1.17 1.16-.52 1.16-1.17-.52-1.17-1.16-1.17m-2.41 2.09a.781.781 0 0 0 0 1.56.781.781 0 0 0 0-1.56m26.4-2.77c-1.56 0-2.82 1.26-2.82 2.82s1.26 2.83 2.82 2.83 2.82-1.26 2.82-2.83-1.26-2.82-2.82-2.82m10.44 10.42c-1.96 0-3.56 1.59-3.56 3.56s1.59 3.56 3.56 3.56 3.56-1.59 3.56-3.56-1.59-3.56-3.56-3.56m3.88-6.24c-1.7 0-3.09 1.38-3.09 3.09s1.38 3.09 3.09 3.09 3.09-1.38 3.09-3.09-1.38-3.09-3.09-3.09m-4.42-5.16c-1.59 0-2.87 1.29-2.87 2.87s1.29 2.87 2.87 2.87 2.87-1.29 2.87-2.87-1.29-2.87-2.87-2.87m-5.4-3.51a2.67 2.67 0 1 0-.001 5.339 2.67 2.67 0 0 0 .001-5.339m-5.38-1.8c-1.23 0-2.23 1-2.23 2.23s1 2.23 2.23 2.23 2.23-1 2.23-2.23-1-2.23-2.23-2.23m-4.48 3.81c-1.29 0-2.34 1.05-2.34 2.34s1.05 2.34 2.34 2.34 2.34-1.05 2.34-2.34-1.05-2.34-2.34-2.34M418.76 34.52c-2.14 0-3.88 1.74-3.88 3.88s1.74 3.88 3.88 3.88 3.87-1.74 3.87-3.88-1.74-3.88-3.87-3.88m-3.95 7.84a3.461 3.461 0 0 0 0 6.92 3.461 3.461 0 0 0 0-6.92m-6.58-4.07c-1.87 0-3.38 1.51-3.38 3.38s1.51 3.38 3.38 3.38 3.38-1.51 3.38-3.38-1.51-3.38-3.38-3.38m4.22 11.4a2.87 2.87 0 1 0 2.87 2.87c0-1.59-1.28-2.87-2.87-2.87m.1 6.44c-1.31 0-2.37 1.06-2.37 2.37s1.06 2.37 2.37 2.37 2.37-1.06 2.37-2.37-1.06-2.37-2.37-2.37m1.47 5.23c-1.04 0-1.87.84-1.87 1.87 0 1.03.84 1.87 1.87 1.87s1.87-.84 1.87-1.87c0-1.03-.84-1.87-1.87-1.87m-5.96-3.33c-.99 0-1.8.8-1.8 1.79s.8 1.79 1.8 1.79 1.79-.8 1.79-1.79-.8-1.79-1.79-1.79m-5.22-2.15c-.97 0-1.76.79-1.76 1.77s.79 1.76 1.76 1.76 1.77-.79 1.77-1.76-.79-1.77-1.77-1.77m1.86 3.85c-.77 0-1.39.62-1.39 1.4s.62 1.39 1.39 1.39 1.39-.62 1.39-1.39-.62-1.4-1.39-1.4m2.22 2.78c-.7 0-1.27.57-1.27 1.27s.57 1.26 1.27 1.26 1.26-.57 1.26-1.26-.57-1.27-1.26-1.27m3.26-.14c-.75 0-1.36.61-1.36 1.36s.61 1.36 1.36 1.36 1.36-.61 1.36-1.36-.61-1.36-1.36-1.36m2.4 3.78a1.24 1.24 0 1 0 0 2.48c.69 0 1.25-.56 1.25-1.24s-.56-1.24-1.25-1.24m-2.8-.46c-.51 0-.93.42-.93.93s.42.93.93.93.93-.42.93-.93-.42-.93-.93-.93m5.1 2.99c-.48 0-.86.38-.86.86s.39.86.86.86.86-.39.86-.86-.39-.86-.86-.86m1.16-3.21c-.83 0-1.5.67-1.5 1.5s.67 1.5 1.5 1.5 1.5-.67 1.5-1.5-.67-1.5-1.5-1.5m1.95 3.46c-.65 0-1.17.52-1.17 1.17s.52 1.17 1.17 1.17 1.17-.52 1.17-1.17-.52-1.17-1.17-1.17m2.68 1.62a.781.781 0 0 0 0 1.56.781.781 0 0 0 0-1.56M406.84 46c-1.56 0-2.82 1.27-2.82 2.82s1.27 2.82 2.82 2.82 2.82-1.26 2.82-2.83-1.26-2.82-2.82-2.82m4.45-15.35c-1.96 0-3.56 1.59-3.56 3.56s1.59 3.56 3.56 3.56 3.56-1.59 3.56-3.56-1.59-3.56-3.56-3.56m-7.75.47c-1.7 0-3.09 1.38-3.09 3.09s1.38 3.09 3.09 3.09 3.09-1.38 3.09-3.09-1.38-3.09-3.09-3.09m-2.44 6.74a2.87 2.87 0 0 0 0 5.74c1.58 0 2.87-1.29 2.87-2.87s-1.28-2.87-2.87-2.87m-.51 6.73a2.67 2.67 0 1 0-.001 5.339 2.67 2.67 0 0 0 .001-5.339m.75 6.22c-1.24 0-2.23 1-2.23 2.23s1 2.23 2.23 2.23 2.23-1 2.23-2.23-1-2.23-2.23-2.23m5.63 1.82c-1.29 0-2.34 1.05-2.34 2.34s1.05 2.34 2.34 2.34 2.34-1.05 2.34-2.34-1.05-2.34-2.33-2.34" class="cls-5"/><path d="M89.65 85.74c1.32.35 2.37 1.17 3.05 2.4.2.37.35.73.45 1.05 1.18-.4 2.47-.57 3.28-.64v-.14c-.01-1.01.13-1.42.23-1.64.19-.39.62-.75 1.38-1.18.17-.09.33-.18.48-.25.03-1.02.12-3.44.16-4.52.05-1.39.29-4.66.3-4.85.02-.27.17-.65.54-.92l.03-.02c.56-.37 1.02-.71 1.19-.86.06-.26.12-.93.14-1.54l.03-.71.68-.03s.28-.05.43-.2c.04-.25 0-.9-.08-1.46l-.08-.54.49-.25c.22-.12.86-.54 1.11-1.03.27-.53.44-1.57.48-2.45-.29.3-.6.45-.92.45-.23 0-.99-.1-1.06-1.33-.1-1.8 1.38-2.88 1.44-2.92l.52-.37.46.43c.1.09.25.19.42.3.04-.15.09-.31.14-.47.2-.62.44-1.4.55-2.66v-.02c.17-1.52-.21-1.86-.34-1.97-.01-.01-.03-.02-.04-.03-.11-.04-.35-.11-.64-.11-.2 0-.37.03-.51.09-.32.27-.63.4-.94.4-.37 0-.69-.18-.88-.51-.3-.5-.22-1.23.02-1.67.24-.44.76-.68 1.86-.84.18-.03.35-.05.5-.07-.02-.12-.06-.19-.06-.19l-.63-1.33 1.46.23s1.29.2 2.89.2 2.93-.18 3.97-.55c3.64-1.27 8.45-1.41 9.83-1.42h.03c.88.03 1.76.04 2.6.04 9.91 0 15.38-1.99 17.72-2.84.1-.04.18-.07.27-.1 2.48-.86 5.18-2.42 7.43-4.28 2.43-2.01 4.15-4.23 4.85-6.25v-.03l.02-.03c1.3-3.02 1.61-7.76-1.76-11.17-1.85-1.88-4.22-2.83-7.03-2.83-.98 0-1.89.12-2.67.27 2.32.79 4.1 1.75 5.39 2.93 1.47 1.34 2.06 2.69 2.47 3.95l.02.06v.06c.28 1.59.14 3.1-.42 4.48-.68 1.69-1.99 3.22-3.9 4.53-4.55 3.51-11.96 4.48-14.94 4.74-1.15.12-2.56.18-4.17.18-3.73 0-8.05-.34-9.75-.67-1.72-.32-5.92-.69-8.18-.88-.48-.04-.9-.08-1.18-.11-.49-.04-.95-.08-1.37-.08-.95 0-1.53.21-2.08.75l-.03.03c-.7.62-1.26.91-1.75.91-.31 0-.58-.11-.76-.32l-.02-.02s-1.56-1.86-3.85-1.86c-.12 0-.23 0-.35.01-1.87.15-2.38.62-2.83 1.03-.21.2-.43.4-.74.55-.24.14-.49.27-.79.27-.37 0-.63-.18-.82-.32-.1-.07-1.83-1.2-3.67-1.49-.2-.02-.41-.03-.62-.03-2.68 0-5.14 1.42-5.16 1.43l-.9.52-.23-.94c-.19-.16-.95-.43-2.1-.43-.24 0-.47.01-.7.04-.49.05-1.37.12-2.38.2-2.37.19-5.61.44-7.05.74-1.65.34-7.17.87-11.74.87-1.25 0-2.33-.04-3.22-.12-1.43-.1-4.28-.38-7.42-1.2-3.15-.82-5.71-1.95-7.61-3.36-1.93-1.29-3.26-2.79-3.98-4.47-.58-1.37-.75-2.87-.51-4.46v-.06l.03-.06c.39-1.27.95-2.63 2.4-4 1.27-1.2 3.03-2.2 5.34-3.02-.72-.13-1.56-.23-2.46-.23-2.9 0-5.32 1-7.19 2.96-3.32 3.49-2.92 8.21-1.56 11.19v.03l.02.03c.73 2 2.53 4.19 5.08 6.17 2.33 1.81 5.11 3.32 7.64 4.14h.01c.14.05.29.1.45.16 2.48.86 7.63 2.65 17 2.65 1.29 0 2.63-.04 3.98-.1H67.41c.42 0 .94-.01 1.52-.01 3.65 0 6.36.31 8.3.95 2.6.85 5.55.89 6.11.89h.49l.24.3c.14.18.16.35.2.68.05.38.1 1.04.18 1.94.09 1.17-.44 2.17-1.5 2.81-.22.13-.45.24-.65.32.07.21.13.44.18.67.16.63.27 1.25.36 1.76.04.23.09.5.13.67.26.24.44.55.58.81.06.09.12.21.16.26.1.12.37.34.52.44l1.24.87-1.29.45c.03 1.39.18 2.97.68 3.67.05.02.11.04.16.06.52.19 1.48.53 1.87 1.66l.04.11v.11c.05 1.16.17 2.42.23 3.1.81.35 1.32 1.04 1.45 1.23.45.57.6 1.23.68 1.75v.04c.01.07.03.27.05.5.03.39.08.88.1 1.07v.02c.03.39 0 .94-.03 1.63-.03.74-.07 1.58-.05 2.41.03 1.11.18 2.18.28 2.78m2.29 5.7-.11-1.11c-.01-.13-.36-2.76-2.98-3.17l-.54-.08-.11-.53c-.01-.07-.35-1.73-.4-3.55-.02-.89.02-1.8.06-2.52.03-.61.05-1.14.03-1.43-.02-.2-.06-.69-.1-1.07-.02-.21-.03-.39-.04-.47-.08-.48-.19-.79-.37-1.01l-.03-.04-.02-.03c-.12-.18-.54-.67-1.02-.76l-.57-.1-.06-.58c0-.08-.2-1.88-.28-3.57-.15-.33-.46-.46-.89-.61-.29-.1-.57-.21-.77-.45h-.01c-.3-.38-1.1-1.34-1.1-5.29v-.1s-.08-.09-.11-.13c-.11-.15-.2-.3-.3-.47-.08-.14-.24-.42-.33-.48l-.18-.11-.1-.19c-.1-.21-.16-.5-.29-1.19-.09-.49-.2-1.1-.35-1.68v-.03c-.12-.56-.39-1.22-.39-1.23l-.36-.91.96-.15s.54-.1 1-.39c.7-.44.75-.97.72-1.34-.06-.71-.1-1.19-.13-1.5-1.19-.04-3.71-.21-6.02-.96-1.78-.59-4.33-.88-7.81-.88-.56 0-1.08 0-1.5.01h-.53c-1.37.07-2.73.11-4.04.11-4.14 0-7.99-.35-11.44-1.05-2.87-.58-4.88-1.27-6.08-1.69-.16-.06-.3-.11-.43-.15-2.69-.88-5.65-2.48-8.11-4.39-1.96-1.52-4.51-3.94-5.58-6.84-.89-1.96-1.27-4.2-1.09-6.31.22-2.51 1.24-4.78 2.95-6.58a10.91 10.91 0 0 1 4.15-2.74c1.28-.47 2.68-.7 4.16-.7 3.05 0 5.41.99 5.51 1.04l2.08.89-2.18.58c-7.68 2.04-8.68 5.05-9.18 6.7-.43 2.95.83 5.36 3.83 7.36l.03.02c3.62 2.69 9.73 3.97 14.24 4.27h.02c.84.08 1.88.12 3.09.12 4.31 0 9.81-.5 11.42-.83 1.53-.32 4.84-.58 7.25-.77 1-.08 1.87-.15 2.33-.2.28-.03.57-.05.87-.05.42 0 2.12.04 3.04.74.99-.48 3.07-1.33 5.35-1.33.26 0 .53.01.78.03h.05c2.13.33 4.06 1.57 4.31 1.73l.03-.02h.03c.12-.07.24-.18.4-.33.57-.52 1.36-1.24 3.77-1.43.16-.01.31-.02.47-.02 2.41 0 4.12 1.46 4.77 2.12.12-.07.31-.2.57-.43 1.08-1.05 2.25-1.18 3.16-1.18.49 0 .98.04 1.5.09.28.02.69.06 1.17.1 2.29.2 6.54.57 8.33.91 1.42.27 5.49.64 9.46.64 1.57 0 2.92-.06 4.02-.18h.02c2.85-.25 9.92-1.17 14.15-4.43l.03-.02c2.98-2.05 4.19-4.48 3.7-7.42-.54-1.65-1.59-4.64-9.3-6.54l-2.2-.54 2.06-.92c.1-.05 2.57-1.13 5.73-1.13 1.45 0 2.81.23 4.07.68 1.52.55 2.9 1.43 4.07 2.62.91.92 1.64 1.98 2.16 3.13.48 1.06.78 2.2.91 3.39.22 2.09-.13 4.34-.97 6.33-1.02 2.92-3.46 5.37-5.32 6.92-2.38 1.97-5.26 3.62-7.9 4.54-.08.03-.17.06-.26.09-1.22.44-3.27 1.19-6.25 1.81-3.59.75-7.62 1.13-11.99 1.13-.86 0-1.75-.01-2.64-.04-.98 0-5.84.11-9.32 1.33-1.21.42-2.72.64-4.48.64-.81 0-1.53-.05-2.08-.09 0 .18-.04.38-.1.58l-.12.39c.15.08.24.16.3.22.48.43 1.1 1.23.86 3.31-.13 1.43-.41 2.33-.62 2.98-.15.49-.25.81-.23 1.14l.09 1.27-.95-.41c.1.22.17.5.17.85.02.94-.13 2.72-.65 3.74-.33.65-.9 1.13-1.31 1.41.01.13.03.29.03.45.05.87-.03 1.34-.3 1.65-.26.33-.58.53-.87.65 0 .11-.02.24-.03.37-.09.97-.2 1.28-.39 1.49-.2.24-.69.62-1.47 1.14-.05.72-.24 3.44-.29 4.63-.06 1.38-.18 4.95-.18 4.99l-.02.49-.44.2c-.66.29-1.38.72-1.54.92-.08.24-.09 1.06-.03 1.73l.08.84h-.84s-2.64.08-4.32.9l-1.01.5Z" class="cls-4"/><path d="M103.19 56.17c-.03.08-.05.2-.05.3.02-.01.03-.03.05-.04l.13-.11.16-.07c.3-.13.63-.2.99-.2h.13l.06-.2h-.01c-.16.02-.32.04-.46.06-.69.11-.93.21-1 .25m.42 7.46c-.25.33-.49.8-.46 1.39s0 .02 0 .03l.75-.77-.29-.65ZM90.72 84.83c1.28.52 2.32 1.45 3.02 2.72.04.06.07.12.1.19.49-.12.98-.2 1.42-.27.05-.49.15-.89.32-1.23v-.03c.31-.59.84-1.08 1.76-1.61.04-1.11.11-2.94.14-3.84.05-1.38.28-4.53.3-4.89.05-.69.43-1.36 1.03-1.8l.07-.05c.29-.19.54-.37.73-.51.03-.25.05-.58.06-.94l.07-1.81 1.04-.05c-.01-.11-.02-.22-.04-.33l-.2-1.38 1.23-.65c.2-.11.53-.38.61-.52.04-.07.07-.18.11-.31-.88-.21-1.67-.97-1.74-2.4-.13-2.41 1.73-3.81 1.94-3.96l1.3-.93.14.12c.06-.32.12-.68.16-1.11v-.05c.04-.3.05-.52.04-.68-.42.26-.86.39-1.32.39-.79 0-1.5-.41-1.91-1.09-.56-.92-.4-2.12-.02-2.84v-.03c.38-.67 1-1.01 1.71-1.22l-1.03-2.16 3.7.58s1.22.18 2.7.18 2.66-.16 3.58-.48c3.81-1.33 8.78-1.48 10.22-1.49h.08c.87.03 1.73.04 2.57.04 9.7 0 15.03-1.94 17.31-2.77.09-.03.18-.07.26-.1h.02c2.35-.83 4.92-2.31 7.06-4.07 2.26-1.87 3.86-3.9 4.49-5.72l.02-.07.03-.07c1.15-2.68 1.44-6.86-1.51-9.86-1.03-1.04-2.23-1.76-3.61-2.14.34.25.66.51.96.78 1.68 1.53 2.36 3.11 2.81 4.46l.04.14.02.14c.31 1.81.14 3.54-.5 5.13-.77 1.9-2.22 3.6-4.3 5.05-2.1 1.61-4.95 2.88-8.47 3.78-2.79.71-5.38 1.04-7.06 1.18-1.19.13-2.63.19-4.29.19-3.79 0-8.22-.36-9.97-.69-1.66-.31-5.82-.68-8.06-.87-.48-.04-.89-.08-1.18-.1-.46-.04-.9-.08-1.26-.08-.7 0-.96.13-1.25.41l-.08.07c-.59.52-1.49 1.21-2.54 1.21-.65 0-1.26-.26-1.66-.72l-.04-.05s-1.26-1.43-2.93-1.43h-.25c-1.46.11-1.77.39-2.12.72-.24.22-.54.5-.98.72-.25.15-.73.41-1.37.41-.73 0-1.24-.35-1.5-.52-.13-.09-1.63-1.04-3.14-1.29-.15-.01-.31-.02-.47-.02-2.32 0-4.53 1.26-4.56 1.27l-2.27 1.33-.47-1.9c-.25-.06-.61-.11-1.08-.11-.19 0-.39.01-.57.03-.5.06-1.39.13-2.42.21-2.34.18-5.54.44-6.91.72-1.69.35-7.34.89-11.98.89-1.28 0-2.39-.04-3.31-.12-1.47-.1-4.4-.39-7.63-1.24-3.29-.86-5.98-2.05-8-3.54-2.11-1.41-3.59-3.09-4.39-4.98-.67-1.57-.87-3.29-.59-5.11l.02-.14.04-.14c.42-1.36 1.06-2.96 2.73-4.52.3-.28.62-.55.96-.8a8.068 8.068 0 0 0-3.58 2.2c-2.91 3.06-2.54 7.23-1.34 9.88l.03.07.03.07c.65 1.79 2.32 3.79 4.69 5.63 2.22 1.72 4.88 3.17 7.28 3.95h.02c.14.05.29.11.46.16 2.41.84 7.44 2.59 16.61 2.59 1.27 0 2.59-.03 3.92-.1h.61c.43 0 .96-.01 1.54-.01 3.78 0 6.62.33 8.68 1.01 2.43.79 5.21.83 5.74.83h.08l.99-.02.6.79c.34.45.39.87.44 1.27.05.4.11 1.06.18 1.98.13 1.58-.58 2.97-1.94 3.85.14.58.24 1.13.32 1.59.02.1.04.22.06.33.23.27.39.55.51.77.01.03.04.07.06.11.07.06.19.15.28.22l3.15 2.21-2.66.93c.07 1.03.2 1.59.3 1.87.69.27 1.81.84 2.31 2.28l.09.27v.29c.05.84.12 1.74.18 2.42.66.44 1.09.98 1.28 1.26.61.79.81 1.68.9 2.28v.11c.02.07.04.27.06.51.03.37.08.87.1 1.05v.04c.04.47.01 1.05-.02 1.78-.03.72-.07 1.53-.05 2.32.02.7.09 1.38.16 1.91m.19 8.44-.27-2.82c0-.06-.09-.55-.37-1.04-.36-.62-.88-.97-1.6-1.08l-1.36-.21-.27-1.35c-.02-.07-.37-1.82-.42-3.75-.02-.94.02-1.86.05-2.61.02-.51.05-1.05.04-1.28-.02-.22-.06-.69-.1-1.06v-.03c-.02-.17-.03-.31-.04-.4-.05-.29-.1-.39-.11-.4l-.08-.1-.05-.08a.945.945 0 0 0-.25-.24l-1.43-.25-.16-1.48c-.02-.18-.17-1.62-.26-3.14-.04-.02-.08-.03-.13-.05-.37-.13-.88-.32-1.29-.82-.19-.24-.58-.71-.88-1.72-.3-1-.47-2.35-.48-4.01-.1-.14-.18-.29-.26-.42-.04-.07-.07-.13-.1-.17l-.29-.19-.25-.49c-.19-.37-.26-.75-.4-1.52-.09-.47-.19-1.06-.33-1.61v-.06c-.09-.38-.28-.88-.34-1.04l-.91-2.3 2.41-.37c.1-.02.37-.1.58-.23.13-.08.16-.14.16-.14v-.09c-.01-.16-.02-.31-.04-.46-1.42-.1-3.41-.35-5.29-.96-1.65-.55-4.09-.82-7.44-.82-.56 0-1.07 0-1.48.01h-.51c-1.39.07-2.76.11-4.08.11-4.22 0-8.15-.36-11.67-1.07-2.96-.6-5.01-1.31-6.23-1.73h-.02c-.15-.06-.28-.1-.41-.15-2.81-.92-5.9-2.59-8.46-4.58-2.07-1.61-4.78-4.18-5.95-7.33a14.07 14.07 0 0 1-1.17-6.87c.24-2.78 1.38-5.3 3.28-7.3a11.98 11.98 0 0 1 4.61-3.04c1.41-.51 2.95-.78 4.58-.78 3.23 0 5.71 1.02 5.98 1.13l6.62 2.53-6.88 1.2c-6.97 1.85-7.88 4.39-8.32 5.8-.32 2.44.74 4.38 3.33 6.1l.08.06c3.42 2.53 9.27 3.75 13.6 4.04h.05c.81.08 1.81.11 2.98.11 4.17 0 9.65-.49 11.18-.81 1.61-.33 4.95-.6 7.4-.79.99-.08 1.85-.15 2.3-.2.33-.04.66-.05 1-.05.61 0 1.99.07 3.11.6 1.23-.53 3.17-1.19 5.28-1.19.3 0 .6.01.89.04l.12.02c1.64.25 3.14.96 4.03 1.45.29-.26.68-.55 1.24-.82.8-.38 1.77-.61 2.99-.7.18-.01.37-.02.56-.02 2.13 0 3.8.96 4.81 1.75 1.32-1.11 2.72-1.24 3.69-1.24.54 0 1.06.05 1.61.09.28.03.71.07 1.17.11 2.31.2 6.6.57 8.45.92 1.37.26 5.34.62 9.24.62 1.53 0 2.83-.06 3.89-.17h.04c2.74-.24 9.54-1.11 13.52-4.19l.08-.06c2.56-1.77 3.59-3.73 3.22-6.16-.47-1.41-1.43-3.93-8.42-5.66l-5.57-1.38 5.24-2.34c.28-.13 2.86-1.24 6.22-1.24 1.58 0 3.09.25 4.47.75 1.7.61 3.21 1.59 4.51 2.91 1.01 1.02 1.82 2.19 2.4 3.48.53 1.17.87 2.44 1.01 3.76.24 2.28-.13 4.72-1.05 6.89-1.12 3.17-3.7 5.77-5.68 7.4-2.48 2.05-5.49 3.78-8.26 4.75l-.24.09h-.01c-1.25.46-3.34 1.22-6.42 1.86-3.67.77-7.79 1.15-12.24 1.15-.87 0-1.76-.02-2.65-.04-.97 0-5.63.12-8.91 1.26-1.34.46-2.98.7-4.88.7h-.41c.47.86.62 1.97.47 3.34-.14 1.55-.46 2.55-.67 3.22-.1.31-.19.6-.18.7l.22 3.23-.94-.4c-.07 1.02-.27 2.31-.75 3.25-.3.6-.72 1.06-1.13 1.42.04.82-.03 1.66-.58 2.31-.19.24-.41.44-.66.62-.09.86-.24 1.44-.65 1.91-.16.19-.45.48-1.22 1.01-.08 1.1-.21 3.06-.25 4.01-.05 1.21-.15 4.1-.18 4.95l-.05 1.27-1.13.5c-.35.16-.68.34-.9.47 0 .26 0 .62.03.97l.2 2.12-2.13.04c-.66.02-2.63.18-3.82.76l-2.56 1.26Z" class="cls-4"/><path d="M58.17 59.53c-.04-19.68 15.88-35.66 35.55-35.7 19.68-.04 35.67 15.88 35.7 35.56.04 19.68-15.89 35.66-35.56 35.7-19.68.04-35.66-15.88-35.7-35.56" class="cls-6"/><path d="M93.79 25.3h-.07c-9.12.02-17.69 3.59-24.13 10.05-6.44 6.46-9.97 15.05-9.95 24.17.04 18.8 15.35 34.09 34.14 34.09h.08c18.83-.04 34.13-15.39 34.09-34.22-.04-18.8-15.36-34.09-34.16-34.09m0 71.26c-20.41 0-37.05-16.61-37.09-37.03-.02-9.91 3.82-19.24 10.81-26.26 6.99-7.03 16.3-10.9 26.21-10.92h.07c20.42 0 37.07 16.61 37.11 37.03.04 20.46-16.57 37.13-37.03 37.17h-.08Z" class="cls-4"/><path d="M58.17 59.53c-.04-19.68 15.88-35.66 35.55-35.7 19.68-.04 35.67 15.88 35.7 35.56.04 19.68-15.89 35.66-35.56 35.7-19.68.04-35.66-15.88-35.7-35.56" class="cls-6"/><path d="m118.88 36.1 23.51-1.97-24.74.4 1.23 1.57z"/><path d="M91.58 26.75c19.08 0 34.55 15.47 34.55 34.54 0 7.98-2.71 15.32-7.26 21.17 5.72-6.11 9.23-14.32 9.23-23.35 0-18.88-15.31-34.19-34.19-34.19-8.27 0-15.85 2.93-21.76 7.82a34.367 34.367 0 0 1 19.44-5.99" class="cls-5"/><path d="m118.25 34.43 15.6-18.72-16.57 17.67.97 1.05zM115.89 32.28c-1.76-1.61-18.36-14.9-18.36-14.9s16.2 14.38 17.74 16l.63-1.11Z"/><path d="m115.93 7.11.23 25.56 2.07.79-2.3-26.35z"/><path d="m115.99 10.07-.32 22.46-17.21-14.35 15.3 15.73-23.45.7 23.45 1.13-11.37 13.05 12.64-12.07 1.26 23.73.56-23.59 11.94 10.81-10.53-12.07 23.29-1.47-23.43-.22 13.16-15.47-13.93 14.28-1.36-22.65z" class="cls-5"/><path d="M81.26 54.67s.04.05.22 2.2c.17 2.15-2.37 2.56-2.37 2.56s.29.72.42 1.36c.3 1.2.45 2.47.58 2.71.37.24.6.84.82 1.1.22.27.68.6.68.6l-.39.13c0 3.73.71 4.53.93 4.8.22.27 1.44.28 1.83 1.39.07 1.72.28 3.65.28 3.65.94.17 1.54 1.11 1.54 1.11.31.38.46.86.54 1.4.01.2.11 1.27.13 1.57.07.74-.12 2.39-.07 4.01.05 1.78.38 3.42.38 3.42 3.27.51 3.62 3.84 3.62 3.84 1.87-.91 4.66-.96 4.66-.96s-.16-1.62.11-2.16c.27-.55 1.91-1.28 1.91-1.28l.18-4.99c.06-1.4.31-4.83.31-4.83s0-.19.21-.34c.48-.33 1.28-.88 1.42-1.07.21-.21.26-1.95.26-1.95s.65-.06 1.02-.55c.27-.29.02-2 .02-2s1.02-.53 1.45-1.37c.43-.84.6-2.42.56-3.37-.02-.95-.57-.89-.82-.83-.08.42-1.09 1.88-1.17.49-.07-1.39 1.12-2.25 1.12-2.25.5.45 1.56.91 1.56.91-.06-1.03.63-1.76.86-4.25.25-2.19-.57-2.58-.67-2.72-.1-.14-1.23-.5-2.07-.05-.85.78-.91-.32-.68-.75.24-.43 2.41-.56 2.41-.56.19-.64-.09-1.24-.09-1.24s4.23.66 7.24-.39c3.24-1.13 7.67-1.36 9.57-1.38"/><path d="M94.18 43.35s1.64-1.89 4.41-1.85c3.18.06 5.04 2.12 5.04 2.12s1.74-1.47 2.49-1.45c.75.03.57-.35 6.06.23 2.56.28 5.56.53 8.23 1.04.47.09 8.59.5 9.99.26.99-.18 6.29-.74 7.5-1.04 7.65-1.91 10.23-5.37 10.23-5.37s2.53-2.09 1.52-5.95c-1.34-5.07-11.27-6.71-11.27-6.71s11.57-6.59 17.67 3.86c.52.88.77 1.91 1.07 3.14.38 1.62.2 4.2-.69 6.89-1.87 5.69-7.86 8.84-9.59 9.82-6.86 3.89-16.31 4.48-16.86 4.59-1.15.23-9.19.15-9.67.17-1.99.1-3.96.37-5.53.73-1.62.36-2.84.81-3.56.98-1.78.39-4.56.23-5.23.15 0 .07-.03.44-.25 1.03 1.72 1.01 1.15 3.77 1.15 3.77s-.21 1.91-.75 3.25c-.19.48.02 1.8.02 1.8s-1.03-.47-.99-.42c.49.83 0 3.35-.05 3.44-.12.61-.36 1.77-1.7 2.63-.01 0 .14 1.29-.06 1.76-.2.59-1 .97-1.06.97-.04 1.21-.28 1.66-.33 1.75-.14.29-1.56 1.25-1.56 1.25s-.5 9.96-.49 10.1c-.05.05-1.78.74-2 1.19-.15.91.16 2.49.08 2.49-2.23-.06-4.56.46-6.1 1.36-.05-4.33-3.46-4.25-3.63-4.32-.49-1.8-.42-4.67-.49-4.84-.07-.17.54-4.82-.62-6.03-.12-.14-.66-.67-1.44-.65-.22-.58-.3-3.5-.4-4.24-.22-.45-1.69-.65-1.75-1.17-.35-.25-.95-1.47-.97-5.18-.31-.35-.56-.9-.72-1.05-.08-.09-.17-.11-.21-.16-.34-.36-.65-3.47-1.48-5.12-.07-.11.06-.04.26-.06 2.69-.38 2.37-1.84 2.37-1.84s-.09-1.6-.1-1.61c-.02-.01-2.95-.27-3.37-.31-.94-.1-2.89-.77-4.51-1.13-2.49-.56-7.41-.41-7.41-.41s-5.11.27-7.84.08c-4.53-.19-7.78-.94-8.65-1.07-3.52-.49-8.58-2.82-8.98-2.95-1.88-.64-6.27-3.99-7.09-4.76-2.83-2.64-3.8-5.55-3.8-5.55s-1.35-3.02-.95-6.45c1.04-6.67 6.44-8.56 7.07-8.81 5.86-2.08 11.34 1.1 11.53 1.15-.18.26-10.18 1.7-11.17 7.59-.05.47-.83 3.84 3.63 6.98.68.48 5.24 3.68 14.09 4.42 1.52.3 11.77 0 13.6-.54.59-.18 11.61-1.26 12.65-1.17.85.07 1.99.5 2.15.78 2.57-1.29 4.03-1.38 4.92-1.4 3.29-.06 5.59 1.79 5.59 1.79" class="cls-5"/><path d="M153.7 26.41c-5.35-5.42-13-2-13-2 7.84 1.94 9.18 5 9.87 7.11.43 2.51-.11 5.55-4.02 8.25-4.01 3.1-10.6 4.25-14.56 4.59-4.36.47-11.57-.07-13.7-.47-2.13-.4-7.83-.85-9.43-1-1.6-.14-2.9-.25-4.07.89-1.12.99-1.41.66-1.41.66s-1.92-2.36-4.86-2.13c-2.95.23-3.07 1.28-3.89 1.68-.4.24-.47.23-.81 0-.34-.23-2.12-1.33-4.01-1.62-3.19-.29-6.27 1.51-6.27 1.51-.17-.7-2.02-1.08-3.62-.91-1.59.17-7.38.52-9.51.95-2.12.44-10.37 1.12-14.74.73-3.97-.27-10.58-1.4-14.65-4.42-3.95-2.63-4.54-5.67-4.16-8.18.65-2.12 1.94-5.2 9.75-7.28 0 0-7.71-3.29-12.96 2.22-3.47 3.65-3.26 8.62-1.71 12.05 1.69 4.66 8.13 9.12 13.21 10.78 2.45.83 8.96 3.4 21.72 2.74 1.91-.02 6.84-.19 10.11.89 3.03.99 6.46.93 6.46.93s.04.06.22 2.21c.17 2.14-2.37 2.56-2.37 2.56s.28.72.42 1.35c.3 1.21.46 2.47.58 2.71.37.24.6.84.82 1.11.22.27.68.59.68.59l-.39.13c0 3.73.71 4.53.93 4.8.21.27 1.44.28 1.83 1.39.07 1.73.28 3.66.28 3.66.95.17 1.55 1.11 1.55 1.11.32.38.46.87.54 1.41.02.19.11 1.26.14 1.57.06.73-.12 2.38-.09 4 .05 1.77.38 3.41.38 3.41 3.28.51 3.63 3.86 3.63 3.86 1.86-.92 4.65-.97 4.65-.97s-.16-1.62.11-2.17c.27-.54 1.92-1.27 1.92-1.27l.18-4.99c.05-1.4.3-4.83.3-4.83s0-.19.22-.34c.48-.31 1.27-.87 1.42-1.07.19-.21.26-1.95.26-1.95s.64-.05 1.02-.55c.28-.29.03-2 .03-2s1.02-.53 1.44-1.37c.43-.84.59-2.43.57-3.37-.02-.95-.57-.9-.83-.83-.07.43-1.09 1.89-1.16.49-.08-1.39 1.12-2.25 1.12-2.25.49.45 1.56.91 1.56.91-.07-1.03.63-1.76.85-4.25.25-2.19-.57-2.57-.67-2.71-.11-.14-1.24-.5-2.07-.05-.86.78-.92-.32-.69-.76.23-.42 2.41-.56 2.41-.56.2-.64-.08-1.24-.08-1.24s4.23.66 7.23-.38c3.25-1.14 7.67-1.36 9.59-1.38 12.14.4 18.38-2.04 20.88-2.94 5.05-1.76 11.14-6.33 12.76-11.01 1.49-3.46 1.62-8.44-1.93-12.02"/><path d="M114.49 50.08c-.43-.48-1.46-1.33-2.13-1.38l.27-2.46s-1.46-.84-3.89-1.47c-2.16-.63-2.16-.44-2.6-.23-1.24.89-2.33 1.16-2.33 1.16s-1.89-2.23-4.5-2.43c-1.37-.1-2.6.29-3.28.79-.82.59-1.23.96-1.23.96s-.33.4-1.32-.02c-1.04-.42-2.22-2.17-5.8-1.67-2.94.86-4.21 1.69-4.21 1.69s-.27-1.21-2.06-1.2c-1.79 0-3.82.08-4.25.17-.42.1-1.15.5-1.33.53-.18.03.55 1.57-.11 2.51-.36.55-.14.91-.85.88 0 0-1.54-.03-1.66 1.15-.02 1.25 1.95 1.9 2.85-.55 0 0 .92 2.36 1.95 2.63 1.27.23 2.51-1.68 2.81-1.84 0 0-1.35 2.43-.65 3.34.85.48 1.91.57 2.09.36.18-.22.75-1.25.6-2.37 0 0 .76.6 1.18.05.42-.54.53-2.91.53-2.91s.51-.09.52 1.06c0 1.15.04 2.03.04 2.03s-.7-.09-.79.37c-.08.45.07.73.07.73l.67-.07s.21.43-.66.92c0 0 .89 2.39.26 4.16-.65 1.99-1.99 2.28-1.99 2.28s.43 2.18.43 2.66c0 .49.76 1.12.95 1.58.27.45.52.85.52.85s-.85-1.67-.98-3.03c-.13-1.36 1.11-1.83 2.75-2.28 0 0 .79-.03 1.18.15.4.18.98.39.98.39s.67.57.7.78c.04.21.25 1.78.23 2.21-.06.43-.58.64-.58.64s.32 3.1.29 3.55c-.02.45-.05.58-.05.58s-.28-.06-.43-.21c-.15-.14-.18-.03-.18-.03s-.17 1.06-1.05 1.58c0 0-.25-.45-.45-.61-.21-.15-.58-.45-1.53-2.17 0 0-.34-.55-.88-.45 0 0 0 1.94.47 3 .55.81.91.44 1.25 1.17.25.54.64.88.8 1.76.31 1.15.59 2.78.59 2.78s1.4 1.04 1.74 1.74c.21.45.34 1.1.34 2.04 0 .02-.12 6.01.03 6.83.07.42.23.66.23.66s1.89.1 3.23 3.45l2.71-.59s-.03-.29.07-.74c.16-.74.74-1.52.93-1.69.26-.23 1.18-.5 1.18-.5s.18.03.21-.3c0 0 .2-6.69.18-6.97l.16-2.38s.79-.46 1.51-1.41c.45-.36.48-1.94.48-1.94l.91.12s.46.06.02-2.79c0 0 .57-.18 1.6-1.64l.14-1.67-2.48 2.28s-1.16-1.3-1.19-1.45c-.03-.15-.27-.67-.14-3.73l-.39-.49-.03-.24.33-.52s.48-2.24.78-2.61c.3-.36 1.39-.62 2.82-.17 1.52.57 1.83 2.64 1.83 2.64s.37-.26.39-2.12c.07-.7-.06-1.65-.06-1.65s-.03-.69-.97-.65c-.52.12-.74.6-1.51.24-.67-.09-.76.06-1.1-1.06-.12-1.18 1.24-1.76 2.14-2.01l.1-.76s-1.16-1.24-1.26-1.94l.52-.03s-1.16-2.54.1-3.96c0 0-.32 3.27 1.44 3.05l.49 1.42s1.16.72 1.22.87c0 0 .64.09 1.82-.09.27-.43-.21-.55-.7-.82-.73-.39-.94-1.15-.37-1.82 0 0 .7 1.03 2.01 1.57 2.03-.04 1.87-.62 1.87-.62l.21-.72s-.12-.79.24-1.22l1.22 1.94s.42-.28.64-.31c.21-.03 1.45-.25 1.45-.25s.19-.58-.25-1.06" class="cls-5"/><path d="M93.66 48.34s0-2.29.04-2.46c.04-.17.2-.37.42-.35.22.03.39.44.39.44s-.2 1.25-.25 1.42c-.05.17-.18.55-.61.94M93.77 61.82s-.34 4.07-.4 4.31c-.06.24.57.11.57.11s.72-1.28.85-1.45c.12-.19.11-.3-.07-.7-.18-.39-.95-2.27-.95-2.27M94.1 67.09l.54.03s-.28 2.64-.28 3.43-.05 1.88-.05 1.88h-.43s-.49-1.88-.49-1.99c0-.13.69-1.74.69-1.74l.02-1.61ZM93.47 74.31s.49-.15.61-.12.18.12.18.12v2.73s.11.6.22.75c.13.15.67.36.79.69.13.33.34 1.57.07 2.55-.36 1.51-.93 1.79-.86 2.42.06.64.43 1.76.43 2.15 0 0-.21.27-.79.12-.18-.21-.58-.18-.58-.18s.27-1.7.11-2.57c-.1-.73-.91-.33-.91-.33l-.02-4.01s-.15-.33.33-.58c.49-.25.64-.28.64-.28l-.23-3.49Z"/><path d="M95.85 51.29s.64-.58.66-.68c.01-.1-.32-.64-.87-.89s-.85-.04-.85-.04-.82 1.45-1.24 1.62c-.86-.28-1.4-.98-1.91-1.52s-2.12-2.23-2.12-2.23l-.2-.12s.03.8.08 1.79c.03.51.11 1.13.15 1.64.06.91.08 1.64.11 1.69.07.11 1.08 1.14 1.08 1.14s.12.13 0 .2c-.1.06-.81.88-1.35.93-.6.12-1.12-.06-1.21-.12l.04.37s.5 1.57.67 1.8c.19.23.25.04.41.23.32.17.31.93.31.93l2.57-.15.78-1.94s.82-.09.96-.13c.14-.03.98-.1 1.14-.08.16.01.38.5.55.59.07.06.32-.08.51-.23.2-.14 1.55-.73 1.89-.78.19-.08 1.79-2.59 2.51-3.13 0 0-1.03.18-1.72.35-.69.17-2.11.16-2.26.14-.35-.03-.83-.14-.83-.14s.02-.59.15-1.24" class="cls-6"/><path d="M86.79 65.49s.76-.16.54-1.06c-.4-.85-1.15-.6-1.33.03-.18.64.22 1.18.8 1.03M101.03 63.75s-.73.16-.27 1.24c.55.39 1.09-.16 1-.46-.03-.31-.06-.7-.73-.79M51.04 44.67s6.11 2.28 21.37.02c0 0 .47 4.76-4.47 5.32-4.21.51-8.91-1.05-9.95-1.44-2.37-.81-6.44-2.73-6.96-3.91M129.41 48.36c-1.05.37-5.78 1.83-9.98 1.24-4.92-.67-4.35-5.41-4.35-5.41 15.22 2.56 21.37.41 21.37.41-.55 1.17-4.66 3-7.04 3.76" class="cls-5"/><path d="M303.11 71.88h-34.28l-4.76 17.51h-6.97l4.75-17.51h-9.26l2.31-8.58h-30.12l-9.71 35.22h55.83l-2.29 8.49h9.29l2.35-8.49h15.66l7.21-26.63Zm-55.26 17.18h-20.56l4.43-16.24h20.6l-4.47 16.24Zm43.48-7.75c-.18.68-.4 1.48-.63 2.32-.59 2.16-1.36 5.01-1.58 5.83h-6.49c.62-2.26 1.65-6.07 2.2-8.11.02-.07.03-.13.05-.19h6.49s-.02.09-.04.16M283.97 31.05l2.29-8.4h-9.16l-2.3 8.3h-70.16l2.31-8.49h-30.12l-9.71 35.22h65.08l4.82-17.52h9.65l-4.79 17.51h102.1l7.21-26.61h-67.21Zm-84.06 17.16h-20.56l4.43-16.24h20.6l-4.47 16.24Zm88.18-8.02-2.27 8.33h-6.51s1.82-6.69 2.28-8.33h6.5Zm51.25.04-2.25 8.3h-7l2.26-8.3h7Z"/><path d="M260.13 73.28s-4.32 15.91-4.72 17.39h9.63c.4-1.48 4.73-17.39 4.73-17.39h6.66l-6.5 23.95h-22.95l6.51-23.95h6.65ZM300.87 32.39l-1.8 6.53h15.83c-.19.73-.34 1.25-.54 1.98h-15.83l-4.23 15.49h23.05l6.54-24h-23.02Zm11.59 17.42h-9.67c.21-.8.41-1.51.63-2.31h9.68c-.22.8-.41 1.51-.63 2.31M205.59 32.39l-1.8 6.53h15.83c-.19.73-.34 1.25-.54 1.98h-15.83l-4.22 15.49h23.05l6.54-24H205.6Zm11.59 17.42h-9.67c.21-.8.4-1.51.63-2.31h9.68c-.22.8-.41 1.51-.63 2.31M250.13 32.39l-1.8 6.53h15.83c-.19.73-.34 1.25-.54 1.98h-15.83l-4.22 15.49h23.05l6.54-24h-23.02Zm11.59 17.42h-9.67c.21-.8.4-1.51.63-2.31h9.68c-.22.8-.41 1.51-.63 2.31M177.61 49.5c.46-1.65 4.73-17.15 5.19-18.8h20.59l1.9-6.95h-27.52l-9.01 32.65h27.72l1.93-6.89h-20.8M225.54 90.33c.46-1.65 4.74-17.15 5.19-18.8h20.59l1.9-6.95H225.7l-9.01 32.65h27.72l1.93-6.89h-20.8M231.23 32.39l-6.69 24h6.69s4.35-15.83 4.82-17.51h9.65l1.84-6.49h-16.3ZM284.66 23.94H278l-8.82 32.46h22.5l6.55-24.06s-14.18 0-15.87-.01c.41-1.48 2.29-8.39 2.29-8.39m2.14 25.87h-9.17l2.98-10.9h9.17l-2.97 10.9ZM342.99 56.4l6.52-24H326.5l-6.53 24h23.02Zm-1.95-17.44c-.4 1.48-2.55 9.38-2.95 10.86h-9.66l2.95-10.86h9.66ZM279.01 73.29l-8.74 32.43h6.64l2.35-8.49h15.72l6.5-23.94h-22.47Zm11.09 17.45h-9.14c.4-1.48 2.55-9.38 2.95-10.87h9.15c-.4 1.48-2.55 9.38-2.95 10.87" class="cls-5"/></g></svg>