<svg xmlns="http://www.w3.org/2000/svg" xml:space="preserve" width="100" height="100"><path fill="#FFF" d="M50.015 1.069C39.062 14.651 24.915 19.95 7.686 16.595c-.399 44.434 20.096 65.428 42.331 82.336 22.001-16.685 42.87-38.033 42.292-82.295-17.892 3.323-31.244-1.833-42.294-15.567z"/><path fill="none" stroke="#94273C" stroke-miterlimit="2.6131" stroke-width="0.8872" d="M50.015 1.069C39.062 14.651 24.915 19.95 7.686 16.595c-.399 44.434 20.096 65.428 42.331 82.336 22.001-16.685 42.87-38.033 42.292-82.295-17.892 3.323-31.244-1.833-42.294-15.567z"/><path fill="#00714B" d="M82.886 50.91c-4.847 13.291-14.427 27.107-32.89 42.133C31.743 78.097 22.17 64.175 17.271 50.91h65.615z"/><path fill="#8C2A3C" d="M12.442 22.054c22.448.236 28.902-4.294 37.555-13.902 9.342 9.326 15.533 14.192 37.563 13.902-.085 8.83-.955 17.67-3.94 26.74H16.526c-3.071-9.18-3.985-18.052-4.084-26.74"/><path fill="#FFF" d="M39.457 23.993c.751.235 2.251-.271 3.068 1.311.407.787 1.13 1.66 1.373 3.338l4.648-.724c-.521-1.829-.161-1.87-.62-3.305 2.874-.276 5.663-.895 8.263-2.271 1.273 1.067 2.409 1.961 3.924 2.582-5.764 3.226-5.177 5.838-4.751 7.539l2.272 2.687c-.092-5.637 3.54-9.234 8.057-10.329-3.09-1.67-6.067-3.562-8.882-5.784-5.142 1.809-11.489 3.851-14.149 1.859l-3.203 3.097z"/><path fill="#FFF" d="M34.818 37.131c-.017.176 3.89-1.972 4.85-1.503l-.361-2.219c4.562-2.043 9.214-2.909 15.532-1.857.041-.997.008-1.737.464-2.734-2.1-.378-4.198-.447-6.347-.62-1.496.138-3.7.369-5.314.878-1.615.509-3.363 1.196-4.851 1.341-1.488.146-2.202-.326-3.561-.67-1.118 1.289-1.771 1.856-3.457 3.354 1.365-.313 3.419.164 3.115 3.302l-.07.728zM59.354 29.526c4.444 1.651 4.552.097 6.463-.054l1.13 2.208c-5.862 1.74-8.608 8.726-4.308 12.712-4.191.798-6.678-4.427-3.332-10.788.193-.368-.024-.956.209-1.331l-1.24-.323c.215-.971.645-1.509 1.078-2.424"/><path fill="#FFF" d="M61.938 35.936c-.483.754-.915 1.778-.969 2.909 2.286.787 3.589 2.067 4.472 5.112.025.094.069.182.106.274 1.158 2.977 6.876 3.052 7.865 2.047.25-1.149-.09-1.867-1.131-2.154-1.203.008-1.06 1.211-2.155.915-1.347-.474-2.086-1.059-2.41-2.189-.485-1.688.469-3.506 3.057-4.112l-1.293-1.777c-2.559.133-5.126.133-7.542-1.025M58.438 34.912l-.593-.161-.108.539-.269.107-.754-.916a34.137 34.137 0 0 0-7.648-.054l-.163 2.963c3.016-.233 5.943-.107 8.672.377.197-1.005.396-1.956.863-2.855"/><path fill="#FFF" d="m43.693 32.429-.207 14.86 4.335-.206.206-2.374 3.2-.206.516.516c-2.27 6.261-.963 10.044 3.922 11.351l.104-.619c-3.234-2.271-3.716-8.015.516-11.041l-1.341-2.684c-2.513-.667-4.92 1.147-6.916-.207l.723-10.216c-1.584.138-3.27.069-5.058.826"/><path fill="#FFF" d="m38.224 60.497-.516 3.923c5.87 1.261 12.293 1.562 19.814-1.033 3.817-1.307 7.533-2.718 11.454-2.063-.756-1.135 2.924-8.049 6.089-4.024l1.755.104c-.791-1.584-.757-2.441 1.651-3.819-2.649-.309-4.575-.104-6.398-1.549-8.034 7.49-20.348 11.292-33.849 8.461M54.426 47.495c-.671 1.169-.98 1.874-.825 3.043 1.686.155 3.165.981 3.818 2.219l.053-5.469-3.046.207z"/><path fill="#FFF" d="m43.602 50.762-.477 10.149c1.59.24 2.829.292 4.283.259l.309-10.424-4.115.016zM43.022 65.503c1.811.229 3.366.135 4.747.201.375 6.169 2.704 8.655 7.864 10.304 1.034.332 2.306.674 3.06 1.156-12.315 1.152-12.283-6.776-17.787-.723l-1.496-2.116c1.851-1.74 2.935-5.15 3.612-8.822M43.104 35.315c-7.465.729-14.266 4.947-20.095 14.266-.454.651-1.365 1.669-1.535 1.859.763.132 1.317.723 1.669 1.055 3.017 5.471 6.333 8.643 9.76 10.432.486-1.276.588-2.557.767-3.834-2.122-.946-6.724-5.112-6.289-9.664 2.199-5.804 9.229-10.841 15.724-10.738l-.001-3.376z"/><path fill="#FFF" d="M35.062 41.802c1.307-1.141 2.724-1.951 4.361-2.104l.154 8.504c3.528-.844 7.427-.921 10.955-.688l-.295 2.759c-3.604.076-7.593.076-11.274 1.305-.563 5.522-1.049 10.813-2.685 16.105 2.685.895 4.04 2.07 4.679 3.375l-1.228 2.3c-1.712-2.364-3.4-3.617-6.597-3.067l-1.534-1.381c3.376-6.469 3.004-19.029 3.464-27.108M41.263 76.428c.345-.117 1.38 1.839 3.145 2.338.086.083 1.229-.042.652-.268-.576-.227-1.652-1.689-2.301-3.413 0 0-1.84 1.456-1.496 1.343"/></svg>