<svg xmlns="http://www.w3.org/2000/svg" xml:space="preserve" width="599.87518" height="918.21936" viewBox="0 0 599.87518 918.21936"><defs><radialGradient id="f" cx="163.0542" cy="16801.859" r="56.579391" fx="163.0542" fy="16801.859" gradientTransform="matrix(1 0 0 -1 0 17222)" gradientUnits="userSpaceOnUse" spreadMethod="pad"><stop offset="0" style="stop-opacity:1;stop-color:#143a5f"/><stop offset="0.4150131" style="stop-opacity:1;stop-color:#143a5f"/><stop offset="1" style="stop-opacity:1;stop-color:#2b6abc"/></radialGradient><radialGradient id="i" cx="414.13672" cy="16690.01" r="43.152821" fx="414.13672" fy="16690.01" gradientTransform="matrix(1 0 0 -1 0 17222)" gradientUnits="userSpaceOnUse" spreadMethod="pad"><stop offset="0" style="stop-opacity:1;stop-color:#143a5f"/><stop offset="0.47488093" style="stop-opacity:1;stop-color:#143a5f"/><stop offset="1" style="stop-opacity:1;stop-color:#2b6abc"/></radialGradient><radialGradient id="q" cx="204.62402" cy="16887.938" r="40.647449" fx="204.62402" fy="16887.938" gradientTransform="matrix(1 0 0 -1 0 17222)" gradientUnits="userSpaceOnUse" spreadMethod="pad"><stop offset="0" style="stop-opacity:1;stop-color:#143a5f"/><stop offset="1" style="stop-opacity:1;stop-color:#2b6abc"/></radialGradient><radialGradient id="r" cx="403.44043" cy="16892.35" r="35.57962" fx="403.44043" fy="16892.35" gradientTransform="matrix(1 0 0 -1 0 17222)" gradientUnits="userSpaceOnUse" spreadMethod="pad"><stop offset="0" style="stop-opacity:1;stop-color:#143a5f"/><stop offset="1" style="stop-opacity:1;stop-color:#2b6abc"/></radialGradient><radialGradient id="t" cx="179.57471" cy="16910.82" r="43.153351" fx="179.57471" fy="16910.82" gradientTransform="matrix(1 0 0 -1 0 17222)" gradientUnits="userSpaceOnUse" spreadMethod="pad"><stop offset="0" style="stop-opacity:1;stop-color:#143a5f"/><stop offset="1" style="stop-opacity:1;stop-color:#2b6abc"/></radialGradient><radialGradient id="u" cx="449.42969" cy="16713.361" r="114.78137" fx="449.42969" fy="16713.361" gradientTransform="matrix(1 0 0 -1 0 17222)" gradientUnits="userSpaceOnUse" spreadMethod="pad"><stop offset="0" style="stop-opacity:1;stop-color:#143a5f"/><stop offset="0.47488093" style="stop-opacity:1;stop-color:#143a5f"/><stop offset="1" style="stop-opacity:1;stop-color:#2b6abc"/></radialGradient><radialGradient id="w" cx="243.6499" cy="16806.984" r="34.024399" fx="243.6499" fy="16806.984" gradientTransform="matrix(1 0 0 -1 0 17222)" gradientUnits="userSpaceOnUse" spreadMethod="pad"><stop offset="0" style="stop-opacity:1;stop-color:#dda10a"/><stop offset="1" style="stop-opacity:1;stop-color:#791013"/></radialGradient><radialGradient id="x" cx="296.03467" cy="16804.27" r="79.539467" fx="296.03467" fy="16804.27" gradientTransform="matrix(1 0 0 -1 0 17222)" gradientUnits="userSpaceOnUse" spreadMethod="pad"><stop offset="0" style="stop-opacity:1;stop-color:#dda10a"/><stop offset="1" style="stop-opacity:1;stop-color:#791013"/></radialGradient><radialGradient id="y" cx="250.7085" cy="16773.879" r="80.096619" fx="250.7085" fy="16773.879" gradientTransform="matrix(1 0 0 -1 0 17222)" gradientUnits="userSpaceOnUse" spreadMethod="pad"><stop offset="0" style="stop-opacity:1;stop-color:#dda10a"/><stop offset="1" style="stop-opacity:1;stop-color:#791013"/></radialGradient><radialGradient id="F" cx="305.59473" cy="16479.4" r="26.075899" fx="305.59473" fy="16479.4" gradientTransform="matrix(1 0 0 -1 0 17222)" gradientUnits="userSpaceOnUse" spreadMethod="pad"><stop offset="0" style="stop-opacity:1;stop-color:#927735"/><stop offset="0.85287846" style="stop-opacity:1;stop-color:#dcb945"/><stop offset="1" style="stop-opacity:1;stop-color:#dcb945"/></radialGradient><radialGradient id="G" cx="300.88281" cy="16578.674" r="51.29179" fx="300.88281" fy="16578.674" gradientTransform="matrix(1 0 0 -1 0 17222)" gradientUnits="userSpaceOnUse" spreadMethod="pad"><stop offset="0" style="stop-opacity:1;stop-color:#e6c471"/><stop offset="0.47488093" style="stop-opacity:1;stop-color:#e6c471"/><stop offset="1" style="stop-opacity:1;stop-color:#a0703d"/></radialGradient><radialGradient id="H" cx="303.29004" cy="16492.238" r="33.940479" fx="303.29004" fy="16492.238" gradientTransform="matrix(1 0 0 -1 0 17222)" gradientUnits="userSpaceOnUse" spreadMethod="pad"><stop offset="0" style="stop-opacity:1;stop-color:#927735"/><stop offset="0.43927959" style="stop-opacity:1;stop-color:#927735"/><stop offset="1" style="stop-opacity:1;stop-color:#bb9d3b"/></radialGradient><radialGradient id="I" cx="297.42676" cy="16459.588" r="62.266079" fx="297.42676" fy="16459.588" gradientTransform="matrix(1 0 0 -1 0 17222)" gradientUnits="userSpaceOnUse" spreadMethod="pad"><stop offset="0" style="stop-opacity:1;stop-color:#fff"/><stop offset="0.19059143" style="stop-opacity:1;stop-color:#fff"/><stop offset="1" style="stop-opacity:1;stop-color:#b7952a"/></radialGradient><radialGradient id="J" cx="302.26074" cy="16522.684" r="43.022861" fx="302.26074" fy="16522.684" gradientTransform="matrix(1 0 0 -1 0 17222)" gradientUnits="userSpaceOnUse" spreadMethod="pad"><stop offset="0" style="stop-opacity:1;stop-color:#fff"/><stop offset="0.66021853" style="stop-opacity:1;stop-color:#dfbb6c"/><stop offset="1" style="stop-opacity:1;stop-color:#dfbb6c"/></radialGradient><radialGradient id="K" cx="262.354" cy="16569.258" r="34.063599" fx="262.354" fy="16569.258" gradientTransform="matrix(1 0 0 -1 0 17222)" gradientUnits="userSpaceOnUse" spreadMethod="pad"><stop offset="0" style="stop-opacity:1;stop-color:#fff"/><stop offset="0.68211685" style="stop-opacity:1;stop-color:#fff"/><stop offset="1" style="stop-opacity:1;stop-color:#dfbb6c"/></radialGradient><radialGradient id="L" cx="298.09375" cy="16570.967" r="43.544189" fx="298.09375" fy="16570.967" gradientTransform="matrix(1 0 0 -1 0 17222)" gradientUnits="userSpaceOnUse" spreadMethod="pad"><stop offset="0" style="stop-opacity:1;stop-color:#ab802b"/><stop offset="0.47488093" style="stop-opacity:1;stop-color:#ab802b"/><stop offset="1" style="stop-opacity:1;stop-color:#694d19"/></radialGradient><radialGradient id="M" cx="326.53906" cy="16527.484" r="27.37454" fx="326.53906" fy="16527.484" gradientTransform="matrix(1 0 0 -1 0 17222)" gradientUnits="userSpaceOnUse" spreadMethod="pad"><stop offset="0" style="stop-opacity:1;stop-color:#ab802b"/><stop offset="0.47488093" style="stop-opacity:1;stop-color:#ab802b"/><stop offset="1" style="stop-opacity:1;stop-color:#694d19"/></radialGradient><radialGradient id="N" cx="158.06396" cy="16509.324" r="26.07535" fx="158.06396" fy="16509.324" gradientTransform="matrix(1 0 0 -1 0 17222)" gradientUnits="userSpaceOnUse" spreadMethod="pad"><stop offset="0" style="stop-opacity:1;stop-color:#927735"/><stop offset="0.85287846" style="stop-opacity:1;stop-color:#dcb945"/><stop offset="1" style="stop-opacity:1;stop-color:#dcb945"/></radialGradient><radialGradient id="O" cx="155.76025" cy="16522.164" r="33.940479" fx="155.76025" fy="16522.164" gradientTransform="matrix(1 0 0 -1 0 17222)" gradientUnits="userSpaceOnUse" spreadMethod="pad"><stop offset="0" style="stop-opacity:1;stop-color:#927735"/><stop offset="0.43927959" style="stop-opacity:1;stop-color:#927735"/><stop offset="1" style="stop-opacity:1;stop-color:#bb9d3b"/></radialGradient><radialGradient id="P" cx="149.89648" cy="16489.512" r="62.25386" fx="149.89648" fy="16489.512" gradientTransform="matrix(1 0 0 -1 0 17222)" gradientUnits="userSpaceOnUse" spreadMethod="pad"><stop offset="0" style="stop-opacity:1;stop-color:#fff"/><stop offset="0.19059143" style="stop-opacity:1;stop-color:#fff"/><stop offset="1" style="stop-opacity:1;stop-color:#b7952a"/></radialGradient><radialGradient id="Q" cx="154.73047" cy="16552.609" r="43.023529" fx="154.73047" fy="16552.609" gradientTransform="matrix(1 0 0 -1 0 17222)" gradientUnits="userSpaceOnUse" spreadMethod="pad"><stop offset="0" style="stop-opacity:1;stop-color:#fff"/><stop offset="0.66021853" style="stop-opacity:1;stop-color:#dfbb6c"/><stop offset="1" style="stop-opacity:1;stop-color:#dfbb6c"/></radialGradient><radialGradient id="R" cx="114.82422" cy="16599.184" r="34.063599" fx="114.82422" fy="16599.184" gradientTransform="matrix(1 0 0 -1 0 17222)" gradientUnits="userSpaceOnUse" spreadMethod="pad"><stop offset="0" style="stop-opacity:1;stop-color:#fff"/><stop offset="0.68211685" style="stop-opacity:1;stop-color:#fff"/><stop offset="1" style="stop-opacity:1;stop-color:#dfbb6c"/></radialGradient><radialGradient id="S" cx="150.56299" cy="16600.891" r="43.544369" fx="150.56299" fy="16600.891" gradientTransform="matrix(1 0 0 -1 0 17222)" gradientUnits="userSpaceOnUse" spreadMethod="pad"><stop offset="0" style="stop-opacity:1;stop-color:#ab802b"/><stop offset="0.47488093" style="stop-opacity:1;stop-color:#ab802b"/><stop offset="1" style="stop-opacity:1;stop-color:#694d19"/></radialGradient><radialGradient id="T" cx="179.00879" cy="16557.41" r="27.375259" fx="179.00879" fy="16557.41" gradientTransform="matrix(1 0 0 -1 0 17222)" gradientUnits="userSpaceOnUse" spreadMethod="pad"><stop offset="0" style="stop-opacity:1;stop-color:#ab802b"/><stop offset="0.47488093" style="stop-opacity:1;stop-color:#ab802b"/><stop offset="1" style="stop-opacity:1;stop-color:#694d19"/></radialGradient><radialGradient id="U" cx="-39.883301" cy="16509.324" r="26.07518" fx="-39.883301" fy="16509.324" gradientTransform="matrix(1 0 0 -1 493.018 17222)" gradientUnits="userSpaceOnUse" spreadMethod="pad"><stop offset="0" style="stop-opacity:1;stop-color:#927735"/><stop offset="0.85287846" style="stop-opacity:1;stop-color:#dcb945"/><stop offset="1" style="stop-opacity:1;stop-color:#dcb945"/></radialGradient><radialGradient id="V" cx="-44.59277" cy="16608.598" r="51.291458" fx="-44.59277" fy="16608.598" gradientTransform="matrix(1 0 0 -1 493.018 17222)" gradientUnits="userSpaceOnUse" spreadMethod="pad"><stop offset="0" style="stop-opacity:1;stop-color:#e6c471"/><stop offset="0.47488093" style="stop-opacity:1;stop-color:#e6c471"/><stop offset="1" style="stop-opacity:1;stop-color:#a0703d"/></radialGradient><radialGradient id="W" cx="-42.18652" cy="16522.164" r="33.940479" fx="-42.18652" fy="16522.164" gradientTransform="matrix(1 0 0 -1 493.018 17222)" gradientUnits="userSpaceOnUse" spreadMethod="pad"><stop offset="0" style="stop-opacity:1;stop-color:#927735"/><stop offset="0.43927959" style="stop-opacity:1;stop-color:#927735"/><stop offset="1" style="stop-opacity:1;stop-color:#bb9d3b"/></radialGradient><radialGradient id="X" cx="-48.050781" cy="16489.512" r="62.25386" fx="-48.050781" fy="16489.512" gradientTransform="matrix(1 0 0 -1 493.018 17222)" gradientUnits="userSpaceOnUse" spreadMethod="pad"><stop offset="0" style="stop-opacity:1;stop-color:#fff"/><stop offset="0.19059143" style="stop-opacity:1;stop-color:#fff"/><stop offset="1" style="stop-opacity:1;stop-color:#b7952a"/></radialGradient><radialGradient id="Y" cx="-43.216309" cy="16552.609" r="43.02319" fx="-43.216309" fy="16552.609" gradientTransform="matrix(1 0 0 -1 493.018 17222)" gradientUnits="userSpaceOnUse" spreadMethod="pad"><stop offset="0" style="stop-opacity:1;stop-color:#fff"/><stop offset="0.66021853" style="stop-opacity:1;stop-color:#dfbb6c"/><stop offset="1" style="stop-opacity:1;stop-color:#dfbb6c"/></radialGradient><radialGradient id="Z" cx="-83.123543" cy="16599.184" r="34.0639" fx="-83.123543" fy="16599.184" gradientTransform="matrix(1 0 0 -1 493.018 17222)" gradientUnits="userSpaceOnUse" spreadMethod="pad"><stop offset="0" style="stop-opacity:1;stop-color:#fff"/><stop offset="0.68211685" style="stop-opacity:1;stop-color:#fff"/><stop offset="1" style="stop-opacity:1;stop-color:#dfbb6c"/></radialGradient><radialGradient id="aa" cx="-47.384281" cy="16600.891" r="43.54475" fx="-47.384281" fy="16600.891" gradientTransform="matrix(1 0 0 -1 493.018 17222)" gradientUnits="userSpaceOnUse" spreadMethod="pad"><stop offset="0" style="stop-opacity:1;stop-color:#ab802b"/><stop offset="0.47488093" style="stop-opacity:1;stop-color:#ab802b"/><stop offset="1" style="stop-opacity:1;stop-color:#694d19"/></radialGradient><radialGradient id="ab" cx="-18.93799" cy="16557.41" r="27.375019" fx="-18.93799" fy="16557.41" gradientTransform="matrix(1 0 0 -1 493.018 17222)" gradientUnits="userSpaceOnUse" spreadMethod="pad"><stop offset="0" style="stop-opacity:1;stop-color:#ab802b"/><stop offset="0.47488093" style="stop-opacity:1;stop-color:#ab802b"/><stop offset="1" style="stop-opacity:1;stop-color:#694d19"/></radialGradient><radialGradient id="ac" cx="153.354" cy="16608.598" r="51.291279" fx="153.354" fy="16608.598" gradientTransform="matrix(1 0 0 -1 0 17222)" gradientUnits="userSpaceOnUse" spreadMethod="pad"><stop offset="0" style="stop-opacity:1;stop-color:#e6c471"/><stop offset="0.47488093" style="stop-opacity:1;stop-color:#e6c471"/><stop offset="1" style="stop-opacity:1;stop-color:#a0703d"/></radialGradient><linearGradient id="a" x1="298.67383" x2="298.67133" y1="16587.555" y2="17146.953" gradientTransform="matrix(1 0 0 -1 0 17222)" gradientUnits="userSpaceOnUse" spreadMethod="pad"><stop offset="0" style="stop-opacity:1;stop-color:#cedff4"/><stop offset="0.06914834" style="stop-opacity:1;stop-color:#cedff4"/><stop offset="0.34831" style="stop-opacity:1;stop-color:#205597"/><stop offset="0.68371536" style="stop-opacity:1;stop-color:#0e0f28"/><stop offset="0.73033" style="stop-opacity:1;stop-color:#0e0f28"/><stop offset="1" style="stop-opacity:1;stop-color:#1e3e80"/></linearGradient><linearGradient id="b" x1="298.67383" x2="298.67279" y1="16600.422" y2="16833.938" gradientTransform="matrix(1 0 0 -1 0 17222)" gradientUnits="userSpaceOnUse" spreadMethod="pad"><stop offset="0" style="stop-opacity:1;stop-color:#307fcb"/><stop offset="0.08234939" style="stop-opacity:1;stop-color:#307fcb"/><stop offset="0.34831" style="stop-opacity:1;stop-color:#7896d4"/><stop offset="0.64919325" style="stop-opacity:1;stop-color:#c6cdec"/><stop offset="0.69101" style="stop-opacity:1;stop-color:#c6cdec"/><stop offset="1" style="stop-opacity:1;stop-color:#fff"/></linearGradient><linearGradient id="c" x1="298.67285" x2="298.67154" y1="16833.926" y2="17126.705" gradientTransform="matrix(1 0 0 -1 0 17222)" gradientUnits="userSpaceOnUse" spreadMethod="pad"><stop offset="0" style="stop-opacity:1;stop-color:#20448d"/><stop offset="0.18502603" style="stop-opacity:1;stop-color:#20448d"/><stop offset="0.40448" style="stop-opacity:1;stop-color:#1b2e69"/><stop offset="0.66097265" style="stop-opacity:1;stop-color:#14193f"/><stop offset="0.69662" style="stop-opacity:1;stop-color:#14193f"/><stop offset="1" style="stop-opacity:1;stop-color:#0d0e26"/></linearGradient><linearGradient id="d" x1="298.67383" x2="298.67258" y1="16623.791" y2="16902.184" gradientTransform="matrix(1 0 0 -1 0 17222)" gradientUnits="userSpaceOnUse" spreadMethod="pad"><stop offset="0" style="stop-opacity:1;stop-color:#a7a8a7"/><stop offset="0.24906608" style="stop-opacity:1;stop-color:#eff0f0"/><stop offset="0.30336" style="stop-opacity:1;stop-color:#eff0f0"/><stop offset="0.94346585" style="stop-opacity:1;stop-color:#fff"/><stop offset="1" style="stop-opacity:1;stop-color:#fff"/></linearGradient><linearGradient id="e" x1="298.67285" x2="298.67145" y1="16843.988" y2="17157.777" gradientTransform="matrix(1 0 0 -1 0 17222)" gradientUnits="userSpaceOnUse" spreadMethod="pad"><stop offset="0" style="stop-opacity:1;stop-color:#fff"/><stop offset="0.52246" style="stop-opacity:1;stop-color:#e2e0de"/><stop offset="1" style="stop-opacity:1;stop-color:#888786"/></linearGradient><linearGradient id="g" x1="241.58105" x2="201.39496" y1="16739.969" y2="16716.766" gradientTransform="matrix(1 0 0 -1 0 17222)" gradientUnits="userSpaceOnUse" spreadMethod="pad"><stop offset="0" style="stop-opacity:1;stop-color:#fff"/><stop offset="0.79907898" style="stop-opacity:1;stop-color:#fff"/><stop offset="1" style="stop-opacity:1;stop-color:#b4aeae"/></linearGradient><linearGradient id="h" x1="352.14453" x2="420.69238" y1="16765.529" y2="16765.529" gradientTransform="matrix(1 0 0 -1 0 17222)" gradientUnits="userSpaceOnUse" spreadMethod="pad"><stop offset="0" style="stop-opacity:1;stop-color:#fff"/><stop offset="0.45124293" style="stop-opacity:1;stop-color:#fff"/><stop offset="1" style="stop-opacity:1;stop-color:#b4aeae"/></linearGradient><linearGradient id="j" x1="237.55811" x2="193.86865" y1="16971.047" y2="16971.047" gradientTransform="matrix(1 0 0 -1 0 17222)" gradientUnits="userSpaceOnUse" spreadMethod="pad"><stop offset="0" style="stop-opacity:1;stop-color:#fff"/><stop offset="0.67804872" style="stop-opacity:1;stop-color:#fff"/><stop offset="1" style="stop-opacity:1;stop-color:#b4aeae"/></linearGradient><linearGradient id="k" x1="359.78711" x2="403.47656" y1="16971.045" y2="16971.045" gradientTransform="matrix(1 0 0 -1 0 17222)" gradientUnits="userSpaceOnUse" spreadMethod="pad"><stop offset="0" style="stop-opacity:1;stop-color:#fff"/><stop offset="0.58496236" style="stop-opacity:1;stop-color:#fff"/><stop offset="1" style="stop-opacity:1;stop-color:#b4aeae"/></linearGradient><linearGradient id="l" x1="194.02539" x2="177.54297" y1="16940.957" y2="16940.957" gradientTransform="matrix(1 0 0 -1 0 17222)" gradientUnits="userSpaceOnUse" spreadMethod="pad"><stop offset="0" style="stop-opacity:1;stop-color:#fff"/><stop offset="0.58496236" style="stop-opacity:1;stop-color:#fff"/><stop offset="1" style="stop-opacity:1;stop-color:#7a7882"/></linearGradient><linearGradient id="m" x1="403.31934" x2="419.80273" y1="16940.955" y2="16940.955" gradientTransform="matrix(1 0 0 -1 0 17222)" gradientUnits="userSpaceOnUse" spreadMethod="pad"><stop offset="0" style="stop-opacity:1;stop-color:#fff"/><stop offset="0.58496236" style="stop-opacity:1;stop-color:#fff"/><stop offset="1" style="stop-opacity:1;stop-color:#7a7882"/></linearGradient><linearGradient id="n" x1="173.76318" x2="423.58301" y1="16985.801" y2="16985.801" gradientTransform="matrix(1 0 0 -1 0 17222)" gradientUnits="userSpaceOnUse" spreadMethod="pad"><stop offset="0" style="stop-opacity:1;stop-color:#103762"/><stop offset="0.20751882" style="stop-opacity:1;stop-color:#2b6abc"/><stop offset="0.5" style="stop-opacity:1;stop-color:#2b6abc"/><stop offset="0.79248118" style="stop-opacity:1;stop-color:#2b6abc"/><stop offset="1" style="stop-opacity:1;stop-color:#103762"/></linearGradient><linearGradient id="o" x1="235.00391" x2="362.3418" y1="16939.879" y2="16939.879" gradientTransform="matrix(1 0 0 -1 0 17222)" gradientUnits="userSpaceOnUse" spreadMethod="pad"><stop offset="0" style="stop-opacity:1;stop-color:#f1b426"/><stop offset="0.5" style="stop-opacity:1;stop-color:#fde023"/><stop offset="1" style="stop-opacity:1;stop-color:#f1b426"/></linearGradient><linearGradient id="p" x1="235.00391" x2="362.3418" y1="16846.824" y2="16846.824" gradientTransform="matrix(1 0 0 -1 0 17222)" gradientUnits="userSpaceOnUse" spreadMethod="pad"><stop offset="0" style="stop-opacity:1;stop-color:#122f4e"/><stop offset="0.25727443" style="stop-opacity:1;stop-color:#2b6abc"/><stop offset="0.5" style="stop-opacity:1;stop-color:#2b6abc"/><stop offset="0.74270968" style="stop-opacity:1;stop-color:#2b6abc"/><stop offset="1" style="stop-opacity:1;stop-color:#122f4e"/></linearGradient><linearGradient id="s" x1="363.41895" x2="411.56543" y1="16881.127" y2="16881.127" gradientTransform="matrix(1 0 0 -1 0 17222)" gradientUnits="userSpaceOnUse" spreadMethod="pad"><stop offset="0" style="stop-opacity:1;stop-color:#fff"/><stop offset="0.64089489" style="stop-opacity:1;stop-color:#fff"/><stop offset="1" style="stop-opacity:1;stop-color:#b4aeae"/></linearGradient><linearGradient id="v" x1="251.74414" x2="184.31062" y1="16832.961" y2="16794.027" gradientTransform="matrix(1 0 0 -1 0 17222)" gradientUnits="userSpaceOnUse" spreadMethod="pad"><stop offset="0" style="stop-opacity:1;stop-color:#fff"/><stop offset="0.79907898" style="stop-opacity:1;stop-color:#fff"/><stop offset="1" style="stop-opacity:1;stop-color:#b4aeae"/></linearGradient><linearGradient id="z" x1="260.68555" x2="319.19629" y1="16763.963" y2="16763.963" gradientTransform="matrix(1 0 0 -1 0 17222)" gradientUnits="userSpaceOnUse" spreadMethod="pad"><stop offset="0" style="stop-opacity:1;stop-color:#fff"/><stop offset="0.34564042" style="stop-opacity:1;stop-color:#878a8a"/><stop offset="0.55617" style="stop-opacity:1;stop-color:#878a8a"/><stop offset="0.80213985" style="stop-opacity:1;stop-color:#878a8a"/><stop offset="1" style="stop-opacity:1;stop-color:#071621"/></linearGradient><linearGradient id="A" x1="277.11426" x2="330.53922" y1="16790.008" y2="16809.453" gradientTransform="matrix(1 0 0 -1 0 17222)" gradientUnits="userSpaceOnUse" spreadMethod="pad"><stop offset="0" style="stop-opacity:1;stop-color:#fff"/><stop offset="0.6635171" style="stop-opacity:1;stop-color:#878a8a"/><stop offset="0.67976" style="stop-opacity:1;stop-color:#878a8a"/><stop offset="0.86881485" style="stop-opacity:1;stop-color:#878a8a"/><stop offset="1" style="stop-opacity:1;stop-color:#071621"/></linearGradient><linearGradient id="B" x1="268.00635" x2="281.20117" y1="16811.977" y2="16811.977" gradientTransform="matrix(1 0 0 -1 0 17222)" gradientUnits="userSpaceOnUse" spreadMethod="pad"><stop offset="0" style="stop-opacity:1;stop-color:#fff"/><stop offset="0.65167" style="stop-opacity:1;stop-color:#878a8a"/><stop offset="0.86474932" style="stop-opacity:1;stop-color:#878a8a"/><stop offset="1" style="stop-opacity:1;stop-color:#071621"/></linearGradient><linearGradient id="C" x1="299.66504" x2="337.08789" y1="16719.307" y2="16719.307" gradientTransform="matrix(1 0 0 -1 0 17222)" gradientUnits="userSpaceOnUse" spreadMethod="pad"><stop offset="0" style="stop-opacity:1;stop-color:#f1b426"/><stop offset="0.31073271" style="stop-opacity:1;stop-color:#fddd12"/><stop offset="0.5" style="stop-opacity:1;stop-color:#fddd12"/><stop offset="0.68924991" style="stop-opacity:1;stop-color:#fddd12"/><stop offset="1" style="stop-opacity:1;stop-color:#f1b426"/></linearGradient><linearGradient id="D" x1="273.45752" x2="318.12891" y1="16680.508" y2="16680.508" gradientTransform="matrix(1 0 0 -1 0 17222)" gradientUnits="userSpaceOnUse" spreadMethod="pad"><stop offset="0" style="stop-opacity:1;stop-color:#f1b426"/><stop offset="0.31073271" style="stop-opacity:1;stop-color:#fddd12"/><stop offset="0.5" style="stop-opacity:1;stop-color:#fddd12"/><stop offset="0.68924991" style="stop-opacity:1;stop-color:#fddd12"/><stop offset="1" style="stop-opacity:1;stop-color:#f1b426"/></linearGradient><linearGradient id="E" x1="282.59375" x2="311.1582" y1="16690.123" y2="16690.123" gradientTransform="matrix(1 0 0 -1 0 17222)" gradientUnits="userSpaceOnUse" spreadMethod="pad"><stop offset="0" style="stop-opacity:1;stop-color:#f1b426"/><stop offset="0.31073271" style="stop-opacity:1;stop-color:#fddd12"/><stop offset="0.5" style="stop-opacity:1;stop-color:#fddd12"/><stop offset="0.68924991" style="stop-opacity:1;stop-color:#fddd12"/><stop offset="1" style="stop-opacity:1;stop-color:#f1b426"/></linearGradient></defs><path d="M298.677 634.446c44.987.399 74.043-15.897 91.47-23.74 17.956-8.08 67.631-27.731 121.097-19.751l11.472-23.341s-13.172-8.905-18.555-32.02c-5.087-21.845-1.447-57.798 3.592-86.483 7.78-44.289 22.444-102.045 12.568-158.005-5.173-29.311-16.927-60.488-38.602-87.979-24.54-31.121-48.48-47.281-79.6-63.74-30.168-15.953-51.472-21.546-72.121-35.91-14.992-10.43-31.321-28.43-31.321-28.43s-16.337 18-31.33 28.43c-20.648 14.364-41.951 19.957-72.119 35.91-31.122 16.459-55.062 32.619-79.6 63.74-21.675 27.491-33.43 58.668-38.604 87.98-9.875 55.96 4.789 113.715 12.569 158.004 5.039 28.685 8.678 64.638 3.591 86.483-5.383 23.115-18.554 32.02-18.554 32.02l11.472 23.34c53.465-7.98 103.141 11.672 121.096 19.752 17.428 7.843 46.484 24.139 91.471 23.74h.008z" style="fill:url(#a);fill-opacity:1;fill-rule:nonzero;stroke:none" transform="matrix(1.33333 0 0 -1.33333 -98.293 1018.283)"/><path d="M91.476 388.065c2.05 13.142 4.501 25.97 6.857 38.299 1.409 7.37 2.738 14.332 3.933 21.109 2.708 15.37 6.233 39.683 6.233 62.114 0 10.54-.591 22.657-2.597 31.245-3.552 15.204-9.576 26.034-22.294 37.255 0 0 6.134-.641 19.6-1.068 45.593-1.6 87.712 12.358 109.256 22.022l6.39 2.95c16.964 7.93 42.601 19.916 79.702 19.588H298.79c37.1.328 62.737-11.658 79.703-19.589l6.388-2.949c21.546-9.664 63.664-23.622 109.257-22.022 13.466.427 19.6 1.068 19.6 1.068-12.718-11.221-18.742-22.05-22.295-37.255-2.005-8.588-2.595-20.705-2.595-31.245 0-22.431 3.524-46.744 6.232-62.114 1.195-6.777 2.524-13.738 3.933-21.11 2.355-12.326 4.805-25.15 6.856-38.29l-.14-.009H91.604l-.128.001z" style="fill:url(#b);fill-opacity:1;fill-rule:nonzero;stroke:none" transform="matrix(1.33333 0 0 -1.33333 -98.293 1018.283)"/><path d="M91.604 388.064h414.125l.14.01c2.841-18.193 4.916-36.989 4.916-55.902 0-12.57-.916-25.19-3.135-37.72-5.433-30.691-17.89-59.03-36.024-81.957-23.071-29.167-45.156-44.135-75.508-60.135-12.153-6.407-22.668-11.014-32.835-15.47-14.164-6.206-27.543-12.068-40.617-21.134-8.668-6.01-17.545-14.137-23.995-20.463h.005c-6.451 6.326-15.328 14.452-23.996 20.463-13.074 9.066-26.453 14.928-40.617 21.134-10.167 4.456-20.682 9.063-32.834 15.47-30.353 16-52.438 30.968-75.509 60.135-18.134 22.926-30.591 51.266-36.025 81.957-2.218 12.53-3.134 25.15-3.134 37.72 0 18.91 2.074 37.703 4.915 55.894l.128-.001z" style="fill:url(#c);fill-opacity:1;fill-rule:nonzero;stroke:none" transform="matrix(1.33333 0 0 -1.33333 -98.293 1018.283)"/><path d="M114.581 376.694c2.148 15.197 5.025 30.257 7.854 45.062 1.424 7.453 2.769 14.49 3.996 21.457 3.014 17.099 6.606 42.495 6.606 66.374 0 15.235-1.09 27.625-3.24 36.827-.53 2.272-1.12 4.461-1.75 6.6 45.702 3.317 82.817 18.416 94.46 23.638l.24.11 6.5 3c15.85 7.41 37.557 17.558 69.092 17.279l.346-.003.244.003.114.001c31.498.279 53.207-9.87 69.057-17.28l6.619-3.055.12-.054c11.642-5.223 48.758-20.321 94.46-23.638a120.19 120.19 0 0 1-1.75-6.601c-2.15-9.201-3.24-21.591-3.24-36.826 0-23.88 3.592-49.275 6.605-66.374 1.229-6.967 2.572-14.004 3.996-21.455 2.83-14.806 5.707-29.869 7.856-45.068l-.193.002H114.776l-.195.002z" style="fill:url(#d);fill-opacity:1;fill-rule:nonzero;stroke:none" transform="matrix(1.33333 0 0 -1.33333 -98.293 1018.283)"/><path d="M114.776 376.692h367.797l.193-.002c2.084-14.747 3.481-29.622 3.481-44.518 0-12.016-.902-22.954-2.759-33.442-4.727-26.707-15.485-51.261-31.107-71.012-20.486-25.898-39.6-38.836-67.706-53.652-11.37-5.994-21.473-10.42-31.241-14.7-14.618-6.406-29.724-13.025-44.751-23.445-3.202-2.22-6.544-4.763-10.01-7.595-3.465 2.832-6.809 5.374-10.01 7.594-15.028 10.42-30.134 17.04-44.743 23.442-9.777 4.284-19.878 8.71-31.248 14.704-28.107 14.816-47.221 27.754-67.707 53.652-15.623 19.75-26.38 44.305-31.107 71.012-1.857 10.488-2.76 21.426-2.76 33.442 0 14.896 1.398 29.774 3.483 44.522l.195-.002z" style="fill:url(#e);fill-opacity:1;fill-rule:nonzero;stroke:none" transform="matrix(1.33333 0 0 -1.33333 -98.293 1018.283)"/><path d="M233.683 349.408c-2.585 3.868-5.238 6.936-5.238 6.936s2.257 1.1 5.217 2.321l.264.122v-9.7l-.243.321m103.63 117.578c3.152.518 4.11 4.268 3.55 7.141-.557 2.873-1.915 4.35-3.271 4.988-1.357.638-2.673.48-2.673.48.08 3.191 1.077 7.46 2.194 11.29 1.03 3.531 1.516 5.547 1.277 8.739-.19 2.527-1.157 4.389-3.152 6.304s-3.75 2.473-3.75 2.473c.597.879.677 2.196.677 2.196-1.995-.04-4.19.359-4.19.359.48.757.56 1.835.56 1.835-4.51.398-7.023 2.434-8.459 4.788s-2.434 4.349-4.27 6.463c-1.835 2.116-3.471 4.021-3.471 4.021.08.6.12 2.124.12 2.124 1.356-1.755 6.305-4.708 6.305-4.708-1.637 2.394-2.036 5.546-2.036 5.546 2.513-.518 4.669-.04 4.669-.04-2.116 1.476-4.35 3.79-4.988 5.826-.638 2.034-.839 4.15-1.077 7.66-.24 3.512-.2 3.99.997 5.626 1.197 1.636 4.628 5.906 5.506 7.023.879 1.117-.599.519-3.35.319-2.754-.2-6.225-.08-8.7-.04-2.472.04-2.992-.718-4.987-2.514-1.995-1.795-3.51-2.992-4.908-4.11-1.397-1.117-2.314-1.076-4.308.12-1.995 1.197-2.994 2.234-4.39 3.512-1.397 1.277-2.514 2.832-4.27 2.793-1.755-.04-12.927.159-12.927.159.759-2.434 3.591-6.822 4.908-8.1 1.317-1.276 1.317-2.194.678-3.071-.638-.878-1.596-1.756-2.274-4.11-.679-2.354-.18-4.987-.18-4.987-1.934-.507-5.565-.08-5.565-.08 1.396-3.711 7.31-5.157 7.31-5.157-1.52-2.868-1.097-4.44-.722-5.337.373-.898.573-1.895 0-2.643-.574-.748-1.522-1.422-1.796-3.143-.274-1.72.149-3.366.149-3.366-2.668-.025-4.987-1.272-6.258-2.444-.468-.43-.736-.81-.893-1.182l-.375-.284c-4.976-3.385-8.244-9.095-8.244-15.566 0-7.666 4.585-14.26 11.162-17.192 0 0-4.432-1.66-7.311-3.27-2.237-1.248-2.786-3.002-2.507-4.675.337-2.02 1.459-3.255 1.459-3.255-1.908-1.795-4.003-4.9-4.19-7.743-.164-2.502.374-4.302.374-4.302.075-2.73.381-5.441.381-5.441-1.583-.634-5.244-2.25-7.313-4.396 0 0-1.383 2.607-5.4 7.993-4.019 5.387-6.926 7.61-8.294 9.747-1.368 2.138-2.052 6.327-2.052 6.327s-1.112-.94-3.249-5.9c-2.137-4.958-4.19-9.148-6.926-11.114 0 0-1.115 2.216-.683 7.182.513 5.9.085 12.398-2.737 17.955 0 0-4.53-.598-7.01-5.472-2.48-4.873-2.138-9.49-2.138-9.49s-2.43 2.536-3.42 6.497c-1.111 4.446-.086 9.063 1.795 11.8 0 0 3.678-.086 10.346-.086 6.67 0 12.398-.085 15.903 1.71 3.505 1.796 7.182 5.301 11.372 5.985 0 0-4.617 2.052-10.517 3.078 0 0 8.39 4.761 12.056 12.74 4.36 9.49 3.505 18.553 3.505 18.553s-4.703-5.814-10.089-7.267c-5.387-1.454-8.208-1.71-12.398-2.309-4.189-.598-6.84-2.394-9.405-5.045 0 0 .599 6.67-2.65 9.918-3.25 3.25-2.992 6.926-2.821 7.696 0 0-3.933-1.197-7.696-5.558-3.761-4.36-4.104-7.951-5.386-13.85-1.283-5.9-2.822-9.663-6.755-13.51-3.932-3.847-8.948-10.004-9.148-18.212-.257-10.516 3.932-15.732 3.932-15.732s-11.285-2.137-14.363 6.328c0 0-1.025-4.019 2.309-12.654 3.334-8.636 12.739-15.561 18.81-17.186 0 0-2.822-5.044-10.432-4.275 0 0-.428-2.735 5.301-5.13 6.197-2.59 12.85-3.464 21.461-1.796 11.03 2.138 15.222.168 15.222.168-1.833-1.374-3.63-2.511-5.375-3.33-4.888-2.294-11.155-3.309-19.85-1.497-9.577 1.995-13.522 3.88-16.659 3.292-3.192-.598-4.03-1.7-7.98-4.688-3.69-2.794-7.181-5.486-7.181-5.486s2.892-.997 5.386-3.791c2.494-2.793 4.787-5.587 8.678-5.785 0 0-4.988-5.088-7.581-9.477-2.593-4.388-5.422-10.779-3.491-20.249 2.01-9.855 8.165-16.073 12.17-19.45 0 0 .398-5.487.797-10.275.53-6.364.698-9.676 4.588-14.365 4.968-5.986 7.382-6.085 7.382-6.085s-1.496 2.395-1.297 3.99c.2 1.596.498 2.495 2.993 5.088 2.838 2.95 3.391 5.587 3.391 5.587s2.693-2.495 8.18-5.288c4.334-2.207 7.375-2.979 9.237-5.028l-1.112-.417c-4.912-1.905-7.493-4.95-8.025-7.522-.6-2.893-2.395-2.993-4.49-1.397-2.094 1.597-3.59 3.79-7.88 3.69-4.289-.099-8.179-2.493-8.179-2.493s2.693-.998 5.386-3.59c2.761-2.659 2.494-4.29 4.19-5.887 1.544-1.452 3.79-.897 3.79-.897s-.797-.999-3.091-3.292c-2.295-2.294-2.893-6.184-2.993-8.279-.1-2.095-.5-3.491-2.195-3.89-1.695-.399-2.593-1.397-1.496-2.395 1.097-.997 2.793-2.094 6.982-2.394 4.19-.298 6.185 2.196 6.983 8.081 0 0 .3-1.996.798-3.89.498-1.896 1.796-2.495 2.394-6.085.599-3.59.2-5.088.2-6.285s.498-2.493 2.394-1.496c1.895.998 4.788 4.988 6.384 12.069 0 0 1.396-2.293 4.588-2.293 2.285 0 3.752.51 4.401.8l.282.147v-7.618c0-8.783 3.085-11.212 12.413-16.868l52.338-30.814 52.33 30.814c9.328 5.656 12.412 8.085 12.412 16.868v7.818l-.013.455c.946.294 4.288 1.41 6.328 3.085 2.394 1.966 3.078 5.301 3.334 6.84.256 1.54.514 1.112.684-.855.172-1.966-.513-3.762-2.394-6.327-1.88-2.564-2.906-5.13-2.65-7.865.257-2.736 3.933-7.011 11.799-9.492 0 0 .17 2.823-.513 5.387-.683 2.565-.428 4.959.342 6.84.77 1.882 1.454 5.472 1.454 5.472s.427-2.82 1.025-4.36c.6-1.539 2.48-3.335 7.354-2.394 4.873.941 8.55 3.25 8.55 3.25s-1.197 1.623-2.822 2.906c-1.625 1.283-3.335 2.907-3.933 6.241-.599 3.335-1.026 5.044-2.395 6.327 0 0 2.48-1.539 3.592 1.198 1.111 2.736.855 4.874.942 6.24.085 1.37.768 1.883 2.478 4.105 1.71 2.222 1.796 4.616.77 6.926 0 0 2.394 7.78 6.327 14.62 3.932 6.84 7.01 11.115 10.26 16.416 3.249 5.3 8.635 14.535 8.892 26.505.256 11.97-8.037 18.896-11.115 20.436 0 0 2.992-.172 5.984.683 2.993.855 5.473 2.992 6.412 6.497.942 3.507 1.112 6.926 5.558 9.49 0 0-.94 1.113-3.59 1.198-2.651.085-4.532.342-7.098 2.394-2.564 2.052-7.694 2.822-17.355 1.368-9.662-1.453-24.168-1.067-30.78 1.283 0 0 .7.582 1.049.727 1.436.6 3.595 1.203 6.303 1.068 5.13-.256 10.603-1.624 14.535-1.967 3.933-.342 10.261.428 17.101 6.584 0 0-.855 0-3.506 1.026-2.118.82-3.932 1.71-5.472 3.164 0 0 5.472.683 8.55 3.42 3.078 2.735 4.105 5.643 5.985 9.661 1.881 4.019 7.44 5.986 7.44 5.986s-6.756 6.582-15.392 3.675c0 0 1.967 5.045.855 13.338-1.11 8.294-3.163 10.86-6.155 15.904-2.993 5.044-3.346 6.509-3.25 10.26.105 4.02.855 8.122-5.899 10.772-6.755 2.651-10.175 5.814-13.338 13.851 0 0-.512-3.077-.77-7.352-.255-4.275.6-7.097.6-7.097s-1.003 1.512-4.96 3.25c-3.506 1.538-6.242 1.11-10.516.94-4.275-.171-12.569-1.198-13.68 8.635 0 0-2.2-4.57-1.369-11.286 1.026-8.294 6.84-17.699 17.87-22.23 0 0-3.932-2.65-11.286-2.907 0 0 4.105-5.3 11.201-7.438 7.097-2.138 11.885.17 16.928 1.88 2.379.807 4.153 1.54 5.694 2.142l.402-.43c.813-1.015 2.14-3.163 2.198-6.414.085-4.702-1.368-8.806-1.368-8.806-2.65 5.215-6.84 5.984-8.806 6.326-1.967.343-3.677 3.164-3.677 3.164s-3.847-1.71-5.216-7.865c-.946-4.261 1.113-7.012 1.027-11.97-.085-4.96-2.821-7.183-2.821-7.183 0 3.335-.942 5.472-3.25 7.268-2.308 1.795-2.908 3.248-3.25 5.472-.341 2.222-.255 4.617-.255 4.617-7.867-1.454-10.432-7.182-11.286-12.227-.75-4.414-1.758-7.257-2-7.899l-.255.512c-4.51 6.872-9.862 14.978-13.766 19.118l.271.074M223.957 304.772c-.2-1.595-.4-3.989-.4-3.989s-.398 1.596-.798 3.69c-.4 2.095.151 3.472.898 3.192.798-.298.499-1.296.3-2.893m-8.68 3.193c-.797-1.097-1.894-3.89-1.894-3.89s-.145 1.904 0 2.992c.2 1.496 1.571 3.38 2.693 3.192.599-.1 0-1.196-.798-2.294m-4.34 65.54c-5.597-1.502-8.753-3.077-12.418-2.997-2.637.057-6.583 2.394-6.583 2.394 4.556 6.607 11.471 12.17 11.471 12.17s-.1-3.292 2.494-6.086c1.391-1.498 3.099-3.112 4.644-5.025l.392-.456m22.794-59.957c-1.165-.229-4.185-.732-7.083-.496-3.69.3-6.16 2.3-6.782 4.788-.798 3.192-.1 5.187 2.493 6.483 1.297.65 2.47.95 3.317 1.085l.842.207c.856-4.608-.368-10.369-.368-10.369s3.697 1.517 5.585 6.684a88.66 88.66 0 0 0 2.004 5.02l.186.466v-13.84l-.194-.028m-.057-19.068c-.477.178-1.07.529-1.44 1.215-.697 1.298-.997 3.292-.199 5.088.798 1.795.598 5.386.698 6.383.046.45.495.798.975 1.044l.217.104v-13.916l-.251.082m146.832 11.162s1.196-.514 1.71-2.052c.514-1.54.086-3.25.086-3.25s-.343 1.71-1.113 3.25c-.768 1.538-.683 2.052-.683 2.052m5.813 4.189c-2.82.085-5.156 1.3-4.53 1.624 2.137 1.11 4.53-1.624 4.53-1.624m2.908 27.788s-.94-2.736.17-5.643c1.113-2.908 2.566-3.42 4.362-5.216 1.796-1.795 1.625-2.566-.94-2.394-2.566.171-5.233.16-7.097-2.223-1.54-1.966-2.737-2.565-2.737-2.565s.008 2.29-1.026 4.788c-1.024 2.48-3.125 3.316-4.531 4.019-2.052 1.025-3.077 1.282-3.077 1.282s1.795 1.539 4.702 2.735c2.906 1.198 6.669 2.139 10.174 5.217m-17.271-9.918s-.428-2.308-1.196-3.506c-.77-1.197-1.967-.941-1.711.684.257 1.625 2.907 2.822 2.907 2.822m-8.538 21.123v9.801l.021.51c3.887-1.565 8.688-4.33 8.688-4.33s-5.132-2.327-8.718-6.434l.01.453m.007 55.753c.728.67 2.42 2.023 3.913 1.698 1.967-.427 2.224-2.48 2.822-7.867.6-5.386 1.665-11.481 4.36-16.415 4.018-7.353 7.951-10.602 14.45-11.543 0 0 .171 2.65 1.71 6.327 1.54 3.678 3.334 5.815 3.334 5.815 6.67-1.368 11.886-5.387 11.886-5.387-5.387-6.499-11.63-7.352-16.759-7.097-5.13.256-10.003.77-15.903-.512-4.777-1.037-8.544-3.534-9.806-4.447l-.015.51v38.565l.008.353m-129.5-16.925V368.04l-.395.572c-4.329 6.274-8.11 7.46-15.017 6.471l.454.911c2.793 5.287 2.793 10.175 3.69 13.666.899 3.491 3.193 6.584 3.193 6.584s.472-3.773 7.743-8.384l.331-.208z" style="fill:#231f20;fill-opacity:1;fill-rule:nonzero;stroke:none" transform="matrix(1.33333 0 0 -1.33333 -98.293 1018.283)"/><path d="M232.866 427.986c2.79 2.266 5.654 5.011 8.547 7.958a1782.44 1782.44 0 0 1 10.668 10.942s-2.816 4.875-6.75 9.663c-3.933 4.788-8.208 8.208-8.806 12.055 0 0-.855-2.222-2.65-5.984-1.796-3.762-3.677-7.695-7.524-9.491 0 0-1.967 2.565-1.454 7.695.513 5.13.513 8.892-.342 12.312s-1.71 5.216-1.71 5.216-3.933-.77-5.729-5.644c-1.795-4.873-1.71-11.286-1.71-11.286s-2.727 1.924-4.702 6.157c-1.795 3.847-1.88 6.754-1.111 10.516.673 3.291 1.795 4.96 1.795 4.96s-4.702-.685-9.148-3.848c-4.447-3.164-8.55-5.473-7.525-18.896 0 0-9.575-2.394-14.79 2.907 0 0 .857-6.166 5.556-13.081 5.985-8.807 16.416-11.457 16.416-11.457s-1.71-6.242-10.687-6.413c0 0 3.334-3.078 10.175-4.36 6.84-1.283 10.174-.856 18.98.769 7.135 1.316 12.501-.69 12.501-.69z" style="fill:url(#f);fill-opacity:1;fill-rule:nonzero;stroke:none" transform="matrix(1.33333 0 0 -1.33333 -98.293 1018.283)"/><path d="M193.348 462.876s-.497 3.586.94 8.379c1.795 5.985 8.155 11.003 15.133 12.483 5.643 1.197 11.372.428 18.64.684 5.56.197 9.062.257 12.14 2.65 3.079 2.394 6.413 3.677 6.413 3.677s-5.9 1.88-9.661 2.907c0 0 5.47 3.078 9.234 7.011 3.762 3.933 7.181 9.49 7.951 21.119 0 0-3.506-3.677-8.892-5.216-5.387-1.539-8.721-1.368-12.825-2.308-4.104-.941-7.78-4.019-10.26-7.096 0 0 .341 4.188.086 7.181-.257 2.993-1.625 4.275-2.908 6.07-1.282 1.796-2.394 3.506-2.394 5.9 0 0-4.104-2.48-6.241-4.96-2.138-2.479-3.164-7.095-4.019-11.798-.854-4.702-2.309-9.405-6.583-14.108-4.275-4.702-8.745-9.764-9.32-15.903-1.026-10.944 2.566-16.672 2.566-16.672z" style="fill:url(#g);fill-opacity:1;fill-rule:nonzero;stroke:none" transform="matrix(1.33333 0 0 -1.33333 -98.293 1018.283)"/><path d="M314.82 480.907c1.17-2.003 2.657-5.406 3.135-8.536v-.387c-.852-.117-3.256-.345-5.57.383-1.304.41-2.5 1.008-3.421 1.543-1.402.897-2.019 1.35-2.77 2.307-.678.776-1.327 1.713-2.38 3.232l-.39.561-2.235 3.286-.217.353c1.038.278 4.546 1.123 7.77.843 1.115-.098 2.238-.472 3.177-.924 1.026-.492 2.083-1.126 2.901-2.66zM330.834 470.992c-.105 1.304-.519 2.9-1.29 5.004l-1.017 2.621-.132.369c1.36-.045 2.689-.126 3.987-.207l3.654-.188c.765-.023 1.448-.37 2.032-1.032 1.235-1.4 1.717-3.827 1.554-5.5-.17-1.76-.757-3.08-1.651-3.716-.612-.436-1.374-.546-2.267-.33-2.259.548-4.208 2.085-4.793 2.58l-.077.399zM293.427 474.706c-1.677 1.139-3.51 2.7-5.168 4.11-.57.487-1.105.955-1.602 1.353-1.04.834-1.58 1.074-2.242 1.365-.915.402-2.488.674-4.333.479-2.157-.227-3.408-1.01-4.028-1.544l-.309-.295c1.24-1.12 2.629-3.638 3.45-5.535.31-.616.559-.773.977-.9 1.338-.323 3.893-.843 6.541-.843 2.893 0 5.824 1.01 7.081 1.501z" style="fill:#2b6abc;fill-opacity:1;fill-rule:nonzero;stroke:none" transform="matrix(1.33333 0 0 -1.33333 -98.293 1018.283)"/><path d="M305.415 404.281h56.927V343.21l-.016-.358-63.65 28.075-63.36-27.945-.312-.148v61.448h33.671l.48-.009c.52-1.403 1.181-2.897 2.018-4.57 3.441-6.882 9.997-9.634 10.274-9.747l.12-.049.123.037c.06.02 6.164 1.926 10.176 4.487 3.987 2.544 7.99 5.214 13.053 9.82l.496.031z" style="fill:#fff;fill-opacity:1;fill-rule:nonzero;stroke:none" transform="matrix(1.33333 0 0 -1.33333 -98.293 1018.283)"/><path d="M394.188 484.679c3.763.585 7.488-.289 9.576-2.566 2.821-3.077 3.543-9.147 3.59-13.08.085-7.097-2.394-10.603-2.394-10.603s3.42 1.71 7.695 1.625c4.276-.086 8.037-2.908 8.037-2.908s-4.53-.684-6.67-6.07c-2.136-5.386-5.47-11.799-16.244-12.483 0 0 1.795-1.966 4.787-3.677 2.994-1.71 4.789-1.795 4.789-1.795s-1.946-1.304-5.472-2.907c-2.821-1.282-6.412-1.966-13.68-.77-8.254 1.36-13.487 2.099-19.68-1.182l-.558.258c-5.218 2.848-9.6 7.963-12.936 12.895a372.704 372.704 0 0 0-2.407 3.617l-.476.844c2.223 4.968 1.671 7.743 3.054 12.296 1.744 5.746 8.037 7.781 8.037 7.781s-.426-3.402.94-5.985c1.54-2.907 3.335-2.992 4.96-6.07 1.625-3.078.085-6.755.085-6.755 6.327 3.762 6.07 7.01 6.07 11.714 0 4.702-2.137 7.01-1.025 10.858 1.111 3.847 3.59 5.9 3.59 5.9s1.368-1.882 3.164-2.737c1.795-.855 2.65.172 5.3-1.795 2.653-1.967 4.448-6.584 4.448-6.584s4.103 7.182 2.65 13.937c-.615 2.856-1.549 4.564-2.15 5.433 0 0 1.68.615 2.92.809z" style="fill:url(#h);fill-opacity:1;fill-rule:nonzero;stroke:none" transform="matrix(1.33333 0 0 -1.33333 -98.293 1018.283)"/><path d="M403.73 484.272s-2.094 2.245-8.228 2.021c-4.19-.153-10.924-3.067-15.337-4.788-4.415-1.721-8.903-2.02-14.438.075-5.538 2.094-6.884 3.964-6.884 3.964 8.005 1.048 10.549 4.49 10.549 4.49-9.052 3.142-15.113 10.997-17.432 16.458-2.32 5.462-1.57 11.745-1.57 11.745s1.047-2.992 4.637-4.413c3.592-1.422 4.863-.898 10.326-.599 4.78.262 8.827 0 15.634-5.91 0 0-.448 3.217-.748 7.257-.199 2.686.3 4.788.3 4.788s1.795-3.367 4.788-5.686c2.992-2.319 4.264-2.842 7.032-4.04 2.768-1.197 5.367-2.32 5.237-7.107-.15-5.536-.374-7.856 1.87-11.446 2.115-3.384 4.264-6.809 4.264-6.809z" style="fill:url(#i);fill-opacity:1;fill-rule:nonzero;stroke:none" transform="matrix(1.33333 0 0 -1.33333 -98.293 1018.283)"/><path d="M270.744 505.325c-1.119 1.118-1.038 3.352-.972 5.148l.03 1.181c0 1.85 2.173 3.732 4.948 4.287 2.85.57 3.706.134 3.9-.013.133-.1.155-.198.16-.261.065-.85-.265-1.366-1.03-2.2-1.037-1.132-1.509-2.586-1.44-4.445.071-1.907.026-2.57-1.378-3.834-1.385-1.247-2.883-1.199-4.218.137zM293.875 529.869c-.089.22.05.55.348.821.745.678 1.78.954 3.574.954l.702.003c1.361.007 2.345.012 2.839-.316.3-.2 1.003-.67 1.062-1.141.023-.181-.053-.366-.232-.565-.356-.395-2.491-.331-4.049-.285l-2.503.03c-1.41-.043-1.69.37-1.741.499zM314.371 549.295l2.815 3.798c1.261 1.653 1.957 2.636 2.32 3.173-.916.01-7.286.09-10.014.124-.71.01-1.564-.304-1.861-.581a124.45 124.45 0 0 0-2.3-2.098l-.377-.276a14.41 14.41 0 0 0 3.718-.589c2.164-.643 4.536-2.732 5.589-3.738zM290.271 553.572c-1.098-.003-2.46-.045-3.665-.19-1.992-.241-4.112-.86-6.211-3.579l-.348.54c-.312.47-.663.96-1.038 1.473-1.517 2.072-2.441 3.551-2.881 4.288l10.571-.065c.51-.002 1.125-.212 1.462-.484l2.412-1.953-.302-.03z" style="fill:#fee111;fill-opacity:1;fill-rule:nonzero;stroke:none" transform="matrix(1.33333 0 0 -1.33333 -98.293 1018.283)"/><path d="M291.069 552.849c-1.156.014-2.91-.002-4.377-.18-2.173-.264-4.027-.982-5.906-3.538l.15-.305c.317-.656.502-1.266.502-1.84 0-.66-.247-1.272-.819-1.845-1.54-1.54-2.318-3.967-2.318-7.223 0-.182.01-.373.014-.56.873.397 1.967 1.239 2.768 3.092 1.515 3.508 3.083 7.01 4.292 8.88 1.797 2.775 4.684 3.095 6.988 2.824l-.82.665-.474.03zM292.96 541.733c1.853.735 3.125 1.013 3.86 1.117l.283.036c-.29.7-.603 1.431-.913 2.12l-.09.196c-2.48-.33-3.972-1.283-4.641-1.824l.116-.22a9.2 9.2 0 0 1 1.195-1.516l.19.091zM291.762 541.229c-1.503-.677-2.636-1.378-3.565-2.171l.427 1.29c.41 1.167.971 2.765 1.64 4.15l.056-.285c.302-1.14 1.118-2.191 1.711-2.839l-.27-.145zM290.976 545.506c-.085-.394-.045-.803.072-1.205l.103-.245c.781.6 2.28 1.48 4.654 1.83l-.235.337c-.493.797-1.033 1.275-1.613 1.425-.566.146-1.24.031-1.857-.522-.514-.46-.988-.985-1.124-1.62zM301.285 544.893a15.497 15.497 0 0 1-.882-1.787l-.138-.36c1.083-.042 2.792-.18 4.492-.604l.339-.061c.126.358.231.71.315 1.054l.076.324c-1.234 1.02-2.992 1.478-4.048 1.672l-.154-.238zM306.304 546.693c.261-1.305.078-3.098-.526-4.833l.252-.097c1.08-.38 2.09-.901 2.85-1.62l-.049.287c-.45 1.95-.958 3.879-1.774 5.393-.28.519-.56.937-.844 1.258l.09-.388zM305.44 547.11c.23-.592.326-1.483.222-2.535l-.053-.304c-1.189.853-2.66 1.288-3.702 1.505 0 0 .087.234.42.575.679.697 1.254 1.181 1.786 1.386.39.151.964.266 1.326-.627zM277.871 517.34c-.442.986-.345 2.23-.217 3.247.072.578.474 1.108.901 1.67.361.475.734.968.95 1.54.504 1.347.141 2.816-.32 3.665-.207.378-.088.774.14 1.442l.346 1.241c.135.762.994 1.715 1.564 2.256l.474.135c.561.131 1.123.368 1.693.736.411.265.805.566 1.179.893l-.416-.718c-2.185-3.992-2.357-7.707-2.363-7.863l-.03-.745.6.44c1.574 1.155 3.268 1.935 4.098 2.285-.245-3.165-.77-7.067-.775-7.108l-.151-1.113.768.819c2.598 2.767 4.09 5.843 5.407 8.557l1.305 2.588c.24.44.496.836.763 1.19l.154.211c.224-.243.551-.5 1.026-.7l-.365-.198a3.72 3.72 0 0 1-.863-.588c-.534-.487-.738-1.108-.53-1.622.066-.163.18-.335.373-.487l-.241-.325-.925-1.364c-.695-.974-.447-1.711.002-3.05l.396-1.227c1.117-3.089 1.84-4.66 1.84-4.66s1.07 3.173 1.255 3.666c.53-1.396 1.297-3.08 1.336-3.167l.388-.849.282.89c.274.87.787 1.868 1.126 2.482.563-1.237 1.102-2.842 1.107-2.862l.205-.61.412.495c.018.02.437.531.602 1.437.136.752.497 2.16.934 2.96.273.501.39 1.143.495 1.709.071.39.144.794.25.977.42.738.441 1.92-.412 2.348-.25.124-.423.87-.423.87.209.08.373.181.49.312.28.31.422.64.422.979 0 .05-.004.103-.01.155-.088.703-.746 1.228-1.378 1.649l-.185.128c.195.092.385.203.575.338l.168-.205a27.13 27.13 0 0 0 1.406-2.094c.858-1.401 1.62-3.048 2.232-4.535.95-2.317 1.865-4.262 1.865-4.262s.667 1.977.948 3.894l.426 2.903c.344-.98.815-2.414 1.22-4.034l.34-1.358.758 3.33c.064-.735.108-1.7.108-2.963 0-.468-.007-.978-.019-1.532l-.29-13.825c-.723.215-2.179.697-3.117 1.322l-.689.46.136-.817c.01-.07 1.095-6.68 1.183-9.673-.486.04-1.484.269-2.58 1.515l-.931 1.06.311-1.377c.007-.032.73-3.271.443-6.169-.33-3.292-1.059-4.877-2.295-4.99-1.16-.106-2.468 1.673-2.873 2.368l-.476.811-.186-.92c-.01-.046-.856-4.217-1.27-6.885l-.51.088c-1.736.143-4.266.245-6.657-.056l.367.354a18.123 18.123 0 0 1 5.574 13.085c0 10.02-8.154 18.174-18.175 18.174 0 0-.175.48-.674.878-.499.399-.997.399-.997.399z" style="fill:#fee111;fill-opacity:1;fill-rule:nonzero;stroke:none" transform="matrix(1.33333 0 0 -1.33333 -98.293 1018.283)"/><path d="M301.563 528.412c.117-.402.32-.811.672-1.047.264-.176.36-.453.36-.733 0-.241-.073-.484-.173-.66-.166-.29-.243-.714-.333-1.205-.094-.513-.2-1.094-.42-1.495-.513-.942-.885-2.488-1.009-3.174a3.06 3.06 0 0 0-.11-.42c-.282.777-.735 1.953-1.164 2.768l-.296.558-.33-.54a20.66 20.66 0 0 1-1.216-2.383c-.388.88-.99 2.294-1.276 3.202l-.29.923-.382-.89c-.035-.082-.684-1.61-1.057-3.11a70.15 70.15 0 0 0-1.038 3.148l-.401 1.25c-.255.757-.4 1.214-.4 1.58 0 .296.094.533.301.822l1.063 1.57.152.222c.352-.106.814-.165 1.421-.146l2.46-.03c1.45-.043 2.585-.066 3.388.042l.078-.252zM301.504 533.166c-1.123 1.28-2.144 1.95-3.052 1.995-1.045.052-2.494-.406-3.827-1.706l-.187-.227c.329-.379 1.055-.866 2.61-.866l.981-.007c1.75-.018 2.732-.028 3.645.601l-.17.21z" style="fill:#fee111;fill-opacity:1;fill-rule:nonzero;stroke:none" transform="matrix(1.33333 0 0 -1.33333 -98.293 1018.283)"/><path d="M313.377 453.352c3.267 2.648 4.947 4.358 4.947 6.51 0 .983-.35 2.057-1.06 3.355-1.137 2.08-2.383 3.221-3.703 3.392-1.483.192-2.777-.911-3.416-1.586-.774-.816-1.039-1.949-1.32-3.148-.248-1.052-.487-2.15-1.115-3.122-.6-.926-1.038-1.192-1.417-2.125-.643-1.526-.77-3.36.103-4.62.319-.46.798-.745 1.428-.847.878-.142 1.956.062 2.918.488.857.38 1.645.93 2.635 1.703z" style="fill:#fff;fill-opacity:1;fill-rule:nonzero;stroke:none" transform="matrix(1.33333 0 0 -1.33333 -98.293 1018.283)"/><path d="M298.677 193.701c35.361 0 73.665 6.883 94.463 18.553 19.783 11.101 22.743 16.16 22.893 19.75.118 2.842-1.372 3.356-3.941 7.133-2.543 3.74-1.795 6.883-1.795 6.883s6.306-1.048 10.474 2.394c4.59 3.791 5.585 7.68 3.79 11.272-1.795 3.591-3.292 5.187-3.69 12.369-.306 5.481 1.196 8.18-.2 12.768-.638 2.095-1.577 3.453-2.322 4.268l-.226.3c1.755 1.783 2.164 3.74.853 7.602-1.697 4.987-7.082 4.288-12.17.697-5.087-3.59-8.279-7.38-8.279-7.38s2.388-3.06 3.192-5.586c.902-2.837 1.054-7.13 1.05-9.814l-.013-.488c-6.041.68-19.177 2.118-26.903 1.922-7.829-.198-12.58-.95-15.272-4.344-2.304-2.906-2.166-6.981-1.937-13.73l.084-2.609c.278-9.695.62-14.642 4.334-19.743l-.297-.09c-20.038-5.48-43.837-7.988-64.088-7.863h-.008c-20.252-.125-44.05 2.383-64.088 7.863l-.297.09c3.714 5.1 4.055 10.048 4.334 19.743l.084 2.609c.23 6.749.367 10.824-1.938 13.73-2.69 3.395-7.443 4.146-15.271 4.344-7.727.196-20.863-1.241-26.903-1.922l-.014.488c-.004 2.684.149 6.977 1.05 9.814.804 2.526 3.193 5.586 3.193 5.586s-3.192 3.79-8.28 7.38c-5.087 3.591-10.473 4.29-12.169-.697-1.312-3.861-.902-5.82.852-7.602l-.226-.3c-.743-.815-1.684-2.173-2.321-4.268-1.396-4.589.105-7.287-.2-12.768-.399-7.182-1.895-8.778-3.691-12.37-1.795-3.591-.798-7.48 3.791-11.27 4.169-3.443 10.474-2.395 10.474-2.395s.747-3.142-1.796-6.883c-2.569-3.777-4.058-4.291-3.94-7.132.15-3.59 3.11-8.65 22.893-19.751 20.797-11.67 59.101-18.553 94.463-18.553h.008z" style="fill:#231f20;fill-opacity:1;fill-rule:nonzero;stroke:none" transform="matrix(1.33333 0 0 -1.33333 -98.293 1018.283)"/><path d="M330.088 471.22c-.136 1.19-.535 2.664-1.219 4.528l-1.158 2.99-.138.269c-.366.008-.733.012-1.102.012h-.195l-.106.163c-.01.014-.922 1.394-2.692 2.36-1.372.748-5.892.617-7.915.516l-.602-.033c1.268-1.933 3.166-5.97 3.712-9.616l.1-.468c.83-.212 3.134-.764 5.945-1.1 2.725-.323 4.664-.145 5.39-.05l-.02.429zM278.439 473.4c-1.179-1.321-3.925-3.04-6.109-4.405-2.36-1.476-4.213-1.534-6.006-.189-1.619 1.214-2.935 3.425-2.935 4.928 0 1.225.69 2.32 4.051 3.686 3.815 1.55 5.503 2.163 6.562 2.343.789-.016 1.359-.12 1.822-.704.879-1.06 1.855-2.787 2.549-4.326.309-.672.365-.997.066-1.332zM296.044 474.118c.952-.296 2.401-.584 4.24-.452 2.382.17 4.518.808 5.639 1.199l.383.188c-1.002.986-1.724 2.026-3.082 3.987l-.389.56-2.45 3.602-.264.404c-1.427.18-6.463.707-10.157-.216-2.328-.582-3.387-1.407-3.808-1.84l2.57-2.186c1.454-1.238 3.045-2.594 4.531-3.663 1.023-.78 1.97-1.376 2.787-1.583zM287.069 505.28c-2.96-1.262-12.944-5.6-17.41-8.528l-.362-.261c.486-1.667 1.202-3.598 2.247-5.53l.288.046c10.759 1.922 17.014 7.226 18.925 9.082l-.126.279a21.333 21.333 0 0 1-3.303 5.005l-.26-.092z" style="fill:#fff;fill-opacity:1;fill-rule:nonzero;stroke:none" transform="matrix(1.33333 0 0 -1.33333 -98.293 1018.283)"/><path d="M262.848 502.996a17.395 17.395 0 0 1-.762-5.107c0-7.722 5.039-14.288 12.001-16.584l.391-.137.065 4.465c-5.697 5.857-6.788 14.14-6.934 15.526l-4.718 2.05-.043-.213zM269.055 510.499c-.071-1.935-.193-4.377 1.18-5.682.32-.304.7-.638.7-.638-1.122-.706-2.176-1.495-3.09-2.373l-.229.133-4.499 1.954.14.28a17.543 17.543 0 0 0 5.84 7.694l-.042-1.368z" style="fill:#fff;fill-opacity:1;fill-rule:nonzero;stroke:none" transform="matrix(1.33333 0 0 -1.33333 -98.293 1018.283)"/><path d="M272.041 503.697c1.14-.325 2.33-.008 3.402.957.546.492.917.917 1.164 1.349l.141.242a50.382 50.382 0 0 0 6.79 2.122l.316.043c.401-.25 1.578-1.04 2.958-2.48l-.245-.08c-3.205-1.368-12.684-5.5-17.19-8.424l-.293-.17c-.44 1.672-.643 3-.727 3.681l-.069.3c.106.102.213.202.322.302.91.829 1.958 1.576 3.07 2.246l.361-.088zM291.167 499.151c.386-.947.729-1.976 1.013-3.09l.053-.31c-.773-1.231-6.508-9.763-16.832-9.635l-.38.047a21.422 21.422 0 0 0-3.1 4.128l.404.076c10.406 1.95 16.619 7.012 18.761 9.044l.081-.26zM293.03 495.192l-.24.099c-.353-.552-1.31-1.951-2.857-3.53l-.206-.221 3.765-3.611.222-.221a17.386 17.386 0 0 1 2.818 6.164l-3.502 1.32z" style="fill:#fff;fill-opacity:1;fill-rule:nonzero;stroke:none" transform="matrix(1.33333 0 0 -1.33333 -98.293 1018.283)"/><path d="M289.098 490.95c-2.896-2.687-7.408-5.555-13.472-5.554l-.369-.001-.063-4.376.288-.092c.67.616 2.057 1.541 4.525 1.8 2.719.287 4.767-.51 5.484-.843.418.495 1.569 1.52 4.299 2.203.207.052.417.099.63.142l.385.333a17.687 17.687 0 0 1 2.46 2.548l-.166.201-3.906 3.746-.095-.107zM284.679 514.574c7.126-2.199 12.32-8.847 12.32-16.685 0-1.118-.106-2.211-.308-3.27l-.307.113-3.452 1.261c-2.113 8.647-7.612 12.366-8.69 13.022l.056 5.65.38-.091zM283.196 514.96a17.368 17.368 0 0 1-3.654.384l-.048-.382c-.125-.702-.53-1.266-1.183-1.98-.905-.986-1.314-2.272-1.253-3.934.023-.618.03-1.13-.013-1.58l-.021-.33a49.639 49.639 0 0 0 6.203 1.896l.298.076.057 5.755-.386.095z" style="fill:#fff;fill-opacity:1;fill-rule:nonzero;stroke:none" transform="matrix(1.33333 0 0 -1.33333 -98.293 1018.283)"/><path d="M232.538 236.401c-3.12.897-6.14 1.87-9.03 2.915-23.998 8.69-30.674 14.385-29.627 20.819 1.048 6.433 9.427 5.237 14.365 3.292 4.938-1.946 11.384-5.083 18.703-4.639 3.893.235 7.506 1.866 9.668 5.113.214.322.942 1.695.942 1.695.163-2.566-.019-5.8-.137-9.9-.284-9.878-.569-14.329-4.557-19.383l-.327.088z" style="fill:url(#j);fill-opacity:1;fill-rule:nonzero;stroke:none" transform="matrix(1.33333 0 0 -1.33333 -98.293 1018.283)"/><path d="M364.808 236.401c3.119.897 6.14 1.87 9.03 2.915 23.998 8.69 30.674 14.385 29.627 20.819-1.048 6.433-9.427 5.237-14.365 3.292-4.938-1.946-11.385-5.083-18.703-4.639-3.893.235-7.507 1.866-9.668 5.113-.214.322-.942 1.695-.942 1.695-.164-2.566.019-5.8.136-9.9.285-9.878.57-14.329 4.557-19.383l.328.088z" style="fill:url(#k);fill-opacity:1;fill-rule:nonzero;stroke:none" transform="matrix(1.33333 0 0 -1.33333 -98.293 1018.283)"/><path d="M180.22 288.008a7.426 7.426 0 0 1-2.05-3.284c-.427-1.408-.62-2.57-.627-3.753-.009-1.573.291-3.106 1.675-4.228 1.196-.97 2.18-1.815 3.48-2.283 2.118-.767 4.831-.8 9.239-.335.35.036.859.094 1.498.166 0 0-.053 1.564-.043 2.003.03 1.342.113 2.888.282 4.419.038.347.352 2.351.352 2.351a7.596 7.596 0 0 1-2.788 1.061c-1.975.344-5.727.635-9.276 3.092-.524.363-1.005.706-1.44 1.043l-.303-.252z" style="fill:url(#l);fill-opacity:1;fill-rule:nonzero;stroke:none" transform="matrix(1.33333 0 0 -1.33333 -98.293 1018.283)"/><path d="M417.127 288.008a7.43 7.43 0 0 0 2.048-3.284c.428-1.408.622-2.57.628-3.753.008-1.573-.292-3.106-1.676-4.228-1.195-.97-2.18-1.815-3.479-2.283-2.119-.767-4.832-.8-9.239-.335-.35.036-.86.094-1.499.166 0 0 .054 1.564.043 2.003a52.103 52.103 0 0 1-.281 4.419c-.038.347-.353 2.351-.353 2.351a7.599 7.599 0 0 0 2.788 1.061c1.976.344 5.728.635 9.278 3.092.523.363 1.004.706 1.44 1.043l.302-.252z" style="fill:url(#m);fill-opacity:1;fill-rule:nonzero;stroke:none" transform="matrix(1.33333 0 0 -1.33333 -98.293 1018.283)"/><path d="m191.236 284.919-.87.139c-2.017.306-5.065.773-7.93 2.756-2.566 1.778-3.645 3.29-3.645 5.4 0 .907.237 1.994.713 3.393.463 1.362 1.224 2.199 2.327 2.557 1.949.633 4.948-.283 8.019-2.451a49.164 49.164 0 0 0 7.428-6.48c-.798-1.126-2.183-3.234-2.792-5.147-.076-.24-.164-.903-.23-1.16-.685.386-1.795.78-3.02.993zM403.09 283.926c-.068.257-.153.92-.23 1.16-.61 1.913-1.995 4.021-2.793 5.146a49.139 49.139 0 0 0 7.43 6.48c3.07 2.169 6.068 3.085 8.019 2.452 1.102-.358 1.863-1.195 2.326-2.557.475-1.399.713-2.486.713-3.393 0-2.11-1.078-3.622-3.645-5.4-2.865-1.983-5.913-2.45-7.93-2.756l-.87-.14c-1.225-.212-2.337-.606-3.02-.992z" style="fill:#2b6abc;fill-opacity:1;fill-rule:nonzero;stroke:none" transform="matrix(1.33333 0 0 -1.33333 -98.293 1018.283)"/><path d="M298.677 195.496c36.444 0 74.052 7.364 93.584 18.324 19.472 10.928 21.869 15.655 21.977 18.26.053 1.244-.216 1.622-1.49 3.201-.582.722-1.307 1.62-2.14 2.847-2.956 4.346-2.096 8.148-2.057 8.309l.386 1.622 1.65-.267c.057-.01 5.571-.858 9.04 2.007 3.696 3.053 4.816 6.108 3.329 9.083l-.804 1.54c-1.458 2.732-2.716 5.09-3.075 11.534-.082 1.491.117 3.007.315 4.334l.08.614a8.746 8.746 0 0 0-.696-.76c-3.292-3.192-6.684-3.79-13.666-2.992-6.983.798-21.247 2.198-29.227 1.995-7.88-.2-12.084-.986-14.364-3.89-1.596-2.033-1.471-4.926.131-7.108 1.921-2.616 4.949-4.231 8.802-4.464 6.18-.375 11.82 1.93 16.35 3.78l1.97.797c3.857 1.52 9.184 2.458 12.565.536 1.665-.948 2.68-2.468 3.013-4.519 1.029-6.319-4.65-11.515-20.435-18.047-2.907-1.203-6.142-2.494-9.771-3.76-16.84-5.868-22.22-6.538-30.788-8.261-14.202-2.41-29.622-3.686-44.687-3.592h.009c-15.066-.094-30.487 1.183-44.688 3.592-8.568 1.723-13.949 2.393-30.788 8.262-3.63 1.265-6.864 2.556-9.771 3.76-15.786 6.53-21.463 11.727-20.435 18.046.333 2.051 1.348 3.57 3.013 4.519 3.381 1.922 8.708.983 12.566-.536l1.97-.796c4.53-1.852 10.168-4.156 16.35-3.781 3.852.233 6.88 1.848 8.8 4.464 1.603 2.182 1.728 5.075.132 7.108-2.28 2.904-6.484 3.69-14.364 3.89-7.98.203-22.244-1.197-29.227-1.995-6.982-.798-10.374-.2-13.665 2.993a8.606 8.606 0 0 0-.698.76l.081-.615c.198-1.327.397-2.843.314-4.334-.357-6.444-1.616-8.802-3.073-11.533l-.804-1.541c-1.487-2.975-.368-6.03 3.328-9.083 3.47-2.865 8.984-2.017 9.04-2.007l1.65.267.387-1.622c.038-.16.897-3.963-2.058-8.31-.833-1.226-1.558-2.124-2.14-2.846-1.274-1.579-1.543-1.957-1.49-3.2.108-2.606 2.505-7.333 21.977-18.26 19.531-10.96 57.14-18.325 93.584-18.325h.008z" style="fill:url(#n);fill-opacity:1;fill-rule:nonzero;stroke:none" transform="matrix(1.33333 0 0 -1.33333 -98.293 1018.283)"/><path d="m198.785 224.165 2.987 5.06-3.043 1.797-2.987-5.06-3.424 2.022 7.632 12.93 3.424-2.022-2.757-4.672 3.043-1.797 2.758 4.672 3.424-2.022-7.633-12.928zM208.412 225.052l3.717 8.765 3.7-1.568-3.726-8.786c-.484-1.14-.201-2.092.884-2.552 1.084-.459 1.964 0 2.447 1.138l3.726 8.787 3.699-1.568-3.708-8.746c-1.423-3.357-4.369-4.431-7.624-3.05-3.234 1.37-4.53 4.243-3.115 7.58zM221.304 214.068l3.968 14.48 5.113-1.4c3.977-1.091 5.539-4.623 4.349-8.964-1.196-4.365-4.32-6.612-8.297-5.522l-5.133 1.406m9.535 5.183c.672 2.453.147 3.88-1.435 4.314l-1.279.35-2.005-7.315 1.278-.351c1.501-.41 2.81.701 3.44 3.002zM235.947 210.238l2.873 14.736 5.203-1.014c4.047-.79 5.87-4.195 5.008-8.612-.866-4.442-3.814-6.917-7.86-6.13l-5.224 1.02m9.12 5.881c.486 2.496-.144 3.882-1.755 4.195l-1.3.254-1.452-7.446 1.3-.253c1.529-.299 2.75.908 3.206 3.25zM250.51 207.51l2.117 14.865 8.769-1.249-.523-3.678-4.833.689-.26-1.826 4.686-.668-.524-3.678-4.686.668-.286-2.006 4.832-.688-.524-3.677zM268.879 205.235l-1.091 4.994-1.006.1-.478-4.839-3.956.39 1.477 14.942 6.155-.608c2.889-.286 4.47-2.682 4.197-5.437-.247-2.508-1.546-3.67-2.523-4.138l1.6-5.836-4.375.432m1.272 9.872c.09.896-.453 1.403-1.165 1.473l-1.57.155-.268-2.71 1.57-.156c.712-.07 1.344.342 1.433 1.238zM275.36 206.383l2.034 3.13a4.74 4.74 0 0 1 3.397-1.773c.734-.042 1.3.263 1.332.825.095 1.664-6.15 1.142-5.844 6.49.14 2.427 2.04 4.71 5.484 4.511 1.848-.106 3.494-.81 4.669-2.003l-1.987-3.042a4.675 4.675 0 0 1-3.04 1.39c-.734.042-1.028-.3-1.053-.75-.09-1.574 6.097-1.343 5.807-6.398-.175-3.057-2.302-4.873-5.557-4.687-2.416.138-4.054.976-5.242 2.307zM288.553 203.963l.29 15.01 8.855-.171-.071-3.712-4.88.094-.036-1.845 4.732-.092-.07-3.714-4.734.09-.11-5.737-3.976.077zM300.081 203.818l-.166 15.014 3.975.044.167-15.013-3.976-.045zM307.182 203.912l-.616 15.001 8.85.362.152-3.71-4.877-.2.077-1.844 4.73.194.15-3.712-4.729-.193.083-2.024 4.876.2.152-3.712-8.848-.362zM318.97 204.451l-1.148 14.97 3.964.306.865-11.268 4.322.332.283-3.703zM330.105 205.328l-1.765 14.91 5.265.623c4.094.486 6.87-2.2 7.399-6.672.532-4.493-1.519-7.75-5.613-8.234l-5.286-.627m6.888 8.387c-.299 2.525-1.322 3.652-2.952 3.459l-1.315-.155.891-7.535 1.317.156c1.545.183 2.34 1.706 2.06 4.075zM351.91 208.411l-2.072 11.109-2.854-.533-.681 3.652 9.617 1.793.68-3.65-2.832-.53 2.07-11.108zM358.962 217.31c-1.12 4.455.513 8.137 4.308 9.092 3.794.954 6.976-1.518 8.096-5.971 1.114-4.433-.513-8.137-4.307-9.091-3.795-.955-6.983 1.539-8.097 5.97m8.487 2.135c-.571 2.27-1.793 3.681-3.262 3.31-1.47-.368-1.859-2.184-1.288-4.453.566-2.25 1.774-3.687 3.242-3.317 1.468.369 1.874 2.212 1.308 4.46zM384.981 217.414l-4.234 7.086 1.751-8.072-3.774-1.494-8.603 12.739 3.95 1.566 4.426-7.567-1.687 8.652 2.795 1.11 4.72-7.453-1.981 8.538 3.95 1.566 2.482-15.167zM401.744 226.044l-6.73 4.08 3.523-5.972-3.425-2.02-7.627 12.932 3.479 2.052 6.265-3.83-3.293 5.583 3.424 2.02 7.628-12.932z" style="fill:#fff;fill-opacity:1;fill-rule:nonzero;stroke:none" transform="matrix(1.33333 0 0 -1.33333 -98.293 1018.283)"/><path d="M362.342 298.049v-13.513c0-8.338-2.858-10.468-11.894-15.947l-51.771-30.485-51.785 30.488c-9.031 5.477-11.888 7.608-11.888 15.944v13.474l.248.155 63.425 27.973 63.402-27.966.263-.123m-51.903-3.192h1.836V310.2h-3.091v9.586h-8.706v-10.682h-5.166l-2.515 3.091h-4.443v-17.337h2.99v-.212l-5.924-37.094h26.164l-1.145 37.11z" style="fill:url(#o);fill-opacity:1;fill-rule:nonzero;stroke:none" transform="matrix(1.33333 0 0 -1.33333 -98.293 1018.283)"/><path d="M275.54 337.59a3.206 3.206 0 1 0-6.412.002 3.206 3.206 0 0 0 6.412-.002zM272.334 322.415c-4.438-.036-7.099 1.307-7.181 3.454-.05 1.297 1.895 3.642 3.441 5.237 1.547 1.596 2.594 2.593 3.74 2.593h.001c1.146 0 2.194-.997 3.74-2.593 1.547-1.595 3.491-3.94 3.442-5.237-.083-2.147-2.743-3.49-7.182-3.454m0 2.157c3.143 0 4.104.207 3.541.7-.4.348-1.496.498-3.541.498s-3.142-.15-3.541-.499c-.564-.492.398-.699 3.54-.699zM286.767 332.9c-1.337-4.232-3.436-6.347-5.505-5.761-1.249.351-2.876 2.926-3.917 4.89-1.04 1.964-1.665 3.269-1.31 4.359.354 1.09 1.626 1.778 3.622 2.756 1.996.977 4.826 2.103 6.044 1.654 2.017-.741 2.472-3.688 1.067-7.897m-2.053.667c.972 2.989 1.072 3.967.43 3.583-.456-.271-.937-1.27-1.568-3.214-.633-1.945-.828-3.034-.62-3.522.293-.687.787.163 1.758 3.152zM281.255 349.868c3.612-2.58 4.974-5.231 3.779-7.016-.722-1.08-3.673-1.832-5.863-2.214-2.188-.383-3.622-.575-4.55.1-.928.674-1.189 2.096-1.502 4.297-.312 2.2-.508 5.238.295 6.259 1.329 1.688 4.27 1.212 7.84-1.426m-1.269-1.746c-2.542 1.847-3.44 2.245-3.274 1.517.118-.518.917-1.283 2.571-2.485 1.655-1.202 2.63-1.726 3.158-1.68.745.069.089.8-2.454 2.648zM263.416 349.868c3.57 2.638 6.511 3.114 7.84 1.426.803-1.02.607-4.06.294-6.26-.313-2.201-.574-3.623-1.502-4.297-.928-.675-2.36-.483-4.55-.1-2.189.382-5.14 1.135-5.862 2.214-1.196 1.786.167 4.436 3.779 7.016v.001m1.269-1.747c-2.543-1.848-3.2-2.579-2.455-2.646.528-.048 1.504.476 3.158 1.677v.001c1.655 1.202 2.454 1.967 2.572 2.485.166.73-.732.33-3.275-1.516zM257.903 332.901c-1.406 4.21-.951 7.156 1.066 7.897 1.218.45 4.048-.677 6.044-1.654 1.996-.978 3.268-1.665 3.622-2.755v-.001c.355-1.09-.27-2.395-1.31-4.359s-2.669-4.537-3.918-4.89c-2.068-.586-4.167 1.529-5.504 5.761v.001m2.052.666c.971-2.989 1.464-3.84 1.758-3.152.208.488.012 1.577-.62 3.523-.632 1.944-1.113 2.942-1.569 3.213-.642.384-.54-.594.43-3.583zM321.807 337.59a3.205 3.205 0 1 1 3.204 3.207 3.206 3.206 0 0 1-3.204-3.207zM325.01 322.415c-4.438-.036-7.098 1.307-7.18 3.454-.05 1.297 1.895 3.642 3.44 5.237 1.547 1.596 2.594 2.593 3.74 2.593 1.148 0 2.196-.997 3.741-2.593 1.547-1.595 3.492-3.94 3.442-5.237-.083-2.147-2.744-3.49-7.182-3.454m0 2.157c3.143 0 4.104.207 3.54.7-.399.348-1.495.498-3.54.498s-3.142-.15-3.541-.499c-.564-.492.398-.699 3.54-.699zM310.578 332.901c-1.405 4.21-.951 7.156 1.067 7.897 1.218.45 4.048-.677 6.044-1.654 1.996-.978 3.267-1.665 3.622-2.755v-.001c.355-1.09-.271-2.395-1.311-4.359s-2.668-4.539-3.916-4.89c-2.07-.586-4.169 1.529-5.506 5.761v.001m2.053.666c.97-2.989 1.465-3.84 1.759-3.152.208.488.011 1.577-.62 3.523h-.001c-.632 1.944-1.113 2.942-1.568 3.213-.642.384-.542-.594.43-3.583zM316.092 349.868c3.57 2.638 6.51 3.114 7.84 1.426.803-1.02.607-4.06.295-6.259-.313-2.201-.575-3.623-1.502-4.297-.928-.675-2.362-.483-4.551-.1-2.189.382-5.14 1.134-5.862 2.214-1.196 1.785.167 4.435 3.78 7.016m1.267-1.746c-2.543-1.849-3.199-2.579-2.454-2.647.529-.047 1.504.477 3.157 1.678l.001.001c1.655 1.202 2.455 1.967 2.572 2.485.167.728-.733.33-3.275-1.517zM333.932 349.867c3.611-2.58 4.973-5.23 3.778-7.016-.722-1.079-3.674-1.832-5.862-2.214-2.19-.383-3.623-.574-4.55.1-.929.674-1.19 2.096-1.503 4.296-.313 2.201-.509 5.24.295 6.261 1.329 1.688 4.27 1.212 7.84-1.426h.002m-1.27-1.746c-2.543 1.847-3.441 2.245-3.276 1.516.119-.518.919-1.283 2.572-2.485h.001c1.654-1.202 2.63-1.726 3.157-1.678.745.067.09.798-2.454 2.646zM339.443 332.9c-1.337-4.232-3.437-6.347-5.505-5.761-1.249.353-2.876 2.926-3.917 4.89-1.04 1.964-1.665 3.269-1.311 4.359.354 1.09 1.627 1.778 3.623 2.756 1.995.977 4.825 2.103 6.044 1.654 2.017-.741 2.472-3.688 1.066-7.897m-2.051.667c.97 2.989 1.072 3.967.43 3.583-.457-.271-.937-1.27-1.57-3.214-.63-1.945-.828-3.034-.62-3.522.295-.687.787.163 1.759 3.152zM308.705 319.307v-9.587h3.092v-14.383h-22.964v16.378h3.737l2.514-3.092h5.872v10.684h7.75m-12.016-15.082h-2.16v-4.64h2.16v4.64m5.346 0h-2.161v-4.64h2.161v4.64m5.346 0h-2.161v-4.64h2.16zM309.96 294.68l1.13-36.65h-25.108l5.841 36.577.063.25h1.066l.18-.01v-4.289h1.098c1.546 0 1.896-.249 1.896-1.346 0-1.098-.4-1.746-.799-2.694-.398-.948-.598-2.194-.249-2.942.35-.748.748-.848 2.245-.848 1.495 0 2.095.199 2.095-.748 0-.948-.549-1.597-1.048-2.094-.499-.5-.898-1.249-.4-1.298.5-.05.9.798 1.448 1.247.548.449.896.798.896 2.095 0 1.296-.199 1.894-1.895 1.894-1.695 0-2.394-.198-2.394.45s.1 1.196.5 2.044c.552 1.174.747 2.295.747 3.842 0 1.645-1.146 1.445-3.042 1.445v3.242l.143.01h15.58l.007-.177m-5.27-2.525h-2.162v-4.638h2.162v4.638m0-15.475h-2.162v-4.639h2.162v4.639m-5.138-1.796h-2.162v-4.638h2.162v4.638m-4.072 0h-2.161v-4.638h2.161v4.638m2.326-6.035h-2.161v-4.638h2.16z" style="fill:#fff;fill-opacity:1;fill-rule:nonzero;stroke:none" transform="matrix(1.33333 0 0 -1.33333 -98.293 1018.283)"/><path d="M349.086 352.154v51.977l.013.15h13.243v-58.213l-.264.116-12.98 5.724-.012.246m-100.826-.075v52.07l-.015.132h-13.241v-58.206l.103.037 13.132 5.792.021.175m15.263 6.566 13.253 5.845.003.29v27.847l.005.215c-1.935 1.558-4.08 3.8-5.61 6.86-.837 1.673-1.498 3.167-2.019 4.57l-.48.01h-5.15v-45.413l-.002-.224m28.518 12.578 6.637 2.926 6.595-2.91.023.16v32.637l-.02.237-.356-.023c-4.99-4.538-8.95-7.197-12.88-9.71l.004-.173v-22.949l-.002-.195m28.523-6.729 13.257-5.846v45.371l.01.262h-13.27l.006-.17v-39.388l-.003-.229z" style="fill:url(#p);fill-opacity:1;fill-rule:nonzero;stroke:none" transform="matrix(1.33333 0 0 -1.33333 -98.293 1018.283)"/><path d="M233.624 309.483c-1.768-.535-2.076-1.498-1.987-3.813.1-2.594-.798-4.29-.997-7.38-.2-3.093 2.294-5.188 2.294-5.188-6.085-1.795-7.581 1.396-7.98 4.189s.2 5.886.499 8.978c.298 3.091-1.397 2.793-2.694 2.594-1.904-.294-1.496-3.89 0-9.378 1.496-5.485.1-9.575-1.595-13.167-1.696-3.59-4.19-3.69-4.19-3.69s.499 2.893 0 5.985c-.499 3.092-2.095 6.384-2.993 9.777-.898 3.391.798 6.583 2.793 9.175 1.042 1.355 1.268 2.656 1.246 3.59-.02.852-.667 1.356-1.289 1.116-1.053-.408-2.688-1.388-3.847-3.708-1.995-3.99-.698-8.18-2.394-12.269-1.696-4.089-4.489-4.29-7.082-3.691-2.594.6-3.292 1.995-3.292 1.995 2.693.798 3.591 2.394 3.691 4.887.1 2.495.2 5.587 2.394 7.98 2.194 2.395 5.087 4.29 7.88 5.986 2.793 1.695 3.69 2.295 2.494 2.693-1.197.399-3.192 0-5.187-1.595-1.995-1.596-4.09-2.395-5.786-1.098-1.695 1.296-2.294 3.39-4.09 5.487-1.795 2.094-3.69 3.091-3.69 3.091 5.486 1.796 7.96 1.205 10.174-.499 2.594-1.995 3.292-2.992 5.087-3.092 1.796-.098 2.793.899 3.592 2.893.798 1.995 1.795 3.791 3.99 5.188 2.194 1.396 4.833 2.12 4.833 2.12.127-.228.244-.468.353-.724.137-.322.257-.66.361-1.009 0 0-2.056-.288-4.55-1.584-2.494-1.298-4.09-3.293-3.291-7.083.797-3.79 2.792-4.987 5.884-6.184 2.613-1.011 7.86-.173 9.425.112l.246.062v-2.668l-.302-.078z" style="fill:url(#q);fill-opacity:1;fill-rule:nonzero;stroke:none" transform="matrix(1.33333 0 0 -1.33333 -98.293 1018.283)"/><path d="M363.419 294.474v8.453l.033.204c.828 1 2.871 3.277 4.914 4.135 2.65 1.112 4.531 1.368 7.267 3.847 2.736 2.48 4.703 6.413 4.96 9.149.256 2.736-1.54 5.3-4.362 7.44 0 0 .942.084 3.165-1.712 2.223-1.795 2.735-4.7 2.564-7.865 0 0 1.967.085 3.507 2.137 1.539 2.052 3.677 3.334 5.984 3.078 2.309-.256 4.018 0 4.873 1.197 0 0 1.028-1.453-.17-3.42-1.198-1.967-3.507-2.478-3.42-6.498.085-4.02-1.027-7.012-2.651-5.557-1.624 1.453-3.419 3.078-5.985 3.676-2.565.599-4.077.069-3.847-1.54.17-1.196 1.83-1.867 4.103-2.222 2.737-.427 3.811-1.079 4.874-2.993.855-1.539 1.368-3.676 1.966-6.327.6-2.65 2.737-4.702 5.472-6.498 0 0-2.394-1.539-5.643-2.308-3.249-.769-6.497-.77-7.353 1.796-.855 2.564-.17 5.13-.085 7.952.085 2.821-.257 5.13-2.566 6.326-2.307 1.197-4.359 1.88-2.734-.513 1.623-2.394 2.564-4.532 2.821-7.267.255-2.736-.684-4.447-1.71-7.696-1.027-3.249-1.369-5.557-.684-8.122.683-2.564.683-3.164.683-3.164s-3.932 1.453-6.24 3.42c-2.31 1.967-3.079 4.02-2.908 6.242.172 2.223 1.282 3.591 2.821 6.412 1.54 2.823 2.052 5.131 1.967 8.208-.086 3.078-1.283 3.506-2.223.599s-1.369-5.216-3.335-7.439c-1.637-1.852-4.996-3.05-6.073-3.399l.015.269z" style="fill:url(#r);fill-opacity:1;fill-rule:nonzero;stroke:none" transform="matrix(1.33333 0 0 -1.33333 -98.293 1018.283)"/><path d="M363.682 363.882c7.505 5.442 15.672 5.201 22.553 5.201 7.097 0 11.543.085 15.476 2.65 3.933 2.565 5.3 5.044 5.3 5.044 6.5-4.788 4.533-15.39 3.336-19.237-1.35-4.339-3.335-8.379-7.182-14.706-3.848-6.327-7.183-15.988-7.183-15.988-3.249 2.222-5.728 5.898-5.642 8.379.085 2.48 1.196 5.813 1.196 5.813-2.821-2.992-6.839-4.616-10.259-5.984-3.42-1.368-6.242-2.908-8.721-4.96-2.48-2.051-4.788-3.761-4.703-6.24.085-2.48 2.052-2.737 3.59-1.112 1.54 1.624 1.881 5.558 1.881 5.558s2.395-1.112 4.362-3.25c1.966-2.138 2.82-5.73.77-9.064-2.053-3.334-3.934-5.3-6.84-6.583-2.67-1.177-5.485-1.706-8.178-4.435l-.02.329v40.349l.005.511c4.53 5.743 12.296 8.305 12.296 8.305-5.179 3.303-10.951 5.882-12.283 6.46l-.017.284v2.469l.263.207z" style="fill:url(#s);fill-opacity:1;fill-rule:nonzero;stroke:none" transform="matrix(1.33333 0 0 -1.33333 -98.293 1018.283)"/><path d="M233.705 330.27a180.671 180.671 0 0 1-1.768-4.65c-2.245-6.141-4.19-7.38-4.19-7.38s1.245 3.608-.499 9.375c-1.297 4.29-4.19 4.788-10.074 7.98-8.393 4.553-10.175 7.182-10.175 7.182s-.6-3.29-3.392-6.283c-2.793-2.992-4.389-4.688-3.89-8.08 0 0-3.817 2.83-5.785 6.883-1.696 3.49-2.194 6.982-2.594 14.064-.37 6.574-.499 9.177-1.197 12.768-.805 4.138-.32 7.22 1.244 9.906 0 0 1.948-1.627 5.34-2.425 3.391-.797 5.586-.199 10.274 1.298 1.503.479 3.118.99 4.75 1.457l.31-.482c.718-1.115 1.349-2.33 1.823-3.67 0 0 1.439 1.5 3.55 5.038l.4.547c1.305.213 2.536.329 3.63.3 4.037-.1 6.893-.014 12.446-8.07l.018-.334v-5.435l-.214-.137a379.571 379.571 0 0 0-7.561-3.48s4.225-3.849 7.756-9.636l.02-.288v-15.86z" style="fill:url(#t);fill-opacity:1;fill-rule:nonzero;stroke:none" transform="matrix(1.33333 0 0 -1.33333 -98.293 1018.283)"/><path d="M356.45 405.36h6.058l.305.317c.804.874 2.648 2.517 4.869 2.137 2.992-.513 3.59-3.163 4.19-10.602.598-7.439 2.906-13.081 6.241-18.297 3.335-5.215 9.747-6.926 9.747-6.926.77 7.439 5.814 12.142 5.814 12.142 12.227-2.652 19.237-8.72 19.408-15.988.17-7.268-2.564-14.023-2.564-14.023 10.859 17.186 11.543 27.19 10.772 33.516-.748 6.159-5.13 11.8-7.694 14.022-2.565 2.223-4.873 3.42-4.873 3.42 4.788.342 8.55.94 11.2 2.566 2.65 1.625 3.334 4.959 4.188 8.55.856 3.59 3.42 4.872 3.42 4.872-1.624.342-3.834-.141-5.9.684-2.563 1.026-3.504 2.394-6.838 3.25-3.335.854-7.951.341-14.963-.513-7.01-.855-13.253-1.197-22.059-.171-8.806 1.025-11.457 3.42-15.818 7.438-4.36 4.018-8.122 9.832-11.03 14.022-2.905 4.19-6.925 10.602-9.661 14.45-1.992 2.801-4.529 5.694-5.76 7.06l-.505.177c-2.284.704-4.12 2.206-4.62 2.64-.566-.089-2.628-.345-5.744.026-2.131.253-3.964.627-5.107.89l.042-.4c.351-2.458.735-6.67-.013-10.295-.497-2.412-1.381-5.045-2.235-7.593-1.062-3.166-2.064-6.158-2.205-8.346-.337-5.29.979-9.424 3.912-12.289 2.156-2.105 3.65-3.038 4.484-3.445l.316-.11c-.259 3.689-.136 6.613 1.02 10.082.83 2.49 2.551 4.443 4.185 4.752.727.137 1.372-.082 1.819-.618 1.326-1.59 1.438-5.83 1.608-12.245l.014-.543c.129-4.82 1.197-8.45 1.691-9.886l.14-.373c1.843.234 3.707.353 5.544.35-.051.433-.104.875-.104 1.29 0 .886.157 1.626.647 1.771 1.565.463 8.611-.183 8.91-.21l.223-.022.08-.21c.04-.11 4.094-10.9 6.336-17.304l.51-.016z" style="fill:url(#u);fill-opacity:1;fill-rule:nonzero;stroke:none" transform="matrix(1.33333 0 0 -1.33333 -98.293 1018.283)"/><path d="M233.926 390.121v15.238H247l.29-.013c.263 12.002 4.441 14.48 4.622 14.58l.828.462-.315-.896c-.013-.038-.13-.39-.13-.981 0-1.07.382-2.93 2.45-5.15 2.668-2.87 4.716-6.052 5.5-7.333.413.855 1.36 2.564 3.44 5.336 1.632 2.177 2.712 3.515 3.371 4.295l.236.31c-.002.27-.003.544-.003.822 0 4.83 1.684 10.332 2.42 12.508l.16.565a73.748 73.748 0 0 0-3.022 3.814l-1.18 1.57c-3.092 4.094-4.303 5.26-5.202 12.74a45.53 45.53 0 0 0-.223 2.432l-.16-.048c-6.55-2.097-14.735-12.282-20.364-17.72-5.885-5.686-9.741-9.371-16.16-11.671-6.683-2.393-17.955-.897-26.733 1.796-9.258 2.84-10.773-.399-14.464-3.092-3.69-2.694-5.485-4.59-5.485-4.59 1.596-.698 3.59-1.894 6.383-5.485s8.279-3.49 8.279-3.49-7.135-4.98-10.872-13.966c-4.19-10.075-2.095-17.556.599-23.441 2.304-5.038 7.98-9.875 7.98-9.875s-.1.997-.7 4.488c-.629 3.671-.1 7.58 3.592 12.668 4.932 6.798 12.768 11.97 12.768 11.97-.1-4.09.698-7.082 4.589-10.573 3.89-3.493 4.688-7.282 4.688-7.282 5.286 6.983 6.584 16.659 7.58 20.747 1.028 4.208 5.936 10.076 5.936 10.076s-1.082-3.964.748-6.384c1.688-2.234 3.852-3.9 5.469-4.954l.012.527z" style="fill:url(#v);fill-opacity:1;fill-rule:nonzero;stroke:none" transform="matrix(1.33333 0 0 -1.33333 -98.293 1018.283)"/><path d="M267.307 414.846c.074-3.326.38-6 1.293-8.949l.169-.538h-8.043l.215.46c.424.85 1.37 2.517 3.317 5.114a113.12 113.12 0 0 0 2.782 3.58l.267.333m-19.336-9.487h11.82l-.25.444c-.84 1.357-2.813 4.369-5.324 7.068-2.21 2.375-2.638 4.419-2.638 5.646 0 .066.007.116.01.177-1.134-1.238-3.317-4.678-3.57-12.937l-.048-.398z" style="fill:url(#w);fill-opacity:1;fill-rule:nonzero;stroke:none" transform="matrix(1.33333 0 0 -1.33333 -98.293 1018.283)"/><path d="M354.878 405.36h-48.665l.41.404c4.422 3.737 9.156 6.3 13.379 8.586l1.083.587c5.216 2.836 12.374 4.482 19.146 4.402l.42-.005-.06.414c-.173 1.245-.155 2.507.039 2.702 1.118.323 6.237-.043 8.38-.236.554-1.476 4.098-10.94 6.183-16.875l-.315.02z" style="fill:url(#x);fill-opacity:1;fill-rule:nonzero;stroke:none" transform="matrix(1.33333 0 0 -1.33333 -98.293 1018.283)"/><path d="M304.98 455.998c-3.011-2.446-8.027-5.512-13.717-7.23-6.073-1.836-17.375-5.25-20.828-7.976l-.444-.35-.129.55c-.005.022-.522 2.16-2.474 4.193-1.88 1.958-3.568 3.863-5.197 7.366a41.592 41.592 0 0 0-1.298 3.07c.02-1.302.115-3.654.443-7.678.526-6.465 1.808-8.162 4.904-12.262l1.182-1.575c3.158-4.256 5.643-6.729 6.47-7.513.889 1.44 4.378 6.465 11.722 10.1l4.912 2.37c6.282 2.991 12.215 5.816 18.621 10.927l.758.62c-.745-.194-1.505-.27-2.195-.158-.831.134-1.47.521-1.904 1.148-.92 1.326-.927 3.122-.398 4.725z" style="fill:url(#y);fill-opacity:1;fill-rule:nonzero;stroke:none" transform="matrix(1.33333 0 0 -1.33333 -98.293 1018.283)"/><path d="M264.813 468.74c-1.678-1.539-3.844-4.568-4.076-7.347-.034-.41-.052-.799-.052-1.176 0-2.28.644-4.111 2.158-7.364 1.446-3.11 2.84-4.854 5.063-7.17 1.549-1.613 2.243-3.256 2.51-4.046 3.575 2.524 12.472 5.35 20.64 7.817 7.971 2.409 14.78 7.657 16.044 9.68.551.88.793 1.91 1.025 2.905.291 1.24.592 2.52 1.498 3.478.733.774 2.232 2.038 4.03 1.804 1.56-.202 2.987-1.467 4.24-3.76.51-.93.845-1.763 1.015-2.533l.168.805c.445 3.526-.015 7.395-.328 9.379l-.417.103c-.423-.076-3.286-.537-6.161.367-2.611.821-4.738 2.314-5.332 2.755-.72-.288-3.367-1.264-6.504-1.488-3.157-.225-5.203.691-5.77.986-.732-.318-4.242-1.757-7.85-1.757-3.432 0-6.616.82-7.483 1.061-1.114-1.407-3.608-3.033-6.52-4.853-2.613-1.634-4.78-1.683-6.818-.155-.291.22-.572.464-.838.731l-.242-.221z" style="fill:url(#z);fill-opacity:1;fill-rule:nonzero;stroke:none" transform="matrix(1.33333 0 0 -1.33333 -98.293 1018.283)"/><path d="M332.764 419.488c-4.4-.713-8.616-2.068-12.022-3.92l-1.082-.587c-4.7-2.543-10.025-5.426-14.892-9.895-5.18-4.755-9.241-7.467-13.289-10.05-3.34-2.132-8.13-3.792-9.538-4.256l-.018.389c-.045 2.08-.152 7.521-.152 12.541 0 .691-.008 1.346-.024 1.97l.38.252c1.155.678 4.112 2.486 8.472 5.609 5.444 3.9 15.577 11.16 21.27 12.858 5.275 1.575 9.44 2.522 13.108 2.98 2.619.328 5.365 3.018 6.474 7.586l.03-.817.108-4.47c.136-5.125 1.098-8.746 1.516-10.08l-.341-.11m-14.925 37.136c-1.243-1.66-3.415-3.375-6.359-5.7l-1.884-1.496c-6.471-5.161-12.44-8.004-18.761-11.013l-4.903-2.366c-5.433-2.689-8.744-6.229-10.381-8.352l.127-.339c.756-1.655 2.2-4.939 3.508-8.564 1.52-4.215 2.324-7.272 2.531-12.251l.35.187c1.307.782 4.114 2.53 8.114 5.395 5.862 4.2 15.674 11.229 21.481 12.962 4.572 1.365 8.32 2.262 11.639 2.781l-.407.291c-.94.506-2.396 1.496-4.369 3.424-3.09 3.017-4.477 7.34-4.126 12.848.145 2.282 1.163 5.316 2.24 8.529.296.88.593 1.77.879 2.656l.32 1.008m7.05-28.532c2.656.332 5.456 3.435 6.176 8.683.427 3.188-.238 4.78-.765 5.522-.252.355-.661.46-1.134.372-1.172-.22-2.798-1.76-3.636-4.274-1.177-3.533-1.247-6.502-.944-10.377l.303.074z" style="fill:url(#A);fill-opacity:1;fill-rule:nonzero;stroke:none" transform="matrix(1.33333 0 0 -1.33333 -98.293 1018.283)"/><path d="M275.209 426.655c.785-1.74 2.101-4.777 3.3-8.104 1.76-4.878 2.544-8.178 2.544-14.841 0-4.898.101-10.198.148-12.392l-.016-.449c-1.624.804-6.606 3.628-9.37 9.154-3.28 6.561-3.809 10.317-3.809 16.768 0 4.58 1.556 9.8 2.31 12.063l.142.325c1.981-2.27 3.26-3.406 3.278-3.422l.338-.299.216.396c.009.016.25.452.752 1.158l.167-.357z" style="fill:url(#B);fill-opacity:1;fill-rule:nonzero;stroke:none" transform="matrix(1.33333 0 0 -1.33333 -98.293 1018.283)"/><path d="M312.193 525.937a76.32 76.32 0 0 0 3.5-4.106c1.16-1.47 1.926-2.753 2.601-3.885.618-1.038 1.203-2.018 1.97-2.931 1.551-1.848 4.692-3.064 6.67-3.356a2.86 2.86 0 0 0-.79-1l-.598-.5.768-.13c.115-.02 2.561-.433 4.147-.513-.14-.417-.371-.97-.675-1.273l-.43-.431.585-.169c.02-.005 2.044-.601 3.9-2.243 2.245-1.985 3.247-4.094 3.247-6.838 0-2.741-.592-4.833-1.487-8.001l-.52-1.853c-1.1-3.985-1.532-7.388-1.579-9.259l-1.075.047c-1.855.115-3.775.229-5.768.236-.299.41-1.231 1.563-2.839 2.44-1.174.642-2.319.9-4.216.891l-.649.04c-.474 2.172-1.924 9.513-.7 12.634.793 2.023 2.295 2.78 3.572 3.036 1.168.235 2.31.422 2.31.422s-1.08.535-2.43.266c-1.47-.291-3.214-1.15-4.121-3.461-1.309-3.34.168-10.789.662-13.039l-.401.035a94.445 94.445 0 0 1-3.074-.256c-.523.383-3.171 2.224-5.97 2.467-3.784.33-7.769-.787-8.263-.932-.094.014-.288.041-.565.075l-.31.035c.302 1.924.82 4.599 1.084 5.938.63-.846 1.791-2.11 3.065-1.994 2.128.194 2.69 3.113 2.943 5.634.052.516.073 1.04.073 1.553 0 1.48-.178 2.866-.328 3.777 1.43-1.137 2.656-1.02 2.717-1.011l.308.044v.31c0 2.334-.777 7.485-1.083 9.414 1.349-.696 3.02-1.136 3.103-1.157l.438-.114.309 14.742a46.366 46.366 0 0 1-.038 3.83l-.063.586z" style="fill:url(#C);fill-opacity:1;fill-rule:nonzero;stroke:none" transform="matrix(1.33333 0 0 -1.33333 -98.293 1018.283)"/><path d="M273.458 536.051c.518-.402 1.397-.989 2.792-1.627 2.609-1.192 4.621-1.93 6.763-.548 2.28 1.47 4.012 4.125 4.72 6.103l.213.606c.825 2.348 2.07 5.895 3.727 7.118.848.628 1.678.843 2.464.64.992-.256 1.855-1.173 2.565-2.724.787-1.723 1.605-3.765 2.077-4.971.446 1.557 1.426 4.43 3.015 6.185 1.177 1.298 2.231 1.871 3.223 1.751.981-.119 1.855-.91 2.67-2.42 1.022-1.89 1.569-4.331 2.097-6.693l.852-3.478c.95-3.295 1.511-3.894 2.759-4.656l1.81-1.068c-.2.47-.405 1.04-.555 1.816l-.093.485.49-.06c.02-.003 1.6-.163 3.082-.07-.654.509-1.556 1.27-2.068 1.97-.763 1.04-1.29 3.29-1.565 6.692l-.451 6.357c-.008.12.01.847.01.847-.79.776-3.368 3.192-5.588 3.852-1.776.527-3.342.58-4.191.555l-1.085-.86c-2.911-2.463-4.266-3.225-4.323-3.256l-.137-.077-.15.05c-.122.04-2.994 1.006-4.448 2.154-1.206.786-1.787.77-2.745.811-1.903.05-4.039-.476-5.41-2.595-1.18-1.825-2.734-5.295-4.236-8.775-.814-1.887-1.707-2.917-2.526-3.315-2.691-1.305-5.758-.799-5.758-.799z" style="fill:url(#D);fill-opacity:1;fill-rule:nonzero;stroke:none" transform="matrix(1.33333 0 0 -1.33333 -98.293 1018.283)"/><path d="M297.1 542.16c-.71-.084-2.256-.382-4.698-1.434-4.306-1.857-5.506-3.784-7.608-7.623a19.674 19.674 0 0 1-2.2-6.8 21.974 21.974 0 0 0 4.157 2.147l.519.19-.038-.552c-.151-2.221-.473-4.946-.667-6.495 2.034 2.442 3.36 5.075 4.508 7.44l1.321 2.619c1.783 3.255 4.397 4.311 6.093 4.226 1.744-.087 3.65-1.856 5.825-5.408 1.53-2.498 2.743-5.709 3.374-7.538l1.168 7.96.497-1.223c.008-.02.685-1.707 1.342-3.984.215 1.186.584 2.974.465 4.937-.1 1.632-.539 2.478-1.214 5.172-.593 2.22-.801 3.042-1.3 3.565-1.982 2.214-6.681 2.607-8.626 2.672l-.143-.306a23.558 23.558 0 0 1-.68-2.319l-.262-1.174-.425 1.126c-.008.02-.47 1.24-1.093 2.772l-.314.03z" style="fill:url(#E);fill-opacity:1;fill-rule:nonzero;stroke:none" transform="matrix(1.33333 0 0 -1.33333 -98.293 1018.283)"/><path d="m298.735 704.198 13.312 18.32-13.379 41.194v-59.486l-.014-.12.081.092z" style="fill:url(#F);fill-opacity:1;fill-rule:nonzero;stroke:none" transform="matrix(1.33333 0 0 -1.33333 -98.293 1018.283)"/><path d="m298.775 703.956 34.931-48.08-13.392 41.194-21.416 6.957-.244.08.121-.151z" style="fill:url(#G);fill-opacity:1;fill-rule:nonzero;stroke:none" transform="matrix(1.33333 0 0 -1.33333 -98.293 1018.283)"/><path d="m298.502 704.049-21.481-6.98-35.04 25.45 56.453-18.34.22-.073-.152-.057z" style="fill:url(#H);fill-opacity:1;fill-rule:nonzero;stroke:none" transform="matrix(1.33333 0 0 -1.33333 -98.293 1018.283)"/><path d="m298.654 704.106-56.672 18.413h43.307l13.292-18.296.073-.117m0 0 .014.167v59.44l-13.379-41.194 13.266-18.26.1-.153z" style="fill:url(#I);fill-opacity:1;fill-rule:nonzero;stroke:none" transform="matrix(1.33333 0 0 -1.33333 -98.293 1018.283)"/><path d="m298.797 704.145 56.556 18.374h-43.306l-13.258-18.248-.135-.165.143.039z" style="fill:url(#J);fill-opacity:1;fill-rule:nonzero;stroke:none" transform="matrix(1.33333 0 0 -1.33333 -98.293 1018.283)"/><path d="m298.572 703.973-34.943-48.097 13.392 41.194 21.541 6.998.092.038-.082-.133z" style="fill:url(#K);fill-opacity:1;fill-rule:nonzero;stroke:none" transform="matrix(1.33333 0 0 -1.33333 -98.293 1018.283)"/><path d="M298.668 703.88v-22.539l-35.04-25.465 34.944 48.097.082.133.014-.226m0 .131v-22.67l35.038-25.465-34.942 48.095-.11.135.014-.095z" style="fill:url(#L);fill-opacity:1;fill-rule:nonzero;stroke:none" transform="matrix(1.33333 0 0 -1.33333 -98.293 1018.283)"/><path d="m298.809 704.057 21.505-6.987 35.039 25.449-56.511-18.36-.188-.053.155-.05z" style="fill:url(#M);fill-opacity:1;fill-rule:nonzero;stroke:none" transform="matrix(1.33333 0 0 -1.33333 -98.293 1018.283)"/><path d="m151.206 674.273 13.31 18.32-13.378 41.194v-59.486l-.014-.12.082.092z" style="fill:url(#N);fill-opacity:1;fill-rule:nonzero;stroke:none" transform="matrix(1.33333 0 0 -1.33333 -98.293 1018.283)"/><path d="m150.971 674.124-21.48-6.98-35.039 25.45 56.451-18.34.222-.072-.154-.058z" style="fill:url(#O);fill-opacity:1;fill-rule:nonzero;stroke:none" transform="matrix(1.33333 0 0 -1.33333 -98.293 1018.283)"/><path d="m151.125 674.182-56.673 18.412h43.307l13.292-18.296.073-.116m0 0 .014.167v59.438l-13.38-41.193 13.267-18.26z" style="fill:url(#P);fill-opacity:1;fill-rule:nonzero;stroke:none" transform="matrix(1.33333 0 0 -1.33333 -98.293 1018.283)"/><path d="m151.267 674.22 56.556 18.374h-43.307l-13.257-18.248-.134-.164.142.038z" style="fill:url(#Q);fill-opacity:1;fill-rule:nonzero;stroke:none" transform="matrix(1.33333 0 0 -1.33333 -98.293 1018.283)"/><path d="m151.042 674.048-34.943-48.097 13.392 41.194 21.542 6.999.092.038-.083-.134z" style="fill:url(#R);fill-opacity:1;fill-rule:nonzero;stroke:none" transform="matrix(1.33333 0 0 -1.33333 -98.293 1018.283)"/><path d="M151.138 673.955v-22.538l-35.039-25.466 34.943 48.096.082.135.014-.227m0 .13v-22.668l35.038-25.466-34.943 48.095-.108.136.013-.096z" style="fill:url(#S);fill-opacity:1;fill-rule:nonzero;stroke:none" transform="matrix(1.33333 0 0 -1.33333 -98.293 1018.283)"/><path d="m151.28 674.132 21.504-6.987 35.04 25.449-56.512-18.36-.187-.052.154-.05z" style="fill:url(#T);fill-opacity:1;fill-rule:nonzero;stroke:none" transform="matrix(1.33333 0 0 -1.33333 -98.293 1018.283)"/><path d="m446.276 674.273 13.31 18.32-13.378 41.194v-59.486l-.013-.12.081.092z" style="fill:url(#U);fill-opacity:1;fill-rule:nonzero;stroke:none" transform="matrix(1.33333 0 0 -1.33333 -98.293 1018.283)"/><path d="m446.315 674.031 34.932-48.08-13.392 41.194-21.416 6.958-.244.079z" style="fill:url(#V);fill-opacity:1;fill-rule:nonzero;stroke:none" transform="matrix(1.33333 0 0 -1.33333 -98.293 1018.283)"/><path d="m446.042 674.124-21.48-6.98-35.04 25.45 56.452-18.34.221-.072-.153-.058z" style="fill:url(#W);fill-opacity:1;fill-rule:nonzero;stroke:none" transform="matrix(1.33333 0 0 -1.33333 -98.293 1018.283)"/><path d="m446.195 674.182-56.673 18.412h43.308l13.292-18.296.073-.116m0 0 .013.167v59.438l-13.378-41.193 13.266-18.26.1-.152z" style="fill:url(#X);fill-opacity:1;fill-rule:nonzero;stroke:none" transform="matrix(1.33333 0 0 -1.33333 -98.293 1018.283)"/><path d="m446.338 674.22 56.556 18.374h-43.308l-13.256-18.248-.135-.164.143.038z" style="fill:url(#Y);fill-opacity:1;fill-rule:nonzero;stroke:none" transform="matrix(1.33333 0 0 -1.33333 -98.293 1018.283)"/><path d="M446.113 674.048 411.17 625.95l13.393 41.194 21.542 6.999.091.038-.082-.134z" style="fill:url(#Z);fill-opacity:1;fill-rule:nonzero;stroke:none" transform="matrix(1.33333 0 0 -1.33333 -98.293 1018.283)"/><path d="M446.208 673.955v-22.538l-35.04-25.466 34.945 48.096.082.135.013-.227m0 .13v-22.668l35.039-25.466-34.942 48.095-.11.136z" style="fill:url(#aa);fill-opacity:1;fill-rule:nonzero;stroke:none" transform="matrix(1.33333 0 0 -1.33333 -98.293 1018.283)"/><path d="m446.35 674.132 21.505-6.987 35.039 25.449-56.511-18.36-.188-.052.155-.05z" style="fill:url(#ab);fill-opacity:1;fill-rule:nonzero;stroke:none" transform="matrix(1.33333 0 0 -1.33333 -98.293 1018.283)"/><path d="m151.245 674.031 34.93-48.08-13.39 41.194-21.417 6.958-.243.079z" style="fill:url(#ac);fill-opacity:1;fill-rule:nonzero;stroke:none" transform="matrix(1.33333 0 0 -1.33333 -98.293 1018.283)"/></svg>