<svg xmlns="http://www.w3.org/2000/svg" xml:space="preserve" width="594.02051" height="996.64264" viewBox="0 0 594.0205 996.64261"><path d="M416.242 644.244c-4-2.975-10.396-5.538-18.173-4.067l-.297.096c-1.793-5.639-2.721-11.037-3.136-13.962l-.04-.488c48.34-4.61 88.87-12.2 104.885-18.766 19.047-7.81 22.249-8.26 23.75-44.5 2.25-54.333 5.25-163.5-35.75-277-63.307-175.252-167.313-215-178.688-215h-.01c-11.375 0-115.38 39.748-178.687 215-41 113.5-38 222.667-35.75 277 1.5 36.24 4.702 36.69 23.75 44.5 15.98 6.552 56.375 14.125 104.582 18.737l.328.034c-.378 2.781-1.306 8.473-3.2 14.435l-.333-.092c-7.812-1.467-14.226 1.134-18.216 4.128l-.411.331c-7.749 0-14.052 6.304-14.052 14.052 0 2.052.443 4.003 1.237 5.762l.11.28c-2.076 9.7-4.222 30.216 8.588 48.546 12.983 18.577 32.02 23.44 44.072 24.531l.428.028a58.115 58.115 0 0 0 5.148 6.598c15.822 17.488 36.735 19.623 46.802 19.512l.587-.025a18.02 18.02 0 0 0 6.674 6.12l.03.107v3.003h-4.75V789.5h4.75v4.432h16.633V789.5h4.75v-16.356h-4.75v-3.099l.239-.124a18.014 18.014 0 0 0 6.446-5.975l.53-.008c10.036.122 31.016-1.979 46.878-19.511a58.047 58.047 0 0 0 5.134-6.578l.262-.032c12.041-1.058 31.204-5.876 44.253-24.548 12.859-18.4 10.648-39.004 8.563-48.657l.128-.153a13.972 13.972 0 0 0 1.243-5.778c0-7.748-6.303-14.05-14.05-14.05l-.487-.387M212.737 695.3c5.442 3.402 11.427 6.24 17.642 8.608l.027.482a66.43 66.43 0 0 0 .842 8.002l-.498-.179c-5.357-2.166-10.91-5.849-15.251-12.061a30.76 30.76 0 0 1-2.586-4.46l-.176-.392m41.928 15.572c18.024 3.776 34.676 4.674 42.639 4.88l.467.075v23.997l.05.287c-.298.231-.588.472-.87.722l-.341.074c-1.597.205-4.24.252-6.847.11-6.8-.37-17.904-2.559-26.405-11.954-4.573-5.055-7.661-11.558-9.154-18.294l.46.103m150.021-15.23a30.75 30.75 0 0 1-2.61 4.51c-4.406 6.305-10.06 10.004-15.49 12.157l-.26.093c.453-2.718.737-5.453.85-8.178l.024-.318c6.209-2.365 12.187-5.2 17.624-8.597l-.138.334m-41.322 15.16c-1.496 6.724-4.581 13.214-9.147 18.26-8.501 9.395-19.605 11.583-26.405 11.954-1.81.1-3.637.107-5.119.033-.494-.024-1.96-.122-1.96-.122a18.221 18.221 0 0 0-.955-.8l.027-.222v-24.19l1.044.02c8.174-.234 24.476-1.178 42.085-4.869l.43-.064z" style="fill:#572389;fill-opacity:1;fill-rule:nonzero;stroke:none" transform="matrix(1.37777 0 0 -1.37777 -128.428 1093.853)"/><path d="M365.545 235.767c0-31.348-25.414-56.756-56.76-56.756-31.348 0-56.756 25.408-56.756 56.756 0 31.347 25.408 56.755 56.756 56.755 31.346 0 56.76-25.408 56.76-56.755z" style="fill:#fff;fill-opacity:1;fill-rule:nonzero;stroke:none" transform="matrix(1.37777 0 0 -1.37777 -128.428 1093.853)"/><path d="m141.122 277.798 369.809 315.84-.46.415c-2.224 2.066-5.819 3.596-12.226 6.216l-1.325.542c-22.911 9.394-105.564 22.496-188.127 22.496h-.01c-82.564 0-165.216-13.102-188.127-22.496l-1.325-.542c-8.543-3.494-12.088-5.05-14.046-8.521-2.673-4.737-3.587-14.789-4.195-29.47-1.963-47.4-6.56-158.398 35.354-274.428a590.159 590.159 0 0 1 3.959-10.64l.718.588z" style="fill:#e51a25;fill-opacity:1;fill-rule:nonzero;stroke:none" transform="matrix(1.37777 0 0 -1.37777 -128.428 1093.853)"/><path d="M476.684 277.64v282.25l.028.755 35.802 30.576.283-.48c2.286-5.075 3.121-14.75 3.69-28.464 1.962-47.399 6.558-158.4-35.355-274.427a593.605 593.605 0 0 0-4.399-11.785l-.05 1.575zM408.823 154.406c-12.142-15.176-23.735-27.12-33.912-36.36-11.778-10.694-22.894-18.896-32.558-25.038l.024 1.716v88.166l.253.277c17.265 11.13 28.698 30.53 28.698 52.6 0 22.044-11.405 41.422-28.637 52.56l-.314.146v157.416l.262.247 66.858 57.102.033-.514V155.306l-.707-.9zM274.883 388.269l-66.865-57.107.026-1.022V156.474l.016-1.199c12.394-15.588 24.235-27.814 34.605-37.23 11.799-10.711 22.932-18.922 32.604-25.067l-.073 1.329v88.666l-.639.443c-17.05 11.17-28.31 30.444-28.31 52.35 0 21.996 11.352 41.338 28.519 52.487l.43.22v100.084l-.313-.288z" style="fill:#fff;fill-opacity:1;fill-rule:nonzero;stroke:none" transform="matrix(1.37777 0 0 -1.37777 -128.428 1093.853)"/><path d="M388.222 657.264c-3.031-2.95-7.518-5.98-12.967-5.647-6.736.413-11.113 5.557-13.118 9.42l-.151-.21c-2.396-3.219-6.81-6.157-14.066-5.443-6.11.6-9.794 4.721-11.829 9.089l-.236-.222c-2.9-3.589-7.187-6.792-12.912-7.134-7.024-.42-11.784 3.804-14.152 7.346l-.179-.251c-2.423-3.487-7.123-7.504-13.981-7.095-5.646.337-9.892 3.457-12.79 6.984l-.353.382c-2.034-4.371-5.72-8.498-11.834-9.1-7.124-.7-11.508 2.12-13.932 5.267l-.284.388c-2.005-3.863-6.382-9.008-13.12-9.42-5.425-.333-9.898 2.671-12.927 5.609l-.132-.453c-1.217-4.191-3.987-8.574-9.517-10.672-7.937-3.01-14.066.267-17.011 3.215l-.304.247a9.25 9.25 0 0 0-10.833 9.117 9.226 9.226 0 0 0 2.924 6.75l.267.301c-1.846 8.38-4.096 27.2 7.436 43.7 12.67 18.131 32.17 21.473 42.374 21.891l.444-.008a52.438 52.438 0 0 0 6.307 8.616c16.156 17.857 38.639 17.638 45.007 17.172l.418-.08a12.359 12.359 0 0 0 7.457 8.665l.243.118v11.337h-4.75v8.357h4.75v4.431h8.633V785.5h4.75v-8.357h-4.75v-11.379l.171-.047a12.36 12.36 0 0 0 7.512-8.624l.554.019c6.525.459 28.83.567 44.888-17.18a52.433 52.433 0 0 0 6.287-8.583l.298-.02c10.157-.389 29.8-3.668 42.54-21.898 11.57-16.555 9.266-35.447 7.417-43.783l.323-.253a9.227 9.227 0 0 0 2.885-6.714 9.25 9.25 0 0 0-9.25-9.251c-.427 0-1.664.114-1.664.114-2.853-3.002-9.09-6.53-17.233-3.442-5.551 2.105-8.321 6.515-9.53 10.721l-.08.44m-138.982 4.5a9.25 9.25 0 0 0-5.146 8.293c0 1.328.28 2.59.783 3.73l.191.28c-8.962 12.66-10.367 31.213-4.59 47.446l-.6-.09c-8.796-1.19-21.293-5.159-29.87-17.432-9.638-13.792-7.316-30.16-5.827-36.692l.23-.077a9.255 9.255 0 0 0 3.344-14.692l.227-.164c1.835-1.27 5.165-2.668 9.739-.934 4.892 1.856 6.199 6.558 6.53 9.42l.037.406a4.302 4.302 0 1 0 6.735 3.55l-.048-.79c1.847-2.406 6.053-7.013 10.996-6.71 3.172.194 5.44 2.165 6.887 4.02l.382.436m54.033 4.809a9.237 9.237 0 0 0-3.737 7.43 9.247 9.247 0 0 0 4.638 8.021l.297.117v60.04l.01.48c-2.441.91-4.517 2.57-5.946 4.7l-1.746.162c-.938.125-23.167 2.87-38.399-13.964-13.532-14.958-15.868-39.878-5.371-54.279l.327.029a9.252 9.252 0 0 0 7.024-15.273l.323-.426c1.426-1.538 3.967-2.989 8.403-2.553 5.499.541 7.618 6.153 8.371 9.24l-.157.25a4.302 4.302 0 1 0 7.349.044l-.133-.359c1.728-2.953 5.09-7.105 10.445-7.425 3.818-.227 6.439 1.727 7.994 3.465l.309.3m53.947-2.555a9.252 9.252 0 0 0 7.008 15.292l.346-.002c10.475 14.405 8.133 39.303-5.391 54.252-15.232 16.834-37.46 14.089-38.399 13.964l-1.768-.196a12.374 12.374 0 0 0-5.893-4.655l-.02-.49V682.14l.358-.153a9.247 9.247 0 0 0 4.577-7.985 9.237 9.237 0 0 0-3.717-7.415l.323-.356c1.56-1.728 4.17-3.65 7.959-3.425 5.39.322 8.76 4.527 10.478 7.484l-.148.27a4.303 4.303 0 1 0 7.359.033l-.176-.334c.762-3.095 2.885-8.664 8.362-9.203 4.497-.442 7.046 1.056 8.461 2.617l.28.343m36.06-2.754c.254-2.8 1.439-7.883 6.574-9.83 4.576-1.736 7.908-.335 9.742.936l.223.161a9.215 9.215 0 0 0-2.342 6.152 9.253 9.253 0 0 0 5.53 8.472l.379.112c1.489 6.51 3.835 22.91-5.82 36.724-8.638 12.362-21.253 16.299-30.058 17.458l-.415.077c5.781-16.237 4.377-34.797-4.59-47.461l.191-.27a9.217 9.217 0 0 0 .786-3.737 9.251 9.251 0 0 0-5.101-8.27l.29-.397c1.445-1.873 3.727-3.886 6.935-4.083 4.94-.302 9.144 4.3 10.993 6.708l-.046.792a4.303 4.303 0 1 0 7.021-3.334l-.292-.21z" style="fill:#f1cb10;fill-opacity:1;fill-rule:nonzero;stroke:none" transform="matrix(1.37777 0 0 -1.37777 -128.428 1093.853)"/><path d="M391.742 636.562a96.927 96.927 0 0 1-1.897-9.837l-.041-.457c-25.8 2.329-53.623 3.789-81.011 3.789h-.01c-27.26 0-54.952-1.447-80.648-3.757l-.35.006a96.478 96.478 0 0 1-1.94 10.201l-.087.312c17.682 4.728 50.475 9.535 83.025 9.503h.008c32.538.032 65.32-4.772 83.006-9.497l-.055-.263z" style="fill:#f1cb10;fill-opacity:1;fill-rule:nonzero;stroke:none" transform="matrix(1.37777 0 0 -1.37777 -128.428 1093.853)"/><path d="M350.702 666.246a14.007 14.007 0 0 0-.525 3.81c0 5.815 3.55 10.816 8.596 12.95l.298.122c4.104 5.56 5.79 13.286 5.234 21.219l-.44.167c-18.2 4.023-35.432 4.996-43.558 5.226l-.503-.048v-26.926l.215-.329a13.978 13.978 0 0 0 2.82-8.435c0-2.111-.468-4.115-1.305-5.913l-.277-.437a4.724 4.724 0 0 1 1.06-.054c2.332.14 4.136 1.674 5.404 3.292l-.104.462a9.1 9.1 0 0 0-.116 1.455c0 5.019 4.083 9.102 9.103 9.102 5.018 0 9.101-4.083 9.101-9.102 0-.868-.122-1.708-.35-2.504l-.123-.383c.638-1.764 1.775-3.738 3.716-4.087a6.34 6.34 0 0 1 1.904-.072l-.15.485zM402.942 655.958a14.065 14.065 0 0 0-.265 2.724c0 3.745 1.473 7.153 3.87 9.674l.265.25c.759 3.296 1.9 10.07.734 17.533l-.131.165a149.633 149.633 0 0 1-5.031 3.449c-4.594 2.947-9.645 5.462-14.931 7.608l-.35.117c-.626-9.814-3.547-19.205-8.845-26.876l.021-.545c0-2.767-.803-5.35-2.19-7.527l-.193-.432c1.917-.118 4.207 1.77 5.856 3.592l.11.539c.685 4.346 4.456 7.68 8.992 7.68 5.018 0 9.101-4.083 9.101-9.102 0-1.71-.474-3.31-1.296-4.678l-.243-.45c.433-1.485 1.322-3.07 3.14-3.76a7.898 7.898 0 0 1 1.423-.4l-.037.439zM241.677 662.098c-1.849-.113-4.047 1.642-5.68 3.402l-.224.261c-.479 4.572-4.356 8.148-9.052 8.148-5.02 0-9.102-4.083-9.102-9.102 0-1.737.488-3.361 1.336-4.743l.195-.345c-.435-1.48-1.324-3.073-3.131-3.8-1.006-.404-1.483-.41-1.483-.41.236 1.02.361 2.082.361 3.173 0 3.757-1.482 7.174-3.893 9.698l-.24.218c-.752 3.264-1.882 9.954-.765 17.345l.033.27a151.465 151.465 0 0 0 5.158 3.54c4.687 3.007 9.851 5.564 15.254 7.738l.041-.227c.656-9.743 3.576-19.06 8.842-26.678l-.033-.53c0-2.958.92-5.706 2.488-7.973l-.105.015zM295.257 667.598c-2.19.13-3.913 1.491-5.165 2.996l-.205.38c.122.592.186 1.205.186 1.833 0 5.019-4.083 9.102-9.102 9.102-5.02 0-9.102-4.083-9.102-9.102 0-.927.139-1.822.398-2.666l.06-.26c-.64-1.755-1.775-3.701-3.701-4.048a6.75 6.75 0 0 0-1.363-.111l-.536.041c.435 1.354.67 2.797.67 4.294 0 5.787-3.516 10.767-8.524 12.918l-.388.178c-4.098 5.569-5.777 13.301-5.213 21.237l.28.09c18.223 4.043 35.5 5.025 43.669 5.258 0 0 .458-.015.55.053v-27.07l-.17-.224a13.979 13.979 0 0 1-2.865-8.495c0-2.27.54-4.414 1.5-6.313l-.98-.09zM240.936 645.343c-3.672.345-6.948 2.03-9.734 4.205l-.327.238c-1.393-3.405-3.462-6.355-6.504-8.03l.079-.297c4.929 1.338 10.847 2.636 17.466 3.823l-.98.061zM266.466 648.767a375.967 375.967 0 0 1-19.246-2.581l.297.192c3.618 1.63 6.444 4.862 8.577 8.222l.156-.175c2.746-2.924 6.382-5.186 11.096-5.537zM291.914 650.922c-3.708.902-6.824 3.283-9.394 6.237l-.346.484c-2.112-3.552-4.86-6.48-8.327-7.881l-1.005-.352c6.44.598 13.075 1.062 19.754 1.355zM309.022 658.072c2.522-2.984 5.675-5.69 9.377-6.888l.697-.206c-3.443.098-6.887.147-10.31.144-3.218.003-6.454-.04-9.69-.127l-.627-.019c4.13 1.098 7.607 4.098 10.323 7.384l.23-.288zM344.014 649.65c-3.482 1.307-6.251 4.143-8.391 7.625l-.194.323c-2.527-3.021-5.603-5.508-9.273-6.546l-1.102-.29a406.763 406.763 0 0 0 19.662-1.35zM369.914 646.444c-3.434 1.595-6.146 4.632-8.224 7.829l-.246.281c-2.515-2.722-5.792-4.894-9.975-5.527l-1.03-.188a377.053 377.053 0 0 0 20.246-2.707zM386.227 649.436c-2.67-2.056-5.784-3.654-9.26-4.058l-1.085-.135c6.393-1.153 12.127-2.409 16.938-3.702l.283-.111.11.348-.275.13c-2.89 1.694-4.876 4.559-6.228 7.853z" style="fill:#e51a25;fill-opacity:1;fill-rule:nonzero;stroke:none" transform="matrix(1.37777 0 0 -1.37777 -128.428 1093.853)"/><path d="M293.374 230.79h-10.045v20.2h4.582l5.4-19.957.063-.243m-10.045-31.702v25.563l.017.239h33.143l-7.702-28.428-5.77 21.3-.046.17h-6.126l.104-.332 8.757-32.33c4.298-.163 6.166.017 6.166.017L322.6 224.89h2.809l.204-.013 10.92-24.075.194.148a45.275 45.275 0 0 1 4.21 3.849l.171.198-9.437 20.808.174.069c6.732 2.357 9.626 8.606 9.626 14.934 0 5.93-3.745 11.93-10.47 14.619l-.121.029 4.396 16.229.149-.091a45.063 45.063 0 0 0 9.863-10.118l3.969 4.607a50.787 50.787 0 0 1-17.432 14.704l-.173.086-6.524-24.084-.095.017c-.69.058-1.4.088-2.129.085h-24.016l1.564-5.9h22.452c.178 0 .654.004.654.004l-4.103-15.146-.047-.166h6.125l.048.212 3.747 13.83.14-.058a11.367 11.367 0 0 0 3.22-2.234c1.832-1.825 2.882-4.24 2.882-6.625 0-3.728-1.287-9.985-9.912-10.017h-26.166l-.075.262-12.693 46.858-.817 2.956a50.773 50.773 0 0 1-17.59-14.784l3.97-4.607a45.026 45.026 0 0 0 9.858 10.114l.15.106 4.013-14.814-.295.009h-8.584v-52.896l.074-.07a44.916 44.916 0 0 1 5.718-4.759l.108-.077z" style="fill:#572389;fill-opacity:1;fill-rule:nonzero;stroke:none" transform="matrix(1.37777 0 0 -1.37777 -128.428 1093.853)"/><path d="M212.976 617.605c13.672-5.319 42.25-15.356 87.12-26.048 85.333-20.334 152-28 152-28s-80-12.334-198.667-4.334c-94.528 6.373-137.023 16.764-150.4 20.728l-.692.19c.643 5.242 1.558 9.143 2.948 11.607 1.959 3.472 5.504 5.027 14.046 8.52l1.325.543c13.6 5.576 48.247 12.458 91.432 17.131zM125.095 327.484c37.511 5.29 61.334 12.406 61.334 12.406s-23.334 4-44.667 12c-12.329 4.623-20.762 8.69-25.683 11.3l-1.238.68a600.664 600.664 0 0 1 9.02-36.662zM114.76 372.082c9.855.39 29.534 1.568 58.336 5.14 43 5.334 76.333 15.668 76.333 15.668s-42 4.667-86.667 13c-30.875 5.76-48.53 11.36-56.49 14.27l-.878.23c1.917-15.557 4.452-31.764 7.775-48.418zM105.929 427.115c15.112.26 42.8 1.423 89.5 5.442 81.334 7 123.667 19.666 123.667 19.666s-71.667.667-137 14.667c-49.822 10.676-72.893 18.638-81.04 21.818l-.81.181c.554-18.778 1.835-39.597 4.359-61.84l1.324.066zM102.65 572.33c12.218-5.997 45.742-20.74 111.78-38.773 86.666-23.667 169.999-28.667 169.999-28.667s-48.665-10.392-158-12.333c-86.04-1.528-116.094 2.583-125.494 4.61l-.895.14c-.518 27.106.407 49.448 1.05 64.97.159 3.83.338 7.345.564 10.533z" style="fill:#f1cb10;fill-opacity:1;fill-rule:nonzero;stroke:none" transform="matrix(1.37777 0 0 -1.37777 -128.428 1093.853)"/></svg>