<svg xmlns="http://www.w3.org/2000/svg" id="Livello_1" viewBox="0 0 151.4 248.8"><defs><style>.cls-1{fill:#fff}.cls-2{fill:#1d1d1b}</style></defs><path d="M75.7 0c41.8 0 75.7 55.7 75.7 124.4s-33.9 124.4-75.7 124.4S0 193.1 0 124.4 33.9 0 75.7 0" class="cls-1"/><path d="M21.5 194.9c12.5 27.5 32.2 45.2 54.2 45.2 37.7 0 68.4-52 68.4-115.8 0-25.1-4.8-48.4-12.8-67.4L130 54C117.4 26.4 97.8 8.6 75.7 8.6 38 8.6 7.3 60.6 7.3 124.4c0 25.2 4.8 48.6 12.9 67.6z" class="cls-1"/><path d="M75.7 8.6c22.1 0 41.7 17.8 54.3 45.4L20.3 192c-8.1-19-12.9-42.4-12.9-67.6C7.3 60.6 38 8.6 75.7 8.6" style="fill:#0067b2"/><path d="M131.2 57c8.1 19 12.8 42.3 12.8 67.4 0 63.8-30.7 115.8-68.4 115.8-22 0-41.6-17.7-54.2-45.2z" class="cls-2"/><path d="M136.9 127c0 .2-.4.9-.7 1.3-6.4 8.2-17.3 11.2-28.9 9.2-12.7-2.2-23.3-11-37.9-13.9-.9-.4.7-.9 1-1 1.5-.5 4.9-.1 6.9.3 11.3 2 21.9 8.2 33 9.5 10.6 1.3 18.1-2.1 26-5.5.3-.2.5-.1.6.1" class="cls-2"/><path d="M135.6 115.4c.1.1 0 .3-.1.5-8.1 15.5-32 10-49.9 2.1-2-.9-4-2-6-2.7-4.6-1.5-9.1-1.6-13-2.5-.2 0-.7-.1-.7-.2s.8-.5 1.7-.9c4.9-2.4 11.7-1.2 18.4.9 7.1 2.2 14.1 5.8 21.1 7.6 11.8 3 20.4-.5 28.4-4.7q0-.1.1-.1" class="cls-2"/><path d="M133.2 105.2c.2.2 0 .4 0 .4-4.8 7.3-15 10.2-25.2 8.4-3.8-.7-7.7-2.3-11.7-3.8-10.6-4-23.2-9.5-34.4-7.7-.4-.3.6-1.1.8-1.2 3.5-2.9 10-4.2 15.8-3.3 11.2 1.8 21.9 9.8 32.9 11.7 8.7 1.4 14.6-1.9 21.1-4.4.1-.1.6-.2.7-.1" class="cls-2"/><path d="M129.9 96.5c0 .2-.3.5-.3.5-5.7 5.7-14 8-23.6 5.7-9.3-2.2-17.1-8.7-26.6-11.1-7-1.8-13.4-1.4-20.1-.9.7-1.9 3-3.6 4.9-4.5 9.5-4.4 21.2.8 31.1 5.7 4.5 2.3 9.3 4.9 13.8 6 8.1 2 13.9-.4 20.5-1.7-.1.1.2.2.3.3m1.9 52c-6.1 10.7-26.4 12.4-39.5 3.4-2.4-1.6-4.7-3.5-6-5.8-.1-.1-.1-.2-.1-.2s.2 0 .3.1c5.9 2 11.1 5.1 17.3 6.6 10.9 2.7 20.3-.2 27.4-4.5 0 0 .4-.2.6-.1.1.1 0 .5 0 .5" class="cls-2"/><path d="M135.5 137.7c-10.3 16.2-43.5 10.6-58.4-2.9 0 0-.6-.5-.5-.6s.9.2.9.2c10.4 3.6 22 7 32.2 7.9 10.4 1 18.9-1.3 25.7-5.4 0 0 .3-.2.4-.1s-.1.4-.3.9" class="cls-2"/><path d="M136.2 128.2c-6.4 8.2-17.3 11.2-28.9 9.2-12.7-2.2-23.3-11-37.9-13.9-.4-.2-.3-.4-.1-.5.3-.2.9-.4 1-.4 1.5-.5 4.9-.1 6.9.3 11.3 2 21.9 8.2 33 9.5 10.6 1.3 18.1-2.1 26-5.5.4-.2.7-.2.7 0s-.4.9-.7 1.3m-.7 9.5c-10.3 16.2-43.5 10.6-58.4-2.9 0 0-.6-.5-.5-.6s.8.2.8.2c10.4 3.6 22 7 32.2 7.9 10.4 1 18.9-1.3 25.7-5.4 0 0 .3-.2.4-.1s0 .4-.2.9m-3.7 10.8c-6.1 10.7-26.4 12.4-39.5 3.4-.2-.1-.3-.2-.5-.3-.1 0-.1-.1-.2-.1-.1-.1-.2-.1-.3-.2-.1 0-.1-.1-.2-.1-.1-.1-.2-.1-.3-.2-.1 0-.1-.1-.2-.1-.1-.1-.2-.1-.3-.2-.1 0-.1-.1-.2-.2s-.2-.1-.2-.2l-.2-.2c-.1-.1-.2-.1-.2-.2l-.2-.2c-.1-.1-.2-.1-.2-.2l-.2-.2-.2-.2-.2-.2-.2-.2-.2-.2-.2-.2-.2-.2-.2-.2-.2-.2-.2-.2c0-.1-.1-.1-.1-.2l-.2-.2c0-.1-.1-.1-.1-.2l-.2-.2c0-.1-.1-.1-.1-.2s-.1-.2-.1-.2c0-.1-.1-.1-.1-.2v-.2c0-.1-.1-.1-.1-.2q.1 0 .2.1.1 0 .2.1c.1 0 .3.1.4.2.2.1.3.1.5.2s.4.1.6.2.3.1.5.2.4.2.6.2c.2.1.3.1.5.2s.4.2.6.2c.2.1.3.1.5.2l.6.3c.2.1.3.1.5.2s.4.2.7.3c.1.1.3.1.4.2.3.1.6.3 1 .4.2.1.3.1.5.2l.6.3c.2.1.3.1.5.2s.4.2.6.2c.2.1.4.2.5.2.2.1.4.1.5.2.2.1.4.1.6.2s.3.1.5.2.4.1.6.2.3.1.5.2.4.1.6.2.3.1.5.2.4.1.6.2.3.1.5.2.5.1.7.2c.1 0 .3.1.4.1l1.2.3c11 2.7 20.3-.2 27.4-4.5 0 0 .4-.2.6-.1.1.3 0 .7 0 .7m-56.5 36.3H75c-.6 0-1.1 0-1.7-.1-8.1-.4-16-2.4-23.2-5.9-7-3.4-13.3-8.1-18.5-13.9-5.3-5.8-9.3-12.5-11.9-19.8-2.8-7.6-4-15.6-3.5-23.7.4-8.1 2.4-16 5.9-23.2 3.4-7 8.1-13.2 13.9-18.5s12.5-9.3 19.8-11.9c7.6-2.8 15.6-4 23.7-3.6s16 2.4 23.2 5.9c7 3.4 13.3 8.1 18.5 13.9 1.7 1.9 3.3 3.8 4.7 5.9-3.8 1.6-7.4 3.2-11.6 2.7-5.9-.6-12.5-3.5-18.7-6.5-13.6-6.6-28.7-12.2-38.7-2.8-.9.8-2.2 2.4-2.9 3.8-.5 1.1-.5 2.6-1.2 4-1.3 2.5-4.3 4.3-6.2 6.8-1 1.3-1.9 2.6-2.7 4.1-1.1 2.2-2 5.5-3.3 7.5-1.2 1.9-3.6 4.2-5.5 6-1.6 1.5-5.1 3.7-5.5 6-.5 2.7 2.9 3.7 2.8 5.9 0 1.7-2 3.1-2.3 4.4-.3 1.7.4 1.9 1.3 3.7-.2 1-1.4.5-1.4 1.8.3 1.6 1.4 2.2 1.3 4.4-.1 2.4-1.7 4.4-1.6 6.3.4 5 12.4 5.6 18.4 7.6 8.2 2.7 12.6 8.9 16.8 14.4 1.1 1.5 2.7 3.4 4 5.3.6.9 2.7 4.6 4.5 7.1 17.8-.3 32.9-6 46.9-20.3h3.2C109 177.6 93.3 184 75.3 184.8m54.6-88.3c0 .2-.3.5-.3.5-5.7 5.7-14 8-23.6 5.7-9.3-2.2-17.1-8.7-26.6-11.1-7-1.8-13.4-1.4-20.1-.9.7-1.9 3-3.6 4.9-4.5 9.5-4.4 21.2.8 31.1 5.7 4.5 2.3 9.3 4.9 13.8 6 8.1 2 13.9-.4 20.5-1.7-.1.1.2.2.3.3m3.3 8.7c.2.2 0 .4 0 .4-4.8 7.3-15 10.2-25.2 8.4-3.8-.7-7.7-2.3-11.7-3.8-10.6-4-23.2-9.5-34.4-7.7-.4-.3.6-1.1.8-1.2 3.5-2.9 10-4.2 15.8-3.3 11.2 1.8 21.9 9.8 32.9 11.7 8.7 1.4 14.6-1.9 21.1-4.4.1-.1.6-.2.7-.1m2.4 10.2c.1.1 0 .3-.1.5-8.1 15.5-32 10-49.9 2.1-2-.9-4-2-6-2.7l-.9-.3c-.1 0-.2-.1-.3-.1-.2-.1-.4-.1-.6-.2-.1 0-.2-.1-.4-.1s-.3-.1-.5-.1c-.1 0-.3-.1-.4-.1-.2 0-.3-.1-.5-.1-.1 0-.3-.1-.4-.1-.2 0-.3-.1-.5-.1-.1 0-.3 0-.4-.1-.2 0-.3-.1-.5-.1-.1 0-.3 0-.4-.1-.1 0-.3 0-.4-.1-.1 0-.3 0-.4-.1-.1 0-.3 0-.4-.1-.2 0-.3 0-.5-.1-.1 0-.3 0-.4-.1-.3 0-.5-.1-.8-.1h-.3c-.2 0-.4-.1-.6-.1h-.3c-.2 0-.3 0-.5-.1h-.3c-.2 0-.3-.1-.5-.1-.1 0-.2 0-.3-.1-.2 0-.3-.1-.5-.1-.1 0-.2 0-.3-.1-.2 0-.3-.1-.5-.1-.1 0-.2 0-.3-.1h-.1c-.1 0-.4-.1-.6-.1h-.1l-.1-.1c0-.1.8-.5 1.7-.9.1 0 .2-.1.2-.1s.1 0 .1-.1c4-1.8 9.1-1.3 14.5.1h.1c.2 0 .4.1.6.1h.1c.2 0 .3.1.5.1q.1 0 .2.1c.2 0 .3.1.5.1q.1 0 .2.1c.2 0 .3.1.5.1q.1 0 .2.1c.2.1.5.1.7.2 7.1 2.2 14.1 5.8 21.1 7.6 11.8 3 20.4-.5 28.4-4.7q.3.4.4.4m-56.5-58C42.4 55.6 11.2 84 9.3 121s26.3 68.4 63 70.3 67.9-26.6 69.8-63.6-26.4-68.4-63-70.3M36 58.7l3.4 2.8 1.8-1.2-12-9.4-1.8 1.2 3.3 15.3 1.7-1.1-1-4.4zm-5.2 1.4-1.5-6.7 5.2 4.2z" class="cls-1"/><path d="m36 58.7 3.4 2.8 1.8-1.2-12-9.4-1.8 1.2 3.3 15.3 1.7-1.1-1-4.4zm-5.2 1.4-1.5-6.7 5.2 4.2zm2.7-12.6 10.5-5 .7 1.6-4.4 2 5.3 11.7-1.7.9L38.6 47l-4.4 2.1z" class="cls-1"/><path d="m33.5 47.5 10.5-5 .7 1.6-4.4 2 5.3 11.7-1.7.9L38.6 47l-4.4 2.1zm23.4 1.7 2.5 3.7 2-.6-8.8-12.6-2.1.6-1.3 15.5 1.9-.6.3-4.5zm-5.4-.3.5-6.8 3.7 5.6z" class="cls-1"/><path d="m56.9 49.2 2.5 3.7 2-.6-8.8-12.6-2.1.6-1.3 15.5 1.9-.6.3-4.5zm-5.4-.3.5-6.8 3.7 5.6zm13.5.7 7.1-.9.2 1.8-9 1.1-1.7-14.5 1.9-.2z" class="cls-1"/><path d="m65 49.6 7.1-.9.2 1.8-9 1.1-1.7-14.5 1.9-.2zM83.5 47l1 4.4 2.1.2-3.8-15-2.2-.2L74 50.5l2 .2 1.9-4.1zm-5-2.3 2.8-6.2 1.5 6.6z" class="cls-1"/><path d="m83.5 47 1 4.4 2.1.2-3.8-15-2.2-.2L74 50.5l2 .2 1.9-4.1zm-5-2.3 2.8-6.2 1.5 6.6zm23.1-4.4 1.8.5-4.1 14-2-.6-3.7-13.4-3.3 11.3-1.8-.6 4.1-14 2.2.7 3.5 13.4z" class="cls-1"/><path d="m101.6 40.3 1.8.5-4.1 14-2-.6-3.7-13.4-3.3 11.3-1.8-.6 4.1-14 2.2.7 3.5 13.4zm4.2 1.3 10.5 5-.8 1.6-4.3-2.1-5.3 11.7-1.7-.8 5.2-11.7-4.3-2.1z" class="cls-1"/><path d="m105.8 41.6 10.5 5-.8 1.6-4.3-2.1-5.3 11.7-1.7-.8 5.2-11.7-4.3-2.1zm12.3 18.9-1.1 4.3 1.7 1.2 3.6-15.1-1.8-1.3-12.3 9.2 1.6 1.1 3.5-2.7zm-3.3-4.4 5.4-4-1.7 6.5z" class="cls-1"/><path d="m118.1 60.5-1.1 4.3 1.7 1.2 3.6-15.1-1.8-1.3-12.3 9.2 1.6 1.1 3.5-2.7zm-3.3-4.4 5.4-4-1.7 6.5zM48.9 212l-2.3-.7 3.8-12.4-4-1.3.5-1.7c2.8.7 4 .8 5.6-1.8l1.7.5zm14.4-2.4c1.6.2 3.5-.4 4.3-1.7v.1c-1.1 4.6-2.6 6.6-5 6.2-1.8-.2-2.7-1.5-2.6-3.3l-2.2-.3c-.2 1.8.5 5 4.7 5.5 6.1.8 7.4-7.5 7.6-9.4.3-2.9.4-8.5-5.2-9.2-3.7-.5-6 2.2-6.4 5.5-.5 3.6 1.5 6.1 4.8 6.6m.5-2c-1.5-.2-3.5-.9-3.1-4.4.3-2.4 1.8-3.9 3.9-3.6 2.5.3 3.3 2.3 3.1 4.3-.4 3.5-2.7 3.8-3.9 3.7" class="cls-1"/><path d="M63.3 209.6c1.6.2 3.5-.4 4.3-1.7v.1c-1.1 4.6-2.6 6.6-5 6.2-1.8-.2-2.7-1.5-2.6-3.3l-2.2-.3c-.2 1.8.5 5 4.7 5.5 6.1.8 7.4-7.5 7.6-9.4.3-2.9.4-8.5-5.2-9.2-3.7-.5-6 2.2-6.4 5.5-.5 3.6 1.5 6.1 4.8 6.6m.5-2c-1.5-.2-3.5-.9-3.1-4.4.3-2.4 1.8-3.9 3.9-3.6 2.5.3 3.3 2.3 3.1 4.3-.4 3.5-2.7 3.8-3.9 3.7m24.2-.5c-.2-3.8-1.5-9.3-6.6-9s-5.7 6-5.5 9.7c.2 3.8 1.5 9.3 6.6 9 5-.3 5.7-5.9 5.5-9.7m-2.4.1c.3 4.6-.7 7.4-3.3 7.5-2.5.2-3.9-2.5-4.1-7.1-.3-4.6.7-7.4 3.3-7.5 2.5-.1 3.8 2.6 4.1 7.1" class="cls-1"/><path d="M88 207.1c-.2-3.8-1.5-9.3-6.6-9s-5.7 6-5.5 9.7c.2 3.8 1.5 9.3 6.6 9 5-.3 5.7-5.9 5.5-9.7m-2.4.1c.3 4.6-.7 7.4-3.3 7.5-2.5.2-3.9-2.5-4.1-7.1-.3-4.6.7-7.4 3.3-7.5 2.5-.1 3.8 2.6 4.1 7.1m5.2-10.2 11.8-3.5.5 1.9c-1.2 2.3-3.7 9.1-2.8 17.3l-2.4.7c-.8-5 .6-12.2 2.8-17.1l-9.4 2.8z" class="cls-1"/><path d="m90.8 197 11.8-3.5.5 1.9c-1.2 2.3-3.7 9.1-2.8 17.3l-2.4.7c-.8-5 .6-12.2 2.8-17.1l-9.4 2.8z" class="cls-1"/></svg>