<svg xmlns="http://www.w3.org/2000/svg" xml:space="preserve" width="463.752px" height="500px" x="0px" y="0px" viewBox="0 0 463.752 500"><path fill="#221C35" d="M108.623 170.17V10.885H76.865l-.449 102.46c0 41.362 15.615 62.228 34.308 77.017a97.153 97.153 0 0 1-2.101-20.192m115.822 84.599v82.34c0 42.789-25.82 96.086-79.269 102.988 0 0-9.611-4.729-20.489-12.008 24.241 1.803 77.987-25.899 77.987-100.808v-59.005c-42.26-8.032-74.685-30.476-87.974-64.856-49.843-25.523-60.873-76.64-60.873-108.616V0h78.74v165.288c-.08 52.4 41.963 85.874 91.878 89.481m128.663-64.407c18.613-14.789 34.3-35.655 34.3-77.017l-.449-102.46h-31.751V170.17c0 7.054-.753 13.811-2.1 20.192m-21.771-24.994V.072h78.74v94.732c0 32.055-11.03 83.173-60.873 108.616-13.362 34.38-45.794 56.904-87.982 64.856v59.005c0 74.909 53.747 102.612 77.995 100.808-10.886 7.279-20.489 12.008-20.489 12.008-53.37-6.902-79.269-60.199-79.269-102.988v-82.34c49.842-3.607 91.878-37.081 91.878-89.401m87.221-34.909c-1.572 6.685-3.527 13.138-5.924 19.294 20.112 32.504 31.751 70.781 31.751 111.766 0 117.328-95.108 212.509-212.509 212.509s-212.43-95.108-212.43-212.43c0-40.985 11.631-79.269 31.671-111.701-2.397-6.228-4.353-12.681-5.924-19.287C16.817 169.04 0 216.63 0 268.124 0 396.186 103.814 500 231.876 500s231.876-103.814 231.876-231.876c.072-51.566-16.745-99.157-45.194-137.665M231.876 49.09c-29.651 0-57.875 6.084-83.549 17.042V51.639a232.128 232.128 0 0 1 83.549-15.535c29.499 0 57.723 5.555 83.694 15.615v14.485c-25.595-11.031-53.891-17.114-83.694-17.114"/><g fill="#FF0B32"><path d="M189.915 81.367h-.898c-7.583 0-10.589 3.455-10.589 11.711v43.086c0 8.409 3.006 11.863 10.589 11.863h.898c7.279 0 10.509-3.607 10.509-11.262v-14.412h-7.054v14.862c0 2.781-1.275 4.432-3.527 4.432h-.601c-2.405 0-3.607-1.506-3.607-4.505V92.253c0-2.854 1.202-4.432 3.607-4.432h.601c2.252 0 3.527 1.507 3.527 4.432v13.811h7.054V92.702c-.073-7.656-3.23-11.335-10.509-11.335M213.861 92.251c0-2.853 1.275-4.425 3.679-4.425h.746c2.252 0 3.534 1.499 3.534 4.425v44.969c0 2.774-1.282 4.425-3.534 4.425h-.746c-2.405 0-3.679-1.499-3.679-4.425V92.251zm3.527 55.774h.978c7.279 0 10.581-3.599 10.581-11.262V92.7c0-7.655-3.23-11.255-10.581-11.255h-.978c-7.431 0-10.661 3.527-10.661 11.255v44.063c0 7.735 3.302 11.262 10.661 11.262M243.436 88.871h3.527c2.701 0 3.527.905 3.527 3.904v19.222c0 2.998-.971 3.904-3.904 3.904h-3.15v-27.03zm0 33.707h3.15c7.655 0 10.965-3.005 10.965-10.806v-19.07c0-7.655-3.006-10.436-10.364-10.436h-10.733v65.009h7.054v-24.697h-.072zM270.157 127.836l2.557-32.584.297-7.655h.753l.297 7.655 2.557 32.584h-6.461zm9.835-45.642h-12.986l-5.33 65.009h7.054l.978-12.841h7.206l.978 12.841h7.503l-5.403-65.009zM211.009 192.16c0 1.13-.225 1.955-.601 2.405-.377.449-1.13.673-2.18.673h-1.651v-16.361h2.18c.898 0 1.427.152 1.803.522.297.377.449 1.13.449 2.18v10.581zm5.403 4.881c.753-1.202 1.202-3.078 1.202-5.555v-10.212c0-3.223-.601-5.403-1.876-6.678-1.202-1.275-3.455-1.876-6.605-1.876h-9.234v49.394h6.678v-24.849h.529l4.577 24.849h7.279l-4.729-23.27a5.211 5.211 0 0 0 2.179-1.803M231.05 197.867h5.707v-5.852h-5.707v-12.986h7.279v-6.308h-14.036v49.394h14.492v-6.308h-7.735zM258.373 172.72l-3.23 22.669-.225 4.505h-.673l-.152-4.505-3.223-22.669h-6.837l6.837 37.459v11.935h7.206v-11.935l6.83-37.459zM222.269 160.111c0 1.579-1.13 2.405-3.078 2.405h-2.781v-5.034h2.781c2.028 0 3.078.826 3.078 2.405v.224zm-2.854-4.505h-5.178v8.706h5.178c3.23 0 5.026-1.499 5.026-4.28v-.145c0-2.782-1.796-4.281-5.026-4.281M237.956 157.483v-1.876h-9.386v8.785h9.458v-1.883h-7.278v-1.724h6.308v-1.803h-6.308v-1.499zM251.918 162.512h-6.909v-6.909h-2.173v8.785h9.082z"/></g></svg>