<svg xmlns="http://www.w3.org/2000/svg" width="282.22223mm" height="98.37484mm" viewBox="0 0 999.99997 348.57226"><path d="m264.038 640.218-22.081 78.04h252.1l22.082-78.04H264.038zM227.604 768.983l-21.713 76.737-40.114 141.77h116.255l40.114-141.77h135.846l21.713-76.737H227.604z" style="opacity:1;fill:#c5000c;fill-opacity:1;stroke:none;stroke-width:.58899999;stroke-miterlimit:4;stroke-dasharray:none" transform="translate(174.645 -640.218)"/><path d="m-89.393 642.742-.475 1.2-1.763.017-4.29 15.933a4285.735 4285.735 0 0 1-5.24 19.29c-1.33 4.75-2.982 10.748-4.709 17.04l-1.603 5.778a26309.72 26309.72 0 0 0-7.247 26.176c-5.6 20.272-7.985 28.827-10.15 36.417-4.505 15.782-11.269 40.151-17.06 61.456-6.357 23.386-7.562 27.75-19.494 70.558-4.007 14.377-6.67 24.18-8.336 31.385-7.914 29.845-6.34 42.708 5.654 50.324 14.593 9.267 29.07 10.49 120.315 10.162 1.959-.007 3.816-.025 5.75-.035 1.93.01 3.776.028 5.731.035 91.062.329 106.216-.895 125.94-10.162 16.21-7.616 24.904-20.48 33.514-50.328 2.322-7.204 5.09-17.007 9.04-31.38 11.768-42.81 12.979-47.173 19.569-70.56 6.003-21.304 12.728-45.673 16.961-61.455 2.036-7.59 4.388-16.145 10.011-36.417 2.084-7.512 5.344-19.291 7.245-26.176l1.627-5.89a3717.112 3717.112 0 0 0 4.696-16.942 4330.136 4330.136 0 0 1 5.435-19.276l4.533-15.933-1.753-.018.19-1.2-57.462.606c-34.612-.358-48.74-.4-54.688.575l-3.549.037-.458 1.63c-.266.349-.43.736-.55 1.176a28895.57 28895.57 0 0 1-11.765 42.717l-1.804 6.535c-1.986 7.132-3.501 12.57-7.05 25.33a62823.98 62823.98 0 0 1-15.222 54.627c-13.846 49.57-17.384 62.436-23.788 86.493-4.305 16.172-7.51 27.287-10.042 34.664-2.304 5.215-4.732 8.275-8.016 10.812-2.034 1.571-3.755 2.593-6.347 3.24-4.399.496-10.37.797-18.224.912-.985.015-1.74.019-2.65.03-.902-.011-1.654-.015-2.63-.03-7.79-.115-13.594-.416-17.718-.912-2.234-.647-3.39-1.669-4.555-3.24-1.879-2.535-2.614-5.593-2.034-10.803 1.552-7.376 4.502-18.494 9.152-34.673 6.914-24.057 10.5-36.924 24.096-86.493 3.433-12.518 10.193-37.1 15.021-54.627 3.582-13.004 5.126-18.623 7.104-25.814l1.682-6.05c5.91-21.283 11.257-40.506 11.883-42.718.126-.445.184-.839.107-1.19l.44-1.616-3.528-.037c-5.407-.975-19.556-.933-54.37-.575l-57.126-.605zM526.155 985.444c-21.126-5.793-36.303-18.954-40.181-34.842-2.586-10.595-.662-18.966 26.788-116.587 6.999-24.889 15.6-55.755 20.615-73.974 1.034-3.755 4.03-14.51 6.657-23.899a4504.86 4504.86 0 0 0 9.158-33.307c10.497-38.899 24.678-51.918 62.548-57.424 26.241-3.816 215.08-3.59 213.607.255-.6 1.565-5.453 18.21-10.784 36.987-5.332 18.778-9.925 34.404-10.207 34.725-.282.32-32.384.833-71.336 1.138-82.043.643-76.427-1.049-83.505 25.156a3561.62 3561.62 0 0 1-8.92 32.302 8041.585 8041.585 0 0 0-15.86 56.903 20039.595 20039.595 0 0 1-10.707 38.694c-8.285 29.805-8.541 32.248-3.867 36.903 3.719 3.704 10.513 4.124 76.139 4.71 39.63.355 72.344.933 72.698 1.285.595.592-4.99 21.656-15.633 58.958l-4.383 15.364-101.054-.204c-74.972-.15-103.82-.962-111.773-3.143z" style="fill:#c5000c;fill-opacity:1" transform="translate(174.645 -640.218)"/></svg>